<svg width="73" height="73" viewBox="0 0 73 73" fill="none" xmlns="http://www.w3.org/2000/svg">
<mask id="mask0_1860_8243" style="mask-type:luminance" maskUnits="userSpaceOnUse" x="0" y="0" width="73" height="73">
<path d="M36.5 73C56.6584 73 73 56.6584 73 36.5C73 16.3416 56.6584 0 36.5 0C16.3416 0 0 16.3416 0 36.5C0 56.6584 16.3416 73 36.5 73Z" fill="white"/>
</mask>
<g mask="url(#mask0_1860_8243)">
<path d="M73 0H0V0.319375H73V0Z" fill="#FCFEFE"/>
<path d="M73 0.319336H0V0.896036H73V0.319336Z" fill="#FBFDFE"/>
<path d="M73 0.895996H0V1.4727H73V0.895996Z" fill="#FAFDFE"/>
<path d="M73 1.47168H0V2.04838H73V1.47168Z" fill="#F9FCFE"/>
<path d="M73 2.04834H0V2.62504H73V2.04834Z" fill="#F8FCFD"/>
<path d="M73 2.625H0V3.2017H73V2.625Z" fill="#F7FCFD"/>
<path d="M73 3.20215H0V3.77885H73V3.20215Z" fill="#F6FBFD"/>
<path d="M73 3.77881H0V4.35551H73V3.77881Z" fill="#F5FBFD"/>
<path d="M73 4.35547H0V4.93217H73V4.35547Z" fill="#F4FAFC"/>
<path d="M73 4.93213H0V5.50883H73V4.93213Z" fill="#F3FAFC"/>
<path d="M73 5.50781H0V6.08451H73V5.50781Z" fill="#F2F9FC"/>
<path d="M73 6.08447H0V6.66117H73V6.08447Z" fill="#F1F9FC"/>
<path d="M73 6.66113H0V7.23783H73V6.66113Z" fill="#F0F9FB"/>
<path d="M73 7.23779H0V7.81449H73V7.23779Z" fill="#EFF8FB"/>
<path d="M73 7.81445H0V8.39115H73V7.81445Z" fill="#EEF8FB"/>
<path d="M73 8.39111H0V8.96781H73V8.39111Z" fill="#EDF7FB"/>
<path d="M73 8.96826H0V9.54496H73V8.96826Z" fill="#ECF7FA"/>
<path d="M73 9.54395H0V10.1206H73V9.54395Z" fill="#EBF6FA"/>
<path d="M73 10.1206H0V10.6973H73V10.1206Z" fill="#EAF6FA"/>
<path d="M73 10.6973H0V11.274H73V10.6973Z" fill="#E9F6FA"/>
<path d="M73 11.2739H0V11.8506H73V11.2739Z" fill="#E8F5F9"/>
<path d="M73 11.8506H0V12.4273H73V11.8506Z" fill="#E7F5F9"/>
<path d="M73 12.4272H0V13.0039H73V12.4272Z" fill="#E6F4F9"/>
<path d="M73 13.0039H0V13.5806H73V13.0039Z" fill="#E5F4F9"/>
<path d="M73 13.5801H0V14.1568H73V13.5801Z" fill="#E4F3F8"/>
<path d="M73 14.1562H0V14.733H73V14.1562Z" fill="#E3F3F8"/>
<path d="M73 14.7334H0V15.3101H73V14.7334Z" fill="#E2F3F8"/>
<path d="M73 15.3101H0V15.8868H73V15.3101Z" fill="#E1F2F8"/>
<path d="M73 15.8867H0V16.4634H73V15.8867Z" fill="#E0F2F7"/>
<path d="M73 16.4634H0V17.0401H73V16.4634Z" fill="#DFF1F7"/>
<path d="M73 17.0391H0V17.6158H73V17.0391Z" fill="#DEF1F7"/>
<path d="M73 17.6157H0V18.1924H73V17.6157Z" fill="#DDF0F7"/>
<path d="M73 18.1924H0V18.7691H73V18.1924Z" fill="#DCF0F6"/>
<path d="M73 18.769H0V19.3457H73V18.769Z" fill="#DBF0F6"/>
<path d="M73 19.3457H0V19.9224H73V19.3457Z" fill="#DAEFF6"/>
<path d="M73 19.9229H0V20.4996H73V19.9229Z" fill="#D9EFF6"/>
<path d="M73 20.4995H0V21.0762H73V20.4995Z" fill="#D8EEF5"/>
<path d="M73 21.0752H0V21.6519H73V21.0752Z" fill="#D7EEF5"/>
<path d="M73 21.6519H0V22.2286H73V21.6519Z" fill="#D6EDF5"/>
<path d="M73 22.2285H0V22.8052H73V22.2285Z" fill="#D5EDF5"/>
<path d="M73 22.8052H0V23.3819H73V22.8052Z" fill="#D4EDF4"/>
<path d="M73 23.3818H0V23.9585H73V23.3818Z" fill="#D3ECF4"/>
<path d="M73 23.9585H0V24.5352H73V23.9585Z" fill="#D2ECF4"/>
<path d="M73 24.5352H0V25.1119H73V24.5352Z" fill="#D1EBF4"/>
<path d="M73 25.1113H0V25.688H73V25.1113Z" fill="#D0EBF3"/>
<path d="M73 25.688H0V26.2647H73V25.688Z" fill="#CFEAF3"/>
<path d="M73 26.2646H0V26.8413H73V26.2646Z" fill="#CEEAF3"/>
<path d="M73 26.8413H0V27.418H73V26.8413Z" fill="#CDEAF3"/>
<path d="M73 27.418H0V27.9947H73V27.418Z" fill="#CCE9F2"/>
<path d="M73 27.9946H0V28.5713H73V27.9946Z" fill="#CBE9F2"/>
<path d="M73 28.5713H0V29.148H73V28.5713Z" fill="#CAE8F2"/>
<path d="M73 29.147H0V29.7237H73V29.147Z" fill="#C9E8F2"/>
<path d="M73 29.7236H0V30.3003H73V29.7236Z" fill="#C8E7F1"/>
<path d="M73 30.3003H0V30.877H73V30.3003Z" fill="#C7E7F1"/>
<path d="M73 30.877H0V31.4537H73V30.877Z" fill="#C6E7F1"/>
<path d="M73 31.4541H0V32.0308H73V31.4541Z" fill="#C5E6F1"/>
<path d="M73 32.0308H0V32.6075H73V32.0308Z" fill="#C4E6F0"/>
<path d="M73 32.6064H0V33.1831H73V32.6064Z" fill="#C3E5F0"/>
<path d="M73 33.1831H0V33.7598H73V33.1831Z" fill="#C2E5F0"/>
<path d="M73 33.7598H0V34.3365H73V33.7598Z" fill="#C1E5F0"/>
<path d="M73 34.3364H0V34.9131H73V34.3364Z" fill="#BFE4EF"/>
<path d="M73 34.9131H0V35.4898H73V34.9131Z" fill="#BEE4EF"/>
<path d="M73 35.4897H0V36.0664H73V35.4897Z" fill="#BDE3EF"/>
<path d="M73 36.0664H0V36.6431H73V36.0664Z" fill="#BCE3EF"/>
<path d="M73 36.6421H0V37.2188H73V36.6421Z" fill="#BBE2EE"/>
<path d="M73 37.2192H0V37.7959H73V37.2192Z" fill="#BAE2EE"/>
<path d="M73 37.7959H0V38.3726H73V37.7959Z" fill="#B9E2EE"/>
<path d="M73 38.3726H0V38.9493H73V38.3726Z" fill="#B8E1EE"/>
<path d="M73 38.9492H0V39.5259H73V38.9492Z" fill="#B7E1ED"/>
<path d="M73 39.5259H0V40.1026H73V39.5259Z" fill="#B6E0ED"/>
<path d="M73 40.1025H0V40.6792H73V40.1025Z" fill="#B5E0ED"/>
<path d="M73 40.6782H0V41.2549H73V40.6782Z" fill="#B4DFED"/>
<path d="M73 41.2549H0V41.8316H73V41.2549Z" fill="#B3DFEC"/>
<path d="M73 41.8315H0V42.4082H73V41.8315Z" fill="#B2DFEC"/>
<path d="M73 42.4082H0V42.9849H73V42.4082Z" fill="#B1DEEC"/>
<path d="M73 42.9854H0V43.5621H73V42.9854Z" fill="#B0DEEC"/>
<path d="M73 43.562H0V44.1387H73V43.562Z" fill="#AFDDEB"/>
<path d="M73 44.1387H0V44.7154H73V44.1387Z" fill="#AEDDEB"/>
<path d="M73 44.7144H0V45.2911H73V44.7144Z" fill="#ADDCEB"/>
<path d="M73 45.291H0V45.8677H73V45.291Z" fill="#ACDCEB"/>
<path d="M73 45.8677H0V46.4444H73V45.8677Z" fill="#ABDCEA"/>
<path d="M73 46.4443H0V47.021H73V46.4443Z" fill="#AADBEA"/>
<path d="M73 47.021H0V47.5977H73V47.021Z" fill="#A9DBEA"/>
<path d="M73 47.5977H0V48.1744H73V47.5977Z" fill="#A8DAEA"/>
<path d="M73 48.1738H0V48.7505H73V48.1738Z" fill="#A7DAE9"/>
<path d="M73 48.7505H0V49.3272H73V48.7505Z" fill="#A6D9E9"/>
<path d="M73 49.3271H0V49.9038H73V49.3271Z" fill="#A5D9E9"/>
<path d="M73 49.9038H0V50.4805H73V49.9038Z" fill="#A4D9E9"/>
<path d="M73 50.4805H0V51.0572H73V50.4805Z" fill="#A3D8E8"/>
<path d="M73 51.0571H0V51.6338H73V51.0571Z" fill="#A2D8E8"/>
<path d="M73 51.6338H0V52.2105H73V51.6338Z" fill="#A1D7E8"/>
<path d="M73 52.2095H0V52.7862H73V52.2095Z" fill="#A0D7E8"/>
<path d="M73 52.7861H0V53.3628H73V52.7861Z" fill="#9FD6E7"/>
<path d="M73 53.3628H0V53.9395H73V53.3628Z" fill="#9ED6E7"/>
<path d="M73 53.9399H0V54.5166H73V53.9399Z" fill="#9DD6E7"/>
<path d="M73 54.5166H0V55.0933H73V54.5166Z" fill="#9CD5E7"/>
<path d="M73 55.0933H0V55.67H73V55.0933Z" fill="#9BD5E6"/>
<path d="M73 55.6699H0V56.2466H73V55.6699Z" fill="#9AD4E6"/>
<path d="M73 56.2456H0V56.8223H73V56.2456Z" fill="#99D4E6"/>
<path d="M73 56.8223H0V57.399H73V56.8223Z" fill="#98D3E6"/>
<path d="M73 57.3989H0V57.9756H73V57.3989Z" fill="#97D3E5"/>
<path d="M73 57.9756H0V58.5523H73V57.9756Z" fill="#96D3E5"/>
<path d="M73 58.5522H0V59.1289H73V58.5522Z" fill="#95D2E5"/>
<path d="M73 59.1289H0V59.7056H73V59.1289Z" fill="#94D2E5"/>
<path d="M73 59.7056H0V60.2823H73V59.7056Z" fill="#93D1E4"/>
<path d="M73 60.2817H0V60.8584H73V60.2817Z" fill="#92D1E4"/>
<path d="M73 60.8584H0V61.4351H73V60.8584Z" fill="#91D0E4"/>
<path d="M73 61.4351H0V62.0118H73V61.4351Z" fill="#90D0E4"/>
<path d="M73 62.0117H0V62.5884H73V62.0117Z" fill="#8FD0E3"/>
<path d="M73 62.5884H0V63.1651H73V62.5884Z" fill="#8ECFE3"/>
<path d="M73 63.165H0V63.7417H73V63.165Z" fill="#8DCFE3"/>
<path d="M73 63.7407H0V64.3174H73V63.7407Z" fill="#8CCEE3"/>
<path d="M73 64.3174H0V64.8941H73V64.3174Z" fill="#8BCEE2"/>
<path d="M73 64.894H0V65.4707H73V64.894Z" fill="#8ACDE2"/>
<path d="M73 65.4712H0V66.0479H73V65.4712Z" fill="#89CDE2"/>
<path d="M73 66.0479H0V66.6246H73V66.0479Z" fill="#88CDE2"/>
<path d="M73 66.6245H0V67.2012H73V66.6245Z" fill="#87CCE1"/>
<path d="M73 67.2012H0V67.7779H73V67.2012Z" fill="#86CCE1"/>
<path d="M73 67.7769H0V68.3536H73V67.7769Z" fill="#85CBE1"/>
<path d="M73 68.3535H0V68.9302H73V68.3535Z" fill="#84CBE1"/>
<path d="M73 68.9302H0V69.5069H73V68.9302Z" fill="#83CAE0"/>
<path d="M73 69.5068H0V70.0835H73V69.5068Z" fill="#82CAE0"/>
<path d="M73 70.0835H0V72.9998H73V70.0835Z" fill="#82CAE0"/>
</g>
<path d="M36.4991 70.7325C31.8782 70.7325 27.3951 69.8273 23.1748 68.0424C19.0987 66.3187 15.4377 63.8504 12.2941 60.7059C9.15058 57.5614 6.68225 53.9014 4.95763 49.8253C3.17278 45.6049 2.26758 41.1218 2.26758 36.5C2.26758 36.3741 2.36978 36.2719 2.4957 36.2719C2.62163 36.2719 2.72383 36.3741 2.72383 36.5C2.72383 55.1241 17.8759 70.2762 36.5 70.2762C55.1242 70.2762 70.2762 55.1241 70.2762 36.5C70.2762 17.8759 55.1232 2.72383 36.4991 2.72383C36.3732 2.72383 36.271 2.62163 36.271 2.4957C36.271 2.36978 36.3732 2.26758 36.4991 2.26758C41.12 2.26758 45.6031 3.17278 49.8244 4.95763C53.9005 6.68225 57.5614 9.14965 60.705 12.2941C63.8485 15.4386 66.3169 19.0986 68.0415 23.1748C69.8263 27.3951 70.7316 31.8782 70.7316 36.4991C70.7316 41.12 69.8263 45.6031 68.0415 49.8243C66.3178 53.9005 63.8495 57.5614 60.705 60.705C57.5605 63.8486 53.9005 66.3169 49.8244 68.0415C45.604 69.8263 41.1209 70.7315 36.4991 70.7315V70.7325Z" fill="#052C47"/>
<path d="M36.4991 67.7175C36.3732 67.7175 36.271 67.6153 36.271 67.4893C36.271 67.3634 36.3732 67.2612 36.4991 67.2612C52.5098 67.2612 65.9838 54.7691 67.1737 38.8222C67.1828 38.6963 67.2942 38.6023 67.4183 38.6115C67.5442 38.6206 67.6382 38.7301 67.6291 38.856C67.0451 46.6889 63.5474 53.9633 57.7804 59.3389C51.9852 64.7418 44.4269 67.7165 36.4991 67.7165V67.7175Z" fill="#052C47"/>
<path d="M5.59837 34.3883C5.59289 34.3883 5.58651 34.3883 5.58103 34.3883C5.45511 34.3792 5.36112 34.2697 5.37024 34.1438C5.95424 26.3109 9.45185 19.0364 15.2188 13.6609C21.0141 8.25795 28.5724 5.2832 36.5002 5.2832C36.6261 5.2832 36.7283 5.3854 36.7283 5.51133C36.7283 5.63725 36.6261 5.73945 36.5002 5.73945C20.4895 5.73945 7.01548 18.2316 5.82558 34.1784C5.81645 34.298 5.71699 34.3892 5.59837 34.3892V34.3883Z" fill="#052C47"/>
<path d="M5.50977 37.1196C5.47053 37.1196 5.43129 37.1095 5.39571 37.0895L4.19121 36.3941C4.12095 36.3531 4.07715 36.2783 4.07715 36.1961V34.8055C4.07715 34.7243 4.12095 34.6485 4.19121 34.6075L5.39571 33.9121C5.46597 33.8711 5.55357 33.8711 5.62383 33.9121L6.82833 34.6075C6.89859 34.6485 6.94239 34.7234 6.94239 34.8055V36.1961C6.94239 36.2773 6.89859 36.3531 6.82833 36.3941L5.62383 37.0895C5.58824 37.1095 5.54901 37.1196 5.50977 37.1196ZM4.5334 36.0647L5.50977 36.6287L6.48614 36.0647V34.9369L5.50977 34.373L4.5334 34.9369V36.0647Z" fill="#052C47"/>
<path d="M67.4894 39.1178C67.4501 39.1178 67.4109 39.1077 67.3753 39.0876L66.1863 38.4014C66.1161 38.3604 66.0723 38.2856 66.0723 38.2034V36.831C66.0723 36.7498 66.1161 36.6741 66.1863 36.633L67.3753 35.9468C67.4456 35.9057 67.5332 35.9057 67.6034 35.9468L68.7924 36.633C68.8627 36.6741 68.9065 36.7489 68.9065 36.831V38.2034C68.9065 38.2846 68.8627 38.3604 68.7924 38.4014L67.6034 39.0876C67.5678 39.1077 67.5286 39.1178 67.4894 39.1178ZM66.5285 38.072L67.4894 38.6268L68.4502 38.072V36.9624L67.4894 36.4076L66.5285 36.9624V38.072Z" fill="#052C47"/>
<path d="M29.6264 41.7586H28.0267C27.9401 41.7586 27.8616 41.7103 27.8233 41.6327C27.2365 40.4629 26.7857 39.5586 26.3605 38.7008C26.2693 38.5165 26.2985 38.2199 26.4216 38.0657C27.2064 37.0912 27.993 36.1331 28.8252 35.1184L29.4493 34.3573C29.5105 34.2825 29.6118 34.2551 29.703 34.2871C29.7934 34.3199 29.8545 34.4057 29.8545 34.5015V41.5296C29.8545 41.6555 29.7523 41.7577 29.6264 41.7577V41.7586ZM28.1673 41.3024H29.3982V35.1393L29.1783 35.4076C28.347 36.4205 27.5623 37.3768 26.7794 38.3486C26.7629 38.3796 26.7565 38.4681 26.7693 38.5001C27.1781 39.325 27.6116 40.1937 28.1673 41.3024Z" fill="#052C47"/>
<path d="M33.1449 41.7589H29.6263C29.5004 41.7589 29.3982 41.6567 29.3982 41.5308V35.1396L29.1783 35.4079C28.3461 36.4217 27.5604 37.3789 26.7775 38.3516C26.7638 38.3763 26.7574 38.4675 26.7702 38.4994C27.1945 39.3563 27.6452 40.2597 28.2311 41.4277C28.2667 41.4988 28.263 41.5828 28.221 41.6494C28.1791 41.7169 28.1061 41.758 28.0267 41.758H23.8428C23.7571 41.758 23.6795 41.7105 23.6403 41.6339L23.404 41.1749C23.0654 40.5161 22.7269 39.8572 22.3865 39.1993C21.9467 38.3471 22.0261 37.5377 22.6228 36.7922C23.2917 35.9581 23.9587 35.1223 24.6258 34.2864C25.3029 33.4378 25.9799 32.5892 26.6597 31.7424C27.8433 30.265 29.3407 29.5515 31.1082 29.6208C31.3555 29.6309 31.6091 29.6272 31.8555 29.6245C32.1329 29.6208 32.4194 29.6181 32.7041 29.6318C32.9158 29.6427 33.1641 29.7677 33.3082 29.9365C33.4661 30.1227 33.5181 30.3207 33.5628 30.495C33.6029 30.6501 33.6349 30.7724 33.7325 30.8755C34.4498 31.6338 34.4288 32.4696 34.3138 33.1878C34.0701 34.7135 33.9233 36.272 33.7818 37.7786C33.6659 39.0177 33.5455 40.2989 33.3712 41.5618C33.3557 41.6749 33.259 41.7589 33.1449 41.7589ZM29.8544 41.3026H32.945C33.1038 40.1127 33.217 38.9055 33.3265 37.7366C33.4688 36.2228 33.6157 34.6569 33.8621 33.1166C34.0035 32.2315 33.874 31.6913 33.3995 31.1903C33.2215 31.0023 33.1677 30.7943 33.1203 30.6109C33.0828 30.4658 33.05 30.3399 32.9596 30.2331C32.8976 30.161 32.768 30.0935 32.6804 30.0889C32.4094 30.0752 32.1302 30.0789 31.8601 30.0816C31.6082 30.0844 31.3482 30.0871 31.0899 30.0771C29.452 30.0141 28.1197 30.651 27.0156 32.028C26.3367 32.8748 25.6596 33.7234 24.9826 34.572C24.3155 35.4079 23.6485 36.2437 22.9787 37.0787C22.4914 37.6873 22.4312 38.295 22.7917 38.9913C23.132 39.6501 23.4706 40.3089 23.8091 40.9678L23.9815 41.3026H27.6562C27.1488 40.2898 26.7428 39.4767 26.3586 38.7011C26.2674 38.5168 26.2966 38.2202 26.4197 38.066C27.2045 37.0915 27.9911 36.1333 28.8233 35.1186L29.4474 34.3576C29.5086 34.2828 29.6099 34.2554 29.7011 34.2873C29.7915 34.3202 29.8526 34.406 29.8526 34.5018V41.3017L29.8544 41.3026Z" fill="#052C47"/>
<path d="M45.6126 41.7586H41.4288C41.3494 41.7586 41.2764 41.7175 41.2344 41.65C41.1924 41.5825 41.1888 41.4985 41.2244 41.4283C41.8102 40.2593 42.261 39.356 42.6853 38.5C42.698 38.4681 42.6917 38.3769 42.6743 38.3477C41.8905 37.374 41.1003 36.4113 40.2635 35.393L40.0555 35.1402V41.5314C40.0555 41.6573 39.9533 41.7595 39.8273 41.7595H36.3087C36.1947 41.7595 36.0979 41.6755 36.0824 41.5624C35.9081 40.2995 35.7877 39.0183 35.6718 37.7801C35.5304 36.2726 35.3844 34.7141 35.1398 33.1884C35.0248 32.4702 35.0039 31.6344 35.7211 30.8761C35.8187 30.773 35.8497 30.6507 35.8908 30.4956C35.9364 30.3213 35.9875 30.1233 36.1454 29.9371C36.2886 29.7683 36.5369 29.6433 36.7495 29.6324C37.0342 29.6187 37.3207 29.6214 37.5981 29.6251C37.8445 29.6278 38.0991 29.6305 38.3454 29.6214C40.1129 29.5512 41.6094 30.2666 42.793 31.743C43.4719 32.5907 44.1489 33.4384 44.8269 34.287C45.494 35.1229 46.161 35.9587 46.8299 36.7928C47.4266 37.5383 47.5069 38.3477 47.0662 39.1999C46.724 39.8624 46.3827 40.5258 46.0424 41.1883L45.8133 41.6345C45.7741 41.7102 45.6956 41.7586 45.6107 41.7586H45.6126ZM41.7983 41.3023H45.473L45.639 40.9802C45.9803 40.3168 46.3207 39.6534 46.6638 38.991C47.0233 38.2947 46.964 37.687 46.4767 37.0784C45.8078 36.2434 45.1408 35.4076 44.4738 34.5717C43.7967 33.7231 43.1196 32.8754 42.4407 32.0277C41.3375 30.6507 40.0034 30.0129 38.3664 30.0768C38.1082 30.0868 37.8481 30.0841 37.5963 30.0813C37.3262 30.0786 37.046 30.0749 36.7759 30.0886C36.6892 30.0932 36.5588 30.1607 36.4967 30.2328C36.4064 30.3396 36.3735 30.4646 36.3361 30.6106C36.2887 30.794 36.2348 31.002 36.0569 31.19C35.5888 31.6846 35.4546 32.243 35.5942 33.1163C35.8406 34.6566 35.9875 36.2224 36.1299 37.7372C36.2394 38.907 36.3534 40.1133 36.5113 41.3032H39.6019V34.5033C39.6019 34.4066 39.6622 34.3208 39.7534 34.2889C39.8437 34.256 39.946 34.2843 40.0062 34.3591L40.6185 35.1046C41.4552 36.1239 42.2464 37.0875 43.0348 38.0666C43.1589 38.2208 43.1881 38.5174 43.0968 38.7017C42.7126 39.4773 42.3075 40.2904 41.7992 41.3032L41.7983 41.3023Z" fill="#052C47"/>
<path d="M34.6563 28.8734C34.6453 28.8734 34.6344 28.8734 34.6234 28.8734C33.3414 28.8652 32.1314 28.3496 31.2171 27.4225C30.3027 26.4954 29.8018 25.2772 29.8082 23.9924C29.8146 22.6784 30.3265 21.4484 31.2499 20.5286C32.167 19.6152 33.3852 19.1133 34.6818 19.1133C34.6909 19.1133 34.7001 19.1133 34.7092 19.1133C37.4029 19.1279 39.5838 21.3361 39.5719 24.0353C39.5664 25.3238 39.0554 26.5356 38.1338 27.4481C37.204 28.3679 35.9703 28.8734 34.6563 28.8734ZM34.6818 19.5686C33.5065 19.5686 32.4024 20.024 31.5711 20.8516C30.7334 21.6856 30.269 22.8016 30.2635 23.9942C30.2526 26.4178 32.2099 28.4016 34.6262 28.4171C34.6362 28.4171 34.6462 28.4171 34.6563 28.4171C35.8489 28.4171 36.9686 27.9581 37.8126 27.1232C38.6476 26.2965 39.1111 25.1997 39.1157 24.0326C39.1266 21.5843 37.1483 19.5823 34.7065 19.5686C34.6982 19.5686 34.69 19.5686 34.6809 19.5686H34.6818Z" fill="#052C47"/>
<path d="M51.4937 41.7585H33.1451C33.0192 41.7585 32.917 41.6563 32.917 41.5304C32.917 41.4044 33.0192 41.3022 33.1451 41.3022H51.4937C51.6196 41.3022 51.7218 41.4044 51.7218 41.5304C51.7218 41.6563 51.6196 41.7585 51.4937 41.7585Z" fill="#052C47"/>
<path d="M21.9694 35.4142C21.9183 35.4142 21.8672 35.3968 21.8243 35.3622C21.7276 35.2819 21.7139 35.1386 21.7933 35.041L26.2016 29.7001C26.2819 29.6025 26.4251 29.5897 26.5228 29.6691C26.6195 29.7494 26.6332 29.8926 26.5538 29.9903L22.1455 35.3311C22.1008 35.3859 22.0351 35.4142 21.9694 35.4142Z" fill="#052C47"/>
<path d="M34.8253 48.8472C34.8253 49.0972 34.6401 49.2514 34.3417 49.2514H34.0853V49.579H33.8745V48.4438H34.3417C34.6401 48.4438 34.8253 48.5962 34.8253 48.8481V48.8472ZM34.6127 48.8472C34.6127 48.7048 34.5169 48.6218 34.3326 48.6218H34.0862V49.0726H34.3326C34.5178 49.0726 34.6127 48.9895 34.6127 48.8472Z" fill="#052C47"/>
<path d="M35.0366 48.4429H35.2474V49.4001H35.8414V49.5789H35.0366V48.4438V48.4429Z" fill="#052C47"/>
<path d="M36.7534 49.3152H36.1858L36.0736 49.578H35.8564L36.3674 48.4429H36.5755L37.0883 49.578H36.8675L36.7543 49.3152H36.7534ZM36.6841 49.1501L36.4696 48.6537L36.257 49.1501H36.6832H36.6841Z" fill="#052C47"/>
<path d="M37.4057 48.6217H37.0298V48.4429H37.9934V48.6217H37.6175V49.5789H37.4067V48.6217H37.4057Z" fill="#052C47"/>
<path d="M38.0552 49.0103C38.0552 48.6745 38.3143 48.4263 38.6666 48.4263C39.0188 48.4263 39.2779 48.6726 39.2779 49.0103C39.2779 49.3479 39.0179 49.5943 38.6666 49.5943C38.3153 49.5943 38.0552 49.3461 38.0552 49.0103ZM39.0653 49.0103C39.0653 48.7785 38.8947 48.6115 38.6666 48.6115C38.4384 48.6115 38.2678 48.7785 38.2678 49.0103C38.2678 49.242 38.4384 49.409 38.6666 49.409C38.8947 49.409 39.0653 49.242 39.0653 49.0103Z" fill="#052C47"/>
<path d="M31.2417 51.2635H30.6741L30.5619 51.5263H30.3447L30.8557 50.3911H31.0638L31.5766 51.5263H31.3558L31.2426 51.2635H31.2417ZM31.1724 51.0983L30.9579 50.6019L30.7453 51.0983H31.1715H31.1724Z" fill="#052C47"/>
<path d="M32.7637 51.5263L32.7619 50.7735L32.3887 51.3967H32.2947L31.9214 50.7835V51.5263H31.7207V50.3911H31.8941L32.3449 51.1439L32.7874 50.3911H32.9608L32.9626 51.5263H32.7628H32.7637Z" fill="#052C47"/>
<path d="M34.2792 51.2178C34.2792 51.4122 34.1269 51.5263 33.8349 51.5263H33.27V50.3911H33.802C34.0739 50.3911 34.2209 50.5061 34.2209 50.6868C34.2209 50.8036 34.1625 50.8893 34.0749 50.9368C34.1962 50.976 34.2792 51.0718 34.2792 51.2188V51.2178ZM33.4817 50.5563V50.8693H33.7801C33.9261 50.8693 34.0082 50.8173 34.0082 50.7132C34.0082 50.6092 33.9252 50.5563 33.7801 50.5563H33.4817ZM34.0675 51.1969C34.0675 51.0837 33.9818 51.0326 33.8221 51.0326H33.4817V51.3602H33.8221C33.9809 51.3602 34.0675 51.31 34.0675 51.1959V51.1969Z" fill="#052C47"/>
<path d="M35.2422 51.2635H34.6746L34.5624 51.5263H34.3452L34.8562 50.3911H35.0643L35.5771 51.5263H35.3563L35.2431 51.2635H35.2422ZM35.1729 51.0983L34.9593 50.6019L34.7467 51.0983H35.1729Z" fill="#052C47"/>
<path d="M35.6255 51.4056L35.6985 51.2423C35.7897 51.3153 35.9339 51.3673 36.0735 51.3673C36.2505 51.3673 36.3254 51.3044 36.3254 51.2195C36.3254 50.9749 35.6501 51.1355 35.6501 50.7131C35.6501 50.5296 35.7961 50.3745 36.1073 50.3745C36.2433 50.3745 36.3865 50.4101 36.4851 50.4749L36.4184 50.6382C36.3162 50.578 36.204 50.5488 36.1055 50.5488C35.9303 50.5488 35.8591 50.6172 35.8591 50.703C35.8591 50.9448 36.5325 50.787 36.5325 51.204C36.5325 51.3856 36.3847 51.5416 36.0735 51.5416C35.8965 51.5416 35.7195 51.4868 35.6255 51.4056Z" fill="#052C47"/>
<path d="M36.6465 51.4056L36.7195 51.2423C36.8107 51.3153 36.9549 51.3673 37.0936 51.3673C37.2706 51.3673 37.3455 51.3044 37.3455 51.2195C37.3455 50.9749 36.6711 51.1355 36.6711 50.7131C36.6711 50.5296 36.8171 50.3745 37.1283 50.3745C37.2642 50.3745 37.4075 50.4101 37.5061 50.4749L37.4394 50.6382C37.3372 50.578 37.2259 50.5488 37.1265 50.5488C36.9513 50.5488 36.8801 50.6172 36.8801 50.703C36.8801 50.9448 37.5535 50.787 37.5535 51.204C37.5535 51.3856 37.4057 51.5416 37.0945 51.5416C36.9175 51.5416 36.7414 51.4868 36.6474 51.4056H36.6465Z" fill="#052C47"/>
<path d="M38.499 51.2635H37.9315L37.8192 51.5263H37.6021L38.1131 50.3911H38.3211L38.8339 51.5263H38.6131L38.5 51.2635H38.499ZM38.4297 51.0983L38.2162 50.6019L38.0036 51.0983H38.4297Z" fill="#052C47"/>
<path d="M38.978 50.3901H39.4744C39.8431 50.3901 40.094 50.6174 40.094 50.9577C40.094 51.2981 39.8422 51.5253 39.4744 51.5253H38.978V50.3901ZM39.4644 51.3474C39.7172 51.3474 39.8814 51.1931 39.8814 50.9577C39.8814 50.7223 39.7181 50.5681 39.4644 50.5681H39.1888V51.3464H39.4644V51.3474Z" fill="#052C47"/>
<path d="M40.2373 50.9575C40.2373 50.6217 40.4974 50.3735 40.8487 50.3735C41.2 50.3735 41.46 50.6199 41.46 50.9575C41.46 51.2952 41.2009 51.5415 40.8487 51.5415C40.4965 51.5415 40.2373 51.2933 40.2373 50.9575ZM41.2474 50.9575C41.2474 50.7258 41.0768 50.5588 40.8487 50.5588C40.6206 50.5588 40.4499 50.7258 40.4499 50.9575C40.4499 51.1893 40.6206 51.3563 40.8487 51.3563C41.0768 51.3563 41.2474 51.1893 41.2474 50.9575Z" fill="#052C47"/>
<path d="M42.4278 51.5258L42.1961 51.1937C42.1815 51.1955 42.1669 51.1955 42.1523 51.1955H41.8959V51.5268H41.6851V50.3916H42.1523C42.4507 50.3916 42.6359 50.544 42.6359 50.7958C42.6359 50.9674 42.5483 51.0942 42.3941 51.1545L42.6551 51.5277H42.4278V51.5258ZM42.1422 50.5686H41.8959V51.0212H42.1422C42.3275 51.0212 42.4224 50.9373 42.4224 50.794C42.4224 50.6508 42.3265 50.5686 42.1422 50.5686Z" fill="#052C47"/>
<path d="M51.4934 44.1484H21.506C21.38 44.1484 21.2778 44.0462 21.2778 43.9203V41.5313C21.2778 41.4054 21.38 41.3032 21.506 41.3032H51.4934C51.6194 41.3032 51.7216 41.4054 51.7216 41.5313V43.9203C51.7216 44.0462 51.6194 44.1484 51.4934 44.1484ZM21.7341 43.6921H51.2653V41.7595H21.7341V43.6921Z" fill="#052C47"/>
<path d="M48.7562 46.5376H24.2437C24.1889 46.5376 24.1351 46.5175 24.094 46.481L21.3565 44.0921C21.2844 44.0291 21.2598 43.9287 21.2926 43.8402C21.3255 43.7517 21.4113 43.6924 21.5062 43.6924H51.4937C51.5886 43.6924 51.6734 43.7517 51.7072 43.8402C51.7409 43.9287 51.7154 44.03 51.6433 44.0921L48.9058 46.481C48.8638 46.5175 48.8109 46.5376 48.7562 46.5376ZM24.3294 46.0813H48.6704L50.885 44.1486H22.1139L24.3285 46.0813H24.3294Z" fill="#052C47"/>
<path d="M45.6983 53.8875H27.3023C27.1764 53.8875 27.0742 53.7853 27.0742 53.6594V46.3092C27.0742 46.1833 27.1764 46.0811 27.3023 46.0811H45.6983C45.8243 46.0811 45.9265 46.1833 45.9265 46.3092V53.6594C45.9265 53.7853 45.8243 53.8875 45.6983 53.8875ZM27.5305 53.4312H45.4702V46.5373H27.5305V53.4312Z" fill="#052C47"/>
<path d="M49.9503 41.7588C49.8244 41.7588 49.7222 41.6566 49.7222 41.5307V33.185L46.6552 29.7175C46.5722 29.6235 46.5804 29.4793 46.6753 29.3954C46.7693 29.3114 46.9135 29.3205 46.9974 29.4154L50.1218 32.9477C50.1583 32.9897 50.1793 33.0435 50.1793 33.0992V41.5307C50.1793 41.6566 50.0771 41.7588 49.9512 41.7588H49.9503Z" fill="#052C47"/>
<path d="M46.3496 29.9626C46.0613 29.9626 45.7747 29.8367 45.5795 29.5958L44.7701 28.5939C44.4279 28.1696 44.4945 27.5463 44.9179 27.2041C45.3422 26.862 45.9654 26.9286 46.3076 27.352L47.117 28.3539C47.2831 28.5592 47.3588 28.8165 47.3305 29.0793C47.3023 29.3421 47.1745 29.5776 46.9683 29.7436C46.7858 29.8905 46.5668 29.9626 46.3487 29.9626H46.3496ZM45.5393 27.4405C45.4216 27.4405 45.3039 27.4788 45.2053 27.5582C44.9772 27.7425 44.9416 28.0783 45.1259 28.3064L45.9353 29.3084C46.1197 29.5365 46.4554 29.5721 46.6836 29.3878C46.794 29.2983 46.8633 29.1715 46.8779 29.0301C46.8925 28.8886 46.8524 28.7499 46.763 28.6395L45.9536 27.6376C45.8486 27.508 45.6944 27.4405 45.5393 27.4405Z" fill="#052C47"/>
</svg>
