<svg width="73" height="73" viewBox="0 0 73 73" fill="none" xmlns="http://www.w3.org/2000/svg">
<mask id="mask0_1860_8244" style="mask-type:luminance" maskUnits="userSpaceOnUse" x="0" y="0" width="73" height="73">
<path d="M36.5 73C56.6584 73 73 56.6584 73 36.5C73 16.3416 56.6584 0 36.5 0C16.3416 0 0 16.3416 0 36.5C0 56.6584 16.3416 73 36.5 73Z" fill="white"/>
</mask>
<g mask="url(#mask0_1860_8244)">
<path d="M73 0H0V0.319375H73V0Z" fill="#FCFEFE"/>
<path d="M73 0.319336H0V0.896042H73V0.319336Z" fill="#FBFDFE"/>
<path d="M73 0.89502H0V1.47171H73V0.89502Z" fill="#FAFDFE"/>
<path d="M73 1.47168H0V2.04839H73V1.47168Z" fill="#F9FCFE"/>
<path d="M73 2.04834H0V2.62503H73V2.04834Z" fill="#F8FCFD"/>
<path d="M73 2.625H0V3.20171H73V2.625Z" fill="#F7FCFD"/>
<path d="M73 3.20215H0V3.77884H73V3.20215Z" fill="#F6FBFD"/>
<path d="M73 3.77881H0V4.35551H73V3.77881Z" fill="#F5FBFD"/>
<path d="M73 4.35449H0V4.93119H73V4.35449Z" fill="#F4FAFC"/>
<path d="M73 4.93115H0V5.50786H73V4.93115Z" fill="#F3FAFC"/>
<path d="M73 5.50781H0V6.08451H73V5.50781Z" fill="#F2F9FC"/>
<path d="M73 6.08447H0V6.66117H73V6.08447Z" fill="#F1F9FC"/>
<path d="M73 6.66113H0V7.23784H73V6.66113Z" fill="#F0F9FB"/>
<path d="M73 7.23779H0V7.81449H73V7.23779Z" fill="#EFF8FB"/>
<path d="M73 7.81445H0V8.39116H73V7.81445Z" fill="#EEF8FB"/>
<path d="M73 8.39062H0V8.96732H73V8.39062Z" fill="#EDF7FB"/>
<path d="M73 8.96729H0V9.54399H73V8.96729Z" fill="#ECF7FA"/>
<path d="M73 9.54395H0V10.1206H73V9.54395Z" fill="#EBF6FA"/>
<path d="M73 10.1206H0V10.6973H73V10.1206Z" fill="#EAF6FA"/>
<path d="M73 10.6973H0V11.274H73V10.6973Z" fill="#E9F6FA"/>
<path d="M73 11.2739H0V11.8506H73V11.2739Z" fill="#E8F5F9"/>
<path d="M73 11.8506H0V12.4273H73V11.8506Z" fill="#E7F5F9"/>
<path d="M73 12.4263H0V13.003H73V12.4263Z" fill="#E6F4F9"/>
<path d="M73 13.0029H0V13.5796H73V13.0029Z" fill="#E5F4F9"/>
<path d="M73 13.5801H0V14.1568H73V13.5801Z" fill="#E4F3F8"/>
<path d="M73 14.1562H0V14.733H73V14.1562Z" fill="#E3F3F8"/>
<path d="M73 14.7334H0V15.3101H73V14.7334Z" fill="#E2F3F8"/>
<path d="M73 15.3101H0V15.8868H73V15.3101Z" fill="#E1F2F8"/>
<path d="M73 15.8867H0V16.4634H73V15.8867Z" fill="#E0F2F7"/>
<path d="M73 16.4624H0V17.0391H73V16.4624Z" fill="#DFF1F7"/>
<path d="M73 17.0391H0V17.6158H73V17.0391Z" fill="#DEF1F7"/>
<path d="M73 17.6157H0V18.1924H73V17.6157Z" fill="#DDF0F7"/>
<path d="M73 18.1924H0V18.7691H73V18.1924Z" fill="#DCF0F6"/>
<path d="M73 18.769H0V19.3457H73V18.769Z" fill="#DBF0F6"/>
<path d="M73 19.3457H0V19.9224H73V19.3457Z" fill="#DAEFF6"/>
<path d="M73 19.9229H0V20.4995H73V19.9229Z" fill="#D9EFF6"/>
<path d="M73 20.4985H0V21.0752H73V20.4985Z" fill="#D8EEF5"/>
<path d="M73 21.0752H0V21.6519H73V21.0752Z" fill="#D7EEF5"/>
<path d="M73 21.6519H0V22.2286H73V21.6519Z" fill="#D6EDF5"/>
<path d="M73 22.2285H0V22.8052H73V22.2285Z" fill="#D5EDF5"/>
<path d="M73 22.8052H0V23.3819H73V22.8052Z" fill="#D4EDF4"/>
<path d="M73 23.3818H0V23.9585H73V23.3818Z" fill="#D3ECF4"/>
<path d="M73 23.9575H0V24.5342H73V23.9575Z" fill="#D2ECF4"/>
<path d="M73 24.5342H0V25.1109H73V24.5342Z" fill="#D1EBF4"/>
<path d="M73 25.1113H0V25.688H73V25.1113Z" fill="#D0EBF3"/>
<path d="M73 25.688H0V26.2647H73V25.688Z" fill="#CFEAF3"/>
<path d="M73 26.2646H0V26.8413H73V26.2646Z" fill="#CEEAF3"/>
<path d="M73 26.8413H0V27.418H73V26.8413Z" fill="#CDEAF3"/>
<path d="M73 27.418H0V27.9947H73V27.418Z" fill="#CCE9F2"/>
<path d="M73 27.9937H0V28.5704H73V27.9937Z" fill="#CBE9F2"/>
<path d="M73 28.5703H0V29.147H73V28.5703Z" fill="#CAE8F2"/>
<path d="M73 29.147H0V29.7237H73V29.147Z" fill="#C9E8F2"/>
<path d="M73 29.7236H0V30.3003H73V29.7236Z" fill="#C8E7F1"/>
<path d="M73 30.3003H0V30.877H73V30.3003Z" fill="#C7E7F1"/>
<path d="M73 30.877H0V31.4537H73V30.877Z" fill="#C6E7F1"/>
<path d="M73 31.4541H0V32.0308H73V31.4541Z" fill="#C5E6F1"/>
<path d="M73 32.0298H0V32.6065H73V32.0298Z" fill="#C4E6F0"/>
<path d="M73 32.6064H0V33.1831H73V32.6064Z" fill="#C3E5F0"/>
<path d="M73 33.1831H0V33.7598H73V33.1831Z" fill="#C2E5F0"/>
<path d="M73 33.7598H0V34.3365H73V33.7598Z" fill="#C1E5F0"/>
<path d="M73 34.3364H0V34.9131H73V34.3364Z" fill="#BFE4EF"/>
<path d="M73 34.9131H0V35.4898H73V34.9131Z" fill="#BEE4EF"/>
<path d="M73 35.4897H0V36.0664H73V35.4897Z" fill="#BDE3EF"/>
<path d="M73 36.0654H0V36.6421H73V36.0654Z" fill="#BCE3EF"/>
<path d="M73 36.6426H0V37.2193H73V36.6426Z" fill="#BBE2EE"/>
<path d="M73 37.2192H0V37.7959H73V37.2192Z" fill="#BAE2EE"/>
<path d="M73 37.7959H0V38.3726H73V37.7959Z" fill="#B9E2EE"/>
<path d="M73 38.3726H0V38.9493H73V38.3726Z" fill="#B8E1EE"/>
<path d="M73 38.9492H0V39.5259H73V38.9492Z" fill="#B7E1ED"/>
<path d="M73 39.5249H0V40.1016H73V39.5249Z" fill="#B6E0ED"/>
<path d="M73 40.1016H0V40.6783H73V40.1016Z" fill="#B5E0ED"/>
<path d="M73 40.6782H0V41.2549H73V40.6782Z" fill="#B4DFED"/>
<path d="M73 41.2549H0V41.8316H73V41.2549Z" fill="#B3DFEC"/>
<path d="M73 41.8315H0V42.4082H73V41.8315Z" fill="#B2DFEC"/>
<path d="M73 42.4082H0V42.9849H73V42.4082Z" fill="#B1DEEC"/>
<path d="M73 42.9854H0V43.562H73V42.9854Z" fill="#B0DEEC"/>
<path d="M73 43.561H0V44.1377H73V43.561Z" fill="#AFDDEB"/>
<path d="M73 44.1377H0V44.7144H73V44.1377Z" fill="#AEDDEB"/>
<path d="M73 44.7144H0V45.2911H73V44.7144Z" fill="#ADDCEB"/>
<path d="M73 45.291H0V45.8677H73V45.291Z" fill="#ACDCEB"/>
<path d="M73 45.8677H0V46.4444H73V45.8677Z" fill="#ABDCEA"/>
<path d="M73 46.4443H0V47.021H73V46.4443Z" fill="#AADBEA"/>
<path d="M73 47.021H0V47.5977H73V47.021Z" fill="#A9DBEA"/>
<path d="M73 47.5972H0V48.1739H73V47.5972Z" fill="#A8DAEA"/>
<path d="M73 48.1738H0V48.7505H73V48.1738Z" fill="#A7DAE9"/>
<path d="M73 48.7505H0V49.3272H73V48.7505Z" fill="#A6D9E9"/>
<path d="M73 49.3271H0V49.9038H73V49.3271Z" fill="#A5D9E9"/>
<path d="M73 49.9038H0V50.4805H73V49.9038Z" fill="#A4D9E9"/>
<path d="M73 50.4805H0V51.0572H73V50.4805Z" fill="#A3D8E8"/>
<path d="M73 51.0571H0V51.6338H73V51.0571Z" fill="#A2D8E8"/>
<path d="M73 51.6328H0V52.2095H73V51.6328Z" fill="#A1D7E8"/>
<path d="M73 52.2095H0V52.7862H73V52.2095Z" fill="#A0D7E8"/>
<path d="M73 52.7861H0V53.3628H73V52.7861Z" fill="#9FD6E7"/>
<path d="M73 53.3628H0V53.9395H73V53.3628Z" fill="#9ED6E7"/>
<path d="M73 53.9399H0V54.5166H73V53.9399Z" fill="#9DD6E7"/>
<path d="M73 54.5166H0V55.0933H73V54.5166Z" fill="#9CD5E7"/>
<path d="M73 55.0923H0V55.669H73V55.0923Z" fill="#9BD5E6"/>
<path d="M73 55.6689H0V56.2456H73V55.6689Z" fill="#9AD4E6"/>
<path d="M73 56.2456H0V56.8223H73V56.2456Z" fill="#99D4E6"/>
<path d="M73 56.8223H0V57.399H73V56.8223Z" fill="#98D3E6"/>
<path d="M73 57.3989H0V57.9756H73V57.3989Z" fill="#97D3E5"/>
<path d="M73 57.9756H0V58.5523H73V57.9756Z" fill="#96D3E5"/>
<path d="M73 58.5522H0V59.129H73V58.5522Z" fill="#95D2E5"/>
<path d="M73 59.1284H0V59.7051H73V59.1284Z" fill="#94D2E5"/>
<path d="M73 59.7051H0V60.2818H73V59.7051Z" fill="#93D1E4"/>
<path d="M73 60.2817H0V60.8584H73V60.2817Z" fill="#92D1E4"/>
<path d="M73 60.8584H0V61.4351H73V60.8584Z" fill="#91D0E4"/>
<path d="M73 61.4351H0V62.0118H73V61.4351Z" fill="#90D0E4"/>
<path d="M73 62.0117H0V62.5884H73V62.0117Z" fill="#8FD0E3"/>
<path d="M73 62.5884H0V63.1651H73V62.5884Z" fill="#8ECFE3"/>
<path d="M73 63.1641H0V63.7408H73V63.1641Z" fill="#8DCFE3"/>
<path d="M73 63.7407H0V64.3174H73V63.7407Z" fill="#8CCEE3"/>
<path d="M73 64.3174H0V64.8941H73V64.3174Z" fill="#8BCEE2"/>
<path d="M73 64.894H0V65.4707H73V64.894Z" fill="#8ACDE2"/>
<path d="M73 65.4712H0V66.0479H73V65.4712Z" fill="#89CDE2"/>
<path d="M73 66.0479H0V66.6245H73V66.0479Z" fill="#88CDE2"/>
<path d="M73 66.6245H0V67.2012H73V66.6245Z" fill="#87CCE1"/>
<path d="M73 67.2002H0V67.7769H73V67.2002Z" fill="#86CCE1"/>
<path d="M73 67.7769H0V68.3536H73V67.7769Z" fill="#85CBE1"/>
<path d="M73 68.3535H0V68.9302H73V68.3535Z" fill="#84CBE1"/>
<path d="M73 68.9302H0V69.5069H73V68.9302Z" fill="#83CAE0"/>
<path d="M73 69.5068H0V70.0835H73V69.5068Z" fill="#82CAE0"/>
<path d="M73 70.0835H0V72.9998H73V70.0835Z" fill="#82CAE0"/>
</g>
<path d="M36.5001 71.3448C31.8792 71.3448 27.3961 70.4396 23.1758 68.6547C19.0996 66.9301 15.4387 64.4627 12.2951 61.3182C9.15154 58.1747 6.68323 54.5137 4.9586 50.4376C3.17375 46.2173 2.26855 41.7341 2.26855 37.1123C2.26855 36.9864 2.37075 36.8842 2.49668 36.8842C2.6226 36.8842 2.7248 36.9864 2.7248 37.1123C2.7248 55.7364 17.8769 70.8885 36.501 70.8885C55.1251 70.8885 70.2772 55.7364 70.2772 37.1123C70.2772 18.4882 55.1251 3.33613 36.501 3.33613C36.3751 3.33613 36.2729 3.23393 36.2729 3.10801C36.2729 2.98208 36.3751 2.87988 36.501 2.87988C41.1219 2.87988 45.605 3.78508 49.8253 5.56993C53.9015 7.29364 57.5624 9.76196 60.706 12.9064C63.8495 16.0509 66.3178 19.7109 68.0425 23.7871C69.8273 28.0074 70.7325 32.4905 70.7325 37.1123C70.7325 41.7341 69.8273 46.2163 68.0425 50.4376C66.3178 54.5137 63.8504 58.1747 60.706 61.3182C57.5624 64.4618 53.9015 66.9301 49.8253 68.6547C45.605 70.4396 41.1219 71.3448 36.501 71.3448H36.5001Z" fill="#052C47"/>
<path d="M36.5001 68.3297C36.3742 68.3297 36.272 68.2275 36.272 68.1015C36.272 67.9756 36.3742 67.8734 36.5001 67.8734C52.5108 67.8734 65.9848 55.3813 67.1747 39.4344C67.1838 39.3085 67.2952 39.2154 67.4193 39.2236C67.5452 39.2328 67.6392 39.3423 67.63 39.4682C67.046 47.3011 63.5484 54.5755 57.7814 59.9511C51.9861 65.354 44.4279 68.3287 36.5001 68.3287V68.3297Z" fill="#052C47"/>
<path d="M5.59837 35.0006C5.59289 35.0006 5.58742 35.0006 5.58103 35.0006C5.4551 34.9915 5.36112 34.882 5.37024 34.7561C5.95424 26.9232 9.45185 19.6487 15.2189 14.2732C21.0141 8.87025 28.5724 5.89551 36.5002 5.89551C36.6261 5.89551 36.7283 5.99771 36.7283 6.12363C36.7283 6.24956 36.6261 6.35176 36.5002 6.35176C20.4895 6.35176 7.01548 18.8439 5.82558 34.7907C5.81645 34.9103 5.71699 35.0015 5.59837 35.0015V35.0006Z" fill="#052C47"/>
<path d="M5.51075 37.7329C5.47151 37.7329 5.43228 37.7228 5.39669 37.7027L4.19219 37.0074C4.12193 36.9664 4.07812 36.8915 4.07812 36.8094V35.4188C4.07812 35.3375 4.12193 35.2618 4.19219 35.2208L5.39669 34.5254C5.46695 34.4844 5.55455 34.4844 5.62481 34.5254L6.82931 35.2208C6.89957 35.2618 6.94337 35.3366 6.94337 35.4188V36.8094C6.94337 36.8906 6.89957 36.9664 6.82931 37.0074L5.62481 37.7027C5.58923 37.7228 5.54999 37.7329 5.51075 37.7329ZM4.53438 36.6771L5.51075 37.241L6.48712 36.6771V35.5492L5.51075 34.9853L4.53438 35.5492V36.6771Z" fill="#052C47"/>
<path d="M67.4894 39.7301C67.4501 39.7301 67.4109 39.72 67.3753 39.6999L66.1863 39.0137C66.1161 38.9727 66.0723 38.8979 66.0723 38.8157V37.4433C66.0723 37.3621 66.1161 37.2864 66.1863 37.2453L67.3753 36.5591C67.4456 36.5181 67.5332 36.5181 67.6034 36.5591L68.7924 37.2453C68.8627 37.2864 68.9065 37.3612 68.9065 37.4433V38.8157C68.9065 38.8969 68.8627 38.9727 68.7924 39.0137L67.6034 39.6999C67.5679 39.72 67.5286 39.7301 67.4894 39.7301ZM66.5285 38.6843L67.4894 39.2391L68.4502 38.6843V37.5747L67.4894 37.0199L66.5285 37.5747V38.6843Z" fill="#052C47"/>
<path d="M28.9272 34.5956C28.8012 34.5956 28.699 34.4934 28.699 34.3675V33.8501C28.699 33.2752 28.7 32.7013 28.7018 32.1282C28.7018 32.0023 28.8067 31.9028 28.9308 31.901C29.0567 31.901 29.1589 32.0032 29.158 32.1301C29.1571 32.7031 29.1553 33.2771 29.1553 33.851V34.3684C29.1553 34.4943 29.0531 34.5965 28.9272 34.5965V34.5956ZM15.1867 34.5956C15.0608 34.5956 14.9586 34.4934 14.9586 34.3675V33.653C14.9586 32.8336 14.9531 32.0005 14.9486 31.1948C14.9358 29.0221 14.9221 26.7755 15.0051 24.5663C15.0809 22.5707 16.0116 20.6782 17.5583 19.3724C17.5601 19.3706 17.5629 19.3688 17.5647 19.3669C17.8375 19.137 18.1268 18.9271 18.427 18.7428C18.5347 18.6771 18.6752 18.7099 18.7409 18.8176C18.8066 18.9253 18.7738 19.0658 18.6661 19.1315C18.3878 19.303 18.1177 19.4974 17.864 19.7109C17.8622 19.7128 17.8594 19.7146 17.8576 19.7164C16.4058 20.9401 15.5326 22.714 15.4614 24.5837C15.3784 26.7828 15.392 29.0248 15.4048 31.192C15.4094 31.9987 15.4149 32.8327 15.4149 33.653V34.3675C15.4149 34.4934 15.3127 34.5956 15.1867 34.5956Z" fill="#052C47"/>
<path d="M28.9297 32.3566C28.8038 32.3566 28.7016 32.2534 28.7025 32.1275L28.7043 31.5508C28.7135 29.3772 28.7217 27.1297 28.6669 24.9242C28.6468 24.0829 28.4415 23.143 28.0884 22.2789L28.0638 22.2214C27.9634 21.9823 27.8484 21.7487 27.7143 21.5115C27.2653 20.7158 26.6722 20.0351 25.9513 19.4894C24.4959 18.3907 22.6316 17.9537 20.8358 18.2885C20.1104 18.4236 19.4142 18.6864 18.7645 19.0706C18.696 20.4147 19.6806 21.1438 19.781 21.214C21.0603 21.9367 22.399 22.121 23.6564 22.2123C24.7979 22.2935 25.6219 22.9094 26.174 24.0966L26.1849 24.1194C26.1922 24.1349 26.1995 24.1504 26.2059 24.166C26.5298 24.8841 26.6822 25.7053 26.6822 26.7447C26.6822 26.8706 26.58 26.9728 26.4541 26.9728C26.3282 26.9728 26.226 26.8706 26.226 26.7447C26.226 25.7592 26.0909 25.0191 25.7871 24.3475C25.7807 24.332 25.7761 24.3229 25.7716 24.3138L25.7579 24.2846C25.2761 23.2507 24.5972 22.7352 23.6217 22.6667C22.3086 22.5709 20.9061 22.3765 19.5456 21.6055C19.5401 21.6027 19.5355 21.5991 19.5301 21.5964C19.4735 21.558 18.1549 20.6483 18.3164 18.9145C18.3228 18.8433 18.363 18.7785 18.4241 18.7411C19.1505 18.2958 19.9325 17.992 20.7501 17.8396C22.6718 17.481 24.6674 17.9491 26.2242 19.1253C26.9952 19.7093 27.6294 20.4366 28.1094 21.287C28.2526 21.5407 28.374 21.7889 28.4826 22.0462L28.5081 22.1055C28.8814 23.0208 29.0985 24.0172 29.1204 24.9124C29.1752 27.1252 29.1661 29.3754 29.1578 31.5526L29.156 32.1293C29.156 32.2553 29.0538 32.3566 28.9279 32.3566H28.9297Z" fill="#052C47"/>
<path d="M22.1263 33.7121C22.0451 33.7121 21.9657 33.6994 21.8927 33.6683C21.2485 33.3909 20.6663 33.0697 20.1617 32.7129C19.0366 31.9182 18.2107 30.8907 17.7052 29.6597C17.2152 28.4671 17.3795 27.1923 17.6048 26.1028C17.9187 24.5853 18.5082 23.0596 19.46 21.2994C19.5202 21.189 19.658 21.147 19.7693 21.2072C19.8797 21.2675 19.9217 21.4053 19.8615 21.5166C18.9316 23.2357 18.3558 24.7231 18.052 26.195C17.8302 27.269 17.6861 28.4105 18.1277 29.4863C18.6059 30.6525 19.3578 31.586 20.4254 32.3407C20.9044 32.6792 21.4592 32.9849 22.0734 33.2495C22.1153 33.2677 22.2604 33.2586 22.484 33.1582C22.9366 32.9538 23.3481 32.7239 23.7095 32.4739C25.2434 31.4154 26.0519 29.9189 26.1833 27.9004C26.2052 27.5555 26.228 27.1485 26.228 26.747C26.228 26.6211 26.3302 26.5189 26.4561 26.5189C26.582 26.5189 26.6842 26.6211 26.6842 26.747C26.6842 27.1622 26.6614 27.5783 26.6386 27.9305C26.4999 30.0676 25.602 31.7229 23.9695 32.8498C23.5863 33.1154 23.1501 33.3599 22.672 33.5753C22.5168 33.6446 22.3161 33.714 22.1272 33.714L22.1263 33.7121Z" fill="#052C47"/>
<path d="M17.5831 18.468C17.4572 18.468 17.355 18.3667 17.355 18.2408C17.355 18.1139 17.4572 18.0117 17.5831 18.0117C17.709 18.0117 17.8112 18.1139 17.8112 18.2398C17.8112 18.3658 17.709 18.4689 17.5831 18.4689V18.468Z" fill="#052C47"/>
<path d="M38.1034 27.8147C35.0383 27.8147 32.5444 24.9558 32.5444 21.4418C32.5444 17.9277 35.0383 15.0688 38.1034 15.0688C41.1685 15.0688 43.6623 17.9277 43.6623 21.4418C43.6623 24.9558 41.1685 27.8147 38.1034 27.8147ZM38.1034 15.5251C35.2892 15.5251 33.0007 18.1796 33.0007 21.4418C33.0007 24.7039 35.2901 27.3584 38.1034 27.3584C40.9166 27.3584 43.2061 24.7039 43.2061 21.4418C43.2061 18.1796 40.9166 15.5251 38.1034 15.5251Z" fill="#052C47"/>
<path d="M28.9099 43.4481C28.784 43.4481 28.6818 43.3459 28.6818 43.22V41.8239C28.6818 41.0437 28.4144 40.2799 27.9281 39.6722C27.6589 39.3327 27.3322 39.0517 26.9572 38.8354L23.2926 36.7202C22.9148 36.5031 22.5051 36.3598 22.0744 36.2959C21.9494 36.2777 21.8636 36.1618 21.8818 36.0368C21.9001 35.9118 22.016 35.826 22.141 35.8442C22.6283 35.9163 23.0918 36.0778 23.5198 36.3242L27.1844 38.4394C27.6096 38.6839 27.9792 39.0024 28.2839 39.3866C28.8342 40.0737 29.1371 40.9396 29.1371 41.8229V43.2191C29.1371 43.345 29.0349 43.4472 28.909 43.4472L28.9099 43.4481Z" fill="#052C47"/>
<path d="M15.3053 48.4082C15.1793 48.4082 15.0771 48.306 15.0771 48.1801V41.8236C15.0771 40.9403 15.3801 40.0744 15.9312 39.3863C16.2351 39.0031 16.6056 38.6846 17.0308 38.4401L20.6945 36.3249C21.1225 36.0785 21.5869 35.917 22.0742 35.8449C22.1992 35.8258 22.3151 35.9125 22.3333 36.0375C22.3516 36.1625 22.2658 36.2784 22.1408 36.2966C21.711 36.3605 21.3004 36.5028 20.9226 36.7209L17.2589 38.8361C16.8839 39.0524 16.5572 39.3334 16.288 39.672C15.8017 40.2806 15.5334 41.0444 15.5334 41.8246V48.181C15.5334 48.3069 15.4312 48.4091 15.3053 48.4091V48.4082Z" fill="#052C47"/>
<path d="M62.1796 39.6837C62.0537 39.6837 61.9515 39.5815 61.9515 39.4555V37.8915C61.9515 37.0109 61.6494 36.1495 61.101 35.4633C60.7972 35.081 60.4285 34.7635 60.0051 34.5198L55.8998 32.1501C55.4736 31.9046 55.011 31.744 54.5255 31.6719C54.4005 31.6537 54.3148 31.5378 54.333 31.4128C54.3513 31.2877 54.4681 31.202 54.5922 31.2202C55.1342 31.3005 55.6507 31.4803 56.1279 31.7549L60.2332 34.1247C60.7068 34.3976 61.1184 34.7525 61.4578 35.1796C62.0701 35.9451 62.4077 36.9087 62.4077 37.8915V39.4555C62.4077 39.5815 62.3055 39.6837 62.1796 39.6837Z" fill="#052C47"/>
<path d="M46.9381 45.2408C46.8122 45.2408 46.71 45.1386 46.71 45.0127V37.8915C46.71 36.9078 47.0476 35.9442 47.6608 35.1786C47.9993 34.7525 48.4118 34.3976 48.8854 34.1247L52.9898 31.7549C53.467 31.4803 53.9835 31.3005 54.5255 31.2202C54.6496 31.202 54.7664 31.2877 54.7847 31.4128C54.8029 31.5378 54.7171 31.6537 54.5921 31.6719C54.1067 31.744 53.644 31.9046 53.217 32.1501L49.1126 34.5198C48.6892 34.7635 48.3205 35.081 48.0176 35.4624C47.4682 36.1486 47.1662 37.0109 47.1662 37.8915V45.0127C47.1662 45.1386 47.064 45.2408 46.9381 45.2408Z" fill="#052C47"/>
<path d="M54.5586 29.6673C53.2647 29.6673 52.0538 29.1599 51.1495 28.2383C50.2625 27.3413 49.7734 26.1487 49.7734 24.8812C49.7734 23.2031 50.6285 21.6774 52.0611 20.7987C52.1678 20.733 52.3093 20.7668 52.375 20.8735C52.4407 20.9812 52.4069 21.1217 52.3002 21.1874C51.0044 21.9822 50.2306 23.3628 50.2306 24.8803C50.2306 26.0264 50.6732 27.105 51.4752 27.9171C52.2947 28.7511 53.3897 29.2101 54.5595 29.2101C55.7293 29.2101 56.8243 28.7511 57.6428 27.918C58.4458 27.1059 58.8884 26.0273 58.8884 24.8812C58.8884 24.5938 58.8592 24.3036 58.8026 24.018C58.778 23.8948 58.8583 23.7744 58.9815 23.7497C59.1047 23.7251 59.2251 23.8054 59.2497 23.9286C59.3127 24.2434 59.3446 24.5637 59.3446 24.8812C59.3446 26.1487 58.8555 27.3404 57.9677 28.2383C57.0634 29.159 55.8525 29.6664 54.5586 29.6664V29.6673Z" fill="#052C47"/>
<path d="M56.646 24.871C54.3766 24.871 52.4047 23.2595 51.9557 21.0385C51.8928 20.7228 51.8608 20.4025 51.8608 20.0849C51.8608 19.584 51.9375 19.0921 52.089 18.6249C52.109 18.5611 52.1565 18.5099 52.2185 18.4844C52.9732 18.1705 53.7762 18.0117 54.6056 18.0117C56.2746 18.0117 57.8423 18.6614 59.0203 19.8404C59.7877 20.6078 60.3425 21.5623 60.6263 22.6007C60.6437 22.6655 60.6327 22.7348 60.5944 22.7896C60.2157 23.3416 59.7147 23.818 59.1453 24.1665C58.3962 24.6264 57.5329 24.8701 56.6469 24.8701L56.646 24.871ZM52.4914 18.8667C52.3755 19.2582 52.3162 19.6679 52.3162 20.0858C52.3162 20.3733 52.3454 20.6634 52.402 20.9491C52.808 22.9575 54.5929 24.4147 56.6451 24.4147C57.4463 24.4147 58.2274 24.1948 58.9044 23.7787C59.3899 23.4813 59.8206 23.0825 60.1555 22.6198C59.8844 21.6973 59.3817 20.8496 58.6955 20.1634C57.6041 19.0702 56.1505 18.468 54.6038 18.468C53.8711 18.468 53.1611 18.6021 52.4905 18.8658L52.4914 18.8667Z" fill="#052C47"/>
<path d="M55.2015 18.4982H55.1979C55.0719 18.4982 54.9697 18.396 54.9697 18.2701C54.9697 18.1442 55.0719 18.042 55.1979 18.042C55.3238 18.042 55.4278 18.1442 55.4278 18.2701C55.4278 18.396 55.3274 18.4982 55.2015 18.4982Z" fill="#052C47"/>
<path d="M53.7607 24.8711C52.8755 24.8711 52.0123 24.6274 51.2622 24.1675C50.8607 23.9221 50.4976 23.6191 50.1855 23.2669C50.1015 23.1729 50.1107 23.0287 50.2047 22.9448C50.2986 22.8608 50.4428 22.8699 50.5268 22.9639C50.8096 23.2824 51.1372 23.5562 51.5004 23.7779C52.1784 24.194 52.9604 24.4139 53.7607 24.4139C54.2306 24.4139 54.6914 24.3391 55.1322 24.1922C55.2517 24.152 55.3813 24.2168 55.4205 24.3363C55.4597 24.4559 55.3959 24.5855 55.2763 24.6247C54.79 24.7871 54.2799 24.8701 53.7607 24.8701V24.8711Z" fill="#052C47"/>
<path d="M58.2784 19.7209C58.1525 19.7209 58.0503 19.6196 58.0503 19.4937C58.0503 19.3668 58.1525 19.2646 58.2784 19.2646C58.4043 19.2646 58.5065 19.3668 58.5065 19.4928C58.5065 19.6187 58.4043 19.7218 58.2784 19.7218V19.7209Z" fill="#052C47"/>
<path d="M60.6182 28.3067H57.8049C57.679 28.3067 57.5768 28.2045 57.5768 28.0786C57.5768 27.9526 57.679 27.8504 57.8049 27.8504H60.39V24.2561C60.39 23.735 60.3216 23.2186 60.1856 22.7231C59.9228 21.7604 59.4073 20.8753 58.6964 20.1644C57.6051 19.0713 56.1515 18.469 54.6048 18.469C53.8365 18.469 53.0928 18.6168 52.3929 18.907C50.222 19.8058 48.8195 21.9046 48.8195 24.2561V27.8504H51.3116C51.4375 27.8504 51.5397 27.9526 51.5397 28.0786C51.5397 28.2045 51.4375 28.3067 51.3116 28.3067H48.5914C48.4655 28.3067 48.3633 28.2045 48.3633 28.0786V24.2561C48.3633 21.7202 49.8762 19.4554 52.2186 18.4864C52.9732 18.1725 53.7762 18.0137 54.6048 18.0137C56.2737 18.0137 57.8414 18.6634 59.0195 19.8423C59.786 20.6088 60.3417 21.5642 60.6255 22.6026C60.7724 23.1374 60.8463 23.694 60.8463 24.2561V28.0786C60.8463 28.2045 60.7441 28.3067 60.6182 28.3067Z" fill="#052C47"/>
<path d="M49.463 45.2407C49.3371 45.2407 49.2349 45.1385 49.2349 45.0126V38.2291C49.2349 38.1032 49.3371 38.001 49.463 38.001C49.5889 38.001 49.6911 38.1032 49.6911 38.2291V45.0126C49.6911 45.1385 49.5889 45.2407 49.463 45.2407Z" fill="#052C47"/>
<path d="M34.6157 67.3425C34.4807 67.3425 34.3456 67.3288 34.2106 67.3014C33.591 67.1755 33.0718 66.7585 32.7989 66.1754C32.7205 66.1699 32.6429 66.1662 32.5662 66.1626C32.2925 66.1489 32.0096 66.1343 31.7423 66.0504C30.7887 65.7511 30.2576 64.8313 30.4511 63.812C30.4538 63.7992 30.4575 63.7791 30.4602 63.7627C30.4584 63.7618 30.4556 63.76 30.4529 63.7591C29.8315 63.4452 29.4199 62.9488 29.2931 62.362C29.1654 61.7726 29.3378 61.1466 29.7767 60.6C29.7859 60.589 29.7941 60.5781 29.8032 60.5662C29.7293 60.495 29.6563 60.4239 29.5824 60.3536C29.3159 60.0972 29.0504 59.8417 28.7876 59.5826C28.0603 58.8672 27.5566 58.0395 27.2893 57.1243C27.2792 57.0905 27.2683 57.0558 27.2573 57.0221C27.2163 56.8934 27.1697 56.7474 27.1661 56.5923C27.1588 56.2802 26.9781 56.0786 26.7253 55.8285C25.749 54.8649 24.7635 53.8785 23.8108 52.925C23.4951 52.6092 23.1803 52.2935 22.8645 51.9778C22.3855 51.4987 22.3827 51.0726 22.8582 50.5963C24.4194 49.0304 26.0638 47.3843 28.012 45.4397C28.0129 45.4388 28.0147 45.437 28.0156 45.4361C28.1169 45.3348 28.2191 45.2326 28.3222 45.1295C28.7876 44.665 29.2274 44.6723 29.7065 45.1523L30.4237 45.8695C31.4448 46.8906 32.5015 47.9473 33.5362 48.9903C33.6229 49.0769 33.6777 49.0998 33.7844 49.0934C34.853 49.0204 35.8585 49.1399 36.7729 49.4502C37.0439 49.5423 37.3286 49.6783 37.668 49.879C37.7949 49.9538 37.8715 49.9602 38.0239 49.9064C38.0266 49.9055 38.0294 49.9046 38.0312 49.9037C38.8379 49.6162 39.7458 49.4912 40.8882 49.5076C41.2259 49.5131 41.4367 49.4255 41.6684 49.1874C42.6101 48.2183 43.5829 47.251 44.5246 46.3148C44.7947 46.0456 45.0648 45.7773 45.3349 45.5082C45.7847 45.0592 46.2227 45.061 46.6753 45.5118C46.7793 45.6158 46.8843 45.7199 46.9883 45.8239L46.9901 45.8257C48.6664 47.4983 50.4047 49.2366 52.1613 50.9968C52.6184 51.4549 52.612 51.8874 52.1421 52.3583L51.0453 53.456C50.2633 54.238 49.4612 55.041 48.6637 55.8422C48.6536 55.8605 48.6408 55.8778 48.6244 55.8942C48.6089 55.9097 48.5925 55.9225 48.5742 55.9326C48.3917 56.116 48.2092 56.2994 48.0276 56.4828C47.9446 56.5658 47.9017 56.6461 47.8953 56.689C47.7101 57.9674 47.1252 59.0916 46.1579 60.0306L46.0849 60.1009C45.9079 60.2715 45.7254 60.4485 45.5657 60.6328C45.5602 60.6429 45.5511 60.6766 45.5511 60.6958C46.0037 61.82 45.625 62.8393 44.5611 63.3776C44.6833 64.0383 44.5017 64.6962 44.0592 65.168C43.6002 65.6562 42.9368 65.8733 42.2168 65.7775C41.9029 66.4126 41.3363 66.8397 40.6702 66.9346C39.963 67.0349 39.2485 66.7448 38.6736 66.1334C38.3743 66.5385 38.0102 66.795 37.5658 66.9154C37.0494 67.055 36.5502 67.0021 36.0794 66.7585C35.6514 67.1435 35.1386 67.3479 34.6139 67.3479L34.6157 67.3425ZM26.8148 55.2746C26.8914 55.3504 26.969 55.427 27.0456 55.5028C27.3431 55.7957 27.6105 56.0986 27.6223 56.5795C27.6241 56.6699 27.6579 56.773 27.6926 56.8834C27.7044 56.9208 27.7163 56.9582 27.7273 56.9956C27.9718 57.836 28.4363 58.5961 29.107 59.2568C29.3688 59.5141 29.6326 59.7687 29.8981 60.0242C30.0204 60.1419 30.1426 60.2596 30.2649 60.3783C30.348 60.4586 30.358 60.5881 30.2877 60.6803L30.222 60.767C30.1855 60.8153 30.1591 60.8509 30.1308 60.8856C29.7795 61.3227 29.6399 61.8127 29.7375 62.2653C29.8342 62.7152 30.1609 63.1002 30.6573 63.3512C30.9721 63.51 30.9219 63.7718 30.8982 63.8968C30.7495 64.6807 31.1519 65.387 31.8773 65.6142C32.089 65.6808 32.3317 65.6927 32.5872 65.7054C32.7132 65.7118 32.8436 65.7182 32.976 65.7319C33.0617 65.7401 33.1347 65.7967 33.1658 65.8761C33.3656 66.3916 33.779 66.7475 34.3 66.8534C34.8584 66.9674 35.4351 66.7694 35.8804 66.3104C35.9553 66.2338 36.073 66.2192 36.1633 66.2748C36.5739 66.5276 36.9937 66.5906 37.4463 66.4683C37.8642 66.3551 38.1845 66.0896 38.4519 65.6333C38.4902 65.5686 38.5577 65.5266 38.6335 65.5211C38.7101 65.5165 38.7822 65.5485 38.8287 65.6078C39.3297 66.2484 39.9776 66.5641 40.6054 66.4756C41.1656 66.3962 41.6383 66.0056 41.8692 65.4317C41.9102 65.3295 42.0188 65.2711 42.1265 65.293C42.757 65.4216 43.3401 65.2601 43.727 64.8486C44.1012 64.4507 44.2335 63.8759 44.0802 63.311C44.0528 63.2107 44.0966 63.1057 44.1869 63.0537L44.218 63.0355C44.2453 63.019 44.2672 63.0062 44.29 62.9962C45.1879 62.5746 45.5 61.7735 45.125 60.8518C45.0547 60.6794 45.1195 60.4458 45.2208 60.329C45.3933 60.1291 45.584 59.9448 45.7674 59.7669L45.8395 59.6966C46.7456 58.8179 47.2694 57.8105 47.4427 56.6169C47.4719 56.4125 47.6188 56.2401 47.7028 56.1552C47.8461 56.011 47.9902 55.8659 48.1335 55.7218C47.315 54.9096 46.1415 53.7946 45.0045 52.7142C44.1194 51.8738 43.2124 51.0124 42.4623 50.2833C42.4596 50.2805 42.4568 50.2778 42.4541 50.2751C42.2278 50.0551 42.0161 49.8471 41.8236 49.6564C41.5535 49.8726 41.2596 49.9657 40.8791 49.9593C39.8005 49.942 38.9464 50.0588 38.1964 50.3243C37.919 50.4813 37.2939 50.8262 36.6889 51.1611C36.0985 51.4869 35.4881 51.8245 35.2435 51.9632L34.6997 52.2725C34.2626 52.5207 33.8255 52.7689 33.3875 53.0153C32.6347 53.4387 32.3664 54.364 32.7761 55.1223C32.9632 55.4681 33.2826 55.7227 33.6758 55.8386C34.0801 55.9581 34.5026 55.9143 34.8648 55.7163C35.6432 55.2902 36.4362 54.8449 37.2218 54.3932C37.4563 54.2581 37.6498 54.2718 37.8405 54.4379L39.3616 54.8704C39.9338 55.0328 40.5178 55.021 41.0488 54.8339C41.141 54.802 41.2213 54.7682 41.2961 54.7308C42.2178 54.2672 42.6777 53.4871 42.664 52.4112C42.6621 52.2853 42.7634 52.1822 42.8894 52.1804H42.8921C43.0171 52.1804 43.1184 52.2807 43.1202 52.4057C43.1366 53.6531 42.5773 54.5985 41.5014 55.1396C41.4093 55.1861 41.3107 55.2272 41.2003 55.2664C40.5798 55.4836 39.9018 55.4991 39.2375 55.3111L37.668 54.8649C37.648 54.8595 37.6279 54.8512 37.6096 54.8403C37.5923 54.8302 37.5768 54.8175 37.5622 54.8029C37.5357 54.7764 37.5202 54.7655 37.5129 54.7609C37.5047 54.7636 37.4855 54.77 37.4509 54.7901C36.6615 55.2436 35.8658 55.6907 35.0847 56.1178C34.6148 56.3751 34.0691 56.4317 33.5481 56.2775C33.038 56.1269 32.621 55.7939 32.3764 55.3403C31.8463 54.3603 32.193 53.1649 33.1648 52.6184C33.6019 52.372 34.0381 52.1247 34.4752 51.8765L35.02 51.5672C35.2672 51.4266 35.8512 51.1045 36.4699 50.7623C36.7929 50.5835 37.1214 50.4019 37.3998 50.2486C37.1041 50.0761 36.8568 49.9584 36.626 49.8799C35.7691 49.5898 34.8238 49.4775 33.8155 49.5469C33.5773 49.5642 33.3902 49.4903 33.2114 49.3105C33.142 49.2412 33.0727 49.1709 33.0033 49.1016L26.8138 55.2756L26.8148 55.2746ZM42.9478 50.1181C43.6622 50.8098 44.5008 51.6064 45.3212 52.3848C46.4609 53.467 47.6362 54.583 48.4583 55.3997C49.2175 54.6377 49.9804 53.8739 50.7241 53.1293L51.8209 52.0316C52.112 51.7396 52.1166 51.5927 51.8392 51.3153C50.1392 49.6117 48.4574 47.9299 46.8314 46.3066C46.6854 46.4562 46.4773 46.6698 46.2638 46.8888C46.0138 47.1461 45.7555 47.4107 45.5794 47.5914L45.9973 48.0048C46.4791 48.4811 46.9618 48.9583 47.4427 49.4383C47.6471 49.6418 47.7548 49.8745 47.7548 50.1099C47.7548 50.3125 47.6736 50.5004 47.5212 50.6537C47.19 50.9841 46.6917 50.953 46.3085 50.5789C45.9426 50.2212 45.5803 49.8571 45.3047 49.5797C45.0657 49.3388 44.8293 49.097 44.5957 48.8589L44.4479 48.7083C44.2408 48.9045 43.9159 49.2102 43.5975 49.5076C43.3483 49.7412 43.1084 49.9657 42.9478 50.1181ZM28.1726 45.9206C26.2955 47.7958 24.6978 49.3936 23.1803 50.9165C22.8837 51.214 22.8846 51.3518 23.1867 51.6538C23.5024 51.9696 23.8181 52.2853 24.1329 52.601C24.9049 53.3739 25.6979 54.1678 26.4899 54.9534L31.849 49.608C31.6957 49.4556 31.4767 49.2375 31.2468 49.0085C30.9648 48.7275 30.6673 48.4309 30.4556 48.2201C30.4273 48.2584 30.3963 48.2958 30.3607 48.3314C29.7795 48.9191 29.1398 49.5606 28.4043 50.2924C27.9946 50.7003 27.5219 50.7386 27.1715 50.3937C27.0192 50.244 26.9379 50.0579 26.937 49.8571C26.9361 49.6162 27.0484 49.3744 27.2628 49.1591L27.3641 49.0578C27.751 48.6681 28.1516 48.2657 28.5485 47.8734C28.7693 47.6544 28.9965 47.4372 29.2155 47.2264C29.2584 47.1853 29.3013 47.1443 29.3442 47.1023C29.1672 46.9234 28.9062 46.6606 28.6598 46.4124C28.4755 46.2263 28.2994 46.0493 28.1735 45.9224L28.1726 45.9206ZM44.4525 48.1599C44.5118 48.1599 44.5702 48.1827 44.6149 48.2283L44.9206 48.5404C45.1533 48.7786 45.3896 49.0195 45.6278 49.2594C45.9015 49.5359 46.2629 49.8982 46.627 50.2532C46.7036 50.3289 46.9728 50.557 47.1982 50.3316C47.2648 50.265 47.2986 50.1911 47.2986 50.1108C47.2986 50.0004 47.2356 49.8772 47.1197 49.7622C46.6397 49.2832 46.157 48.8059 45.6761 48.3305L45.0976 47.7575C45.0082 47.6689 45.0073 47.5257 45.0949 47.4363C45.2363 47.2921 45.594 46.9243 45.9371 46.5712C46.1525 46.3504 46.3623 46.135 46.5083 45.9845C46.4572 45.9334 46.4052 45.8814 46.3541 45.8303C46.0795 45.5565 45.9298 45.5556 45.6579 45.8266C45.3878 46.0958 45.1177 46.365 44.8476 46.6333C43.9597 47.5157 43.0436 48.4272 42.1539 49.3397C42.299 49.4839 42.4559 49.6381 42.6211 49.7996C42.7835 49.6463 43.0299 49.4146 43.2863 49.1746C43.7097 48.7776 44.1486 48.367 44.2937 48.2247C44.3384 48.1809 44.3959 48.1599 44.4534 48.1599H44.4525ZM28.4956 45.5985C28.6215 45.7253 28.7976 45.9033 28.9829 46.0894C29.325 46.4343 29.6973 46.8094 29.8315 46.9453C29.8744 46.9891 29.8972 47.0475 29.8963 47.1078C29.8963 47.1689 29.8707 47.2264 29.8269 47.2684C29.7293 47.3633 29.6307 47.4582 29.5313 47.5531C29.3132 47.7629 29.0878 47.9792 28.8688 48.1964C28.4728 48.5878 28.0731 48.9893 27.6871 49.3781L27.5858 49.4793C27.4608 49.6053 27.3924 49.7376 27.3933 49.8526C27.3933 49.931 27.427 50.0031 27.4918 50.0661C27.5594 50.1327 27.7382 50.3088 28.0831 49.9666C28.8177 49.2357 29.4564 48.5951 30.0368 48.0084C30.0806 47.9646 30.1207 47.9035 30.1636 47.8387C30.1883 47.8022 30.212 47.7657 30.2385 47.7292C30.2777 47.6753 30.3379 47.6407 30.4045 47.6352C30.4711 47.6297 30.5368 47.6534 30.5834 47.7009C30.7686 47.8852 31.1838 48.2986 31.5689 48.6827C31.7997 48.9127 32.0187 49.1317 32.172 49.2832L32.6821 48.774C31.8189 47.9062 30.9475 47.0348 30.1007 46.188L29.3834 45.4707C29.0778 45.1651 28.9327 45.1605 28.6443 45.4488C28.595 45.4981 28.5449 45.5474 28.4965 45.5967L28.4956 45.5985Z" fill="#052C47"/>
<path d="M38.6515 65.9783C38.5931 65.9783 38.5347 65.9555 38.49 65.9108L34.1976 61.6038C34.1082 61.5143 34.1091 61.3702 34.1976 61.2807C34.287 61.1922 34.4312 61.1922 34.5206 61.2807L38.813 65.5877C38.9024 65.6772 38.9015 65.8213 38.813 65.9108C38.7683 65.9555 38.7099 65.9774 38.6524 65.9774L38.6515 65.9783Z" fill="#052C47"/>
<path d="M42.0836 65.7466C42.0271 65.7466 41.9705 65.7257 41.9258 65.6837L35.8522 59.872C35.7609 59.7844 35.7582 59.6402 35.8449 59.5489C35.9316 59.4577 36.0766 59.455 36.167 59.5416L42.2406 65.3534C42.3318 65.441 42.3346 65.5851 42.2479 65.6764C42.2032 65.7229 42.1429 65.7466 42.0827 65.7466H42.0836Z" fill="#052C47"/>
<path d="M48.5552 53.1512C48.4959 53.1512 48.4375 53.1275 48.3937 53.0846L47.7403 52.4312C47.6828 52.3738 47.66 52.2898 47.681 52.2104L47.9201 51.3171C47.9411 51.2386 48.0031 51.1766 48.0816 51.1556L48.974 50.9165C49.0525 50.8955 49.1364 50.9174 49.1948 50.9758L49.8482 51.6292C49.9057 51.6866 49.9285 51.7706 49.9075 51.85L49.6684 52.7433C49.6474 52.8218 49.5854 52.8838 49.5069 52.9048L48.6136 53.1439C48.5944 53.1494 48.5743 53.1512 48.5543 53.1512H48.5552ZM48.1564 52.2013L48.6236 52.6685L49.2624 52.4969L49.4339 51.8582L48.9667 51.391L48.328 51.5625L48.1573 52.2013H48.1564Z" fill="#052C47"/>
<path d="M26.1768 52.7404C26.1568 52.7404 26.1376 52.7377 26.1175 52.7331L25.2242 52.4941C25.1457 52.4731 25.0837 52.411 25.0627 52.3325L24.8236 51.4392C24.8026 51.3607 24.8254 51.2768 24.8829 51.2184L25.5363 50.565C25.5937 50.5075 25.6777 50.4847 25.7571 50.5057L26.6504 50.7448C26.7289 50.7658 26.7909 50.8278 26.8119 50.9063L27.051 51.7996C27.072 51.8781 27.0492 51.9621 26.9917 52.0205L26.3383 52.6738C26.2945 52.7176 26.2371 52.7404 26.1768 52.7404ZM25.4706 52.0871L26.1093 52.2586L26.5765 51.7914L26.405 51.1527L25.7662 50.9811L25.299 51.4483L25.4696 52.0871H25.4706Z" fill="#052C47"/>
<path d="M30.69 63.9781C30.6325 63.9781 30.575 63.9562 30.5303 63.9133C30.44 63.8257 30.4382 63.6806 30.5267 63.5903L31.8261 62.2598C31.9137 62.1695 32.0588 62.1677 32.1491 62.2562C32.2394 62.3438 32.2413 62.4889 32.1528 62.5792L30.8534 63.9096C30.8086 63.9553 30.7493 63.9781 30.69 63.9781Z" fill="#052C47"/>
<path d="M32.955 66.1872C32.8939 66.1872 32.8327 66.1626 32.788 66.1142C32.7022 66.0221 32.7077 65.8779 32.7999 65.7921L34.1358 64.5502C34.2279 64.4644 34.3721 64.4699 34.4579 64.5621C34.5437 64.6542 34.5382 64.7984 34.446 64.8842L33.1101 66.1261C33.0663 66.1672 33.0107 66.1872 32.955 66.1872Z" fill="#052C47"/>
<path d="M45.3387 60.9951C45.2803 60.9951 45.2219 60.9732 45.1772 60.9284L39.589 55.3403C39.4996 55.2509 39.4996 55.1067 39.589 55.0173C39.6785 54.9278 39.8226 54.9278 39.9121 55.0173L45.5002 60.6054C45.5896 60.6948 45.5896 60.839 45.5002 60.9284C45.4555 60.9732 45.3971 60.9951 45.3387 60.9951Z" fill="#052C47"/>
<path d="M44.3027 63.4817C44.2443 63.4817 44.1849 63.4589 44.1402 63.4142L38.6415 57.8589C38.553 57.7695 38.5539 57.6253 38.6433 57.5359C38.7328 57.4465 38.8769 57.4483 38.9664 57.5377L44.4651 63.093C44.5536 63.1824 44.5527 63.3266 44.4633 63.416C44.4185 63.4598 44.3611 63.4817 44.3027 63.4817Z" fill="#052C47"/>
<path d="M36.0465 66.6983C35.9881 66.6983 35.9297 66.6764 35.885 66.6317L29.9465 60.7041C29.857 60.6146 29.857 60.4705 29.9465 60.381C30.035 60.2916 30.1801 60.2916 30.2695 60.381L36.208 66.3086C36.2975 66.3981 36.2975 66.5422 36.208 66.6317C36.1633 66.6764 36.1049 66.6983 36.0465 66.6983Z" fill="#052C47"/>
<path d="M49.5423 57.0819C49.4857 57.0819 49.4292 57.0609 49.3854 57.0189C49.2941 56.9322 49.2905 56.7871 49.3771 56.6959L53.216 52.6617C53.3027 52.5705 53.4469 52.5668 53.5381 52.6535C53.6294 52.7402 53.633 52.8853 53.5464 52.9765L49.7075 57.0107C49.6628 57.0582 49.6025 57.0819 49.5423 57.0819Z" fill="#052C47"/>
<path d="M46.8299 39.1904C46.704 39.1904 46.6018 39.0882 46.6018 38.9623V37.1209C46.6018 36.0751 46.2432 35.0513 45.5916 34.2374C45.2312 33.7829 44.7932 33.4061 44.2904 33.1168L39.4578 30.3273C38.9514 30.0362 38.4021 29.8446 37.8254 29.7588C37.7003 29.7406 37.6146 29.6247 37.6328 29.4997C37.6511 29.3747 37.767 29.2889 37.892 29.3071C38.5252 29.4011 39.1284 29.611 39.685 29.9313L44.5176 32.7217C45.0706 33.0402 45.5515 33.4545 45.9475 33.9536C46.6629 34.8478 47.0571 35.9729 47.0571 37.1218V38.9632C47.0571 39.0891 46.9549 39.1913 46.829 39.1913L46.8299 39.1904Z" fill="#052C47"/>
<path d="M28.8873 45.7331C28.7614 45.7331 28.6592 45.6309 28.6592 45.505V37.1218C28.6592 35.973 29.0534 34.8479 29.7697 33.9527C30.1657 33.4545 30.6466 33.0402 31.1996 32.7218L36.0322 29.9323C36.5888 29.612 37.192 29.4021 37.8252 29.3081C37.9512 29.2899 38.0661 29.3756 38.0844 29.5006C38.1026 29.6257 38.0169 29.7415 37.8919 29.7598C37.3152 29.8456 36.7658 30.0363 36.2594 30.3283L31.4277 33.1178C30.9249 33.4071 30.4869 33.7839 30.1265 34.2384C29.474 35.0532 29.1154 36.077 29.1154 37.1228V45.5059C29.1154 45.6318 29.0132 45.734 28.8873 45.734V45.7331Z" fill="#052C47"/>
<path d="M25.8016 56.7019C25.7441 56.7019 25.6857 56.68 25.6419 56.6362L21.512 52.5719C21.4225 52.4834 21.4207 52.3393 21.5092 52.2489C21.5977 52.1595 21.7419 52.1586 21.8322 52.2462L25.9622 56.3105C26.0516 56.399 26.0535 56.5431 25.965 56.6335C25.9202 56.6791 25.8609 56.7019 25.8025 56.7019H25.8016Z" fill="#052C47"/>
</svg>
