<svg width="74" height="73" viewBox="0 0 74 73" fill="none" xmlns="http://www.w3.org/2000/svg">
<mask id="mask0_1860_8239" style="mask-type:luminance" maskUnits="userSpaceOnUse" x="0" y="0" width="74" height="73">
<path d="M36.9702 73C57.1286 73 73.4702 56.6584 73.4702 36.5C73.4702 16.3416 57.1286 0 36.9702 0C16.8118 0 0.470215 16.3416 0.470215 36.5C0.470215 56.6584 16.8118 73 36.9702 73Z" fill="white"/>
</mask>
<g mask="url(#mask0_1860_8239)">
<path d="M73.4702 0H0.470215V0.319375H73.4702V0Z" fill="#FCFEFE"/>
<path d="M73.4702 0.319336H0.470215V0.896036H73.4702V0.319336Z" fill="#FBFDFE"/>
<path d="M73.4702 0.895996H0.470215V1.4727H73.4702V0.895996Z" fill="#FAFDFE"/>
<path d="M73.4702 1.47168H0.470215V2.04838H73.4702V1.47168Z" fill="#F9FCFE"/>
<path d="M73.4702 2.04834H0.470215V2.62504H73.4702V2.04834Z" fill="#F8FCFD"/>
<path d="M73.4702 2.625H0.470215V3.2017H73.4702V2.625Z" fill="#F7FCFD"/>
<path d="M73.4702 3.20215H0.470215V3.77885H73.4702V3.20215Z" fill="#F6FBFD"/>
<path d="M73.4702 3.77881H0.470215V4.35551H73.4702V3.77881Z" fill="#F5FBFD"/>
<path d="M73.4702 4.35547H0.470215V4.93217H73.4702V4.35547Z" fill="#F4FAFC"/>
<path d="M73.4702 4.93213H0.470215V5.50883H73.4702V4.93213Z" fill="#F3FAFC"/>
<path d="M73.4702 5.50781H0.470215V6.08451H73.4702V5.50781Z" fill="#F2F9FC"/>
<path d="M73.4702 6.08447H0.470215V6.66117H73.4702V6.08447Z" fill="#F1F9FC"/>
<path d="M73.4702 6.66113H0.470215V7.23783H73.4702V6.66113Z" fill="#F0F9FB"/>
<path d="M73.4702 7.23779H0.470215V7.81449H73.4702V7.23779Z" fill="#EFF8FB"/>
<path d="M73.4702 7.81445H0.470215V8.39115H73.4702V7.81445Z" fill="#EEF8FB"/>
<path d="M73.4702 8.39111H0.470215V8.96781H73.4702V8.39111Z" fill="#EDF7FB"/>
<path d="M73.4702 8.96826H0.470215V9.54496H73.4702V8.96826Z" fill="#ECF7FA"/>
<path d="M73.4702 9.54395H0.470215V10.1206H73.4702V9.54395Z" fill="#EBF6FA"/>
<path d="M73.4702 10.1206H0.470215V10.6973H73.4702V10.1206Z" fill="#EAF6FA"/>
<path d="M73.4702 10.6973H0.470215V11.274H73.4702V10.6973Z" fill="#E9F6FA"/>
<path d="M73.4702 11.2739H0.470215V11.8506H73.4702V11.2739Z" fill="#E8F5F9"/>
<path d="M73.4702 11.8506H0.470215V12.4273H73.4702V11.8506Z" fill="#E7F5F9"/>
<path d="M73.4702 12.4272H0.470215V13.0039H73.4702V12.4272Z" fill="#E6F4F9"/>
<path d="M73.4702 13.0039H0.470215V13.5806H73.4702V13.0039Z" fill="#E5F4F9"/>
<path d="M73.4702 13.5801H0.470215V14.1568H73.4702V13.5801Z" fill="#E4F3F8"/>
<path d="M73.4702 14.1562H0.470215V14.733H73.4702V14.1562Z" fill="#E3F3F8"/>
<path d="M73.4702 14.7334H0.470215V15.3101H73.4702V14.7334Z" fill="#E2F3F8"/>
<path d="M73.4702 15.3101H0.470215V15.8868H73.4702V15.3101Z" fill="#E1F2F8"/>
<path d="M73.4702 15.8867H0.470215V16.4634H73.4702V15.8867Z" fill="#E0F2F7"/>
<path d="M73.4702 16.4634H0.470215V17.0401H73.4702V16.4634Z" fill="#DFF1F7"/>
<path d="M73.4702 17.0391H0.470215V17.6158H73.4702V17.0391Z" fill="#DEF1F7"/>
<path d="M73.4702 17.6157H0.470215V18.1924H73.4702V17.6157Z" fill="#DDF0F7"/>
<path d="M73.4702 18.1924H0.470215V18.7691H73.4702V18.1924Z" fill="#DCF0F6"/>
<path d="M73.4702 18.769H0.470215V19.3457H73.4702V18.769Z" fill="#DBF0F6"/>
<path d="M73.4702 19.3457H0.470215V19.9224H73.4702V19.3457Z" fill="#DAEFF6"/>
<path d="M73.4702 19.9229H0.470215V20.4996H73.4702V19.9229Z" fill="#D9EFF6"/>
<path d="M73.4702 20.4995H0.470215V21.0762H73.4702V20.4995Z" fill="#D8EEF5"/>
<path d="M73.4702 21.0752H0.470215V21.6519H73.4702V21.0752Z" fill="#D7EEF5"/>
<path d="M73.4702 21.6519H0.470215V22.2286H73.4702V21.6519Z" fill="#D6EDF5"/>
<path d="M73.4702 22.2285H0.470215V22.8052H73.4702V22.2285Z" fill="#D5EDF5"/>
<path d="M73.4702 22.8052H0.470215V23.3819H73.4702V22.8052Z" fill="#D4EDF4"/>
<path d="M73.4702 23.3818H0.470215V23.9585H73.4702V23.3818Z" fill="#D3ECF4"/>
<path d="M73.4702 23.9585H0.470215V24.5352H73.4702V23.9585Z" fill="#D2ECF4"/>
<path d="M73.4702 24.5352H0.470215V25.1119H73.4702V24.5352Z" fill="#D1EBF4"/>
<path d="M73.4702 25.1113H0.470215V25.688H73.4702V25.1113Z" fill="#D0EBF3"/>
<path d="M73.4702 25.688H0.470215V26.2647H73.4702V25.688Z" fill="#CFEAF3"/>
<path d="M73.4702 26.2646H0.470215V26.8413H73.4702V26.2646Z" fill="#CEEAF3"/>
<path d="M73.4702 26.8413H0.470215V27.418H73.4702V26.8413Z" fill="#CDEAF3"/>
<path d="M73.4702 27.418H0.470215V27.9947H73.4702V27.418Z" fill="#CCE9F2"/>
<path d="M73.4702 27.9946H0.470215V28.5713H73.4702V27.9946Z" fill="#CBE9F2"/>
<path d="M73.4702 28.5713H0.470215V29.148H73.4702V28.5713Z" fill="#CAE8F2"/>
<path d="M73.4702 29.147H0.470215V29.7237H73.4702V29.147Z" fill="#C9E8F2"/>
<path d="M73.4702 29.7236H0.470215V30.3003H73.4702V29.7236Z" fill="#C8E7F1"/>
<path d="M73.4702 30.3003H0.470215V30.877H73.4702V30.3003Z" fill="#C7E7F1"/>
<path d="M73.4702 30.877H0.470215V31.4537H73.4702V30.877Z" fill="#C6E7F1"/>
<path d="M73.4702 31.4541H0.470215V32.0308H73.4702V31.4541Z" fill="#C5E6F1"/>
<path d="M73.4702 32.0308H0.470215V32.6075H73.4702V32.0308Z" fill="#C4E6F0"/>
<path d="M73.4702 32.6064H0.470215V33.1831H73.4702V32.6064Z" fill="#C3E5F0"/>
<path d="M73.4702 33.1831H0.470215V33.7598H73.4702V33.1831Z" fill="#C2E5F0"/>
<path d="M73.4702 33.7598H0.470215V34.3365H73.4702V33.7598Z" fill="#C1E5F0"/>
<path d="M73.4702 34.3364H0.470215V34.9131H73.4702V34.3364Z" fill="#BFE4EF"/>
<path d="M73.4702 34.9131H0.470215V35.4898H73.4702V34.9131Z" fill="#BEE4EF"/>
<path d="M73.4702 35.4897H0.470215V36.0664H73.4702V35.4897Z" fill="#BDE3EF"/>
<path d="M73.4702 36.0664H0.470215V36.6431H73.4702V36.0664Z" fill="#BCE3EF"/>
<path d="M73.4702 36.6421H0.470215V37.2188H73.4702V36.6421Z" fill="#BBE2EE"/>
<path d="M73.4702 37.2192H0.470215V37.7959H73.4702V37.2192Z" fill="#BAE2EE"/>
<path d="M73.4702 37.7959H0.470215V38.3726H73.4702V37.7959Z" fill="#B9E2EE"/>
<path d="M73.4702 38.3726H0.470215V38.9493H73.4702V38.3726Z" fill="#B8E1EE"/>
<path d="M73.4702 38.9492H0.470215V39.5259H73.4702V38.9492Z" fill="#B7E1ED"/>
<path d="M73.4702 39.5259H0.470215V40.1026H73.4702V39.5259Z" fill="#B6E0ED"/>
<path d="M73.4702 40.1025H0.470215V40.6792H73.4702V40.1025Z" fill="#B5E0ED"/>
<path d="M73.4702 40.6782H0.470215V41.2549H73.4702V40.6782Z" fill="#B4DFED"/>
<path d="M73.4702 41.2549H0.470215V41.8316H73.4702V41.2549Z" fill="#B3DFEC"/>
<path d="M73.4702 41.8315H0.470215V42.4082H73.4702V41.8315Z" fill="#B2DFEC"/>
<path d="M73.4702 42.4082H0.470215V42.9849H73.4702V42.4082Z" fill="#B1DEEC"/>
<path d="M73.4702 42.9854H0.470215V43.5621H73.4702V42.9854Z" fill="#B0DEEC"/>
<path d="M73.4702 43.562H0.470215V44.1387H73.4702V43.562Z" fill="#AFDDEB"/>
<path d="M73.4702 44.1387H0.470215V44.7154H73.4702V44.1387Z" fill="#AEDDEB"/>
<path d="M73.4702 44.7144H0.470215V45.2911H73.4702V44.7144Z" fill="#ADDCEB"/>
<path d="M73.4702 45.291H0.470215V45.8677H73.4702V45.291Z" fill="#ACDCEB"/>
<path d="M73.4702 45.8677H0.470215V46.4444H73.4702V45.8677Z" fill="#ABDCEA"/>
<path d="M73.4702 46.4443H0.470215V47.021H73.4702V46.4443Z" fill="#AADBEA"/>
<path d="M73.4702 47.021H0.470215V47.5977H73.4702V47.021Z" fill="#A9DBEA"/>
<path d="M73.4702 47.5977H0.470215V48.1744H73.4702V47.5977Z" fill="#A8DAEA"/>
<path d="M73.4702 48.1738H0.470215V48.7505H73.4702V48.1738Z" fill="#A7DAE9"/>
<path d="M73.4702 48.7505H0.470215V49.3272H73.4702V48.7505Z" fill="#A6D9E9"/>
<path d="M73.4702 49.3271H0.470215V49.9038H73.4702V49.3271Z" fill="#A5D9E9"/>
<path d="M73.4702 49.9038H0.470215V50.4805H73.4702V49.9038Z" fill="#A4D9E9"/>
<path d="M73.4702 50.4805H0.470215V51.0572H73.4702V50.4805Z" fill="#A3D8E8"/>
<path d="M73.4702 51.0571H0.470215V51.6338H73.4702V51.0571Z" fill="#A2D8E8"/>
<path d="M73.4702 51.6338H0.470215V52.2105H73.4702V51.6338Z" fill="#A1D7E8"/>
<path d="M73.4702 52.2095H0.470215V52.7862H73.4702V52.2095Z" fill="#A0D7E8"/>
<path d="M73.4702 52.7861H0.470215V53.3628H73.4702V52.7861Z" fill="#9FD6E7"/>
<path d="M73.4702 53.3628H0.470215V53.9395H73.4702V53.3628Z" fill="#9ED6E7"/>
<path d="M73.4702 53.9399H0.470215V54.5166H73.4702V53.9399Z" fill="#9DD6E7"/>
<path d="M73.4702 54.5166H0.470215V55.0933H73.4702V54.5166Z" fill="#9CD5E7"/>
<path d="M73.4702 55.0933H0.470215V55.67H73.4702V55.0933Z" fill="#9BD5E6"/>
<path d="M73.4702 55.6699H0.470215V56.2466H73.4702V55.6699Z" fill="#9AD4E6"/>
<path d="M73.4702 56.2456H0.470215V56.8223H73.4702V56.2456Z" fill="#99D4E6"/>
<path d="M73.4702 56.8223H0.470215V57.399H73.4702V56.8223Z" fill="#98D3E6"/>
<path d="M73.4702 57.3989H0.470215V57.9756H73.4702V57.3989Z" fill="#97D3E5"/>
<path d="M73.4702 57.9756H0.470215V58.5523H73.4702V57.9756Z" fill="#96D3E5"/>
<path d="M73.4702 58.5522H0.470215V59.1289H73.4702V58.5522Z" fill="#95D2E5"/>
<path d="M73.4702 59.1289H0.470215V59.7056H73.4702V59.1289Z" fill="#94D2E5"/>
<path d="M73.4702 59.7056H0.470215V60.2823H73.4702V59.7056Z" fill="#93D1E4"/>
<path d="M73.4702 60.2817H0.470215V60.8584H73.4702V60.2817Z" fill="#92D1E4"/>
<path d="M73.4702 60.8584H0.470215V61.4351H73.4702V60.8584Z" fill="#91D0E4"/>
<path d="M73.4702 61.4351H0.470215V62.0118H73.4702V61.4351Z" fill="#90D0E4"/>
<path d="M73.4702 62.0117H0.470215V62.5884H73.4702V62.0117Z" fill="#8FD0E3"/>
<path d="M73.4702 62.5884H0.470215V63.1651H73.4702V62.5884Z" fill="#8ECFE3"/>
<path d="M73.4702 63.165H0.470215V63.7417H73.4702V63.165Z" fill="#8DCFE3"/>
<path d="M73.4702 63.7407H0.470215V64.3174H73.4702V63.7407Z" fill="#8CCEE3"/>
<path d="M73.4702 64.3174H0.470215V64.8941H73.4702V64.3174Z" fill="#8BCEE2"/>
<path d="M73.4702 64.894H0.470215V65.4707H73.4702V64.894Z" fill="#8ACDE2"/>
<path d="M73.4702 65.4712H0.470215V66.0479H73.4702V65.4712Z" fill="#89CDE2"/>
<path d="M73.4702 66.0479H0.470215V66.6246H73.4702V66.0479Z" fill="#88CDE2"/>
<path d="M73.4702 66.6245H0.470215V67.2012H73.4702V66.6245Z" fill="#87CCE1"/>
<path d="M73.4702 67.2012H0.470215V67.7779H73.4702V67.2012Z" fill="#86CCE1"/>
<path d="M73.4702 67.7769H0.470215V68.3536H73.4702V67.7769Z" fill="#85CBE1"/>
<path d="M73.4702 68.3535H0.470215V68.9302H73.4702V68.3535Z" fill="#84CBE1"/>
<path d="M73.4702 68.9302H0.470215V69.5069H73.4702V68.9302Z" fill="#83CAE0"/>
<path d="M73.4702 69.5068H0.470215V70.0835H73.4702V69.5068Z" fill="#82CAE0"/>
<path d="M73.4702 70.0835H0.470215V72.9998H73.4702V70.0835Z" fill="#82CAE0"/>
</g>
<path d="M36.9703 70.7325C32.3494 70.7325 27.8663 69.8273 23.646 68.0424C19.5698 66.3187 15.9089 63.8504 12.7653 60.7059C9.62176 57.5614 7.15344 53.9014 5.42882 49.8253C3.64397 45.6049 2.73877 41.1218 2.73877 36.5C2.73877 36.3741 2.84097 36.2719 2.96689 36.2719C3.09282 36.2719 3.19502 36.3741 3.19502 36.5C3.19502 55.1241 18.3471 70.2762 36.9712 70.2762C55.5953 70.2762 70.7474 55.1241 70.7474 36.5C70.7474 17.8759 55.5944 2.72383 36.9703 2.72383C36.8444 2.72383 36.7422 2.62163 36.7422 2.4957C36.7422 2.36978 36.8444 2.26758 36.9703 2.26758C41.5912 2.26758 46.0743 3.17278 50.2955 4.95763C54.3717 6.68225 58.0326 9.14965 61.1762 12.2941C64.3197 15.4386 66.7881 19.0986 68.5127 23.1748C70.2975 27.3951 71.2027 31.8782 71.2027 36.4991C71.2027 41.12 70.2975 45.6031 68.5127 49.8243C66.789 53.9005 64.3207 57.5614 61.1762 60.705C58.0317 63.8486 54.3717 66.3169 50.2955 68.0415C46.0752 69.8263 41.5921 70.7315 36.9703 70.7315V70.7325Z" fill="#052C47"/>
<path d="M36.9703 67.7175C36.8444 67.7175 36.7422 67.6153 36.7422 67.4893C36.7422 67.3634 36.8444 67.2612 36.9703 67.2612C52.981 67.2612 66.455 54.7691 67.6449 38.8222C67.654 38.6963 67.7663 38.6023 67.8895 38.6115C68.0154 38.6206 68.1094 38.7301 68.1003 38.856C67.5153 46.6889 64.0186 53.9633 58.2516 59.3389C52.4564 64.7418 44.8981 67.7165 36.9703 67.7165V67.7175Z" fill="#052C47"/>
<path d="M6.06858 34.3883C6.06311 34.3883 6.05763 34.3883 6.05124 34.3883C5.92532 34.3792 5.83133 34.2697 5.84046 34.1438C6.42446 26.3109 9.92207 19.0364 15.6891 13.6609C21.4844 8.25795 29.0426 5.2832 36.9704 5.2832C37.0963 5.2832 37.1985 5.3854 37.1985 5.51133C37.1985 5.63725 37.0963 5.73945 36.9704 5.73945C20.9597 5.73945 7.48569 18.2316 6.29579 34.1784C6.28667 34.298 6.18721 34.3892 6.06858 34.3892V34.3883Z" fill="#052C47"/>
<path d="M5.98096 37.1196C5.94173 37.1196 5.90249 37.1095 5.8669 37.0895L4.6624 36.3941C4.59214 36.3531 4.54834 36.2783 4.54834 36.1961V34.8055C4.54834 34.7243 4.59214 34.6485 4.6624 34.6075L5.8669 33.9121C5.93716 33.8711 6.02476 33.8711 6.09503 33.9121L7.29953 34.6075C7.36979 34.6485 7.41359 34.7234 7.41359 34.8055V36.1961C7.41359 36.2773 7.36979 36.3531 7.29953 36.3941L6.09503 37.0895C6.05944 37.1095 6.0202 37.1196 5.98096 37.1196ZM5.00459 36.0647L5.98096 36.6287L6.95734 36.0647V34.9369L5.98096 34.373L5.00459 34.9369V36.0647Z" fill="#052C47"/>
<path d="M67.9596 39.1178C67.9204 39.1178 67.8811 39.1077 67.8455 39.0876L66.6565 38.4014C66.5863 38.3604 66.5425 38.2856 66.5425 38.2034V36.831C66.5425 36.7498 66.5863 36.6741 66.6565 36.633L67.8455 35.9468C67.9158 35.9057 68.0034 35.9057 68.0737 35.9468L69.2626 36.633C69.3329 36.6741 69.3767 36.7489 69.3767 36.831V38.2034C69.3767 38.2846 69.3329 38.3604 69.2626 38.4014L68.0737 39.0876C68.0381 39.1077 67.9988 39.1178 67.9596 39.1178ZM66.9987 38.072L67.9596 38.6268L68.9205 38.072V36.9624L67.9596 36.4076L66.9987 36.9624V38.072Z" fill="#052C47"/>
<path d="M17.8287 46.4172C16.9773 46.4172 16.1953 45.8487 15.9635 44.9883L15.9516 44.9435C15.8175 44.4453 15.885 43.9252 16.1423 43.4781C16.3997 43.0309 16.8158 42.7107 17.314 42.5765C17.3724 42.561 17.4344 42.5692 17.4874 42.5993C17.5394 42.6294 17.5777 42.6796 17.5941 42.738L18.493 46.0714C18.5085 46.1298 18.5003 46.1918 18.4701 46.2448C18.44 46.2968 18.3898 46.3351 18.3314 46.3515C18.1635 46.3972 17.9956 46.4181 17.8296 46.4181L17.8287 46.4172ZM17.2164 43.093C16.5639 43.3832 16.2008 44.1141 16.3915 44.8249L16.4033 44.8696C16.5949 45.5796 17.2766 46.0294 17.9865 45.9519L17.2164 43.093Z" fill="#052C47"/>
<path d="M20.0659 48.1882C19.7319 48.1882 19.4025 48.1006 19.106 47.9299C18.6588 47.6726 18.3386 47.2565 18.2044 46.7583L16.999 42.2852C16.8649 41.787 16.9324 41.2668 17.1897 40.8197C17.447 40.3726 17.8631 40.0523 18.3614 39.9182L23.5435 38.5211C23.6657 38.4883 23.7907 38.5604 23.8227 38.6817L25.915 46.4435C25.9306 46.5019 25.9223 46.5639 25.8922 46.6168C25.8621 46.6688 25.8119 46.7072 25.7535 46.7236L20.5714 48.1206C20.4045 48.1653 20.2347 48.1882 20.0659 48.1882ZM23.4413 39.0221L18.48 40.3598C18.0995 40.462 17.7819 40.7066 17.5857 41.0478C17.3896 41.3891 17.3375 41.787 17.4397 42.1675L18.6452 46.6406C18.7474 47.0211 18.9919 47.3386 19.3341 47.5348C19.6754 47.731 20.0732 47.783 20.4537 47.6808L25.415 46.3431L23.4413 39.0221Z" fill="#052C47"/>
<path d="M25.6942 46.7318C25.5939 46.7318 25.5017 46.6643 25.4743 46.563L23.382 38.8013C23.3491 38.6799 23.4212 38.554 23.5426 38.5221L24.9232 38.1498C24.9816 38.1342 25.0436 38.1425 25.0966 38.1726C25.1486 38.2027 25.1869 38.2529 25.2033 38.3113L27.2957 46.073C27.3112 46.1314 27.303 46.1935 27.2729 46.2464C27.2428 46.2984 27.1926 46.3367 27.1342 46.3531L25.7536 46.7254C25.7335 46.7309 25.7134 46.7337 25.6942 46.7337V46.7318ZM23.882 38.9026L25.8558 46.2236L26.7956 45.9699L24.8219 38.6489L23.882 38.9026Z" fill="#052C47"/>
<path d="M32.2654 47.7958C32.2453 47.7958 32.2243 47.7931 32.2042 47.7876L27.0139 46.3513C26.9364 46.3294 26.8752 46.2692 26.8542 46.1907L24.7619 38.429C24.7409 38.3514 24.7619 38.2675 24.8194 38.21L28.5843 34.3602C28.6418 34.3018 28.7258 34.278 28.8052 34.299C28.8845 34.32 28.9466 34.3812 28.9676 34.4605L32.4844 47.5084C32.5053 47.5878 32.4825 47.6717 32.425 47.7292C32.3822 47.7721 32.3238 47.7958 32.2644 47.7958H32.2654ZM27.2612 45.9462L31.9405 47.241L28.6318 34.9642L25.2364 38.4354L27.2603 45.9453L27.2612 45.9462Z" fill="#052C47"/>
<path d="M22.3804 53.2962C22.3411 53.2962 22.3019 53.2862 22.2663 53.2661C22.2143 53.236 22.176 53.1858 22.1596 53.1274L20.7342 47.8413C20.7187 47.7829 20.7269 47.7209 20.757 47.6679C20.7872 47.6159 20.8373 47.5776 20.8957 47.5612L22.7992 47.0483C22.9115 47.0182 23.0292 47.0775 23.0711 47.1861L24.3833 50.5806C24.5777 51.0843 24.5494 51.6492 24.3048 52.131C24.0603 52.6128 23.6214 52.9696 23.1003 53.1101L22.4397 53.288C22.4205 53.2935 22.4005 53.2962 22.3804 53.2962ZM21.2352 47.9426L22.541 52.788L22.9817 52.6693C23.3787 52.5626 23.7126 52.2906 23.8979 51.9247C24.0831 51.5588 24.105 51.1281 23.9572 50.7458L22.7198 47.5429L21.2352 47.9435V47.9426Z" fill="#052C47"/>
<path d="M31.1091 43.5062C31.0087 43.5062 30.9166 43.4387 30.8892 43.3374C30.8563 43.216 30.9284 43.0901 31.0498 43.0582C31.5873 42.9131 32.0362 42.5672 32.3145 42.0845C32.5919 41.6018 32.6649 41.0397 32.5198 40.5013C32.2205 39.3917 31.0744 38.7311 29.9639 39.0304C29.8416 39.0632 29.7166 38.9911 29.6847 38.8698C29.6518 38.7484 29.7239 38.6225 29.8453 38.5906C31.1985 38.2265 32.5956 39.0304 32.9606 40.3827C33.1376 41.0388 33.0482 41.7241 32.7096 42.3126C32.3711 42.9012 31.8236 43.3228 31.1684 43.4989C31.1483 43.5044 31.1283 43.5071 31.1091 43.5071V43.5062Z" fill="#052C47"/>
<path d="M34.3867 40.3495C34.3192 40.3495 34.2526 40.3194 34.2079 40.2637C34.1358 40.1734 34.1422 40.0447 34.2225 39.9617C34.2416 39.9416 36.042 38.0892 37.0074 36.4458L36.6178 36.4093C35.7573 36.329 34.9862 35.912 34.4478 35.2358C33.9095 34.5597 33.6759 33.7147 33.7908 32.8579L34.7983 25.3307C34.9926 23.8798 36.1451 22.7629 37.6024 22.6169L54.5931 20.905C55.4892 20.8147 56.3816 21.1131 57.0423 21.7235C57.7029 22.334 58.0725 23.2 58.0551 24.0988L57.8389 34.9949C57.8215 35.8664 57.4392 36.6995 56.7886 37.2798C56.1389 37.8602 55.2684 38.1467 54.3997 38.0664L40.3152 36.7542L34.5053 40.3157C34.4679 40.3385 34.4269 40.3495 34.3858 40.3495H34.3867ZM54.9079 21.3458C54.8185 21.3458 54.7282 21.3503 54.6387 21.3595L37.648 23.0713C36.4024 23.1972 35.416 24.1508 35.2508 25.3918L34.2434 32.919C34.1458 33.6517 34.3447 34.3735 34.8055 34.9521C35.2664 35.5306 35.9252 35.8865 36.6607 35.9549L37.3989 36.0233C37.4746 36.0306 37.5421 36.0753 37.5786 36.1419C37.6151 36.2086 37.6151 36.2898 37.5796 36.3573C37.0804 37.3008 36.2756 38.3292 35.6204 39.0966L40.1418 36.3254C40.1838 36.2998 40.2322 36.288 40.2824 36.2925L54.4426 37.612C55.1954 37.6823 55.9208 37.4432 56.4847 36.9395C57.0487 36.4358 57.3671 35.7423 57.3826 34.9858L57.5989 24.0897C57.6144 23.3204 57.2987 22.5804 56.7329 22.0584C56.2338 21.5985 55.5804 21.3458 54.9079 21.3458Z" fill="#052C47"/>
<path d="M31.363 37.0105C31.3429 37.0105 31.3219 37.0078 31.3009 37.0023C31.1796 36.9686 31.1084 36.8426 31.1431 36.7213L32.0455 33.5001C32.0793 33.3788 32.2052 33.3076 32.3266 33.3423C32.4479 33.376 32.5191 33.502 32.4844 33.6233L31.582 36.8445C31.5537 36.9448 31.4624 37.0114 31.3621 37.0114L31.363 37.0105Z" fill="#052C47"/>
<path d="M35.6883 45.4348C35.6673 45.4348 35.6463 45.432 35.6253 45.4256L32.7582 44.6007C32.6369 44.5661 32.5675 44.4392 32.6022 44.3188C32.6369 44.1974 32.7628 44.1281 32.8841 44.1627L35.7512 44.9876C35.8726 45.0223 35.9419 45.1491 35.9073 45.2696C35.8781 45.37 35.7868 45.4348 35.6883 45.4348Z" fill="#052C47"/>
<path d="M40.3672 26.6399C40.3672 27.411 39.8955 27.8891 39.1271 27.9074L38.4108 27.9238V28.9723L38.0029 28.9759V25.5312L39.1271 25.4692C39.8955 25.4263 40.3672 25.867 40.3672 26.639V26.6399ZM39.9383 26.6573C39.9383 26.1526 39.6536 25.8789 39.1153 25.9063L38.4117 25.9409V27.494L39.1153 27.4739C39.6536 27.4584 39.9383 27.1619 39.9383 26.6573Z" fill="#052C47"/>
<path d="M41.0078 25.3669L41.4486 25.3423V28.4959L43.1659 28.4694V28.9266L41.0078 28.9476V25.366V25.3669Z" fill="#052C47"/>
<path d="M45.8643 27.9503L44.0648 27.9886L43.7017 28.9221L43.2217 28.9267L44.7182 25.1617L45.1972 25.1353L46.774 28.892L46.2466 28.8975L45.8643 27.9503ZM45.6918 27.5205L44.9545 25.6964L44.2309 27.5589L45.6918 27.5205Z" fill="#052C47"/>
<path d="M47.8388 25.4727L46.6133 25.5339V25.0566L49.6327 24.8896V25.3833L48.3552 25.4463V28.8755L47.8388 28.88V25.4709V25.4727Z" fill="#052C47"/>
<path d="M49.8604 26.8697C49.8604 25.7026 50.7272 24.7838 51.9336 24.7162C53.1627 24.6478 54.0953 25.5028 54.0953 26.7319C54.0953 27.9611 53.1618 28.8772 51.9336 28.8882C50.7053 28.8991 49.8604 28.0359 49.8604 26.8688V26.8697ZM53.5031 26.7511C53.5031 25.8322 52.8251 25.1898 51.9336 25.2345C51.042 25.2792 50.4069 25.9636 50.4069 26.8515C50.4069 27.7393 51.0493 28.3827 51.9336 28.3699C52.8242 28.3562 53.5031 27.67 53.5031 26.7511Z" fill="#052C47"/>
<path d="M40.7204 30.2433V34.0357L40.3426 34.0147L38.4647 31.1641V33.9107L38.0312 33.887V30.2251L38.3871 30.2278L40.2614 33.052V30.2406L40.7213 30.2433H40.7204Z" fill="#052C47"/>
<path d="M44.1898 33.7357V34.2276L41.7041 34.0898V30.25L44.1195 30.2664V30.7583L42.1813 30.7336V31.9199L43.9032 31.9673V32.4464L42.1813 32.3889V33.6363L44.1898 33.7348V33.7357Z" fill="#052C47"/>
<path d="M50.3838 30.3093L49.0379 34.4958L48.4475 34.463L47.3935 31.1177L46.3651 34.348L45.8003 34.317L44.5903 30.27L45.1187 30.2737L46.106 33.5751L47.1599 30.2874L47.6618 30.291L48.734 33.7147L49.8326 30.3056L50.3838 30.3093Z" fill="#052C47"/>
<path d="M50.7241 34.0995L50.9422 33.6323C51.2506 33.9353 51.7844 34.1707 52.3301 34.1981C53.0747 34.2355 53.3987 33.9554 53.3987 33.5712C53.3987 32.4945 50.8245 33.0766 50.8245 31.4861C50.8245 30.8255 51.3227 30.2661 52.4341 30.2725C52.9388 30.2753 53.4671 30.4176 53.8312 30.6731L53.6231 31.1759C53.2417 30.925 52.8147 30.8063 52.4332 30.8018C51.7114 30.7926 51.4058 31.0974 51.4058 31.4725C51.4058 32.5255 54.0146 31.9296 54.0146 33.5584C54.0146 34.2364 53.4735 34.7894 52.3301 34.7255C51.6822 34.689 51.0554 34.4335 50.7241 34.0986V34.0995Z" fill="#052C47"/>
<path d="M57.8279 40.7975C57.8206 40.7975 57.8133 40.7975 57.806 40.7966L48.7796 39.9461C48.6537 39.9342 48.5624 39.8229 48.5743 39.6979C48.5861 39.5729 48.6966 39.4816 48.8225 39.4926L57.8489 40.343C57.9749 40.3549 58.0661 40.4662 58.0542 40.5912C58.0433 40.709 57.9438 40.7984 57.827 40.7984L57.8279 40.7975Z" fill="#052C47"/>
<path d="M34.9661 21.3446C34.8548 21.3446 34.7572 21.2634 34.7407 21.1503C34.7225 21.0253 34.8083 20.9094 34.9333 20.8911L42.914 19.7058C43.0381 19.6866 43.1549 19.7733 43.1731 19.8983C43.1914 20.0233 43.1056 20.1392 42.9806 20.1575L34.9999 21.3428C34.9889 21.3446 34.9771 21.3455 34.9661 21.3455V21.3446Z" fill="#052C47"/>
</svg>
