<svg width="73" height="73" viewBox="0 0 73 73" fill="none" xmlns="http://www.w3.org/2000/svg">
<mask id="mask0_1860_8246" style="mask-type:luminance" maskUnits="userSpaceOnUse" x="0" y="0" width="73" height="73">
<path d="M36.5 73C56.6584 73 73 56.6584 73 36.5C73 16.3416 56.6584 0 36.5 0C16.3416 0 0 16.3416 0 36.5C0 56.6584 16.3416 73 36.5 73Z" fill="white"/>
</mask>
<g mask="url(#mask0_1860_8246)">
<path d="M73 0H0V0.319375H73V0Z" fill="#FCFEFE"/>
<path d="M73 0.319336H0V0.896042H73V0.319336Z" fill="#FBFDFE"/>
<path d="M73 0.89502H0V1.47171H73V0.89502Z" fill="#FAFDFE"/>
<path d="M73 1.47168H0V2.04839H73V1.47168Z" fill="#F9FCFE"/>
<path d="M73 2.04834H0V2.62503H73V2.04834Z" fill="#F8FCFD"/>
<path d="M73 2.625H0V3.20171H73V2.625Z" fill="#F7FCFD"/>
<path d="M73 3.20215H0V3.77884H73V3.20215Z" fill="#F6FBFD"/>
<path d="M73 3.77881H0V4.3555H73V3.77881Z" fill="#F5FBFD"/>
<path d="M73 4.35547H0V4.93217H73V4.35547Z" fill="#F4FAFC"/>
<path d="M73 4.93115H0V5.50785H73V4.93115Z" fill="#F3FAFC"/>
<path d="M73 5.50781H0V6.08452H73V5.50781Z" fill="#F2F9FC"/>
<path d="M73 6.08447H0V6.66117H73V6.08447Z" fill="#F1F9FC"/>
<path d="M73 6.66113H0V7.23784H73V6.66113Z" fill="#F0F9FB"/>
<path d="M73 7.23779H0V7.81449H73V7.23779Z" fill="#EFF8FB"/>
<path d="M73 7.81445H0V8.39116H73V7.81445Z" fill="#EEF8FB"/>
<path d="M73 8.39111H0V8.96781H73V8.39111Z" fill="#EDF7FB"/>
<path d="M73 8.96729H0V9.54399H73V8.96729Z" fill="#ECF7FA"/>
<path d="M73 9.54395H0V10.1206H73V9.54395Z" fill="#EBF6FA"/>
<path d="M73 10.1206H0V10.6973H73V10.1206Z" fill="#EAF6FA"/>
<path d="M73 10.6973H0V11.274H73V10.6973Z" fill="#E9F6FA"/>
<path d="M73 11.2739H0V11.8506H73V11.2739Z" fill="#E8F5F9"/>
<path d="M73 11.8506H0V12.4273H73V11.8506Z" fill="#E7F5F9"/>
<path d="M73 12.4272H0V13.0039H73V12.4272Z" fill="#E6F4F9"/>
<path d="M73 13.0029H0V13.5796H73V13.0029Z" fill="#E5F4F9"/>
<path d="M73 13.5801H0V14.1568H73V13.5801Z" fill="#E4F3F8"/>
<path d="M73 14.1562H0V14.733H73V14.1562Z" fill="#E3F3F8"/>
<path d="M73 14.7334H0V15.3101H73V14.7334Z" fill="#E2F3F8"/>
<path d="M73 15.3101H0V15.8868H73V15.3101Z" fill="#E1F2F8"/>
<path d="M73 15.8867H0V16.4634H73V15.8867Z" fill="#E0F2F7"/>
<path d="M73 16.4624H0V17.0391H73V16.4624Z" fill="#DFF1F7"/>
<path d="M73 17.0391H0V17.6158H73V17.0391Z" fill="#DEF1F7"/>
<path d="M73 17.6157H0V18.1924H73V17.6157Z" fill="#DDF0F7"/>
<path d="M73 18.1924H0V18.7691H73V18.1924Z" fill="#DCF0F6"/>
<path d="M73 18.769H0V19.3457H73V18.769Z" fill="#DBF0F6"/>
<path d="M73 19.3457H0V19.9224H73V19.3457Z" fill="#DAEFF6"/>
<path d="M73 19.9229H0V20.4995H73V19.9229Z" fill="#D9EFF6"/>
<path d="M73 20.4985H0V21.0752H73V20.4985Z" fill="#D8EEF5"/>
<path d="M73 21.0752H0V21.6519H73V21.0752Z" fill="#D7EEF5"/>
<path d="M73 21.6519H0V22.2286H73V21.6519Z" fill="#D6EDF5"/>
<path d="M73 22.2285H0V22.8052H73V22.2285Z" fill="#D5EDF5"/>
<path d="M73 22.8052H0V23.3819H73V22.8052Z" fill="#D4EDF4"/>
<path d="M73 23.3818H0V23.9585H73V23.3818Z" fill="#D3ECF4"/>
<path d="M73 23.9585H0V24.5352H73V23.9585Z" fill="#D2ECF4"/>
<path d="M73 24.5342H0V25.1109H73V24.5342Z" fill="#D1EBF4"/>
<path d="M73 25.1113H0V25.688H73V25.1113Z" fill="#D0EBF3"/>
<path d="M73 25.688H0V26.2647H73V25.688Z" fill="#CFEAF3"/>
<path d="M73 26.2646H0V26.8413H73V26.2646Z" fill="#CEEAF3"/>
<path d="M73 26.8413H0V27.418H73V26.8413Z" fill="#CDEAF3"/>
<path d="M73 27.418H0V27.9947H73V27.418Z" fill="#CCE9F2"/>
<path d="M73 27.9946H0V28.5713H73V27.9946Z" fill="#CBE9F2"/>
<path d="M73 28.5703H0V29.147H73V28.5703Z" fill="#CAE8F2"/>
<path d="M73 29.147H0V29.7237H73V29.147Z" fill="#C9E8F2"/>
<path d="M73 29.7236H0V30.3003H73V29.7236Z" fill="#C8E7F1"/>
<path d="M73 30.3003H0V30.877H73V30.3003Z" fill="#C7E7F1"/>
<path d="M73 30.877H0V31.4537H73V30.877Z" fill="#C6E7F1"/>
<path d="M73 31.4541H0V32.0308H73V31.4541Z" fill="#C5E6F1"/>
<path d="M73 32.0298H0V32.6065H73V32.0298Z" fill="#C4E6F0"/>
<path d="M73 32.6064H0V33.1831H73V32.6064Z" fill="#C3E5F0"/>
<path d="M73 33.1831H0V33.7598H73V33.1831Z" fill="#C2E5F0"/>
<path d="M73 33.7598H0V34.3365H73V33.7598Z" fill="#C1E5F0"/>
<path d="M73 34.3364H0V34.9131H73V34.3364Z" fill="#BFE4EF"/>
<path d="M73 34.9131H0V35.4898H73V34.9131Z" fill="#BEE4EF"/>
<path d="M73 35.4897H0V36.0664H73V35.4897Z" fill="#BDE3EF"/>
<path d="M73 36.0654H0V36.6421H73V36.0654Z" fill="#BCE3EF"/>
<path d="M73 36.6426H0V37.2193H73V36.6426Z" fill="#BBE2EE"/>
<path d="M73 37.2192H0V37.7959H73V37.2192Z" fill="#BAE2EE"/>
<path d="M73 37.7959H0V38.3726H73V37.7959Z" fill="#B9E2EE"/>
<path d="M73 38.3726H0V38.9493H73V38.3726Z" fill="#B8E1EE"/>
<path d="M73 38.9492H0V39.5259H73V38.9492Z" fill="#B7E1ED"/>
<path d="M73 39.5259H0V40.1026H73V39.5259Z" fill="#B6E0ED"/>
<path d="M73 40.1016H0V40.6783H73V40.1016Z" fill="#B5E0ED"/>
<path d="M73 40.6782H0V41.2549H73V40.6782Z" fill="#B4DFED"/>
<path d="M73 41.2549H0V41.8316H73V41.2549Z" fill="#B3DFEC"/>
<path d="M73 41.8315H0V42.4082H73V41.8315Z" fill="#B2DFEC"/>
<path d="M73 42.4082H0V42.9849H73V42.4082Z" fill="#B1DEEC"/>
<path d="M73 42.9854H0V43.562H73V42.9854Z" fill="#B0DEEC"/>
<path d="M73 43.562H0V44.1387H73V43.562Z" fill="#AFDDEB"/>
<path d="M73 44.1377H0V44.7144H73V44.1377Z" fill="#AEDDEB"/>
<path d="M73 44.7144H0V45.2911H73V44.7144Z" fill="#ADDCEB"/>
<path d="M73 45.291H0V45.8677H73V45.291Z" fill="#ACDCEB"/>
<path d="M73 45.8677H0V46.4444H73V45.8677Z" fill="#ABDCEA"/>
<path d="M73 46.4443H0V47.021H73V46.4443Z" fill="#AADBEA"/>
<path d="M73 47.021H0V47.5977H73V47.021Z" fill="#A9DBEA"/>
<path d="M73 47.5972H0V48.1739H73V47.5972Z" fill="#A8DAEA"/>
<path d="M73 48.1738H0V48.7505H73V48.1738Z" fill="#A7DAE9"/>
<path d="M73 48.7505H0V49.3272H73V48.7505Z" fill="#A6D9E9"/>
<path d="M73 49.3271H0V49.9038H73V49.3271Z" fill="#A5D9E9"/>
<path d="M73 49.9038H0V50.4805H73V49.9038Z" fill="#A4D9E9"/>
<path d="M73 50.4805H0V51.0572H73V50.4805Z" fill="#A3D8E8"/>
<path d="M73 51.0571H0V51.6338H73V51.0571Z" fill="#A2D8E8"/>
<path d="M73 51.6328H0V52.2095H73V51.6328Z" fill="#A1D7E8"/>
<path d="M73 52.2095H0V52.7862H73V52.2095Z" fill="#A0D7E8"/>
<path d="M73 52.7861H0V53.3628H73V52.7861Z" fill="#9FD6E7"/>
<path d="M73 53.3628H0V53.9395H73V53.3628Z" fill="#9ED6E7"/>
<path d="M73 53.9399H0V54.5166H73V53.9399Z" fill="#9DD6E7"/>
<path d="M73 54.5166H0V55.0933H73V54.5166Z" fill="#9CD5E7"/>
<path d="M73 55.0933H0V55.67H73V55.0933Z" fill="#9BD5E6"/>
<path d="M73 55.6689H0V56.2456H73V55.6689Z" fill="#9AD4E6"/>
<path d="M73 56.2456H0V56.8223H73V56.2456Z" fill="#99D4E6"/>
<path d="M73 56.8223H0V57.399H73V56.8223Z" fill="#98D3E6"/>
<path d="M73 57.3989H0V57.9756H73V57.3989Z" fill="#97D3E5"/>
<path d="M73 57.9756H0V58.5523H73V57.9756Z" fill="#96D3E5"/>
<path d="M73 58.5522H0V59.1289H73V58.5522Z" fill="#95D2E5"/>
<path d="M73 59.1289H0V59.7056H73V59.1289Z" fill="#94D2E5"/>
<path d="M73 59.7051H0V60.2818H73V59.7051Z" fill="#93D1E4"/>
<path d="M73 60.2817H0V60.8584H73V60.2817Z" fill="#92D1E4"/>
<path d="M73 60.8584H0V61.4351H73V60.8584Z" fill="#91D0E4"/>
<path d="M73 61.4351H0V62.0118H73V61.4351Z" fill="#90D0E4"/>
<path d="M73 62.0117H0V62.5884H73V62.0117Z" fill="#8FD0E3"/>
<path d="M73 62.5884H0V63.1651H73V62.5884Z" fill="#8ECFE3"/>
<path d="M73 63.165H0V63.7417H73V63.165Z" fill="#8DCFE3"/>
<path d="M73 63.7407H0V64.3174H73V63.7407Z" fill="#8CCEE3"/>
<path d="M73 64.3174H0V64.8941H73V64.3174Z" fill="#8BCEE2"/>
<path d="M73 64.894H0V65.4707H73V64.894Z" fill="#8ACDE2"/>
<path d="M73 65.4712H0V66.0479H73V65.4712Z" fill="#89CDE2"/>
<path d="M73 66.0479H0V66.6245H73V66.0479Z" fill="#88CDE2"/>
<path d="M73 66.6245H0V67.2012H73V66.6245Z" fill="#87CCE1"/>
<path d="M73 67.2002H0V67.7769H73V67.2002Z" fill="#86CCE1"/>
<path d="M73 67.7769H0V68.3536H73V67.7769Z" fill="#85CBE1"/>
<path d="M73 68.3535H0V68.9302H73V68.3535Z" fill="#84CBE1"/>
<path d="M73 68.9302H0V69.5069H73V68.9302Z" fill="#83CAE0"/>
<path d="M73 69.5068H0V70.0835H73V69.5068Z" fill="#82CAE0"/>
<path d="M73 70.0835H0V72.9998H73V70.0835Z" fill="#82CAE0"/>
</g>
<path d="M36.5001 71.3447C31.8792 71.3447 27.3961 70.4395 23.1757 68.6547C19.0996 66.9301 15.4387 64.4627 12.2951 61.3182C9.15153 58.1737 6.68323 54.5137 4.9586 50.4375C3.17375 46.2172 2.26855 41.7341 2.26855 37.1123C2.26855 36.9864 2.37075 36.8842 2.49668 36.8842C2.6226 36.8842 2.7248 36.9864 2.7248 37.1123C2.7248 55.7364 17.8769 70.8885 36.501 70.8885C55.1251 70.8885 70.2772 55.7364 70.2772 37.1123C70.2772 18.4882 55.1251 3.33613 36.501 3.33613C36.3751 3.33613 36.2729 3.23393 36.2729 3.10801C36.2729 2.98208 36.3751 2.87988 36.501 2.87988C41.1219 2.87988 45.605 3.78508 49.8262 5.56993C53.9024 7.29364 57.5633 9.76196 60.7069 12.9064C63.8504 16.0509 66.3187 19.7109 68.0434 23.7871C69.8282 28.0074 70.7334 32.4905 70.7334 37.1114C70.7334 41.7323 69.8282 46.2154 68.0434 50.4366C66.3187 54.5128 63.8513 58.1737 60.7069 61.3173C57.5624 64.4609 53.9024 66.9292 49.8262 68.6538C45.6059 70.4386 41.1228 71.3438 36.501 71.3438L36.5001 71.3447Z" fill="#052C47"/>
<path d="M36.5001 68.3297C36.3742 68.3297 36.272 68.2275 36.272 68.1015C36.272 67.9756 36.3742 67.8734 36.5001 67.8734C52.5108 67.8734 65.9848 55.3813 67.1747 39.4344C67.1838 39.3085 67.2961 39.2154 67.4193 39.2236C67.5452 39.2328 67.6391 39.3423 67.63 39.4682C67.0451 47.3011 63.5484 54.5756 57.7814 59.9511C51.9861 65.354 44.4279 68.3288 36.5001 68.3288V68.3297Z" fill="#052C47"/>
<path d="M5.59837 35.0006C5.59289 35.0006 5.58649 35.0006 5.58101 35.0006C5.45509 34.9915 5.36112 34.882 5.37024 34.7561C5.95424 26.9232 9.45185 19.6487 15.2188 14.2732C21.0141 8.87026 28.5724 5.89551 36.5002 5.89551C36.6261 5.89551 36.7283 5.99771 36.7283 6.12363C36.7283 6.24956 36.6261 6.35176 36.5002 6.35176C20.4894 6.35176 7.01548 18.8439 5.82558 34.7907C5.81645 34.9103 5.71699 35.0015 5.59837 35.0015V35.0006Z" fill="#052C47"/>
<path d="M5.51075 37.7329C5.47151 37.7329 5.43227 37.7228 5.39668 37.7028L4.19219 37.0074C4.12193 36.9664 4.07812 36.8915 4.07812 36.8094V35.4188C4.07812 35.3376 4.12193 35.2618 4.19219 35.2208L5.39668 34.5254C5.46695 34.4844 5.55455 34.4844 5.62481 34.5254L6.82933 35.2208C6.89959 35.2618 6.94339 35.3366 6.94339 35.4188V36.8094C6.94339 36.8906 6.89959 36.9664 6.82933 37.0074L5.62481 37.7028C5.58922 37.7228 5.54998 37.7329 5.51075 37.7329ZM4.53438 36.6771L5.51075 37.241L6.48714 36.6771V35.5493L5.51075 34.9853L4.53438 35.5493V36.6771Z" fill="#052C47"/>
<path d="M67.4894 39.731C67.4501 39.731 67.4109 39.721 67.3753 39.7009L66.1863 39.0147C66.1161 38.9737 66.0723 38.8988 66.0723 38.8167V37.4443C66.0723 37.3631 66.1161 37.2874 66.1863 37.2463L67.3753 36.5601C67.4456 36.519 67.5332 36.519 67.6034 36.5601L68.7924 37.2463C68.8627 37.2874 68.9065 37.3622 68.9065 37.4443V38.8167C68.9065 38.8979 68.8627 38.9737 68.7924 39.0147L67.6034 39.7009C67.5679 39.721 67.5286 39.731 67.4894 39.731ZM66.5285 38.6853L67.4894 39.2401L68.4502 38.6853V37.5757L67.4894 37.0209L66.5285 37.5757V38.6853Z" fill="#052C47"/>
<path d="M31.0941 31.7687C31.0549 31.7687 31.0157 31.7587 30.9801 31.7386L29.5237 30.8982C29.4535 30.8571 29.4097 30.7823 29.4097 30.7002V29.0184C29.4097 28.9372 29.4535 28.8615 29.5237 28.8204L30.9801 27.98C31.0503 27.939 31.137 27.939 31.2082 27.98L32.2193 28.564C32.3288 28.627 32.3653 28.7666 32.3023 28.8761C32.2393 28.9856 32.0997 29.023 31.9902 28.9591L31.0932 28.4408L29.865 29.1498V30.5688L31.0941 31.2778L32.3224 30.5688V29.2712C32.3224 29.1453 32.4246 29.0431 32.5505 29.0431C32.6764 29.0431 32.7786 29.1453 32.7786 29.2712V30.7002C32.7786 30.7814 32.7348 30.8571 32.6645 30.8982L31.2073 31.7395C31.1726 31.7596 31.1334 31.7696 31.0941 31.7696V31.7687Z" fill="#052C47"/>
<path d="M44.9819 49.9567C44.9481 49.9567 44.9153 49.9493 44.8843 49.9347C43.49 49.2732 42.5893 47.8479 42.5893 46.3048V45.8066H27.3004C27.1745 45.8066 27.0723 45.7044 27.0723 45.5785V24.2022C27.0723 24.0763 27.1745 23.9741 27.3004 23.9741H47.1454C47.2714 23.9741 47.3736 24.0763 47.3736 24.2022V46.3048C47.3736 47.8479 46.4729 49.2723 45.0795 49.9347C45.0485 49.9493 45.0148 49.9567 44.9819 49.9567ZM27.5285 45.3503H42.8175C42.9434 45.3503 43.0456 45.4525 43.0456 45.5785V46.3048C43.0456 47.6362 43.802 48.869 44.9819 49.4749C46.1609 48.868 46.9173 47.6362 46.9173 46.3048V24.4304H27.5285V45.3503Z" fill="#052C47"/>
<path d="M43.3546 50.3236H27.9708C27.7281 50.3236 27.489 50.3027 27.26 50.2598C25.3437 49.9194 23.9521 48.255 23.9521 46.3041V45.5777C23.9521 45.4518 24.0543 45.3496 24.1803 45.3496H42.8181C42.944 45.3496 43.0462 45.4518 43.0462 45.5777V46.3041C43.0462 47.6719 43.8447 48.9348 45.0802 49.5216C45.1596 49.559 45.2107 49.6393 45.2107 49.7278C45.2107 49.8163 45.1605 49.8957 45.0802 49.934C44.5382 50.1923 43.9578 50.3227 43.3546 50.3227V50.3236ZM24.4075 45.8068V46.305C24.4075 48.0342 25.6412 49.5097 27.3403 49.8117C27.5438 49.8491 27.7555 49.8683 27.9708 49.8683H43.3546C43.7315 49.8683 44.0992 49.8108 44.4515 49.6958C43.3063 48.9649 42.589 47.6829 42.589 46.305V45.8068H24.4075Z" fill="#052C47"/>
<path d="M44.9826 49.9568C44.8978 49.9568 44.8156 49.9085 44.7764 49.8263C44.7226 49.7123 44.7709 49.5763 44.8841 49.5225C46.1196 48.9348 46.9171 47.6719 46.9171 46.3041V45.5777C46.9171 45.4518 47.0193 45.3496 47.1453 45.3496C47.2712 45.3496 47.3734 45.4518 47.3734 45.5777V46.3041C47.3734 47.8471 46.4727 49.2715 45.0794 49.934C45.0474 49.9495 45.0146 49.9559 44.9817 49.9559L44.9826 49.9568Z" fill="#052C47"/>
<path d="M44.9826 49.9568C44.8978 49.9568 44.8156 49.9085 44.7764 49.8263C44.7226 49.7123 44.7709 49.5763 44.8841 49.5225C46.1196 48.9348 46.9171 47.6719 46.9171 46.3041V45.5777C46.9171 45.4518 47.0193 45.3496 47.1453 45.3496C47.2712 45.3496 47.3734 45.4518 47.3734 45.5777V46.3041C47.3734 47.8471 46.4727 49.2715 45.0794 49.934C45.0474 49.9495 45.0146 49.9559 44.9817 49.9559L44.9826 49.9568Z" fill="#052C47"/>
<path d="M38.2056 29.2849H34.3512C34.2252 29.2849 34.123 29.1827 34.123 29.0567C34.123 28.9308 34.2252 28.8286 34.3512 28.8286H38.2056C38.3315 28.8286 38.4337 28.9308 38.4337 29.0567C38.4337 29.1827 38.3315 29.2849 38.2056 29.2849Z" fill="#052C47"/>
<path d="M44.3979 30.8962H34.3521C34.2262 30.8962 34.124 30.794 34.124 30.6681C34.124 30.5421 34.2262 30.4399 34.3521 30.4399H44.3979C44.5238 30.4399 44.626 30.5421 44.626 30.6681C44.626 30.794 44.5238 30.8962 44.3979 30.8962Z" fill="#052C47"/>
<path d="M31.0941 36.9498C31.0549 36.9498 31.0157 36.9398 30.9801 36.9197L29.5237 36.0784C29.4535 36.0373 29.4097 35.9625 29.4097 35.8804V34.1995C29.4097 34.1183 29.4535 34.0426 29.5237 34.0015L30.9801 33.1602C31.0513 33.1191 31.1379 33.1191 31.2082 33.1602L32.2202 33.7451C32.3297 33.8081 32.3671 33.9477 32.3041 34.0572C32.2412 34.1667 32.1015 34.2041 31.992 34.1411L31.0941 33.6219L29.8659 34.3318V35.7499L31.0941 36.4598L32.3224 35.7499V34.4523C32.3224 34.3264 32.4246 34.2242 32.5505 34.2242C32.6764 34.2242 32.7786 34.3264 32.7786 34.4523V35.8813C32.7786 35.9625 32.7348 36.0382 32.6645 36.0793L31.2082 36.9206C31.1726 36.9407 31.1334 36.9507 31.0941 36.9507V36.9498Z" fill="#052C47"/>
<path d="M38.2056 34.466H34.3512C34.2252 34.466 34.123 34.3638 34.123 34.2379C34.123 34.112 34.2252 34.0098 34.3512 34.0098H38.2056C38.3315 34.0098 38.4337 34.112 38.4337 34.2379C38.4337 34.3638 38.3315 34.466 38.2056 34.466Z" fill="#052C47"/>
<path d="M44.3979 36.0769H34.3521C34.2262 36.0769 34.124 35.9747 34.124 35.8487C34.124 35.7228 34.2262 35.6206 34.3521 35.6206H44.3979C44.5238 35.6206 44.626 35.7228 44.626 35.8487C44.626 35.9747 44.5238 36.0769 44.3979 36.0769Z" fill="#052C47"/>
<path d="M31.0941 42.13C31.0549 42.13 31.0157 42.1199 30.9801 42.0999L29.5237 41.2595C29.4535 41.2184 29.4097 41.1436 29.4097 41.0614V39.3788C29.4097 39.2976 29.4535 39.2218 29.5237 39.1808L30.9801 38.3404C31.0503 38.2993 31.137 38.2993 31.2082 38.3404L32.2193 38.9244C32.3288 38.9873 32.3653 39.1269 32.3023 39.2364C32.2393 39.3459 32.0997 39.3834 31.9902 39.3195L31.0932 38.8012L29.865 39.5102V40.9291L31.0941 41.6381L32.3224 40.9291V39.6316C32.3224 39.5056 32.4246 39.4034 32.5505 39.4034C32.6764 39.4034 32.7786 39.5056 32.7786 39.6316V41.0605C32.7786 41.1417 32.7348 41.2175 32.6645 41.2585L31.2073 42.0999C31.1726 42.1199 31.1334 42.13 31.0941 42.13Z" fill="#052C47"/>
<path d="M38.2056 39.6462H34.3512C34.2252 39.6462 34.123 39.544 34.123 39.4181C34.123 39.2921 34.2252 39.1899 34.3512 39.1899H38.2056C38.3315 39.1899 38.4337 39.2921 38.4337 39.4181C38.4337 39.544 38.3315 39.6462 38.2056 39.6462Z" fill="#052C47"/>
<path d="M44.3979 41.258H34.3521C34.2262 41.258 34.124 41.1558 34.124 41.0299C34.124 40.904 34.2262 40.8018 34.3521 40.8018H44.3979C44.5238 40.8018 44.626 40.904 44.626 41.0299C44.626 41.1558 44.5238 41.258 44.3979 41.258Z" fill="#052C47"/>
<path d="M31.0942 30.6673C31.0304 30.6673 30.9683 30.6408 30.9254 30.5925L30.1544 29.7393C30.0695 29.6462 30.0768 29.5011 30.1708 29.4172C30.2639 29.3323 30.409 29.3396 30.4929 29.4336L31.034 30.0322C31.3954 29.3095 32.3772 27.6049 33.6839 27.4416C33.8089 27.4242 33.923 27.5146 33.9385 27.6396C33.954 27.7646 33.8655 27.8787 33.7405 27.8942C32.3727 28.0648 31.3151 30.5049 31.305 30.5295C31.2749 30.6007 31.2092 30.6518 31.1326 30.6645C31.1198 30.6664 31.107 30.6673 31.0952 30.6673H31.0942Z" fill="#052C47"/>
<path d="M31.0945 35.8477C31.0306 35.8477 30.9685 35.8213 30.9247 35.7729L30.1537 34.9197C30.0697 34.8267 30.077 34.6816 30.1701 34.5976C30.2632 34.5137 30.4074 34.5201 30.4922 34.6141L31.0324 35.2127C31.3938 34.489 32.3756 32.7854 33.6823 32.6221C33.8074 32.6056 33.9214 32.6951 33.9369 32.8201C33.9524 32.9451 33.8639 33.0592 33.7389 33.0747C32.3711 33.2453 31.3135 35.6853 31.3034 35.71C31.2733 35.7811 31.2076 35.8322 31.131 35.845C31.1182 35.8468 31.1054 35.8477 31.0936 35.8477H31.0945Z" fill="#052C47"/>
<path d="M31.0945 41.0289C31.0306 41.0289 30.9685 41.0024 30.9247 40.9541L30.1537 40.1009C30.0697 40.0078 30.077 39.8627 30.1701 39.7788C30.2632 39.6948 30.4074 39.7012 30.4922 39.7952L31.0324 40.3938C31.3938 39.6702 32.3756 37.9666 33.6823 37.8032C33.8074 37.7868 33.9214 37.8762 33.9369 38.0012C33.9524 38.1262 33.8639 38.2403 33.7389 38.2558C32.3711 38.4264 31.3135 40.8665 31.3034 40.8911C31.2733 40.9623 31.2076 41.0134 31.131 41.0262C31.1182 41.028 31.1054 41.0289 31.0936 41.0289H31.0945Z" fill="#052C47"/>
<path d="M48.8196 30.8964C48.6937 30.8964 48.5915 30.7942 48.5915 30.6683V22.2404H43.8282C43.7023 22.2404 43.6001 22.1382 43.6001 22.0123C43.6001 21.8864 43.7023 21.7842 43.8282 21.7842H48.8196C48.9455 21.7842 49.0477 21.8864 49.0477 22.0123V30.6683C49.0477 30.7942 48.9455 30.8964 48.8196 30.8964Z" fill="#052C47"/>
<path d="M25.6329 41.2576C25.507 41.2576 25.4048 41.1554 25.4048 41.0295V32.1847C25.4048 32.0587 25.507 31.9565 25.6329 31.9565C25.7588 31.9565 25.861 32.0587 25.861 32.1847V41.0295C25.861 41.1554 25.7588 41.2576 25.6329 41.2576Z" fill="#052C47"/>
<path d="M48.8195 52.4406H36.8155C36.6896 52.4406 36.5874 52.3384 36.5874 52.2125C36.5874 52.0866 36.6896 51.9844 36.8155 51.9844H48.8195C48.9454 51.9844 49.0476 52.0866 49.0476 52.2125C49.0476 52.3384 48.9454 52.4406 48.8195 52.4406Z" fill="#052C47"/>
<path d="M32.9413 48.3562H24.6476C24.5216 48.3562 24.4194 48.254 24.4194 48.128C24.4194 48.0021 24.5216 47.8999 24.6476 47.8999H32.9413C33.0672 47.8999 33.1694 48.0021 33.1694 48.128C33.1694 48.254 33.0672 48.3562 32.9413 48.3562Z" fill="#052C47"/>
</svg>
