<svg width="73" height="73" viewBox="0 0 73 73" fill="none" xmlns="http://www.w3.org/2000/svg">
<mask id="mask0_1860_8248" style="mask-type:luminance" maskUnits="userSpaceOnUse" x="0" y="0" width="73" height="73">
<path d="M36.5 73C56.6584 73 73 56.6584 73 36.5C73 16.3416 56.6584 0 36.5 0C16.3416 0 0 16.3416 0 36.5C0 56.6584 16.3416 73 36.5 73Z" fill="white"/>
</mask>
<g mask="url(#mask0_1860_8248)">
<path d="M73 0H0V0.319375H73V0Z" fill="#FCFEFE"/>
<path d="M73 0.319336H0V0.896031H73V0.319336Z" fill="#FBFDFE"/>
<path d="M73 0.89502H0V1.47173H73V0.89502Z" fill="#FAFDFE"/>
<path d="M73 1.47168H0V2.04837H73V1.47168Z" fill="#F9FCFE"/>
<path d="M73 2.04834H0V2.62505H73V2.04834Z" fill="#F8FCFD"/>
<path d="M73 2.62549H0V3.20218H73V2.62549Z" fill="#F7FCFD"/>
<path d="M73 3.20215H0V3.77884H73V3.20215Z" fill="#F6FBFD"/>
<path d="M73 3.77881H0V4.35551H73V3.77881Z" fill="#F5FBFD"/>
<path d="M73 4.35547H0V4.93216H73V4.35547Z" fill="#F4FAFC"/>
<path d="M73 4.93115H0V5.50786H73V4.93115Z" fill="#F3FAFC"/>
<path d="M73 5.50781H0V6.08451H73V5.50781Z" fill="#F2F9FC"/>
<path d="M73 6.08447H0V6.66118H73V6.08447Z" fill="#F1F9FC"/>
<path d="M73 6.66113H0V7.23783H73V6.66113Z" fill="#F0F9FB"/>
<path d="M73 7.23779H0V7.8145H73V7.23779Z" fill="#EFF8FB"/>
<path d="M73 7.81445H0V8.39115H73V7.81445Z" fill="#EEF8FB"/>
<path d="M73 8.39111H0V8.96782H73V8.39111Z" fill="#EDF7FB"/>
<path d="M73 8.96729H0V9.54398H73V8.96729Z" fill="#ECF7FA"/>
<path d="M73 9.54395H0V10.1206H73V9.54395Z" fill="#EBF6FA"/>
<path d="M73 10.1206H0V10.6973H73V10.1206Z" fill="#EAF6FA"/>
<path d="M73 10.6973H0V11.274H73V10.6973Z" fill="#E9F6FA"/>
<path d="M73 11.2739H0V11.8506H73V11.2739Z" fill="#E8F5F9"/>
<path d="M73 11.8506H0V12.4273H73V11.8506Z" fill="#E7F5F9"/>
<path d="M73 12.4272H0V13.004H73V12.4272Z" fill="#E6F4F9"/>
<path d="M73 13.0029H0V13.5796H73V13.0029Z" fill="#E5F4F9"/>
<path d="M73 13.5801H0V14.1568H73V13.5801Z" fill="#E4F3F8"/>
<path d="M73 14.1562H0V14.7329H73V14.1562Z" fill="#E3F3F8"/>
<path d="M73 14.7334H0V15.3101H73V14.7334Z" fill="#E2F3F8"/>
<path d="M73 15.3101H0V15.8868H73V15.3101Z" fill="#E1F2F8"/>
<path d="M73 15.8867H0V16.4634H73V15.8867Z" fill="#E0F2F7"/>
<path d="M73 16.4624H0V17.0391H73V16.4624Z" fill="#DFF1F7"/>
<path d="M73 17.0391H0V17.6158H73V17.0391Z" fill="#DEF1F7"/>
<path d="M73 17.6157H0V18.1924H73V17.6157Z" fill="#DDF0F7"/>
<path d="M73 18.1924H0V18.7691H73V18.1924Z" fill="#DCF0F6"/>
<path d="M73 18.769H0V19.3457H73V18.769Z" fill="#DBF0F6"/>
<path d="M73 19.3457H0V19.9224H73V19.3457Z" fill="#DAEFF6"/>
<path d="M73 19.9229H0V20.4996H73V19.9229Z" fill="#D9EFF6"/>
<path d="M73 20.4985H0V21.0752H73V20.4985Z" fill="#D8EEF5"/>
<path d="M73 21.0752H0V21.6519H73V21.0752Z" fill="#D7EEF5"/>
<path d="M73 21.6519H0V22.2286H73V21.6519Z" fill="#D6EDF5"/>
<path d="M73 22.2285H0V22.8052H73V22.2285Z" fill="#D5EDF5"/>
<path d="M73 22.8052H0V23.3819H73V22.8052Z" fill="#D4EDF4"/>
<path d="M73 23.3818H0V23.9585H73V23.3818Z" fill="#D3ECF4"/>
<path d="M73 23.9585H0V24.5352H73V23.9585Z" fill="#D2ECF4"/>
<path d="M73 24.5342H0V25.1109H73V24.5342Z" fill="#D1EBF4"/>
<path d="M73 25.1113H0V25.688H73V25.1113Z" fill="#D0EBF3"/>
<path d="M73 25.688H0V26.2647H73V25.688Z" fill="#CFEAF3"/>
<path d="M73 26.2646H0V26.8414H73V26.2646Z" fill="#CEEAF3"/>
<path d="M73 26.8413H0V27.418H73V26.8413Z" fill="#CDEAF3"/>
<path d="M73 27.418H0V27.9947H73V27.418Z" fill="#CCE9F2"/>
<path d="M73 27.9946H0V28.5713H73V27.9946Z" fill="#CBE9F2"/>
<path d="M73 28.5703H0V29.147H73V28.5703Z" fill="#CAE8F2"/>
<path d="M73 29.147H0V29.7237H73V29.147Z" fill="#C9E8F2"/>
<path d="M73 29.7236H0V30.3003H73V29.7236Z" fill="#C8E7F1"/>
<path d="M73 30.3003H0V30.877H73V30.3003Z" fill="#C7E7F1"/>
<path d="M73 30.877H0V31.4536H73V30.877Z" fill="#C6E7F1"/>
<path d="M73 31.4541H0V32.0308H73V31.4541Z" fill="#C5E6F1"/>
<path d="M73 32.0298H0V32.6065H73V32.0298Z" fill="#C4E6F0"/>
<path d="M73 32.6064H0V33.1832H73V32.6064Z" fill="#C3E5F0"/>
<path d="M73 33.1831H0V33.7598H73V33.1831Z" fill="#C2E5F0"/>
<path d="M73 33.7598H0V34.3365H73V33.7598Z" fill="#C1E5F0"/>
<path d="M73 34.3364H0V34.9131H73V34.3364Z" fill="#BFE4EF"/>
<path d="M73 34.9131H0V35.4898H73V34.9131Z" fill="#BEE4EF"/>
<path d="M73 35.4897H0V36.0665H73V35.4897Z" fill="#BDE3EF"/>
<path d="M73 36.0654H0V36.6421H73V36.0654Z" fill="#BCE3EF"/>
<path d="M73 36.6421H0V37.2188H73V36.6421Z" fill="#BBE2EE"/>
<path d="M73 37.2192H0V37.7959H73V37.2192Z" fill="#BAE2EE"/>
<path d="M73 37.7959H0V38.3726H73V37.7959Z" fill="#B9E2EE"/>
<path d="M73 38.3726H0V38.9493H73V38.3726Z" fill="#B8E1EE"/>
<path d="M73 38.9492H0V39.5259H73V38.9492Z" fill="#B7E1ED"/>
<path d="M73 39.5259H0V40.1026H73V39.5259Z" fill="#B6E0ED"/>
<path d="M73 40.1016H0V40.6783H73V40.1016Z" fill="#B5E0ED"/>
<path d="M73 40.6782H0V41.2549H73V40.6782Z" fill="#B4DFED"/>
<path d="M73 41.2549H0V41.8316H73V41.2549Z" fill="#B3DFEC"/>
<path d="M73 41.8315H0V42.4082H73V41.8315Z" fill="#B2DFEC"/>
<path d="M73 42.4082H0V42.9849H73V42.4082Z" fill="#B1DEEC"/>
<path d="M73 42.9854H0V43.5621H73V42.9854Z" fill="#B0DEEC"/>
<path d="M73 43.562H0V44.1387H73V43.562Z" fill="#AFDDEB"/>
<path d="M73 44.1377H0V44.7144H73V44.1377Z" fill="#AEDDEB"/>
<path d="M73 44.7144H0V45.2911H73V44.7144Z" fill="#ADDCEB"/>
<path d="M73 45.291H0V45.8677H73V45.291Z" fill="#ACDCEB"/>
<path d="M73 45.8677H0V46.4444H73V45.8677Z" fill="#ABDCEA"/>
<path d="M73 46.4443H0V47.021H73V46.4443Z" fill="#AADBEA"/>
<path d="M73 47.021H0V47.5977H73V47.021Z" fill="#A9DBEA"/>
<path d="M73 47.5972H0V48.1739H73V47.5972Z" fill="#A8DAEA"/>
<path d="M73 48.1738H0V48.7505H73V48.1738Z" fill="#A7DAE9"/>
<path d="M73 48.7505H0V49.3272H73V48.7505Z" fill="#A6D9E9"/>
<path d="M73 49.3271H0V49.9039H73V49.3271Z" fill="#A5D9E9"/>
<path d="M73 49.9038H0V50.4805H73V49.9038Z" fill="#A4D9E9"/>
<path d="M73 50.4805H0V51.0572H73V50.4805Z" fill="#A3D8E8"/>
<path d="M73 51.0571H0V51.6338H73V51.0571Z" fill="#A2D8E8"/>
<path d="M73 51.6328H0V52.2095H73V51.6328Z" fill="#A1D7E8"/>
<path d="M73 52.2095H0V52.7862H73V52.2095Z" fill="#A0D7E8"/>
<path d="M73 52.7861H0V53.3628H73V52.7861Z" fill="#9FD6E7"/>
<path d="M73 53.3628H0V53.9395H73V53.3628Z" fill="#9ED6E7"/>
<path d="M73 53.9399H0V54.5166H73V53.9399Z" fill="#9DD6E7"/>
<path d="M73 54.5166H0V55.0933H73V54.5166Z" fill="#9CD5E7"/>
<path d="M73 55.0933H0V55.67H73V55.0933Z" fill="#9BD5E6"/>
<path d="M73 55.6689H0V56.2457H73V55.6689Z" fill="#9AD4E6"/>
<path d="M73 56.2456H0V56.8223H73V56.2456Z" fill="#99D4E6"/>
<path d="M73 56.8223H0V57.399H73V56.8223Z" fill="#98D3E6"/>
<path d="M73 57.3989H0V57.9756H73V57.3989Z" fill="#97D3E5"/>
<path d="M73 57.9756H0V58.5523H73V57.9756Z" fill="#96D3E5"/>
<path d="M73 58.5522H0V59.129H73V58.5522Z" fill="#95D2E5"/>
<path d="M73 59.1289H0V59.7056H73V59.1289Z" fill="#94D2E5"/>
<path d="M73 59.7051H0V60.2818H73V59.7051Z" fill="#93D1E4"/>
<path d="M73 60.2817H0V60.8584H73V60.2817Z" fill="#92D1E4"/>
<path d="M73 60.8584H0V61.4351H73V60.8584Z" fill="#91D0E4"/>
<path d="M73 61.4351H0V62.0118H73V61.4351Z" fill="#90D0E4"/>
<path d="M73 62.0117H0V62.5884H73V62.0117Z" fill="#8FD0E3"/>
<path d="M73 62.5884H0V63.1651H73V62.5884Z" fill="#8ECFE3"/>
<path d="M73 63.1641H0V63.7408H73V63.1641Z" fill="#8DCFE3"/>
<path d="M73 63.7407H0V64.3174H73V63.7407Z" fill="#8CCEE3"/>
<path d="M73 64.3174H0V64.8941H73V64.3174Z" fill="#8BCEE2"/>
<path d="M73 64.894H0V65.4707H73V64.894Z" fill="#8ACDE2"/>
<path d="M73 65.4712H0V66.0479H73V65.4712Z" fill="#89CDE2"/>
<path d="M73 66.0479H0V66.6246H73V66.0479Z" fill="#88CDE2"/>
<path d="M73 66.6245H0V67.2012H73V66.6245Z" fill="#87CCE1"/>
<path d="M73 67.2002H0V67.7769H73V67.2002Z" fill="#86CCE1"/>
<path d="M73 67.7769H0V68.3536H73V67.7769Z" fill="#85CBE1"/>
<path d="M73 68.3535H0V68.9302H73V68.3535Z" fill="#84CBE1"/>
<path d="M73 68.9302H0V69.5069H73V68.9302Z" fill="#83CAE0"/>
<path d="M73 69.5068H0V70.0835H73V69.5068Z" fill="#82CAE0"/>
<path d="M73 70.0835H0V72.9999H73V70.0835Z" fill="#82CAE0"/>
</g>
<path d="M35.6285 70.7325C31.0076 70.7325 26.5245 69.8272 22.3042 68.0424C18.228 66.3178 14.5671 63.8504 11.4235 60.7059C8.27997 57.5614 5.81165 53.9014 4.08702 49.8253C2.30217 45.6049 1.39697 41.1218 1.39697 36.5C1.39697 36.3741 1.49917 36.2719 1.6251 36.2719C1.75102 36.2719 1.85322 36.3741 1.85322 36.5C1.85322 55.1241 17.0053 70.2762 35.6294 70.2762C54.2535 70.2762 69.4056 55.1241 69.4056 36.5C69.4056 17.8759 54.2535 2.72383 35.6294 2.72383C35.5035 2.72383 35.4013 2.62163 35.4013 2.4957C35.4013 2.36978 35.5035 2.26758 35.6294 2.26758C40.2503 2.26758 44.7334 3.17278 48.9547 4.95763C53.0308 6.68134 56.6917 9.14965 59.8353 12.2941C62.9789 15.4386 65.4472 19.0986 67.1718 23.1748C68.9566 27.3951 69.8619 31.8782 69.8619 36.4991C69.8619 41.12 68.9566 45.6031 67.1718 49.8243C65.4481 53.9005 62.9798 57.5614 59.8353 60.705C56.6908 63.8486 53.0308 66.3169 48.9547 68.0415C44.7344 69.8263 40.2512 70.7315 35.6294 70.7315L35.6285 70.7325Z" fill="#052C47"/>
<path d="M35.6285 67.7176C35.5026 67.7176 35.4004 67.6154 35.4004 67.4895C35.4004 67.3635 35.5026 67.2613 35.6285 67.2613C51.6392 67.2613 65.1132 54.7692 66.3031 38.8223C66.3123 38.6964 66.4235 38.6015 66.5476 38.6116C66.6736 38.6207 66.7676 38.7302 66.7584 38.8561C66.1735 46.689 62.6768 53.9635 56.9098 59.339C51.1145 64.7419 43.5563 67.7167 35.6285 67.7167V67.7176Z" fill="#052C47"/>
<path d="M4.72678 34.3883C4.72131 34.3883 4.71493 34.3883 4.70945 34.3883C4.58353 34.3792 4.48953 34.2697 4.49866 34.1437C5.08266 26.3108 8.58027 19.0364 14.3473 13.6609C20.1426 8.25795 27.7008 5.2832 35.6286 5.2832C35.7545 5.2832 35.8567 5.3854 35.8567 5.51133C35.8567 5.63725 35.7545 5.73945 35.6286 5.73945C19.6179 5.73945 6.1439 18.2316 4.954 34.1784C4.94487 34.298 4.84541 34.3892 4.72678 34.3892V34.3883Z" fill="#052C47"/>
<path d="M66.6178 39.1178C66.5785 39.1178 66.5393 39.1077 66.5037 39.0876L65.3147 38.4014C65.2445 38.3604 65.2007 38.2855 65.2007 38.2034V36.831C65.2007 36.7498 65.2445 36.6741 65.3147 36.633L66.5037 35.9468C66.574 35.9057 66.6616 35.9057 66.7318 35.9468L67.9209 36.633C67.9911 36.6741 68.0349 36.7489 68.0349 36.831V38.2034C68.0349 38.2846 67.9911 38.3604 67.9209 38.4014L66.7318 39.0876C66.6963 39.1077 66.657 39.1178 66.6178 39.1178ZM65.6569 38.072L66.6178 38.6268L67.5787 38.072V36.9624L66.6178 36.4076L65.6569 36.9624V38.072Z" fill="#052C47"/>
<path d="M4.75889 37.1666C4.71965 37.1666 4.68041 37.1565 4.64483 37.1365L3.45586 36.4503C3.3856 36.4092 3.3418 36.3344 3.3418 36.2523V34.8799C3.3418 34.7986 3.3856 34.7229 3.45586 34.6818L4.64483 33.9956C4.71509 33.9546 4.80269 33.9546 4.87295 33.9956L6.06196 34.6818C6.13223 34.7229 6.17603 34.7977 6.17603 34.8799V36.2523C6.17603 36.3335 6.13223 36.4092 6.06196 36.4503L4.87295 37.1365C4.83736 37.1565 4.79813 37.1666 4.75889 37.1666ZM3.79805 36.1209L4.75889 36.6757L5.71978 36.1209V35.0113L4.75889 34.4565L3.79805 35.0113V36.1209Z" fill="#052C47"/>
<path d="M21.652 56.9798H17.7438C17.6178 56.9798 17.5156 56.8776 17.5156 56.7517V43.8097C17.5156 43.6837 17.6178 43.5815 17.7438 43.5815H21.652C21.7779 43.5815 21.8801 43.6837 21.8801 43.8097V56.7517C21.8801 56.8776 21.7779 56.9798 21.652 56.9798ZM17.9719 56.5235H21.4239V44.0378H17.9719V56.5235Z" fill="#052C47"/>
<path d="M37.8291 50.9337H31.7108C31.5849 50.9337 31.4827 50.8315 31.4827 50.7056C31.4827 50.5797 31.5849 50.4775 31.7108 50.4775H37.8291C38.4615 50.4775 38.977 50.013 38.977 49.4427C38.977 48.9043 38.5144 48.4517 37.9231 48.4116C34.5186 48.1816 30.614 46.8503 28.7379 46.2106C28.6046 46.165 28.4815 46.123 28.3674 46.0847C26.4986 45.4524 21.7308 46.0884 21.6824 46.0948C21.5565 46.1121 21.4424 46.0245 21.426 45.8995C21.4087 45.7745 21.4962 45.6595 21.6213 45.6431C21.8211 45.6157 26.5442 44.987 28.5134 45.6531C28.6275 45.6914 28.7506 45.7334 28.8848 45.779C30.7426 46.4123 34.6089 47.7309 37.9532 47.9562C38.7826 48.0119 39.4323 48.6653 39.4323 49.4427C39.4323 50.2649 38.7133 50.9337 37.8282 50.9337H37.8291Z" fill="#052C47"/>
<path d="M36.7624 56.1049C31.8951 56.1049 22.062 54.3538 21.6122 54.2726C21.4881 54.2507 21.406 54.1321 21.4279 54.008C21.4498 53.8839 21.5684 53.8017 21.6925 53.8236C21.8111 53.8446 33.6115 55.9461 37.8254 55.6121C41.0703 55.3539 48.6003 49.2703 51.6872 46.666C52.0468 46.363 52.2284 45.9652 52.1983 45.5454C52.1672 45.112 51.9053 44.7123 51.481 44.4477L51.4664 44.4386C50.762 43.9997 49.7737 44.0362 49.1167 44.5244C46.82 46.2335 42.4774 49.1088 39.2088 49.1662C39.0847 49.1717 38.9789 49.0677 38.977 48.9418C38.9752 48.8158 39.0756 48.7118 39.2015 48.71C42.3432 48.6552 46.5919 45.8347 48.8448 44.1584C49.646 43.5617 50.8505 43.517 51.7082 44.0508L51.7228 44.0599C52.2731 44.4021 52.6125 44.9322 52.6545 45.5126C52.6947 46.0729 52.4501 46.6204 51.9829 47.0146C48.1066 50.2841 41.1178 55.8074 37.8629 56.0666C37.5362 56.0921 37.1666 56.1049 36.7642 56.1049H36.7624Z" fill="#052C47"/>
<path d="M19.6983 56.9798C19.5724 56.9798 19.4702 56.8776 19.4702 56.7517V43.8097C19.4702 43.6837 19.5724 43.5815 19.6983 43.5815C19.8243 43.5815 19.9265 43.6837 19.9265 43.8097V56.7517C19.9265 56.8776 19.8243 56.9798 19.6983 56.9798Z" fill="#052C47"/>
<path d="M45.5448 54.6027C45.4791 54.6027 45.4143 54.5744 45.3696 54.5206C45.2893 54.4239 45.3021 54.2797 45.3988 54.1994L53.3677 47.5674C53.4644 47.4871 53.6086 47.4998 53.6889 47.5966C53.7692 47.6933 53.7564 47.8375 53.6597 47.9178L45.6908 54.5498C45.6479 54.5854 45.5968 54.6027 45.5448 54.6027Z" fill="#052C47"/>
<path d="M35.8675 42.7418C35.737 42.7418 35.6056 42.7218 35.476 42.6816C35.143 42.5767 34.8829 42.3823 34.7032 42.104C34.6302 41.9918 34.5507 41.9516 34.3984 41.9516H34.3947C34.3034 41.9516 34.2113 41.9534 34.1201 41.9553C33.7742 41.9607 33.4165 41.9671 33.0634 41.9206C32.0596 41.7892 31.2612 41.3302 30.6909 40.5555C30.6617 40.5163 30.6462 40.4679 30.6462 40.4195L30.648 40.0345C30.6544 38.5662 30.6608 37.0478 30.6215 35.5586C30.6079 35.0002 30.4655 34.376 30.2218 33.8012L30.2054 33.7638C30.1361 33.6041 30.0567 33.4499 29.9645 33.292C29.9417 33.2528 29.9308 33.208 29.9335 33.1624C29.939 33.0703 29.9463 32.979 29.9554 32.8878C30.0612 31.8922 30.4555 30.945 31.1271 30.0718C31.4775 29.6146 31.8607 29.214 32.264 28.881C33.0333 28.2404 33.922 27.8024 34.9057 27.5816C35.5545 27.4356 36.2124 27.4283 36.8621 27.5597C36.8648 27.5597 36.8685 27.5606 36.8712 27.5615C37.259 27.6409 37.6496 27.7723 38.032 27.9511C38.5886 28.2103 39.0977 28.5214 39.544 28.8764C40.5924 29.7104 41.3242 30.8127 41.7193 32.1532C41.848 32.5885 41.9055 33.0648 41.8982 33.6533V33.6734C41.8964 33.8596 41.8954 34.0576 41.8982 34.2574C41.9009 34.4016 41.9648 34.4646 42.1108 34.47C42.2988 34.4773 42.4795 34.5102 42.6474 34.5695C42.7733 34.6133 42.8928 34.6708 43.0023 34.7392C43.1921 34.8569 43.3263 35.0212 43.3892 35.2146C43.4276 35.3342 43.3618 35.4628 43.2423 35.5021C43.1218 35.5404 42.9941 35.4747 42.9549 35.3552C42.9257 35.2648 42.8609 35.1882 42.7615 35.127C42.6784 35.075 42.5917 35.034 42.4968 35.0002C42.3718 34.9564 42.2358 34.9318 42.0935 34.9263C41.7057 34.9126 41.4492 34.6544 41.4419 34.2665C41.4383 34.0603 41.4392 33.8587 41.441 33.6716V33.6506C41.4474 33.1068 41.3963 32.6733 41.2804 32.2828C40.9118 31.0345 40.232 30.0088 39.2584 29.2341C38.8404 28.902 38.3622 28.61 37.8376 28.3654C37.489 28.2021 37.135 28.0834 36.7846 28.0104C36.7818 28.0104 36.7791 28.0095 36.7763 28.0086C36.1878 27.8882 35.591 27.8946 35.0034 28.0269C34.0909 28.2322 33.2669 28.6373 32.5524 29.2323C32.1746 29.5444 31.816 29.9203 31.4857 30.3501C30.8661 31.1558 30.5029 32.0254 30.4062 32.9352C30.3998 32.9973 30.3952 33.0593 30.3907 33.1223C30.4773 33.2747 30.5531 33.4252 30.6215 33.5813L30.6389 33.6214C30.9053 34.2492 31.0605 34.9327 31.076 35.5468C31.1143 37.0433 31.1088 38.5653 31.1024 40.0363V40.3447C31.5915 40.9789 32.2704 41.3567 33.1209 41.468C33.4411 41.51 33.7669 41.5045 34.1109 41.499C34.2049 41.4972 34.298 41.4963 34.391 41.4954H34.3965C34.7031 41.4954 34.9285 41.614 35.0864 41.8567C35.2068 42.0438 35.3839 42.1743 35.612 42.2464C35.9943 42.365 36.3876 42.2126 36.6395 41.8476C36.8092 41.6012 37.0355 41.4862 37.3284 41.4981C37.4534 41.5027 37.5775 41.5018 37.7089 41.5008C37.7655 41.5008 37.8212 41.4999 37.8777 41.4999H37.9918C38.0694 41.4999 38.1469 41.4999 38.2245 41.4999C39.2939 41.4999 40.2374 40.9944 40.8105 40.1138C40.9674 39.8729 41.0925 39.6092 41.181 39.33C41.2394 39.1466 41.2823 38.955 41.3105 38.7615C41.3288 38.6365 41.4438 38.5489 41.5688 38.5681C41.6938 38.5863 41.7805 38.7013 41.7622 38.8263C41.7312 39.0444 41.6819 39.2597 41.6162 39.4678C41.5149 39.7863 41.3726 40.0874 41.1928 40.362C40.534 41.3749 39.4509 41.9553 38.2227 41.9553C38.1451 41.9553 38.0694 41.9553 37.9936 41.9553H37.8777C37.823 41.9553 37.7673 41.9553 37.7126 41.9562C37.5821 41.9571 37.4461 41.9589 37.3102 41.9534C37.1751 41.9498 37.0948 41.989 37.0154 42.1058C36.7344 42.5146 36.31 42.7418 35.8675 42.7418Z" fill="#052C47"/>
<path d="M38.377 37.8043C38.367 37.8043 38.357 37.8043 38.3478 37.8025C38.2018 37.8025 38.1416 37.8025 38.096 37.8025C38.0285 37.8025 37.9929 37.8025 37.7574 37.8025C37.1087 37.7988 36.6862 37.3791 36.6789 36.7321C36.6743 36.1819 36.6734 35.6444 36.6771 35.1334V35.0878C36.6771 35.0878 36.6779 35.0805 36.6779 35.0777C36.7062 34.4582 37.1333 34.0576 37.7666 34.0557C38.4291 34.0539 38.6836 34.0548 39.2092 34.0557H39.5679C40.2294 34.0576 40.6574 34.4837 40.6601 35.1434C40.6619 35.7101 40.6619 36.2284 40.6601 36.7266C40.6565 37.3882 40.2413 37.8006 39.5751 37.8043L38.378 37.8061L38.377 37.8043ZM38.4062 37.348L39.5724 37.3462C39.983 37.3444 40.2011 37.129 40.203 36.723C40.2057 36.2257 40.2057 35.7092 40.203 35.1434C40.2021 34.7301 39.9812 34.512 39.5669 34.5111H39.2083C38.6836 34.5102 38.429 34.5093 37.7675 34.5111C37.376 34.5111 37.1516 34.7191 37.1333 35.0951V35.1343C37.1287 35.6444 37.1296 36.18 37.1342 36.7275C37.1388 37.1245 37.3605 37.3444 37.7584 37.3462C37.9911 37.3471 38.0257 37.3471 38.0923 37.3462C38.1407 37.3462 38.2064 37.3462 38.3752 37.3462C38.3852 37.3462 38.3953 37.3462 38.4044 37.348H38.4062Z" fill="#052C47"/>
<path d="M33.7685 37.8041C33.7448 37.8041 33.7238 37.8041 33.6974 37.8041C33.6481 37.8041 33.5787 37.8041 33.4282 37.8041C33.4181 37.8041 33.4081 37.8041 33.399 37.8023C33.2831 37.8023 33.1681 37.8023 33.0522 37.8023C32.7693 37.8023 32.4865 37.8041 32.2036 37.8005C31.5804 37.7941 31.1569 37.3707 31.1515 36.7465C31.1478 36.1525 31.1478 35.6132 31.1533 35.0949C31.1606 34.4899 31.5813 34.0629 32.178 34.0565C32.9975 34.0464 33.2539 34.0455 34.1034 34.0546C34.6956 34.0619 35.1163 34.4835 35.1254 35.0812C35.1346 35.6187 35.1355 36.168 35.1282 36.762C35.119 37.3807 34.6911 37.7986 34.0614 37.8023C33.8862 37.8032 33.8196 37.8041 33.7685 37.8041ZM33.4574 37.347C33.5888 37.347 33.6536 37.347 33.6992 37.347C33.7813 37.347 33.8041 37.347 34.0587 37.346C34.4429 37.3442 34.6664 37.1289 34.6719 36.7556C34.6792 36.1662 34.6792 35.6214 34.6692 35.0885C34.6637 34.7409 34.4392 34.5145 34.0979 34.5109C33.2539 34.5018 32.9993 34.5027 32.1835 34.5127C31.8285 34.5164 31.6132 34.7363 31.6095 35.1004C31.6041 35.615 31.6041 36.1525 31.6077 36.7429C31.6114 37.1207 31.8304 37.3397 32.2091 37.3442C32.4901 37.3479 32.7712 37.347 33.0513 37.346C33.1772 37.346 33.3032 37.346 33.4282 37.346C33.4382 37.346 33.4482 37.346 33.4574 37.3479V37.347Z" fill="#052C47"/>
<path d="M36.9056 35.3138C36.8554 35.3138 36.8052 35.2974 36.7632 35.2636C35.8571 34.5382 35.0851 35.2244 35.0523 35.2536C34.9592 35.3385 34.8151 35.3321 34.7302 35.2399C34.6453 35.1478 34.6508 35.0045 34.742 34.9187C35.1134 34.5738 36.0734 34.1276 37.047 34.9078C37.1456 34.9862 37.1611 35.1304 37.0826 35.2281C37.0379 35.2846 36.9713 35.3138 36.9047 35.3138H36.9056Z" fill="#052C47"/>
<path d="M28.8793 31.9916C28.862 31.9916 28.8437 31.9897 28.8255 31.9852C28.7032 31.956 28.6275 31.8328 28.6567 31.7096C29.0655 30.0114 30.572 28.8252 32.3222 28.8252C32.3523 28.8252 32.3815 28.8252 32.4116 28.8261C32.5375 28.8288 32.637 28.9329 32.6342 29.0588C32.6315 29.1847 32.5275 29.2887 32.4016 29.2814C30.833 29.2477 29.466 30.2971 29.1001 31.8155C29.0746 31.9204 28.9815 31.9907 28.8784 31.9907L28.8793 31.9916Z" fill="#052C47"/>
<path d="M42.2528 34.9372C42.2053 34.9372 42.1579 34.9226 42.1169 34.8925C42.0156 34.8177 41.9946 34.6744 42.0703 34.5732C42.4973 33.9983 42.7227 33.3157 42.7227 32.5976C42.7227 30.7699 41.2363 29.2834 39.4085 29.2834C39.2826 29.2834 39.1768 29.1812 39.1768 29.0553C39.1768 28.9293 39.2753 28.8271 39.4012 28.8271H39.4085C41.4881 28.8271 43.179 30.5189 43.179 32.5976C43.179 33.4143 42.9217 34.1917 42.4362 34.846C42.3915 34.9062 42.3231 34.9382 42.2528 34.9382V34.9372Z" fill="#052C47"/>
<path d="M30.8712 42.1591C30.7453 42.1591 30.6431 42.0569 30.6431 41.9309V41.5814C30.6431 41.1936 30.6431 40.8058 30.6449 40.418C30.6449 40.2921 30.7471 40.1908 30.8731 40.1908C30.999 40.1908 31.1012 40.293 31.1003 40.4198C31.1003 40.8067 31.0985 41.1945 31.0985 41.5814V41.9309C31.0985 42.0569 30.9963 42.1591 30.8703 42.1591H30.8712ZM21.2243 42.1591C21.0984 42.1591 20.9962 42.0569 20.9962 41.9309V41.4482C20.9962 40.8952 20.9925 40.3423 20.9889 39.7893C20.9798 38.3211 20.9697 36.8027 21.029 35.3089C21.0829 33.9402 21.7462 32.6417 22.8476 31.7465C22.8494 31.7447 22.8513 31.7429 22.8531 31.742C23.0465 31.585 23.2537 31.4408 23.4663 31.3149C23.5749 31.251 23.7145 31.2866 23.7784 31.3952C23.8423 31.5038 23.8067 31.6434 23.6981 31.7073C23.5056 31.8213 23.3194 31.95 23.1442 32.0924C23.1423 32.0942 23.1406 32.096 23.1387 32.0969C22.1359 32.91 21.5327 34.0871 21.4834 35.3272C21.425 36.8109 21.4342 38.3238 21.4442 39.7866C21.4478 40.3405 21.4515 40.8943 21.4515 41.4482V41.9309C21.4515 42.0569 21.3493 42.1591 21.2234 42.1591H21.2243Z" fill="#052C47"/>
<path d="M30.873 40.6473C30.747 40.6473 30.6449 40.5442 30.6458 40.4182L30.6476 40.0332C30.654 38.565 30.6604 37.0466 30.6211 35.5574C30.6075 34.9989 30.4651 34.3748 30.2214 33.7999L30.205 33.7625C30.1357 33.6028 30.0563 33.4486 29.9641 33.2907C29.6539 32.7624 29.2442 32.3098 28.7459 31.9466C27.7385 31.2157 26.4473 30.9237 25.2027 31.1472C24.7136 31.2348 24.2437 31.4037 23.8039 31.6482C23.782 32.4768 24.4079 32.933 24.4846 32.985C25.3715 33.4659 26.3023 33.5891 27.1765 33.6502C28.0032 33.7068 28.5999 34.1357 29.0005 34.9624L29.0069 34.9761C29.0133 34.988 29.0188 35.0007 29.0243 35.0135C29.256 35.5063 29.3655 36.072 29.3655 36.7856C29.3655 36.9115 29.2633 37.0137 29.1374 37.0137C29.0115 37.0137 28.9093 36.9115 28.9093 36.7856C28.9093 36.1322 28.8162 35.6431 28.6091 35.2006L28.589 35.1586C28.2632 34.4861 27.8042 34.1503 27.1454 34.1056C26.2165 34.0408 25.2237 33.9076 24.2573 33.381C24.2519 33.3783 24.2473 33.3756 24.2427 33.3719C24.2017 33.3455 23.2399 32.7067 23.3576 31.4894C23.3649 31.4173 23.406 31.3516 23.4689 31.3151C23.9854 31.0104 24.5421 30.8032 25.1233 30.6983C26.4893 30.4528 27.9074 30.774 29.0151 31.5779C29.5645 31.9785 30.0161 32.4768 30.3583 33.0598C30.4596 33.2332 30.5472 33.403 30.6248 33.58L30.6421 33.6201C30.9086 34.2479 31.0637 34.9314 31.0792 35.5455C31.1175 37.042 31.112 38.5641 31.1056 40.035L31.1039 40.4201C31.1039 40.546 31.0017 40.6473 30.8757 40.6473H30.873Z" fill="#052C47"/>
<path d="M26.0981 41.5633C26.0287 41.5633 25.9658 41.5514 25.9092 41.5286C25.4529 41.3397 25.0396 41.1198 24.6819 40.8771C23.8807 40.3323 23.2912 39.6279 22.9317 38.7838C22.5795 37.9589 22.6963 37.082 22.8569 36.3337C23.0786 35.3017 23.4956 34.2642 24.1672 33.0688C24.2293 32.9593 24.368 32.9201 24.4775 32.9821C24.587 33.0442 24.6262 33.1829 24.5641 33.2924C23.9154 34.4467 23.5139 35.4431 23.3022 36.4295C23.1498 37.1422 23.0494 37.8987 23.3505 38.604C23.6809 39.3778 24.2001 39.9974 24.9374 40.4993C25.2695 40.7247 25.6555 40.9291 26.0826 41.107C26.0962 41.1107 26.1766 41.1088 26.3216 41.0459C26.6355 40.9099 26.9212 40.7566 27.1712 40.5887C28.2279 39.887 28.7854 38.896 28.8757 37.5583C28.8912 37.3274 28.9068 37.0546 28.9068 36.7845C28.9068 36.6586 29.009 36.5564 29.1349 36.5564C29.2608 36.5564 29.363 36.6586 29.363 36.7845C29.363 37.0674 29.3466 37.3502 29.3301 37.5884C29.2307 39.0566 28.5892 40.1936 27.423 40.9683C27.1502 41.1499 26.8408 41.3169 26.5014 41.4638C26.349 41.5295 26.2131 41.5633 26.0953 41.5633H26.0981Z" fill="#052C47"/>
<path d="M23.5831 31.7399C23.4572 31.7399 23.355 31.6377 23.355 31.5118C23.355 31.3849 23.4572 31.2827 23.5831 31.2827C23.709 31.2827 23.8112 31.3849 23.8112 31.5108C23.8112 31.6368 23.709 31.739 23.5831 31.739V31.7399Z" fill="#052C47"/>
<path d="M27.6637 42.7418C27.5579 42.7418 27.463 42.6678 27.4411 42.5602L27.1427 41.1431C26.9437 41.258 26.7293 41.3657 26.5039 41.4634C26.3378 41.5354 26.0988 41.6057 25.909 41.5272C25.5631 41.384 25.252 41.2288 24.9655 41.0573L24.6488 42.5602C24.6223 42.6834 24.501 42.7627 24.3787 42.7363C24.2555 42.7107 24.177 42.5894 24.2026 42.4662L24.5867 40.6403C24.6022 40.5655 24.6543 40.5043 24.7245 40.476C24.7948 40.4477 24.8751 40.4559 24.9381 40.4988C25.2748 40.7279 25.6489 40.9259 26.0823 41.1056C26.1006 41.1102 26.1873 41.1029 26.3214 41.0445C26.6335 40.9095 26.92 40.7562 27.1719 40.5883C27.2348 40.5463 27.3142 40.5381 27.3845 40.5673C27.4547 40.5956 27.5058 40.6576 27.5213 40.7315L27.8863 42.4671C27.9119 42.5903 27.8334 42.7117 27.7102 42.7372C27.6947 42.7409 27.6783 42.7418 27.6628 42.7418H27.6637Z" fill="#052C47"/>
<path d="M45.2231 42.7424C43.2685 42.7424 41.5667 41.3554 41.1752 39.4446C41.1679 39.4063 41.1698 39.367 41.1816 39.3305C41.24 39.1462 41.2838 38.9546 41.3112 38.762C41.3121 38.7547 41.3139 38.7474 41.3157 38.7401C41.3559 38.4463 41.3577 38.1479 41.3586 37.8313C41.3586 37.7054 41.3595 37.5803 41.3632 37.4544C41.3732 37.0529 41.574 36.8211 41.9591 36.7655C42.2164 36.7262 42.4464 36.6259 42.6398 36.4653C43.0085 36.1578 43.0851 35.9059 42.9655 35.3858C42.9628 35.373 42.9592 35.3639 42.9564 35.3557C42.9236 35.2553 42.9628 35.1458 43.0531 35.0901C43.7028 34.6886 44.452 34.476 45.2185 34.4751H45.2295C45.2787 34.4751 45.3262 34.476 45.3736 34.4778C45.4001 34.4788 45.4275 34.4797 45.4558 34.4815C45.4968 34.4833 45.5461 34.4861 45.5945 34.4915C45.6191 34.4934 45.6528 34.4961 45.6848 34.5007C45.7395 34.507 45.7989 34.5143 45.8564 34.5225C45.8828 34.5262 45.9102 34.5308 45.9375 34.5362L45.975 34.5426C46.0261 34.5517 46.0744 34.5618 46.121 34.5727L46.131 34.5755C46.1511 34.58 46.1712 34.5846 46.1912 34.5892C46.2204 34.5955 46.2542 34.6047 46.287 34.6138C46.3664 34.6348 46.4476 34.6594 46.5343 34.6877C46.5754 34.7014 46.6156 34.716 46.6548 34.7297C46.6959 34.7443 46.736 34.7607 46.7762 34.7771C46.8008 34.7872 46.8291 34.799 46.8574 34.8109C46.9322 34.8428 47.0125 34.8802 47.0919 34.9204C47.1165 34.9323 47.1439 34.946 47.1694 34.9606L47.1777 34.9651C47.1986 34.9761 47.2196 34.9879 47.2397 34.9989C47.2899 35.0272 47.341 35.0564 47.3893 35.0865L47.4167 35.1038C47.4322 35.1138 47.4478 35.1239 47.4633 35.1339C47.4843 35.1476 47.508 35.1631 47.5326 35.1796C47.5536 35.1932 47.5755 35.2088 47.5974 35.2252C47.6339 35.2498 47.6686 35.2754 47.7032 35.3018L47.7315 35.3228C47.7571 35.342 47.7826 35.3621 47.8073 35.3821C47.841 35.4086 47.8766 35.4387 47.9131 35.4706C47.9597 35.5099 48.0071 35.5519 48.0537 35.5975C48.0838 35.6249 48.1175 35.6577 48.1504 35.6915C48.2443 35.7855 48.3365 35.8876 48.4232 35.9935C48.4406 36.0154 48.4579 36.0373 48.4752 36.0592C48.5601 36.1669 48.6376 36.2764 48.707 36.385C48.7426 36.4415 48.7782 36.4981 48.811 36.5556C48.8941 36.6989 48.9689 36.8503 49.0328 37.0036C49.0547 37.0557 49.0756 37.1077 49.0948 37.1597C49.114 37.209 49.1331 37.2628 49.1505 37.3175C49.1851 37.4234 49.2162 37.5329 49.2426 37.6424C49.2426 37.6424 49.2426 37.6424 49.2426 37.6442C49.2426 37.6479 49.2444 37.6506 49.2454 37.6543L49.2481 37.6661C49.2563 37.7035 49.2655 37.7419 49.2728 37.7793C49.2828 37.8267 49.291 37.8742 49.2992 37.9225C49.2992 37.9253 49.2992 37.928 49.3001 37.9316L49.3248 38.0941C49.3321 38.1534 49.3375 38.21 49.3421 38.2665C49.3457 38.3113 49.3494 38.3569 49.3512 38.4016C49.353 38.4262 49.354 38.4563 49.3549 38.4874C49.3549 38.502 49.3549 38.5102 49.3549 38.5175C49.3567 38.5531 49.3567 38.5823 49.3567 38.6124C49.3567 38.6817 49.3549 38.7502 49.3512 38.8168C49.2454 41.0186 47.4323 42.746 45.2231 42.746V42.7424ZM41.6342 39.409C42.0038 41.0798 43.5039 42.2861 45.2231 42.2861C47.1877 42.2861 48.801 40.7504 48.895 38.7894C48.8986 38.7283 48.9005 38.669 48.9005 38.6087C48.9005 38.585 48.9005 38.5613 48.9005 38.5394C48.9005 38.5284 48.8995 38.5093 48.8995 38.491C48.8995 38.4728 48.8977 38.4481 48.8968 38.4235C48.895 38.3788 48.8922 38.3405 48.8886 38.3021C48.884 38.2501 48.8786 38.199 48.8731 38.1488L48.8512 38.0019C48.8512 38.0019 48.8503 37.9946 48.8493 37.99C48.843 37.949 48.8347 37.9079 48.8265 37.8678C48.8192 37.8331 48.8119 37.7984 48.8037 37.7638L48.8019 37.7565C48.8019 37.7565 48.8019 37.7528 48.801 37.751C48.801 37.751 48.801 37.7491 48.801 37.7482C48.7764 37.6497 48.749 37.5511 48.718 37.4562C48.7034 37.4106 48.6869 37.3641 48.6696 37.3194C48.6514 37.2692 48.6322 37.2226 48.613 37.177C48.5564 37.042 48.4907 36.9087 48.4159 36.7801C48.3858 36.7271 48.3548 36.6779 48.3238 36.6277C48.2617 36.531 48.1933 36.4342 48.1185 36.3393C48.102 36.3184 48.0874 36.2992 48.071 36.28C47.9934 36.1851 47.9113 36.0948 47.8255 36.009C47.7973 35.9798 47.7708 35.9543 47.7425 35.9287C47.6987 35.8877 47.6585 35.8512 47.6175 35.8165C47.5837 35.7873 47.5527 35.7617 47.5207 35.7362C47.4961 35.7161 47.4751 35.7006 47.4541 35.6842L47.4277 35.6641C47.4012 35.6449 47.372 35.623 47.3419 35.602C47.341 35.602 47.3355 35.5975 47.3337 35.5966C47.3145 35.5829 47.2963 35.5701 47.2771 35.5573C47.2543 35.5418 47.2342 35.5281 47.2132 35.5153C47.1986 35.5053 47.1868 35.498 47.1749 35.4907L47.1457 35.4725C47.1056 35.4478 47.0618 35.4223 47.017 35.3976L46.9495 35.3602C46.9267 35.3475 46.9067 35.3374 46.8866 35.3274C46.8145 35.29 46.7469 35.2589 46.6767 35.2288C46.6511 35.2179 46.6283 35.2078 46.6064 35.1987C46.5681 35.1832 46.5334 35.1695 46.4997 35.1567C46.465 35.144 46.4285 35.1312 46.392 35.1184C46.3144 35.0929 46.2414 35.071 46.1703 35.0518C46.1411 35.0436 46.1137 35.0363 46.0845 35.0299C46.0644 35.0244 46.0498 35.0217 46.0352 35.019L46.0224 35.0162C45.9804 35.0062 45.9385 34.998 45.8974 34.9907L45.86 34.9843C45.8372 34.9806 45.8144 34.9761 45.7916 34.9733C45.7377 34.9651 45.6839 34.9587 45.6301 34.9523C45.6027 34.9487 45.5799 34.9469 45.557 34.945C45.5096 34.9405 45.4704 34.9377 45.4311 34.9359C45.401 34.9341 45.38 34.9332 45.3581 34.9323C45.3153 34.9304 45.2742 34.9295 45.2313 34.9295H45.2203C44.5925 34.9295 43.9793 35.0901 43.4346 35.394C43.5523 36.0136 43.4072 36.4187 42.9327 36.8147C42.6745 37.0292 42.3697 37.1642 42.0275 37.2153C41.876 37.2372 41.8258 37.2765 41.8213 37.4644C41.8185 37.5867 41.8176 37.709 41.8176 37.8313C41.8158 38.1488 41.8149 38.4773 41.7693 38.8031C41.7684 38.8122 41.7665 38.8222 41.7638 38.8341C41.7355 39.0285 41.6926 39.221 41.6369 39.4081L41.6342 39.409Z" fill="#052C47"/>
<path d="M49.1228 39.0284C46.847 39.0257 44.9946 37.1706 44.9946 34.8939C44.9946 34.8245 44.9964 34.7561 45.0001 34.6895C45.0074 34.569 45.1068 34.4741 45.2282 34.4741C47.504 34.4769 49.3564 36.332 49.3564 38.6087C49.3564 38.678 49.3545 38.7465 49.3509 38.8131C49.3436 38.9335 49.2441 39.0284 49.1228 39.0284ZM45.4509 34.9377C45.4737 36.8685 46.993 38.4481 48.8992 38.5658C48.8764 36.6349 47.3571 35.0554 45.4509 34.9377Z" fill="#052C47"/>
<path d="M41.5365 39.0221C41.469 39.0221 41.4042 38.992 41.3613 38.94C41.3148 38.8843 41.2984 38.8104 41.3148 38.7401C41.3549 38.4463 41.3568 38.1479 41.3577 37.8313C41.3577 37.7054 41.3586 37.5803 41.3623 37.4544C41.3723 37.0529 41.573 36.8211 41.9581 36.7655C42.2154 36.7262 42.4454 36.6259 42.6388 36.4653C43.0075 36.1578 43.0841 35.9059 42.9646 35.3858C42.9619 35.373 42.9582 35.3639 42.9555 35.3557C42.9226 35.2553 42.9619 35.1458 43.0522 35.0901C43.7019 34.6886 44.4511 34.476 45.2176 34.4751C45.338 34.4751 45.4384 34.5691 45.4457 34.6904C45.4493 34.758 45.4512 34.8264 45.4512 34.8949C45.4512 37.0894 43.7375 38.9026 41.5493 39.023C41.5447 39.023 41.5411 39.023 41.5365 39.023V39.0221ZM43.4318 35.3949C43.5495 36.0145 43.4044 36.4196 42.9299 36.8157C42.6717 37.0301 42.3669 37.1652 42.0247 37.2163C41.8732 37.2382 41.8231 37.2774 41.8185 37.4654C41.8158 37.5876 41.8148 37.7099 41.8148 37.8322C41.8139 38.064 41.813 38.3021 41.7948 38.5412C43.596 38.3094 44.9739 36.7783 44.9949 34.9368C44.4456 34.9706 43.9118 35.1266 43.4327 35.394L43.4318 35.3949Z" fill="#052C47"/>
<path d="M52.2993 41.0961C52.292 41.0961 52.2856 41.0961 52.2783 41.0952C51.5054 41.024 50.6659 40.5878 49.977 39.898C49.2871 39.2081 48.851 38.3695 48.7798 37.5967C48.7734 37.5291 48.798 37.4625 48.8455 37.4142C48.8929 37.3658 48.9605 37.343 49.028 37.3485C49.8009 37.4196 50.6404 37.8558 51.3293 38.5457C52.0183 39.2355 52.4553 40.0741 52.5265 40.847C52.5329 40.9145 52.5083 40.9811 52.4608 41.0295C52.4179 41.0724 52.3595 41.0961 52.2993 41.0961ZM49.2817 37.8503C49.4158 38.4316 49.7817 39.0576 50.2991 39.575C50.8165 40.0923 51.4415 40.4583 52.0237 40.5924C51.8896 40.0111 51.5237 39.3852 51.0063 38.8678C50.4889 38.3504 49.8639 37.9845 49.2817 37.8503Z" fill="#052C47"/>
<path d="M30.4176 22.7245C30.3775 22.7245 30.3373 22.7136 30.3008 22.6926L28.9841 21.9106C28.8755 21.8458 28.8399 21.7062 28.9038 21.5976C28.9686 21.489 29.1082 21.4534 29.2168 21.5173L30.4076 22.2245L31.4141 21.5264C31.488 21.4744 31.5856 21.4716 31.6632 21.5191L32.8193 22.2272L33.9618 21.52C34.0685 21.4534 34.21 21.4862 34.2757 21.5939C34.3423 21.7007 34.3094 21.8412 34.2018 21.9078L32.9398 22.6898C32.8668 22.7355 32.7737 22.7355 32.7007 22.6898L31.5519 21.9863L30.5472 22.6834C30.508 22.7108 30.4624 22.7245 30.4176 22.7245Z" fill="#052C47"/>
<path d="M21.4249 32.1493C21.3774 32.1493 21.329 32.1347 21.288 32.1037C21.1876 32.028 21.1666 31.8847 21.2424 31.7843L28.9092 21.5908C28.9092 21.5908 28.9147 21.5826 28.9183 21.578L31.4094 18.2665C31.4523 18.2091 31.5198 18.1753 31.5919 18.1753C31.664 18.1753 31.7315 18.2091 31.7744 18.2665L38.0442 26.6032C38.1199 26.7035 38.0999 26.8468 37.9986 26.9225C37.8973 26.9983 37.7549 26.9782 37.6792 26.8769L31.5919 18.7821L29.2915 21.8399C29.2915 21.8399 29.286 21.8481 29.2824 21.8527L21.6065 32.0581C21.5618 32.1174 21.4933 32.1493 21.424 32.1493H21.4249Z" fill="#052C47"/>
<path d="M49.833 33.9002C49.7637 33.9002 49.6952 33.8692 49.6505 33.809L41.24 22.6272L37.2213 27.9708C37.1456 28.0712 37.0032 28.0913 36.9019 28.0164C36.8016 27.9407 36.7806 27.7983 36.8554 27.6971L36.8928 27.6469C36.8928 27.6469 36.8983 27.6396 36.901 27.6368L41.0575 22.1098C41.1003 22.0523 41.1679 22.0186 41.24 22.0186C41.312 22.0186 41.3796 22.0523 41.4225 22.1098L50.0155 33.5343C50.0912 33.6347 50.0712 33.7779 49.9699 33.8537C49.9288 33.8847 49.8805 33.8993 49.833 33.8993V33.9002Z" fill="#052C47"/>
<path d="M40.111 26.4224C40.0709 26.4224 40.0307 26.4115 39.9942 26.3905L38.7267 25.6386C38.6182 25.5738 38.5826 25.4342 38.6465 25.3256C38.7112 25.217 38.8509 25.1814 38.9595 25.2453L40.101 25.9224L41.0646 25.2544C41.1385 25.2024 41.237 25.1997 41.3137 25.2471L42.4215 25.926L43.5165 25.248C43.6242 25.1814 43.7638 25.2143 43.8304 25.322C43.897 25.4287 43.8641 25.5692 43.7565 25.6358L42.5419 26.3877C42.4689 26.4334 42.3759 26.4334 42.3029 26.3877L41.2024 25.7134L40.2406 26.3804C40.2014 26.4078 40.1558 26.4215 40.111 26.4215V26.4224Z" fill="#052C47"/>
<path d="M29.3081 26.5236H25.6554C25.5294 26.5236 25.4272 26.4214 25.4272 26.2955C25.4272 26.1696 25.5294 26.0674 25.6554 26.0674H29.3081C29.4341 26.0674 29.5363 26.1696 29.5363 26.2955C29.5363 26.4214 29.4341 26.5236 29.3081 26.5236Z" fill="#052C47"/>
<path d="M46.1874 29.0925H43.7911C43.6652 29.0925 43.563 28.9903 43.563 28.8644C43.563 28.7384 43.6652 28.6362 43.7911 28.6362H46.1874C46.3133 28.6362 46.4155 28.7384 46.4155 28.8644C46.4155 28.9903 46.3133 29.0925 46.1874 29.0925Z" fill="#052C47"/>
<path d="M48.5399 30.0548C48.4715 30.0548 48.404 30.0238 48.3584 29.9654L43.7511 23.9538C43.6745 23.8534 43.6936 23.7102 43.7931 23.6344C43.8926 23.5578 44.0367 23.5769 44.1125 23.6764L48.7197 29.688C48.7964 29.7883 48.7772 29.9316 48.6777 30.0073C48.6367 30.0393 48.5874 30.0548 48.539 30.0548H48.5399Z" fill="#052C47"/>
<path d="M45.1202 25.5928C45.0207 25.5928 44.9304 25.528 44.9021 25.4294C44.7342 24.8628 44.8638 24.1483 45.2489 23.5177C45.6339 22.8872 46.2106 22.4456 46.791 22.3361C46.9069 22.3142 47.0191 22.3835 47.0519 22.4957C47.2198 23.0624 47.0903 23.7769 46.7052 24.4074C46.3201 25.038 45.7434 25.4796 45.1631 25.5891C45.1485 25.5919 45.1348 25.5928 45.1211 25.5928H45.1202ZM46.6578 22.8471C46.2782 22.9921 45.9013 23.3243 45.6376 23.7559C45.3739 24.1875 45.2507 24.6748 45.2954 25.079C45.675 24.9339 46.0519 24.6018 46.3156 24.1702C46.5793 23.7386 46.7025 23.2513 46.6578 22.8471Z" fill="#052C47"/>
<path d="M46.9986 28.0449C46.8992 28.0449 46.8088 27.9801 46.7805 27.8816C46.6126 27.3149 46.7422 26.6004 47.1273 25.9699C47.5124 25.3394 48.0891 24.8977 48.6694 24.7882C48.7844 24.7663 48.8976 24.8357 48.9304 24.9479C49.0983 25.5146 48.9687 26.229 48.5836 26.8596C48.1986 27.4901 47.6219 27.9318 47.0415 28.0413C47.0269 28.044 47.0132 28.0449 46.9995 28.0449H46.9986ZM48.5362 25.2983C48.1566 25.4434 47.7797 25.7755 47.516 26.2071C47.2523 26.6388 47.1291 27.1251 47.1738 27.5303C47.5534 27.3852 47.9303 27.053 48.194 26.6214C48.4577 26.1898 48.5809 25.7034 48.5362 25.2983Z" fill="#052C47"/>
<path d="M25.8891 24.056C25.8408 24.056 25.7915 24.0405 25.7504 24.0086C25.65 23.9319 25.6318 23.7887 25.7084 23.6892L30.3157 17.6777C30.3923 17.5773 30.5356 17.559 30.6351 17.6357C30.7354 17.7123 30.7537 17.8556 30.677 17.9551L26.0698 23.9666C26.0251 24.025 25.9567 24.056 25.8882 24.056H25.8891Z" fill="#052C47"/>
<path d="M29.309 19.594C29.2953 19.594 29.2807 19.5931 29.2671 19.5903C28.6867 19.4808 28.11 19.0392 27.7249 18.4086C27.3399 17.7781 27.2103 17.0636 27.3782 16.497C27.412 16.3847 27.5242 16.3163 27.6392 16.3373C28.2195 16.4468 28.7962 16.8884 29.1813 17.519C29.5664 18.1495 29.696 18.864 29.5281 19.4306C29.4989 19.5292 29.4085 19.594 29.31 19.594H29.309ZM27.7715 16.8474C27.7268 17.2516 27.85 17.738 28.1137 18.1705C28.3774 18.6021 28.7542 18.9342 29.1338 19.0793C29.1785 18.6751 29.0554 18.1887 28.7916 17.7562C28.5279 17.3246 28.1511 16.9925 27.7715 16.8474Z" fill="#052C47"/>
<path d="M27.4302 22.0456C27.4165 22.0456 27.4019 22.0447 27.3882 22.042C26.8078 21.9325 26.2311 21.4908 25.8461 20.8603C25.461 20.2298 25.3314 19.5153 25.4993 18.9486C25.5321 18.8364 25.6453 18.7679 25.7603 18.7889C26.3406 18.8984 26.9173 19.3401 27.3024 19.9706C27.6875 20.6012 27.817 21.3156 27.6491 21.8823C27.6199 21.9809 27.5296 22.0456 27.4311 22.0456H27.4302ZM25.8926 19.2999C25.8479 19.7042 25.9711 20.1905 26.2348 20.6231C26.4985 21.0556 26.8754 21.3868 27.255 21.5319C27.2997 21.1277 27.1765 20.6413 26.9128 20.2088C26.6491 19.7772 26.2722 19.445 25.8926 19.2999Z" fill="#052C47"/>
<path d="M39.7562 24.4479C39.6522 24.4479 39.5582 24.3767 39.5344 24.2709C39.2187 22.9003 38.0151 21.9431 36.6071 21.9431C35.9246 21.9431 35.2813 22.1657 34.7475 22.5873C34.6489 22.6658 34.5048 22.6484 34.4272 22.5499C34.3487 22.4513 34.366 22.3072 34.4646 22.2296C35.0796 21.7441 35.8206 21.4868 36.6071 21.4868C38.2286 21.4868 39.6156 22.5891 39.9797 24.1687C40.008 24.2918 39.9314 24.4141 39.8082 24.4424C39.7909 24.4461 39.7735 24.4479 39.7571 24.4479H39.7562Z" fill="#052C47"/>
<path d="M37.8617 21.0504C37.8343 21.0504 37.807 21.0459 37.7805 21.0349C37.6628 20.9902 37.6035 20.8579 37.6482 20.7402L39.3901 16.1667C39.4349 16.049 39.5672 15.9897 39.6849 16.0344C39.8026 16.0791 39.8619 16.2115 39.8172 16.3292L38.0753 20.9026C38.0406 20.9939 37.9539 21.0495 37.8617 21.0495V21.0504Z" fill="#052C47"/>
<path d="M39.3045 21.6098C39.2451 21.6098 39.1858 21.587 39.1411 21.5405C39.0535 21.4501 39.0554 21.306 39.1457 21.2175L41.2198 19.2026C41.3102 19.115 41.4543 19.1169 41.5428 19.2072C41.6304 19.2976 41.6286 19.4417 41.5383 19.5302L39.4641 21.545C39.4194 21.5879 39.3629 21.6098 39.3054 21.6098H39.3045Z" fill="#052C47"/>
<path d="M35.353 21.1072C35.28 21.1072 35.2088 21.0725 35.1641 21.0077L33.3163 18.3049C33.2451 18.2009 33.2716 18.0585 33.3756 17.9883C33.4796 17.918 33.622 17.9436 33.6922 18.0476L35.54 20.7504C35.6112 20.8544 35.5848 20.9968 35.4807 21.067C35.4415 21.0935 35.3968 21.1072 35.3521 21.1072H35.353Z" fill="#052C47"/>
<path d="M36.567 20.8116C36.4566 20.8116 36.3599 20.7313 36.3417 20.619L35.9539 18.1553C35.9347 18.0312 36.0196 17.9144 36.1437 17.8943C36.2687 17.8751 36.3846 17.96 36.4046 18.0841L36.7925 20.5478C36.8116 20.6719 36.7267 20.7887 36.6026 20.8088C36.5908 20.8106 36.5789 20.8116 36.567 20.8116Z" fill="#052C47"/>
</svg>
