<svg width="73" height="73" viewBox="0 0 73 73" fill="none" xmlns="http://www.w3.org/2000/svg">
<mask id="mask0_1860_8245" style="mask-type:luminance" maskUnits="userSpaceOnUse" x="0" y="0" width="73" height="73">
<path d="M36.5 73C56.6584 73 73 56.6584 73 36.5C73 16.3416 56.6584 0 36.5 0C16.3416 0 0 16.3416 0 36.5C0 56.6584 16.3416 73 36.5 73Z" fill="white"/>
</mask>
<g mask="url(#mask0_1860_8245)">
<path d="M73 0H0V0.319375H73V0Z" fill="#FCFEFE"/>
<path d="M73 0.319336H0V0.896031H73V0.319336Z" fill="#FBFDFE"/>
<path d="M73 0.895996H0V1.47269H73V0.895996Z" fill="#FAFDFE"/>
<path d="M73 1.47266H0V2.04936H73V1.47266Z" fill="#F9FCFE"/>
<path d="M73 2.04932H0V2.62601H73V2.04932Z" fill="#F8FCFD"/>
<path d="M73 2.62598H0V3.20268H73V2.62598Z" fill="#F7FCFD"/>
<path d="M73 3.20215H0V3.77884H73V3.20215Z" fill="#F6FBFD"/>
<path d="M73 3.77881H0V4.35551H73V3.77881Z" fill="#F5FBFD"/>
<path d="M73 4.35547H0V4.93216H73V4.35547Z" fill="#F4FAFC"/>
<path d="M73 4.93213H0V5.50884H73V4.93213Z" fill="#F3FAFC"/>
<path d="M73 5.50879H0V6.08548H73V5.50879Z" fill="#F2F9FC"/>
<path d="M73 6.08545H0V6.66214H73V6.08545Z" fill="#F1F9FC"/>
<path d="M73 6.66211H0V7.23882H73V6.66211Z" fill="#F0F9FB"/>
<path d="M73 7.23779H0V7.81449H73V7.23779Z" fill="#EFF8FB"/>
<path d="M73 7.81445H0V8.39116H73V7.81445Z" fill="#EEF8FB"/>
<path d="M73 8.39111H0V8.96781H73V8.39111Z" fill="#EDF7FB"/>
<path d="M73 8.96826H0V9.54497H73V8.96826Z" fill="#ECF7FA"/>
<path d="M73 9.54492H0V10.1216H73V9.54492Z" fill="#EBF6FA"/>
<path d="M73 10.1216H0V10.6983H73V10.1216Z" fill="#EAF6FA"/>
<path d="M73 10.6982H0V11.2749H73V10.6982Z" fill="#E9F6FA"/>
<path d="M73 11.2739H0V11.8506H73V11.2739Z" fill="#E8F5F9"/>
<path d="M73 11.8506H0V12.4273H73V11.8506Z" fill="#E7F5F9"/>
<path d="M73 12.4272H0V13.0039H73V12.4272Z" fill="#E6F4F9"/>
<path d="M73 13.0039H0V13.5806H73V13.0039Z" fill="#E5F4F9"/>
<path d="M73 13.5806H0V14.1573H73V13.5806Z" fill="#E4F3F8"/>
<path d="M73 14.1577H0V14.7344H73V14.1577Z" fill="#E3F3F8"/>
<path d="M73 14.7339H0V15.3106H73V14.7339Z" fill="#E2F3F8"/>
<path d="M73 15.3101H0V15.8868H73V15.3101Z" fill="#E1F2F8"/>
<path d="M73 15.8867H0V16.4634H73V15.8867Z" fill="#E0F2F7"/>
<path d="M73 16.4634H0V17.0401H73V16.4634Z" fill="#DFF1F7"/>
<path d="M73 17.04H0V17.6167H73V17.04Z" fill="#DEF1F7"/>
<path d="M73 17.6167H0V18.1934H73V17.6167Z" fill="#DDF0F7"/>
<path d="M73 18.1934H0V18.7701H73V18.1934Z" fill="#DCF0F6"/>
<path d="M73 18.769H0V19.3457H73V18.769Z" fill="#DBF0F6"/>
<path d="M73 19.3457H0V19.9224H73V19.3457Z" fill="#DAEFF6"/>
<path d="M73 19.9229H0V20.4995H73V19.9229Z" fill="#D9EFF6"/>
<path d="M73 20.4995H0V21.0762H73V20.4995Z" fill="#D8EEF5"/>
<path d="M73 21.0762H0V21.6529H73V21.0762Z" fill="#D7EEF5"/>
<path d="M73 21.6528H0V22.2295H73V21.6528Z" fill="#D6EDF5"/>
<path d="M73 22.2295H0V22.8062H73V22.2295Z" fill="#D5EDF5"/>
<path d="M73 22.8052H0V23.3819H73V22.8052Z" fill="#D4EDF4"/>
<path d="M73 23.3818H0V23.9585H73V23.3818Z" fill="#D3ECF4"/>
<path d="M73 23.9585H0V24.5352H73V23.9585Z" fill="#D2ECF4"/>
<path d="M73 24.5352H0V25.1119H73V24.5352Z" fill="#D1EBF4"/>
<path d="M73 25.1118H0V25.6885H73V25.1118Z" fill="#D0EBF3"/>
<path d="M73 25.6885H0V26.2652H73V25.6885Z" fill="#CFEAF3"/>
<path d="M73 26.2656H0V26.8423H73V26.2656Z" fill="#CEEAF3"/>
<path d="M73 26.8413H0V27.418H73V26.8413Z" fill="#CDEAF3"/>
<path d="M73 27.418H0V27.9947H73V27.418Z" fill="#CCE9F2"/>
<path d="M73 27.9946H0V28.5713H73V27.9946Z" fill="#CBE9F2"/>
<path d="M73 28.5713H0V29.148H73V28.5713Z" fill="#CAE8F2"/>
<path d="M73 29.1479H0V29.7247H73V29.1479Z" fill="#C9E8F2"/>
<path d="M73 29.7246H0V30.3013H73V29.7246Z" fill="#C8E7F1"/>
<path d="M73 30.3013H0V30.878H73V30.3013Z" fill="#C7E7F1"/>
<path d="M73 30.877H0V31.4536H73V30.877Z" fill="#C6E7F1"/>
<path d="M73 31.4541H0V32.0308H73V31.4541Z" fill="#C5E6F1"/>
<path d="M73 32.0308H0V32.6075H73V32.0308Z" fill="#C4E6F0"/>
<path d="M73 32.6074H0V33.1841H73V32.6074Z" fill="#C3E5F0"/>
<path d="M73 33.1841H0V33.7608H73V33.1841Z" fill="#C2E5F0"/>
<path d="M73 33.7607H0V34.3374H73V33.7607Z" fill="#C1E5F0"/>
<path d="M73 34.3374H0V34.9141H73V34.3374Z" fill="#BFE4EF"/>
<path d="M73 34.9131H0V35.4898H73V34.9131Z" fill="#BEE4EF"/>
<path d="M73 35.4897H0V36.0665H73V35.4897Z" fill="#BDE3EF"/>
<path d="M73 36.0664H0V36.6431H73V36.0664Z" fill="#BCE3EF"/>
<path d="M73 36.6431H0V37.2198H73V36.6431Z" fill="#BBE2EE"/>
<path d="M73 37.2197H0V37.7964H73V37.2197Z" fill="#BAE2EE"/>
<path d="M73 37.7969H0V38.3736H73V37.7969Z" fill="#B9E2EE"/>
<path d="M73 38.3726H0V38.9493H73V38.3726Z" fill="#B8E1EE"/>
<path d="M73 38.9492H0V39.5259H73V38.9492Z" fill="#B7E1ED"/>
<path d="M73 39.5259H0V40.1026H73V39.5259Z" fill="#B6E0ED"/>
<path d="M73 40.1025H0V40.6792H73V40.1025Z" fill="#B5E0ED"/>
<path d="M73 40.6792H0V41.2559H73V40.6792Z" fill="#B4DFED"/>
<path d="M73 41.2559H0V41.8326H73V41.2559Z" fill="#B3DFEC"/>
<path d="M73 41.8325H0V42.4092H73V41.8325Z" fill="#B2DFEC"/>
<path d="M73 42.4082H0V42.9849H73V42.4082Z" fill="#B1DEEC"/>
<path d="M73 42.9854H0V43.562H73V42.9854Z" fill="#B0DEEC"/>
<path d="M73 43.562H0V44.1387H73V43.562Z" fill="#AFDDEB"/>
<path d="M73 44.1387H0V44.7154H73V44.1387Z" fill="#AEDDEB"/>
<path d="M73 44.7153H0V45.292H73V44.7153Z" fill="#ADDCEB"/>
<path d="M73 45.292H0V45.8687H73V45.292Z" fill="#ACDCEB"/>
<path d="M73 45.8687H0V46.4454H73V45.8687Z" fill="#ABDCEA"/>
<path d="M73 46.4443H0V47.021H73V46.4443Z" fill="#AADBEA"/>
<path d="M73 47.021H0V47.5977H73V47.021Z" fill="#A9DBEA"/>
<path d="M73 47.5977H0V48.1744H73V47.5977Z" fill="#A8DAEA"/>
<path d="M73 48.1743H0V48.751H73V48.1743Z" fill="#A7DAE9"/>
<path d="M73 48.751H0V49.3277H73V48.751Z" fill="#A6D9E9"/>
<path d="M73 49.3281H0V49.9048H73V49.3281Z" fill="#A5D9E9"/>
<path d="M73 49.9048H0V50.4815H73V49.9048Z" fill="#A4D9E9"/>
<path d="M73 50.4805H0V51.0572H73V50.4805Z" fill="#A3D8E8"/>
<path d="M73 51.0571H0V51.6338H73V51.0571Z" fill="#A2D8E8"/>
<path d="M73 51.6338H0V52.2105H73V51.6338Z" fill="#A1D7E8"/>
<path d="M73 52.2104H0V52.7872H73V52.2104Z" fill="#A0D7E8"/>
<path d="M73 52.7871H0V53.3638H73V52.7871Z" fill="#9FD6E7"/>
<path d="M73 53.3638H0V53.9405H73V53.3638Z" fill="#9ED6E7"/>
<path d="M73 53.9399H0V54.5166H73V53.9399Z" fill="#9DD6E7"/>
<path d="M73 54.5161H0V55.0928H73V54.5161Z" fill="#9CD5E7"/>
<path d="M73 55.0933H0V55.67H73V55.0933Z" fill="#9BD5E6"/>
<path d="M73 55.6699H0V56.2466H73V55.6699Z" fill="#9AD4E6"/>
<path d="M73 56.2466H0V56.8233H73V56.2466Z" fill="#99D4E6"/>
<path d="M73 56.8232H0V57.3999H73V56.8232Z" fill="#98D3E6"/>
<path d="M73 57.3999H0V57.9766H73V57.3999Z" fill="#97D3E5"/>
<path d="M73 57.9756H0V58.5523H73V57.9756Z" fill="#96D3E5"/>
<path d="M73 58.5522H0V59.129H73V58.5522Z" fill="#95D2E5"/>
<path d="M73 59.1289H0V59.7056H73V59.1289Z" fill="#94D2E5"/>
<path d="M73 59.7056H0V60.2823H73V59.7056Z" fill="#93D1E4"/>
<path d="M73 60.2827H0V60.8594H73V60.2827Z" fill="#92D1E4"/>
<path d="M73 60.8594H0V61.4361H73V60.8594Z" fill="#91D0E4"/>
<path d="M73 61.436H0V62.0127H73V61.436Z" fill="#90D0E4"/>
<path d="M73 62.0117H0V62.5884H73V62.0117Z" fill="#8FD0E3"/>
<path d="M73 62.5884H0V63.1651H73V62.5884Z" fill="#8ECFE3"/>
<path d="M73 63.165H0V63.7417H73V63.165Z" fill="#8DCFE3"/>
<path d="M73 63.7417H0V64.3184H73V63.7417Z" fill="#8CCEE3"/>
<path d="M73 64.3184H0V64.8951H73V64.3184Z" fill="#8BCEE2"/>
<path d="M73 64.895H0V65.4717H73V64.895Z" fill="#8ACDE2"/>
<path d="M73 65.4717H0V66.0484H73V65.4717Z" fill="#89CDE2"/>
<path d="M73 66.0479H0V66.6246H73V66.0479Z" fill="#88CDE2"/>
<path d="M73 66.6245H0V67.2012H73V66.6245Z" fill="#87CCE1"/>
<path d="M73 67.2012H0V67.7779H73V67.2012Z" fill="#86CCE1"/>
<path d="M73 67.7778H0V68.3545H73V67.7778Z" fill="#85CBE1"/>
<path d="M73 68.3545H0V68.9312H73V68.3545Z" fill="#84CBE1"/>
<path d="M73 68.9312H0V69.5079H73V68.9312Z" fill="#83CAE0"/>
<path d="M73 69.5068H0V70.0835H73V69.5068Z" fill="#82CAE0"/>
<path d="M73 70.0835H0V72.9999H73V70.0835Z" fill="#82CAE0"/>
</g>
<path d="M36.5001 70.7324C31.8792 70.7324 27.3961 69.8272 23.1758 68.0424C19.0996 66.3187 15.4387 63.8504 12.2951 60.7059C9.15154 57.5614 6.68323 53.9014 4.9586 49.8252C3.17375 45.6049 2.26855 41.1218 2.26855 36.5C2.26855 36.3741 2.37075 36.2719 2.49668 36.2719C2.6226 36.2719 2.7248 36.3741 2.7248 36.5C2.7248 55.1241 17.8769 70.2762 36.501 70.2762C55.1251 70.2762 70.2772 55.1241 70.2772 36.5C70.2772 17.8759 55.1251 2.72383 36.501 2.72383C36.3751 2.72383 36.2729 2.62163 36.2729 2.4957C36.2729 2.36978 36.3751 2.26758 36.501 2.26758C41.1219 2.26758 45.605 3.17278 49.8262 4.95763C53.9024 6.68134 57.5633 9.14965 60.7069 12.2941C63.8504 15.4386 66.3188 19.0986 68.0434 23.1748C69.8282 27.3951 70.7334 31.8782 70.7334 36.4991C70.7334 41.12 69.8282 45.6031 68.0434 49.8243C66.3197 53.9005 63.8514 57.5614 60.7069 60.705C57.5624 63.8485 53.9024 66.3169 49.8262 68.0415C45.6059 69.8263 41.1228 70.7315 36.501 70.7315L36.5001 70.7324Z" fill="#052C47"/>
<path d="M36.5001 67.7176C36.3742 67.7176 36.272 67.6154 36.272 67.4895C36.272 67.3635 36.3742 67.2613 36.5001 67.2613C52.5108 67.2613 65.9848 54.7692 67.1747 38.8224C67.1838 38.6964 67.2951 38.6015 67.4192 38.6116C67.5452 38.6207 67.6392 38.7302 67.63 38.8561C67.0451 46.689 63.5484 53.9635 57.7814 59.339C51.9861 64.7419 44.4279 67.7167 36.5001 67.7167V67.7176Z" fill="#052C47"/>
<path d="M5.59837 34.3883C5.59289 34.3883 5.58651 34.3883 5.58103 34.3883C5.45511 34.3792 5.36112 34.2697 5.37024 34.1438C5.95424 26.3109 9.45186 19.0364 15.2189 13.6609C21.0141 8.25796 28.5724 5.2832 36.5002 5.2832C36.6261 5.2832 36.7283 5.3854 36.7283 5.51133C36.7283 5.63725 36.6261 5.73945 36.5002 5.73945C20.4895 5.73945 7.01548 18.2316 5.82558 34.1784C5.81645 34.298 5.71699 34.3892 5.59837 34.3892V34.3883Z" fill="#052C47"/>
<path d="M5.51076 37.1206C5.47152 37.1206 5.43228 37.1105 5.39669 37.0905L4.19219 36.3951C4.12193 36.3541 4.07812 36.2792 4.07812 36.1971V34.8065C4.07812 34.7252 4.12193 34.6495 4.19219 34.6084L5.39669 33.9131C5.46696 33.8721 5.55456 33.8721 5.62482 33.9131L6.82931 34.6084C6.89958 34.6495 6.94338 34.7243 6.94338 34.8065V36.1971C6.94338 36.2783 6.89958 36.3541 6.82931 36.3951L5.62482 37.0905C5.58923 37.1105 5.54999 37.1206 5.51076 37.1206ZM4.53438 36.0648L5.51076 36.6287L6.48713 36.0648V34.937L5.51076 34.373L4.53438 34.937V36.0648Z" fill="#052C47"/>
<path d="M67.4894 39.1187C67.4501 39.1187 67.4109 39.1087 67.3753 39.0886L66.1863 38.4024C66.1161 38.3614 66.0723 38.2865 66.0723 38.2044V36.832C66.0723 36.7508 66.1161 36.6751 66.1863 36.634L67.3753 35.9478C67.4456 35.9067 67.5332 35.9067 67.6034 35.9478L68.7924 36.634C68.8627 36.6751 68.9065 36.7499 68.9065 36.832V38.2044C68.9065 38.2856 68.8627 38.3614 68.7924 38.4024L67.6034 39.0886C67.5679 39.1087 67.5286 39.1187 67.4894 39.1187ZM66.5285 38.0721L67.4894 38.6269L68.4502 38.0721V36.9625L67.4894 36.4077L66.5285 36.9625V38.0721Z" fill="#052C47"/>
<path d="M41.0818 40.1009C40.9559 40.1009 40.8537 39.9987 40.8537 39.8728V38.4767C40.8537 37.6965 40.5863 36.9327 40.0999 36.325C39.8308 35.9856 39.5041 35.7045 39.1291 35.4883L35.4644 33.3731C35.0867 33.1559 34.6761 33.0126 34.2463 32.9488C34.1213 32.9305 34.0355 32.8146 34.0537 32.6896C34.072 32.5646 34.1888 32.4788 34.3129 32.4971C34.8001 32.5692 35.2637 32.7307 35.6917 32.9771L39.3563 35.0922C39.7815 35.3368 40.151 35.6552 40.4558 36.0394C41.0061 36.7265 41.309 37.5925 41.309 38.4758V39.8719C41.309 39.9978 41.2068 40.1 41.0809 40.1L41.0818 40.1009Z" fill="#052C47"/>
<path d="M27.4771 45.0616C27.3512 45.0616 27.249 44.9594 27.249 44.8334V38.477C27.249 37.5937 27.552 36.7277 28.1031 36.0397C28.407 35.6564 28.7775 35.338 29.2027 35.0934L32.8664 32.9782C33.2953 32.7319 33.7588 32.5703 34.2461 32.4983C34.3702 32.4791 34.487 32.5658 34.5052 32.6908C34.5235 32.8158 34.4377 32.9317 34.3127 32.95C33.8829 33.0138 33.4723 33.1562 33.0945 33.3743L29.4308 35.4894C29.0558 35.7057 28.7291 35.9868 28.4599 36.3253C27.9736 36.9339 27.7053 37.6977 27.7053 38.4779V44.8344C27.7053 44.9603 27.6031 45.0625 27.4771 45.0625V45.0616Z" fill="#052C47"/>
<path d="M27.8341 37.1271C27.7602 37.1271 27.6881 37.0915 27.6443 37.0258L27.6352 37.0139C27.46 36.7931 27.2483 36.6106 27.0046 36.4701L24.5482 35.052C24.3036 34.9106 24.0381 34.8184 23.758 34.7774C23.633 34.7591 23.5472 34.6432 23.5654 34.5182C23.5837 34.3932 23.7005 34.3074 23.8246 34.3257C24.1613 34.3759 24.4807 34.4872 24.7754 34.6569L27.2319 36.075C27.5248 36.2438 27.7803 36.4637 27.9901 36.7283C28.0038 36.7456 28.0148 36.7602 28.023 36.773C28.0933 36.878 28.065 37.0194 27.96 37.0897C27.9208 37.1152 27.877 37.128 27.8341 37.128V37.1271Z" fill="#052C47"/>
<path d="M23.7928 44.3671C23.77 44.3671 23.7463 44.3634 23.7226 44.3561L19.1637 42.8842C19.0697 42.8541 19.0059 42.7665 19.0059 42.6671V38.4075C19.0059 37.7989 19.2148 37.2021 19.5944 36.7276C19.8043 36.4639 20.0589 36.244 20.3527 36.0752L22.8082 34.6571C23.1039 34.4874 23.4233 34.3761 23.7591 34.3259C23.8841 34.3067 24 34.3934 24.0182 34.5184C24.0365 34.6434 23.9507 34.7593 23.8257 34.7776C23.5465 34.8187 23.2809 34.9117 23.0355 35.0522L20.5799 36.4694C20.3363 36.6099 20.1246 36.7915 19.9503 37.0114C19.6346 37.4056 19.4612 37.9011 19.4612 38.4075V42.501L23.8622 43.9218C23.9817 43.9601 24.0483 44.0887 24.0091 44.2092C23.9781 44.3059 23.8886 44.3671 23.7919 44.3671H23.7928Z" fill="#052C47"/>
<path d="M23.7926 33.5793C22.9941 33.5793 22.2468 33.2663 21.6874 32.6969C21.1399 32.1431 20.8379 31.4067 20.8379 30.6247C20.8379 29.589 21.3662 28.6464 22.2504 28.1043C22.3581 28.0386 22.4977 28.0724 22.5643 28.1801C22.63 28.2877 22.5963 28.4283 22.4886 28.494C21.7404 28.952 21.2941 29.7487 21.2941 30.6247C21.2941 31.2862 21.5496 31.9085 22.0123 32.3767C22.485 32.8585 23.1173 33.1231 23.7926 33.1231C24.4678 33.1231 25.0993 32.8585 25.5719 32.3776C26.0355 31.9085 26.291 31.2862 26.291 30.6247C26.291 30.4586 26.2746 30.2907 26.2417 30.1264C26.2171 30.0032 26.2974 29.8828 26.4206 29.8582C26.5438 29.8335 26.6642 29.9138 26.6888 30.037C26.7281 30.2314 26.7472 30.4294 26.7472 30.6247C26.7472 31.4067 26.4452 32.1431 25.8968 32.6969C25.3383 33.2654 24.591 33.5784 23.7926 33.5784V33.5793Z" fill="#052C47"/>
<path d="M25.0417 30.7103C23.641 30.7103 22.4228 29.7156 22.1463 28.3442C22.107 28.1489 22.0879 27.9518 22.0879 27.7556C22.0879 27.4463 22.1353 27.1424 22.2293 26.854C22.2503 26.7911 22.2969 26.7391 22.3589 26.7135C22.8215 26.521 23.3143 26.4233 23.8216 26.4233C24.8446 26.4233 25.8054 26.8212 26.5272 27.5448C26.9971 28.0147 27.3375 28.5996 27.5118 29.2366C27.5291 29.3014 27.5182 29.3707 27.4799 29.4255C27.2463 29.7667 26.9369 30.0606 26.5847 30.275C26.122 30.5588 25.5891 30.7093 25.0426 30.7093L25.0417 30.7103ZM22.6317 27.0959C22.5733 27.3085 22.5432 27.5302 22.5432 27.7556C22.5432 27.9217 22.5596 28.0896 22.5925 28.2538C22.827 29.4127 23.8563 30.2531 25.0407 30.2531C25.5025 30.2531 25.9532 30.1263 26.3447 29.8863C26.6121 29.7229 26.8511 29.5058 27.04 29.2539C26.8794 28.7329 26.5911 28.2556 26.2033 27.8669C25.5673 27.23 24.7214 26.8796 23.8207 26.8796C23.4092 26.8796 23.0104 26.9517 22.6317 27.0949V27.0959Z" fill="#052C47"/>
<path d="M24.1767 26.8977H24.1749C24.049 26.8977 23.9468 26.7955 23.9468 26.6695C23.9468 26.5436 24.049 26.4414 24.1749 26.4414C24.3008 26.4414 24.4039 26.5436 24.4039 26.6695C24.4039 26.7955 24.3026 26.8977 24.1767 26.8977Z" fill="#052C47"/>
<path d="M26.0182 27.6286C25.8922 27.6286 25.79 27.5264 25.79 27.4004C25.79 27.2736 25.8922 27.1714 26.0182 27.1714C26.1441 27.1714 26.2463 27.2736 26.2463 27.3995C26.2463 27.5254 26.1441 27.6276 26.0182 27.6276V27.6286Z" fill="#052C47"/>
<path d="M27.2902 29.5261C27.1898 29.5261 27.0977 29.4595 27.0703 29.3582C26.917 28.7979 26.6168 28.2823 26.2034 27.8671C26.1168 27.7804 26.0255 27.6983 25.9297 27.6226C25.9041 27.6007 25.885 27.5861 25.8649 27.5715C25.8412 27.5532 25.8211 27.5377 25.8001 27.5231C25.7974 27.5213 25.7946 27.5195 25.7919 27.5176C25.7746 27.5049 25.7563 27.4921 25.739 27.4802C25.7353 27.4775 25.7317 27.4748 25.7271 27.472C25.7143 27.4629 25.7025 27.4538 25.6888 27.4456C25.6486 27.4182 25.6094 27.3926 25.5692 27.3698C25.5191 27.3388 25.4734 27.3123 25.4269 27.2877C25.3758 27.2594 25.3284 27.2357 25.2809 27.2129C25.2298 27.1882 25.1805 27.1654 25.1303 27.1444C25.092 27.128 25.0519 27.1116 25.0126 27.0979C24.9752 27.0842 24.9387 27.0705 24.9022 27.0577C24.8904 27.0541 24.8794 27.0504 24.8675 27.0468L24.8374 27.0368C24.8064 27.0267 24.7763 27.0176 24.7453 27.0094C24.7079 26.9984 24.6768 26.9902 24.644 26.9829C24.6403 26.9829 24.6358 26.9811 24.6321 26.9802C24.602 26.9711 24.571 26.9647 24.5409 26.9583C24.5098 26.951 24.4861 26.9464 24.4624 26.9419C24.4168 26.9337 24.372 26.9254 24.3264 26.9191C24.3082 26.9163 24.2927 26.9136 24.2762 26.9117C24.2753 26.9117 24.2662 26.9108 24.2644 26.9099C24.2297 26.9054 24.1941 26.9008 24.1594 26.8981C24.1558 26.8981 24.1521 26.8981 24.1494 26.8981C24.1229 26.8953 24.0965 26.8935 24.07 26.8917L23.9103 26.8825C23.882 26.8825 23.851 26.8825 23.8182 26.8825C23.372 26.8825 22.9385 26.9683 22.5297 27.138C22.4129 27.1864 22.2797 27.1317 22.2313 27.0149C22.183 26.8981 22.2386 26.7648 22.3545 26.7165C22.8518 26.5102 23.3847 26.4099 23.9277 26.4272L24.1029 26.4372C24.1302 26.4391 24.1594 26.4409 24.1895 26.4445C24.1923 26.4445 24.195 26.4445 24.1969 26.4445C24.2379 26.4482 24.279 26.4537 24.32 26.4591C24.3474 26.4619 24.3711 26.4655 24.3949 26.4692C24.445 26.4765 24.4962 26.4856 24.5482 26.4957C24.5783 26.5011 24.6066 26.5075 24.6367 26.5139C24.6713 26.5212 24.7115 26.5303 24.7517 26.5413C24.79 26.5504 24.8274 26.5604 24.8657 26.5714C24.8995 26.5805 24.9369 26.5915 24.9743 26.6042L25.0135 26.617C25.0208 26.6197 25.0272 26.6216 25.0345 26.6243C25.0382 26.6252 25.0409 26.6261 25.0446 26.628C25.0856 26.6426 25.1276 26.6572 25.1687 26.6727C25.2143 26.6891 25.2617 26.7083 25.3064 26.7274C25.3648 26.7521 25.4214 26.7776 25.478 26.8059C25.5327 26.8324 25.5893 26.8606 25.6441 26.8917C25.6943 26.9181 25.749 26.9501 25.8019 26.9829C25.843 27.0066 25.8905 27.0368 25.9425 27.0723C25.9571 27.0815 25.9726 27.0924 25.9881 27.1043C26.0127 27.1207 26.0383 27.138 26.062 27.1563C26.0875 27.1745 26.1122 27.1937 26.1368 27.2129C26.1615 27.2311 26.1898 27.253 26.2171 27.2767C26.3184 27.357 26.4234 27.451 26.5219 27.5496C26.9918 28.0204 27.3322 28.6053 27.5065 29.2423C27.5402 29.3636 27.4682 29.4896 27.3468 29.5224C27.3267 29.5279 27.3067 29.5306 27.2866 29.5306L27.2902 29.5261Z" fill="#052C47"/>
<path d="M41.0815 49.7673C40.8342 49.7673 40.5869 49.7034 40.3661 49.5766L37.2471 47.7753C36.8055 47.5207 36.5317 47.0453 36.5317 46.5362V42.9345C36.5317 42.4253 36.8055 41.9499 37.2471 41.6953L40.3661 39.8941C40.8077 39.6395 41.3561 39.6395 41.7969 39.8941L44.9158 41.6953C45.3574 41.9499 45.6312 42.4253 45.6312 42.9345V46.5362C45.6312 47.0453 45.3574 47.5207 44.9158 47.7753L41.7969 49.5766C41.576 49.7044 41.3287 49.7673 41.0815 49.7673ZM41.0815 40.1587C40.9126 40.1587 40.7448 40.2025 40.5942 40.2892L37.4753 42.0904C37.175 42.2638 36.988 42.5878 36.988 42.9345V46.5362C36.988 46.8829 37.175 47.2068 37.4753 47.3802L40.5942 49.1815C40.8944 49.3549 41.2685 49.3549 41.5687 49.1815L44.6877 47.3802C44.9879 47.2068 45.1749 46.8829 45.1749 46.5362V42.9345C45.1749 42.5878 44.9879 42.2638 44.6877 42.0904L41.5687 40.2892C41.4182 40.2025 41.2503 40.1587 41.0815 40.1587Z" fill="#052C47"/>
<path d="M46.6695 47.1309C46.5436 47.1309 46.4414 47.0287 46.4414 46.9028V24.4361C46.4414 24.3102 46.5436 24.208 46.6695 24.208C46.7955 24.208 46.8977 24.3102 46.8977 24.4361V46.9028C46.8977 47.0287 46.7955 47.1309 46.6695 47.1309Z" fill="#052C47"/>
<path d="M29.7311 45.0615C29.6051 45.0615 29.5029 44.9593 29.5029 44.8333V38.7789C29.5029 38.653 29.6051 38.5508 29.7311 38.5508C29.857 38.5508 29.9592 38.653 29.9592 38.7789V44.8333C29.9592 44.9593 29.857 45.0615 29.7311 45.0615Z" fill="#052C47"/>
<path d="M23.7925 46.5434C23.7678 46.5434 23.7423 46.5397 23.7177 46.5306L19.1588 44.9511C19.0402 44.91 18.9763 44.7795 19.0183 44.6609C19.0593 44.5423 19.1898 44.4793 19.3085 44.5204L23.8673 46.0999C23.9859 46.141 24.0498 46.2715 24.0078 46.3901C23.975 46.4841 23.8865 46.5434 23.7925 46.5434Z" fill="#052C47"/>
<path d="M49.5181 34.1294C50.0857 34.1294 50.4361 34.4415 50.4361 34.9443V35.3768H51.1807V35.7327H48.6011V34.9452C48.6011 34.4415 48.9478 34.1303 49.5181 34.1303V34.1294ZM49.5181 34.488C49.1942 34.488 49.0062 34.6495 49.0062 34.9616V35.3777H50.031V34.9616C50.031 34.6495 49.843 34.488 49.5181 34.488Z" fill="#052C47"/>
<path d="M48.6001 33.7744V33.4185H50.7746V32.4175H51.1797V33.7744H48.6001Z" fill="#052C47"/>
<path d="M50.583 30.8819V31.8391L51.1797 32.028V32.3948L48.6001 31.5334V31.183L51.1797 30.3188V30.6912L50.583 30.8828V30.8819ZM50.207 30.9996L49.0792 31.3609L50.207 31.7195V31.0005V30.9996Z" fill="#052C47"/>
<path d="M49.0053 29.7821V30.4162H48.6001V28.792H49.0053V29.4262H51.1797V29.7821H49.0053Z" fill="#052C47"/>
<path d="M49.8903 28.6892C49.1274 28.6892 48.5635 28.2512 48.5635 27.6581C48.5635 27.065 49.1238 26.627 49.8903 26.627C50.6568 26.627 51.217 27.065 51.217 27.6581C51.217 28.2512 50.6531 28.6892 49.8903 28.6892ZM49.8903 26.9856C49.3637 26.9856 48.9841 27.273 48.9841 27.6581C48.9841 28.0432 49.3637 28.3306 49.8903 28.3306C50.4168 28.3306 50.7964 28.0432 50.7964 27.6581C50.7964 27.273 50.4168 26.9856 49.8903 26.9856Z" fill="#052C47"/>
<path d="M55.5997 36.575L53.8896 36.5777L55.3049 37.2064V37.3652L53.9115 37.9939H55.5997V38.3334H53.02V38.0405L54.73 37.2803L53.02 36.5339V36.241L55.5997 36.2383V36.575Z" fill="#052C47"/>
<path d="M55.1982 34.2861H55.5997V35.7224H53.02V34.3245H53.4215V35.3665H54.0922V34.4422H54.4864V35.3665H55.1972V34.2861H55.1982Z" fill="#052C47"/>
<path d="M55.5997 32.1321L53.8896 32.1349L55.3049 32.7636V32.9223L53.9115 33.5511H55.5997V33.8905H53.02V33.5976L54.73 32.8375L53.02 32.0911V31.7982L55.5997 31.7954V32.1321Z" fill="#052C47"/>
<path d="M54.8998 29.5786C55.3423 29.5786 55.5997 29.8359 55.5997 30.3278V31.2795H53.02V30.3825C53.02 29.9226 53.2819 29.6772 53.6907 29.6772C53.9562 29.6772 54.1515 29.7757 54.2583 29.9235C54.3468 29.7182 54.564 29.5786 54.8998 29.5786ZM53.3969 30.9246H54.1077V30.4209C54.1077 30.1745 53.99 30.0349 53.7537 30.0349C53.5173 30.0349 53.396 30.1745 53.396 30.4209V30.9246H53.3969ZM54.8523 29.9372C54.5941 29.9372 54.48 30.0823 54.48 30.3506V30.9246H55.2246V30.3506C55.2246 30.0823 55.1106 29.9372 54.8523 29.9372Z" fill="#052C47"/>
<path d="M55.1982 27.7627H55.5997V29.199H53.02V27.801H53.4215V28.8431H54.0922V27.9187H54.4864V28.8431H55.1972V27.7627H55.1982Z" fill="#052C47"/>
<path d="M55.5997 26.1148L54.8441 26.5063C54.8478 26.5309 54.8477 26.5556 54.8477 26.5802V27.0127H55.5997V27.3686H53.02V26.5811C53.02 26.0774 53.3668 25.7663 53.9371 25.7663C54.3276 25.7663 54.6151 25.9141 54.751 26.1741L55.5987 25.7334V26.1167L55.5997 26.1148ZM53.4252 26.5966V27.0127H54.4536V26.5966C54.4536 26.2846 54.2619 26.123 53.938 26.123C53.6141 26.123 53.4261 26.2846 53.4261 26.5966H53.4252Z" fill="#052C47"/>
<path d="M55.3267 25.53L54.9544 25.4068C55.1205 25.2535 55.2382 25.0098 55.2382 24.7753C55.2382 24.4769 55.094 24.351 54.9033 24.351C54.3467 24.351 54.7117 25.4889 53.7535 25.4889C53.3374 25.4889 52.9834 25.2425 52.9834 24.7178C52.9834 24.4879 53.0646 24.247 53.2115 24.0809L53.5838 24.1932C53.4469 24.3656 53.3812 24.5545 53.3812 24.7215C53.3812 25.0171 53.5355 25.1376 53.7316 25.1376C54.281 25.1376 53.9233 24.0024 54.8704 24.0024C55.2829 24.0024 55.6369 24.2516 55.6369 24.7762C55.6369 25.0746 55.5119 25.3721 55.3276 25.5309L55.3267 25.53Z" fill="#052C47"/>
<path d="M57.5976 40.6158H46.6695C46.5436 40.6158 46.4414 40.5136 46.4414 40.3877V22.0382C46.4414 21.9123 46.5436 21.8101 46.6695 21.8101H57.5976C57.7236 21.8101 57.8258 21.9123 57.8258 22.0382V40.3877C57.8258 40.5136 57.7236 40.6158 57.5976 40.6158ZM46.8977 40.1595H57.3695V22.2663H46.8977V40.1595Z" fill="#052C47"/>
<path d="M43.1792 46.9703C43.0532 46.9703 42.951 46.8681 42.951 46.7421V45.4856C42.951 44.4545 42.1125 43.6159 41.0813 43.6159C40.0502 43.6159 39.2116 44.4545 39.2116 45.4856V46.7421C39.2116 46.8681 39.1094 46.9703 38.9835 46.9703C38.8576 46.9703 38.7554 46.8681 38.7554 46.7421V45.4856C38.7554 44.2036 39.7984 43.1597 41.0813 43.1597C42.3643 43.1597 43.4073 44.2027 43.4073 45.4856V46.7421C43.4073 46.8681 43.3051 46.9703 43.1792 46.9703Z" fill="#052C47"/>
<path d="M41.0812 46.9703C40.9552 46.9703 40.853 46.8681 40.853 46.7421V42.7271C40.853 42.6012 40.9552 42.499 41.0812 42.499C41.2071 42.499 41.3093 42.6012 41.3093 42.7271V46.7421C41.3093 46.8681 41.2071 46.9703 41.0812 46.9703Z" fill="#052C47"/>
<path d="M37.9649 21.8254C37.839 21.8254 37.7368 21.7241 37.7368 21.5982C37.7368 21.4713 37.839 21.3691 37.9649 21.3691C38.0909 21.3691 38.1931 21.4713 38.1931 21.5973C38.1931 21.7232 38.0909 21.8263 37.9649 21.8263V21.8254Z" fill="#052C47"/>
<path d="M39.0856 32.4476C39.0856 32.4476 39.0783 32.4476 39.0746 32.4476C38.9487 32.4412 38.852 32.3345 38.8575 32.2085L38.8748 31.859C38.894 31.4712 38.9131 31.0843 38.9332 30.6974C38.9396 30.5715 39.0445 30.4748 39.1723 30.4812C39.2982 30.4876 39.3949 30.5952 39.3886 30.7202C39.3685 31.1062 39.3493 31.494 39.3302 31.8809L39.3128 32.2304C39.3073 32.3527 39.206 32.4476 39.0847 32.4476H39.0856ZM29.4505 31.9786C29.4505 31.9786 29.4432 31.9786 29.4396 31.9786C29.3136 31.9722 29.2169 31.8654 29.2224 31.7395L29.2461 31.2577C29.2726 30.7056 29.2963 30.1527 29.32 29.5997C29.3821 28.1333 29.4469 26.6158 29.5783 25.1275C29.6987 23.7624 30.4241 22.4986 31.5684 21.6573C31.5702 21.6555 31.5721 21.6546 31.5739 21.6527C31.7756 21.5049 31.9882 21.3717 32.2072 21.2558C32.3185 21.1974 32.4563 21.2394 32.5156 21.3507C32.574 21.462 32.532 21.5998 32.4207 21.6591C32.2236 21.7631 32.0311 21.8836 31.8495 22.0168C31.8477 22.0186 31.8458 22.0196 31.844 22.0214C30.8028 22.7842 30.1431 23.9312 30.0336 25.1668C29.9031 26.645 29.8392 28.157 29.7772 29.6179C29.7535 30.1718 29.7297 30.7248 29.7033 31.2787L29.6796 31.7605C29.6732 31.8828 29.5728 31.9777 29.4514 31.9777L29.4505 31.9786Z" fill="#052C47"/>
<path d="M39.1611 30.9376C39.1611 30.9376 39.1529 30.9376 39.1492 30.9376C39.0233 30.9312 38.9266 30.8235 38.9339 30.6976L38.954 30.3125C39.0315 28.8471 39.1118 27.3305 39.1456 25.8413C39.1584 25.2828 39.047 24.6523 38.8317 24.0665L38.8171 24.0282C38.7559 23.8666 38.6839 23.7079 38.599 23.5454C38.3152 23.0025 37.9274 22.5307 37.4483 22.1447C36.4783 21.3655 35.2027 21.0114 33.9489 21.1738C33.4561 21.2377 32.9789 21.3828 32.5272 21.6064C32.4652 22.4322 33.0683 22.9185 33.1413 22.9751C34.0036 23.498 34.9271 23.6668 35.7976 23.7699C36.6207 23.8666 37.1956 24.3238 37.5551 25.1688L37.5615 25.1843C37.566 25.1952 37.5715 25.2071 37.5761 25.219C37.7841 25.7245 37.8653 26.2939 37.8307 27.0075C37.8243 27.1334 37.7184 27.2301 37.5916 27.2246C37.4657 27.2183 37.3689 27.1115 37.3744 26.9856C37.4063 26.3331 37.337 25.8404 37.1518 25.3878L37.1335 25.344C36.8415 24.6569 36.3989 24.3001 35.7438 24.2225C34.8194 24.1121 33.8339 23.9314 32.895 23.3584C32.8904 23.3556 32.8849 23.352 32.8803 23.3483C32.8411 23.3201 31.9113 22.6348 32.0883 21.4248C32.0993 21.3527 32.143 21.2897 32.2078 21.256C32.738 20.9768 33.3047 20.797 33.8896 20.7203C35.2656 20.5415 36.6672 20.9311 37.7339 21.788C38.2632 22.2141 38.6902 22.7342 39.0032 23.3328C39.0963 23.5117 39.1757 23.686 39.2432 23.8657L39.2596 23.9077C39.4951 24.5464 39.6164 25.2363 39.6018 25.8504C39.5681 27.3469 39.4878 28.8662 39.4093 30.3354L39.3892 30.7204C39.3828 30.8418 39.2825 30.9367 39.162 30.9367L39.1611 30.9376Z" fill="#052C47"/>
<path d="M34.3679 31.6202C34.2858 31.6202 34.2128 31.6056 34.1489 31.5755C33.7018 31.3638 33.3003 31.1248 32.9544 30.8647C32.1806 30.2825 31.6267 29.5498 31.3083 28.6884C30.9962 27.847 31.1559 26.9774 31.3521 26.2383C31.624 25.2172 32.0903 24.2016 32.8203 23.0409C32.8869 22.9341 33.0283 22.9022 33.1351 22.9688C33.2419 23.0354 33.2738 23.1769 33.2072 23.2836C32.5027 24.4042 32.0538 25.3806 31.7937 26.356C31.6067 27.0596 31.4698 27.8106 31.7372 28.5305C32.0292 29.3198 32.5173 29.964 33.23 30.5006C33.5512 30.7424 33.9262 30.9651 34.3442 31.1631C34.3578 31.1667 34.4382 31.1695 34.586 31.1138C34.9063 30.9934 35.1992 30.8537 35.4565 30.6995C36.546 30.0498 37.151 29.0871 37.3061 27.7558C37.3326 27.5259 37.3618 27.2548 37.3755 26.9847C37.3819 26.8588 37.4877 26.763 37.6146 26.7676C37.7405 26.774 37.8372 26.8807 37.8317 27.0066C37.818 27.2904 37.7879 27.5715 37.7606 27.8087C37.5899 29.2705 36.8937 30.3747 35.6919 31.091C35.4109 31.2589 35.0933 31.4104 34.7475 31.5408C34.6051 31.5938 34.4792 31.6212 34.3688 31.6212L34.3679 31.6202Z" fill="#052C47"/>
<path d="M32.3132 21.6848C32.3022 21.6848 32.2913 21.6848 32.2803 21.6821C32.1553 21.6638 32.0686 21.5488 32.0869 21.4238C32.1042 21.2988 32.2192 21.2112 32.3451 21.2295C32.4701 21.2477 32.5568 21.3627 32.5386 21.4877C32.5222 21.6018 32.4245 21.6839 32.3132 21.6839V21.6848Z" fill="#052C47"/>
</svg>
