<svg width="73" height="73" viewBox="0 0 73 73" fill="none" xmlns="http://www.w3.org/2000/svg">
<mask id="mask0_1860_8242" style="mask-type:luminance" maskUnits="userSpaceOnUse" x="0" y="0" width="73" height="73">
<path d="M36.5 73C56.6584 73 73 56.6584 73 36.5C73 16.3416 56.6584 0 36.5 0C16.3416 0 0 16.3416 0 36.5C0 56.6584 16.3416 73 36.5 73Z" fill="white"/>
</mask>
<g mask="url(#mask0_1860_8242)">
<path d="M73 0H0V0.319375H73V0Z" fill="#FCFEFE"/>
<path d="M73 0.319336H0V0.896036H73V0.319336Z" fill="#FBFDFE"/>
<path d="M73 0.895996H0V1.4727H73V0.895996Z" fill="#FAFDFE"/>
<path d="M73 1.47168H0V2.04838H73V1.47168Z" fill="#F9FCFE"/>
<path d="M73 2.04834H0V2.62504H73V2.04834Z" fill="#F8FCFD"/>
<path d="M73 2.625H0V3.2017H73V2.625Z" fill="#F7FCFD"/>
<path d="M73 3.20215H0V3.77885H73V3.20215Z" fill="#F6FBFD"/>
<path d="M73 3.77881H0V4.35551H73V3.77881Z" fill="#F5FBFD"/>
<path d="M73 4.35547H0V4.93217H73V4.35547Z" fill="#F4FAFC"/>
<path d="M73 4.93213H0V5.50883H73V4.93213Z" fill="#F3FAFC"/>
<path d="M73 5.50781H0V6.08451H73V5.50781Z" fill="#F2F9FC"/>
<path d="M73 6.08447H0V6.66117H73V6.08447Z" fill="#F1F9FC"/>
<path d="M73 6.66113H0V7.23783H73V6.66113Z" fill="#F0F9FB"/>
<path d="M73 7.23779H0V7.81449H73V7.23779Z" fill="#EFF8FB"/>
<path d="M73 7.81445H0V8.39115H73V7.81445Z" fill="#EEF8FB"/>
<path d="M73 8.39111H0V8.96781H73V8.39111Z" fill="#EDF7FB"/>
<path d="M73 8.96826H0V9.54496H73V8.96826Z" fill="#ECF7FA"/>
<path d="M73 9.54395H0V10.1206H73V9.54395Z" fill="#EBF6FA"/>
<path d="M73 10.1206H0V10.6973H73V10.1206Z" fill="#EAF6FA"/>
<path d="M73 10.6973H0V11.274H73V10.6973Z" fill="#E9F6FA"/>
<path d="M73 11.2739H0V11.8506H73V11.2739Z" fill="#E8F5F9"/>
<path d="M73 11.8506H0V12.4273H73V11.8506Z" fill="#E7F5F9"/>
<path d="M73 12.4272H0V13.0039H73V12.4272Z" fill="#E6F4F9"/>
<path d="M73 13.0039H0V13.5806H73V13.0039Z" fill="#E5F4F9"/>
<path d="M73 13.5801H0V14.1568H73V13.5801Z" fill="#E4F3F8"/>
<path d="M73 14.1562H0V14.733H73V14.1562Z" fill="#E3F3F8"/>
<path d="M73 14.7334H0V15.3101H73V14.7334Z" fill="#E2F3F8"/>
<path d="M73 15.3101H0V15.8868H73V15.3101Z" fill="#E1F2F8"/>
<path d="M73 15.8867H0V16.4634H73V15.8867Z" fill="#E0F2F7"/>
<path d="M73 16.4634H0V17.0401H73V16.4634Z" fill="#DFF1F7"/>
<path d="M73 17.0391H0V17.6158H73V17.0391Z" fill="#DEF1F7"/>
<path d="M73 17.6157H0V18.1924H73V17.6157Z" fill="#DDF0F7"/>
<path d="M73 18.1924H0V18.7691H73V18.1924Z" fill="#DCF0F6"/>
<path d="M73 18.769H0V19.3457H73V18.769Z" fill="#DBF0F6"/>
<path d="M73 19.3457H0V19.9224H73V19.3457Z" fill="#DAEFF6"/>
<path d="M73 19.9229H0V20.4996H73V19.9229Z" fill="#D9EFF6"/>
<path d="M73 20.4995H0V21.0762H73V20.4995Z" fill="#D8EEF5"/>
<path d="M73 21.0752H0V21.6519H73V21.0752Z" fill="#D7EEF5"/>
<path d="M73 21.6519H0V22.2286H73V21.6519Z" fill="#D6EDF5"/>
<path d="M73 22.2285H0V22.8052H73V22.2285Z" fill="#D5EDF5"/>
<path d="M73 22.8052H0V23.3819H73V22.8052Z" fill="#D4EDF4"/>
<path d="M73 23.3818H0V23.9585H73V23.3818Z" fill="#D3ECF4"/>
<path d="M73 23.9585H0V24.5352H73V23.9585Z" fill="#D2ECF4"/>
<path d="M73 24.5352H0V25.1119H73V24.5352Z" fill="#D1EBF4"/>
<path d="M73 25.1113H0V25.688H73V25.1113Z" fill="#D0EBF3"/>
<path d="M73 25.688H0V26.2647H73V25.688Z" fill="#CFEAF3"/>
<path d="M73 26.2646H0V26.8413H73V26.2646Z" fill="#CEEAF3"/>
<path d="M73 26.8413H0V27.418H73V26.8413Z" fill="#CDEAF3"/>
<path d="M73 27.418H0V27.9947H73V27.418Z" fill="#CCE9F2"/>
<path d="M73 27.9946H0V28.5713H73V27.9946Z" fill="#CBE9F2"/>
<path d="M73 28.5713H0V29.148H73V28.5713Z" fill="#CAE8F2"/>
<path d="M73 29.147H0V29.7237H73V29.147Z" fill="#C9E8F2"/>
<path d="M73 29.7236H0V30.3003H73V29.7236Z" fill="#C8E7F1"/>
<path d="M73 30.3003H0V30.877H73V30.3003Z" fill="#C7E7F1"/>
<path d="M73 30.877H0V31.4537H73V30.877Z" fill="#C6E7F1"/>
<path d="M73 31.4541H0V32.0308H73V31.4541Z" fill="#C5E6F1"/>
<path d="M73 32.0308H0V32.6075H73V32.0308Z" fill="#C4E6F0"/>
<path d="M73 32.6064H0V33.1831H73V32.6064Z" fill="#C3E5F0"/>
<path d="M73 33.1831H0V33.7598H73V33.1831Z" fill="#C2E5F0"/>
<path d="M73 33.7598H0V34.3365H73V33.7598Z" fill="#C1E5F0"/>
<path d="M73 34.3364H0V34.9131H73V34.3364Z" fill="#BFE4EF"/>
<path d="M73 34.9131H0V35.4898H73V34.9131Z" fill="#BEE4EF"/>
<path d="M73 35.4897H0V36.0664H73V35.4897Z" fill="#BDE3EF"/>
<path d="M73 36.0664H0V36.6431H73V36.0664Z" fill="#BCE3EF"/>
<path d="M73 36.6421H0V37.2188H73V36.6421Z" fill="#BBE2EE"/>
<path d="M73 37.2192H0V37.7959H73V37.2192Z" fill="#BAE2EE"/>
<path d="M73 37.7959H0V38.3726H73V37.7959Z" fill="#B9E2EE"/>
<path d="M73 38.3726H0V38.9493H73V38.3726Z" fill="#B8E1EE"/>
<path d="M73 38.9492H0V39.5259H73V38.9492Z" fill="#B7E1ED"/>
<path d="M73 39.5259H0V40.1026H73V39.5259Z" fill="#B6E0ED"/>
<path d="M73 40.1025H0V40.6792H73V40.1025Z" fill="#B5E0ED"/>
<path d="M73 40.6782H0V41.2549H73V40.6782Z" fill="#B4DFED"/>
<path d="M73 41.2549H0V41.8316H73V41.2549Z" fill="#B3DFEC"/>
<path d="M73 41.8315H0V42.4082H73V41.8315Z" fill="#B2DFEC"/>
<path d="M73 42.4082H0V42.9849H73V42.4082Z" fill="#B1DEEC"/>
<path d="M73 42.9854H0V43.5621H73V42.9854Z" fill="#B0DEEC"/>
<path d="M73 43.562H0V44.1387H73V43.562Z" fill="#AFDDEB"/>
<path d="M73 44.1387H0V44.7154H73V44.1387Z" fill="#AEDDEB"/>
<path d="M73 44.7144H0V45.2911H73V44.7144Z" fill="#ADDCEB"/>
<path d="M73 45.291H0V45.8677H73V45.291Z" fill="#ACDCEB"/>
<path d="M73 45.8677H0V46.4444H73V45.8677Z" fill="#ABDCEA"/>
<path d="M73 46.4443H0V47.021H73V46.4443Z" fill="#AADBEA"/>
<path d="M73 47.021H0V47.5977H73V47.021Z" fill="#A9DBEA"/>
<path d="M73 47.5977H0V48.1744H73V47.5977Z" fill="#A8DAEA"/>
<path d="M73 48.1738H0V48.7505H73V48.1738Z" fill="#A7DAE9"/>
<path d="M73 48.7505H0V49.3272H73V48.7505Z" fill="#A6D9E9"/>
<path d="M73 49.3271H0V49.9038H73V49.3271Z" fill="#A5D9E9"/>
<path d="M73 49.9038H0V50.4805H73V49.9038Z" fill="#A4D9E9"/>
<path d="M73 50.4805H0V51.0572H73V50.4805Z" fill="#A3D8E8"/>
<path d="M73 51.0571H0V51.6338H73V51.0571Z" fill="#A2D8E8"/>
<path d="M73 51.6338H0V52.2105H73V51.6338Z" fill="#A1D7E8"/>
<path d="M73 52.2095H0V52.7862H73V52.2095Z" fill="#A0D7E8"/>
<path d="M73 52.7861H0V53.3628H73V52.7861Z" fill="#9FD6E7"/>
<path d="M73 53.3628H0V53.9395H73V53.3628Z" fill="#9ED6E7"/>
<path d="M73 53.9399H0V54.5166H73V53.9399Z" fill="#9DD6E7"/>
<path d="M73 54.5166H0V55.0933H73V54.5166Z" fill="#9CD5E7"/>
<path d="M73 55.0933H0V55.67H73V55.0933Z" fill="#9BD5E6"/>
<path d="M73 55.6699H0V56.2466H73V55.6699Z" fill="#9AD4E6"/>
<path d="M73 56.2456H0V56.8223H73V56.2456Z" fill="#99D4E6"/>
<path d="M73 56.8223H0V57.399H73V56.8223Z" fill="#98D3E6"/>
<path d="M73 57.3989H0V57.9756H73V57.3989Z" fill="#97D3E5"/>
<path d="M73 57.9756H0V58.5523H73V57.9756Z" fill="#96D3E5"/>
<path d="M73 58.5522H0V59.1289H73V58.5522Z" fill="#95D2E5"/>
<path d="M73 59.1289H0V59.7056H73V59.1289Z" fill="#94D2E5"/>
<path d="M73 59.7056H0V60.2823H73V59.7056Z" fill="#93D1E4"/>
<path d="M73 60.2817H0V60.8584H73V60.2817Z" fill="#92D1E4"/>
<path d="M73 60.8584H0V61.4351H73V60.8584Z" fill="#91D0E4"/>
<path d="M73 61.4351H0V62.0118H73V61.4351Z" fill="#90D0E4"/>
<path d="M73 62.0117H0V62.5884H73V62.0117Z" fill="#8FD0E3"/>
<path d="M73 62.5884H0V63.1651H73V62.5884Z" fill="#8ECFE3"/>
<path d="M73 63.165H0V63.7417H73V63.165Z" fill="#8DCFE3"/>
<path d="M73 63.7407H0V64.3174H73V63.7407Z" fill="#8CCEE3"/>
<path d="M73 64.3174H0V64.8941H73V64.3174Z" fill="#8BCEE2"/>
<path d="M73 64.894H0V65.4707H73V64.894Z" fill="#8ACDE2"/>
<path d="M73 65.4712H0V66.0479H73V65.4712Z" fill="#89CDE2"/>
<path d="M73 66.0479H0V66.6246H73V66.0479Z" fill="#88CDE2"/>
<path d="M73 66.6245H0V67.2012H73V66.6245Z" fill="#87CCE1"/>
<path d="M73 67.2012H0V67.7779H73V67.2012Z" fill="#86CCE1"/>
<path d="M73 67.7769H0V68.3536H73V67.7769Z" fill="#85CBE1"/>
<path d="M73 68.3535H0V68.9302H73V68.3535Z" fill="#84CBE1"/>
<path d="M73 68.9302H0V69.5069H73V68.9302Z" fill="#83CAE0"/>
<path d="M73 69.5068H0V70.0835H73V69.5068Z" fill="#82CAE0"/>
<path d="M73 70.0835H0V72.9998H73V70.0835Z" fill="#82CAE0"/>
</g>
<path d="M36.5001 70.7325C31.8792 70.7325 27.3961 69.8273 23.1758 68.0424C19.0996 66.3187 15.4387 63.8504 12.2951 60.7059C9.15155 57.5614 6.68323 53.9014 4.9586 49.8253C3.17375 45.6049 2.26855 41.1218 2.26855 36.5C2.26855 36.3741 2.37075 36.2719 2.49668 36.2719C2.6226 36.2719 2.7248 36.3741 2.7248 36.5C2.7248 55.1241 17.8769 70.2762 36.501 70.2762C55.1251 70.2762 70.2772 55.1241 70.2772 36.5C70.2772 17.8759 55.1242 2.72383 36.5001 2.72383C36.3742 2.72383 36.272 2.62163 36.272 2.4957C36.272 2.36978 36.3742 2.26758 36.5001 2.26758C41.121 2.26758 45.6041 3.17278 49.8253 4.95763C53.9015 6.68225 57.5624 9.14965 60.706 12.2941C63.8495 15.4386 66.3178 19.0986 68.0425 23.1748C69.8273 27.3951 70.7325 31.8782 70.7325 36.4991C70.7325 41.12 69.8273 45.6031 68.0425 49.8243C66.3188 53.9005 63.8505 57.5614 60.706 60.705C57.5615 63.8486 53.9015 66.3169 49.8253 68.0415C45.605 69.8263 41.1219 70.7315 36.5001 70.7315V70.7325Z" fill="#052C47"/>
<path d="M36.5001 67.7175C36.3742 67.7175 36.272 67.6153 36.272 67.4893C36.272 67.3634 36.3742 67.2612 36.5001 67.2612C52.5108 67.2612 65.9848 54.7691 67.1747 38.8222C67.1838 38.6963 67.2951 38.6023 67.4192 38.6115C67.5452 38.6206 67.6391 38.7301 67.63 38.856C67.046 46.6889 63.5484 53.9633 57.7814 59.3389C51.9861 64.7418 44.4279 67.7165 36.5001 67.7165V67.7175Z" fill="#052C47"/>
<path d="M5.59837 34.3883C5.59289 34.3883 5.58651 34.3883 5.58103 34.3883C5.45511 34.3792 5.36112 34.2697 5.37024 34.1438C5.95424 26.3109 9.45187 19.0364 15.2189 13.6609C21.0142 8.25795 28.5724 5.2832 36.5002 5.2832C36.6261 5.2832 36.7283 5.3854 36.7283 5.51133C36.7283 5.63725 36.6261 5.73945 36.5002 5.73945C20.4895 5.73945 7.01548 18.2316 5.82558 34.1784C5.81645 34.298 5.71699 34.3892 5.59837 34.3892V34.3883Z" fill="#052C47"/>
<path d="M5.51075 37.1196C5.47151 37.1196 5.43227 37.1095 5.39668 37.0895L4.19219 36.3941C4.12193 36.3531 4.07812 36.2783 4.07812 36.1961V34.8055C4.07812 34.7243 4.12193 34.6485 4.19219 34.6075L5.39668 33.9121C5.46695 33.8711 5.55455 33.8711 5.62481 33.9121L6.8293 34.6075C6.89957 34.6485 6.94337 34.7234 6.94337 34.8055V36.1961C6.94337 36.2773 6.89957 36.3531 6.8293 36.3941L5.62481 37.0895C5.58922 37.1095 5.54998 37.1196 5.51075 37.1196ZM4.53438 36.0647L5.51075 36.6287L6.48712 36.0647V34.9369L5.51075 34.373L4.53438 34.9369V36.0647Z" fill="#052C47"/>
<path d="M67.4894 39.1178C67.4501 39.1178 67.4109 39.1077 67.3753 39.0876L66.1863 38.4014C66.1161 38.3604 66.0723 38.2856 66.0723 38.2034V36.831C66.0723 36.7498 66.1161 36.6741 66.1863 36.633L67.3753 35.9468C67.4456 35.9057 67.5332 35.9057 67.6034 35.9468L68.7924 36.633C68.8627 36.6741 68.9065 36.7489 68.9065 36.831V38.2034C68.9065 38.2846 68.8627 38.3604 68.7924 38.4014L67.6034 39.0876C67.5679 39.1077 67.5286 39.1178 67.4894 39.1178ZM66.5285 38.072L67.4894 38.6268L68.4502 38.072V36.9624L67.4894 36.4076L66.5285 36.9624V38.072Z" fill="#052C47"/>
<path d="M26.5228 38.3018C23.4266 38.3018 20.9072 35.7824 20.9072 32.6863C20.9072 29.5902 23.4266 27.0708 26.5228 27.0708C29.6189 27.0708 32.1383 29.5902 32.1383 32.6863C32.1383 35.7824 29.6189 38.3018 26.5228 38.3018ZM26.5228 27.5261C23.6776 27.5261 21.3635 29.8412 21.3635 32.6854C21.3635 35.5297 23.6785 37.8447 26.5228 37.8447C29.367 37.8447 31.682 35.5306 31.682 32.6854C31.682 29.8402 29.367 27.5261 26.5228 27.5261Z" fill="#052C47"/>
<path d="M28.6051 39.1339C28.5093 39.1339 28.4208 39.0736 28.3889 38.9778C28.3487 38.8583 28.4135 38.7287 28.533 38.6895C30.5633 38.0106 32.1465 36.2996 32.6648 34.2255C32.6949 34.1032 32.8191 34.0293 32.9413 34.0595C33.0636 34.0896 33.1375 34.2137 33.1074 34.3359C32.5517 36.5597 30.8535 38.3938 28.6772 39.122C28.6535 39.1302 28.6288 39.1339 28.6051 39.1339Z" fill="#052C47"/>
<path d="M32.8264 31.1003C32.7269 31.1003 32.6356 31.0355 32.6074 30.9351C31.8336 28.2396 29.3315 26.3571 26.5237 26.3571C23.716 26.3571 21.2139 28.2396 20.4401 30.9351C20.4054 31.0565 20.2786 31.1268 20.1581 31.0912C20.0368 31.0565 19.9674 30.9297 20.0021 30.8092C20.8325 27.9193 23.5143 25.9009 26.5246 25.9009C29.535 25.9009 32.2168 27.9193 33.0472 30.8092C33.0819 30.9306 33.0116 31.0565 32.8912 31.0912C32.8702 31.0976 32.8492 31.1003 32.8282 31.1003H32.8264Z" fill="#052C47"/>
<path d="M26.5236 53.8278C26.4844 53.8278 26.4452 53.8178 26.4096 53.7977L18.4891 49.2243C18.4188 49.1832 18.375 49.1084 18.375 49.0263V42.2792C18.375 40.7189 19.2145 39.2653 20.5659 38.486L23.3153 36.8982C23.4239 36.8353 23.5635 36.8727 23.6274 36.9822C23.6903 37.0917 23.6529 37.2304 23.5434 37.2943L20.794 38.882C19.5832 39.5801 18.8313 40.8822 18.8313 42.2802V48.8958L26.5236 53.3369L34.2151 48.8958V42.2802C34.2151 40.8822 33.4632 39.5801 32.2532 38.882L30.5998 37.9275C30.4903 37.8646 30.4529 37.725 30.5158 37.6164C30.5788 37.5069 30.7184 37.4695 30.827 37.5324L32.4804 38.4869C33.8309 39.2662 34.6704 40.7198 34.6704 42.2802V49.0272C34.6704 49.1084 34.6266 49.1841 34.5564 49.2252L26.6368 53.7986C26.6012 53.8187 26.562 53.8288 26.5227 53.8288L26.5236 53.8278Z" fill="#052C47"/>
<path d="M20.5935 34.5085H19.3388C18.8899 34.5085 18.5249 34.1435 18.5249 33.6945V31.458C18.5249 31.009 18.8899 30.644 19.3388 30.644H20.5935C21.0425 30.644 21.4075 31.009 21.4075 31.458V33.6945C21.4075 34.1435 21.0425 34.5085 20.5935 34.5085ZM19.3388 31.1003C19.1417 31.1003 18.9812 31.2609 18.9812 31.458V33.6945C18.9812 33.8916 19.1417 34.0522 19.3388 34.0522H20.5935C20.7906 34.0522 20.9512 33.8916 20.9512 33.6945V31.458C20.9512 31.2609 20.7906 31.1003 20.5935 31.1003H19.3388Z" fill="#052C47"/>
<path d="M33.7088 34.5085H32.4541C32.0051 34.5085 31.6401 34.1435 31.6401 33.6945V31.458C31.6401 31.009 32.0051 30.644 32.4541 30.644H33.7088C34.1577 30.644 34.5227 31.009 34.5227 31.458V33.6945C34.5227 34.1435 34.1577 34.5085 33.7088 34.5085ZM32.4541 31.1003C32.257 31.1003 32.0964 31.2609 32.0964 31.458V33.6945C32.0964 33.8916 32.257 34.0522 32.4541 34.0522H33.7088C33.9059 34.0522 34.0665 33.8916 34.0665 33.6945V31.458C34.0665 31.2609 33.9059 31.1003 33.7088 31.1003H32.4541Z" fill="#052C47"/>
<path d="M27.1724 40.1401C26.8493 40.1401 26.5637 39.9028 26.5144 39.5734L26.4588 39.2075C26.4323 39.0314 26.4752 38.8562 26.5811 38.7129C26.6869 38.5696 26.842 38.4757 27.0172 38.4492L28.0894 38.2868C28.2655 38.2594 28.4407 38.3032 28.584 38.409C28.7273 38.5149 28.8212 38.67 28.8477 38.8452L28.9034 39.2111C28.9298 39.3872 28.8869 39.5624 28.7811 39.7057C28.6752 39.849 28.5201 39.943 28.3449 39.9694L27.2727 40.1318C27.239 40.1373 27.2052 40.1391 27.1724 40.1391V40.1401ZM28.1898 38.7348C28.1789 38.7348 28.1688 38.7348 28.1579 38.7375L27.0857 38.9C27.03 38.9082 26.9816 38.9383 26.9479 38.983C26.915 39.0277 26.9013 39.0834 26.9096 39.139L26.9652 39.505C26.9826 39.619 27.0902 39.6984 27.2043 39.6811L28.2765 39.5186C28.3321 39.5104 28.3805 39.4803 28.4143 39.4356C28.4471 39.3909 28.4608 39.3352 28.4526 39.2796L28.3969 38.9137C28.3887 38.858 28.3586 38.8096 28.3139 38.7759C28.2774 38.7494 28.2345 38.7348 28.1898 38.7348Z" fill="#052C47"/>
<path d="M27.4761 47.8753C27.0965 47.8753 26.7169 47.7312 26.4286 47.4419L23.9101 44.9234C23.3316 44.3449 23.3316 43.4041 23.9092 42.8265L24.8883 41.8474C24.9312 41.8045 24.9887 41.7808 25.0498 41.7808C25.11 41.7808 25.1684 41.8045 25.2113 41.8474L26.059 42.6951C26.1019 42.738 26.1256 42.7955 26.1256 42.8566C26.1256 42.9177 26.1019 42.9752 26.059 43.0181L25.3445 43.7326C25.1985 43.8786 25.1985 44.1168 25.3445 44.2637L27.0883 46.0075C27.2352 46.1535 27.4734 46.1535 27.6194 46.0075L28.3339 45.293C28.4197 45.2072 28.5711 45.2072 28.6569 45.293L29.5037 46.1398C29.5931 46.2292 29.5931 46.3734 29.5037 46.4628L28.5246 47.4419C28.2353 47.7312 27.8557 47.8753 27.477 47.8753H27.4761ZM25.0498 42.331L24.2313 43.1495C23.8316 43.5492 23.8316 44.2007 24.2322 44.6013L26.7507 47.1198C27.1504 47.5195 27.8019 47.5195 28.2016 47.1198L29.0192 46.3022L28.4945 45.7775L27.9415 46.3305C27.6176 46.6544 27.0901 46.6544 26.7653 46.3305L25.0215 44.5867C24.6976 44.2628 24.6976 43.7344 25.0215 43.4105L25.5745 42.8575L25.0489 42.3319L25.0498 42.331Z" fill="#052C47"/>
<path d="M39.6653 35.7729C39.6352 35.7729 39.6051 35.7674 39.5768 35.7546C39.4919 35.719 39.4372 35.636 39.4372 35.5447V32.4705H39.0302C37.7144 32.4705 36.6431 31.3993 36.6431 30.0834V21.3207C36.6431 20.0049 37.7144 18.9336 39.0302 18.9336H52.2377C53.5535 18.9336 54.6248 20.0049 54.6248 21.3207V30.0834C54.6248 31.3993 53.5535 32.4705 52.2377 32.4705H43.1538L39.8241 35.7081C39.7803 35.7501 39.7228 35.7729 39.6653 35.7729ZM39.0302 19.3898C37.9653 19.3898 37.0993 20.2558 37.0993 21.3207V30.0834C37.0993 31.1483 37.9653 32.0143 39.0302 32.0143H39.6653C39.7912 32.0143 39.8934 32.1165 39.8934 32.2424V35.0045L42.9028 32.0791C42.9457 32.038 43.0023 32.0143 43.0616 32.0143H52.2386C53.3035 32.0143 54.1695 31.1483 54.1695 30.0834V21.3207C54.1695 20.2558 53.3035 19.3898 52.2386 19.3898H39.0311H39.0302Z" fill="#052C47"/>
<path d="M54.3966 35.3332H45.6339C45.508 35.3332 45.4058 35.231 45.4058 35.1051C45.4058 34.9792 45.508 34.877 45.6339 34.877H54.3966C54.5226 34.877 54.6248 34.9792 54.6248 35.1051C54.6248 35.231 54.5226 35.3332 54.3966 35.3332Z" fill="#052C47"/>
<path d="M26.5239 56.6636C26.4846 56.6636 26.4454 56.6536 26.4098 56.6335L18.4893 52.0573C18.3798 51.9944 18.3433 51.8547 18.4063 51.7452C18.4692 51.6357 18.6088 51.5992 18.7183 51.6622L26.5202 56.17L34.323 51.2945C34.4298 51.2279 34.5703 51.2598 34.6369 51.3675C34.7035 51.4742 34.6716 51.6148 34.5639 51.6814L26.6443 56.6289C26.6078 56.6518 26.5659 56.6636 26.5239 56.6636Z" fill="#052C47"/>
<path d="M44.5472 16.7912H36.8712C36.7453 16.7912 36.6431 16.689 36.6431 16.5631C36.6431 16.4372 36.7453 16.335 36.8712 16.335H44.5472C44.6731 16.335 44.7753 16.4372 44.7753 16.5631C44.7753 16.689 44.6731 16.7912 44.5472 16.7912Z" fill="#052C47"/>
<path d="M42.5938 23.8257C42.5938 24.2737 42.2626 24.5493 41.7269 24.5493H41.2679V25.1369H40.8901V23.1021H41.7278C42.2625 23.1021 42.5947 23.3758 42.5947 23.8257H42.5938ZM42.2133 23.8257C42.2133 23.5702 42.0417 23.4214 41.7105 23.4214H41.2688V24.2299H41.7105C42.0417 24.2299 42.2133 24.0812 42.2133 23.8257Z" fill="#052C47"/>
<path d="M42.9717 23.1021H43.3494V24.8176H44.4134V25.1369H42.9717V23.1021Z" fill="#052C47"/>
<path d="M46.0478 24.6661H45.0303L44.8296 25.1369H44.4399L45.3561 23.1021H45.7284L46.6473 25.1369H46.2522L46.0487 24.6661H46.0478ZM45.9228 24.3695L45.5386 23.4798L45.1581 24.3695H45.9228Z" fill="#052C47"/>
<path d="M47.2163 23.4214H46.542V23.1021H48.2694V23.4214H47.595V25.1369H47.2173V23.4214H47.2163Z" fill="#052C47"/>
<path d="M48.3789 24.1194C48.3789 23.5171 48.8443 23.0728 49.4748 23.0728C50.1054 23.0728 50.5707 23.5144 50.5707 24.1194C50.5707 24.7244 50.1054 25.166 49.4748 25.166C48.8443 25.166 48.3789 24.7207 48.3789 24.1194ZM50.1902 24.1194C50.1902 23.7033 49.8845 23.404 49.4748 23.404C49.0651 23.404 48.7594 23.7033 48.7594 24.1194C48.7594 24.5355 49.0651 24.8348 49.4748 24.8348C49.8845 24.8348 50.1902 24.5355 50.1902 24.1194Z" fill="#052C47"/>
<path d="M39.2759 28.4112L39.4064 28.1173C39.5688 28.2478 39.8279 28.3409 40.078 28.3409C40.3946 28.3409 40.5287 28.2277 40.5287 28.0763C40.5287 27.6374 39.3188 27.9248 39.3188 27.1692C39.3188 26.8407 39.5807 26.5615 40.1391 26.5615C40.3837 26.5615 40.6391 26.6254 40.8171 26.7422L40.6976 27.036C40.5141 26.9283 40.3134 26.8763 40.1364 26.8763C39.8225 26.8763 39.6947 26.9986 39.6947 27.1528C39.6947 27.5863 40.901 27.3043 40.901 28.0516C40.901 28.3774 40.6364 28.6566 40.078 28.6566C39.7613 28.6566 39.4438 28.5581 39.2759 28.4121V28.4112Z" fill="#052C47"/>
<path d="M42.8025 28.3095V28.6261H41.2759V26.5903H42.7614V26.907H41.6537V27.4362H42.6364V27.7474H41.6537V28.3086H42.8025V28.3095Z" fill="#052C47"/>
<path d="M44.5555 28.6261L44.1394 28.0303C44.1129 28.033 44.0873 28.033 44.0609 28.033H43.6019V28.6261H43.2241V26.5903H44.0618C44.5965 26.5903 44.9287 26.8641 44.9287 27.3139C44.9287 27.6224 44.7717 27.8487 44.4952 27.9563L44.9634 28.6252H44.5564L44.5555 28.6261ZM44.0435 26.9106H43.6019V27.7218H44.0435C44.3748 27.7218 44.5463 27.5704 44.5463 27.3149C44.5463 27.0594 44.3748 26.9106 44.0435 26.9106Z" fill="#052C47"/>
<path d="M47.21 26.5903L46.323 28.6261H45.9507L45.061 26.5903H45.4707L46.1488 28.1607L46.8322 26.5903H47.21Z" fill="#052C47"/>
<path d="M47.4253 26.5903H47.8031V28.6261H47.4253V26.5903Z" fill="#052C47"/>
<path d="M48.2075 27.6086C48.2075 27.0009 48.6729 26.562 49.298 26.562C49.6292 26.562 49.9148 26.6816 50.1037 26.9024L49.8592 27.1323C49.7104 26.9726 49.5279 26.8942 49.3153 26.8942C48.8937 26.8942 48.588 27.1907 48.588 27.6096C48.588 28.0284 48.8937 28.325 49.3153 28.325C49.5279 28.325 49.7104 28.2465 49.8592 28.0841L50.1037 28.3168C49.9148 28.5376 49.6301 28.6571 49.2952 28.6571C48.6729 28.6571 48.2075 28.2182 48.2075 27.6105V27.6086Z" fill="#052C47"/>
<path d="M51.9934 28.3095V28.6261H50.4668V26.5903H51.9523V26.907H50.8446V27.4362H51.8273V27.7474H50.8446V28.3086H51.9934V28.3095Z" fill="#052C47"/>
</svg>
