<svg width="73" height="73" viewBox="0 0 73 73" fill="none" xmlns="http://www.w3.org/2000/svg">
<mask id="mask0_1860_8241" style="mask-type:luminance" maskUnits="userSpaceOnUse" x="0" y="0" width="73" height="73">
<path d="M36.5 73C56.6584 73 73 56.6584 73 36.5C73 16.3416 56.6584 0 36.5 0C16.3416 0 0 16.3416 0 36.5C0 56.6584 16.3416 73 36.5 73Z" fill="white"/>
</mask>
<g mask="url(#mask0_1860_8241)">
<path d="M73 0H0V0.319375H73V0Z" fill="#FCFEFE"/>
<path d="M73 0.319336H0V0.896036H73V0.319336Z" fill="#FBFDFE"/>
<path d="M73 0.895996H0V1.4727H73V0.895996Z" fill="#FAFDFE"/>
<path d="M73 1.47168H0V2.04838H73V1.47168Z" fill="#F9FCFE"/>
<path d="M73 2.04834H0V2.62504H73V2.04834Z" fill="#F8FCFD"/>
<path d="M73 2.625H0V3.2017H73V2.625Z" fill="#F7FCFD"/>
<path d="M73 3.20215H0V3.77885H73V3.20215Z" fill="#F6FBFD"/>
<path d="M73 3.77881H0V4.35551H73V3.77881Z" fill="#F5FBFD"/>
<path d="M73 4.35547H0V4.93217H73V4.35547Z" fill="#F4FAFC"/>
<path d="M73 4.93213H0V5.50883H73V4.93213Z" fill="#F3FAFC"/>
<path d="M73 5.50781H0V6.08451H73V5.50781Z" fill="#F2F9FC"/>
<path d="M73 6.08447H0V6.66117H73V6.08447Z" fill="#F1F9FC"/>
<path d="M73 6.66113H0V7.23783H73V6.66113Z" fill="#F0F9FB"/>
<path d="M73 7.23779H0V7.81449H73V7.23779Z" fill="#EFF8FB"/>
<path d="M73 7.81445H0V8.39115H73V7.81445Z" fill="#EEF8FB"/>
<path d="M73 8.39111H0V8.96781H73V8.39111Z" fill="#EDF7FB"/>
<path d="M73 8.96826H0V9.54496H73V8.96826Z" fill="#ECF7FA"/>
<path d="M73 9.54395H0V10.1206H73V9.54395Z" fill="#EBF6FA"/>
<path d="M73 10.1206H0V10.6973H73V10.1206Z" fill="#EAF6FA"/>
<path d="M73 10.6973H0V11.274H73V10.6973Z" fill="#E9F6FA"/>
<path d="M73 11.2739H0V11.8506H73V11.2739Z" fill="#E8F5F9"/>
<path d="M73 11.8506H0V12.4273H73V11.8506Z" fill="#E7F5F9"/>
<path d="M73 12.4272H0V13.0039H73V12.4272Z" fill="#E6F4F9"/>
<path d="M73 13.0039H0V13.5806H73V13.0039Z" fill="#E5F4F9"/>
<path d="M73 13.5801H0V14.1568H73V13.5801Z" fill="#E4F3F8"/>
<path d="M73 14.1562H0V14.733H73V14.1562Z" fill="#E3F3F8"/>
<path d="M73 14.7334H0V15.3101H73V14.7334Z" fill="#E2F3F8"/>
<path d="M73 15.3101H0V15.8868H73V15.3101Z" fill="#E1F2F8"/>
<path d="M73 15.8867H0V16.4634H73V15.8867Z" fill="#E0F2F7"/>
<path d="M73 16.4634H0V17.0401H73V16.4634Z" fill="#DFF1F7"/>
<path d="M73 17.0391H0V17.6158H73V17.0391Z" fill="#DEF1F7"/>
<path d="M73 17.6157H0V18.1924H73V17.6157Z" fill="#DDF0F7"/>
<path d="M73 18.1924H0V18.7691H73V18.1924Z" fill="#DCF0F6"/>
<path d="M73 18.769H0V19.3457H73V18.769Z" fill="#DBF0F6"/>
<path d="M73 19.3457H0V19.9224H73V19.3457Z" fill="#DAEFF6"/>
<path d="M73 19.9229H0V20.4996H73V19.9229Z" fill="#D9EFF6"/>
<path d="M73 20.4995H0V21.0762H73V20.4995Z" fill="#D8EEF5"/>
<path d="M73 21.0752H0V21.6519H73V21.0752Z" fill="#D7EEF5"/>
<path d="M73 21.6519H0V22.2286H73V21.6519Z" fill="#D6EDF5"/>
<path d="M73 22.2285H0V22.8052H73V22.2285Z" fill="#D5EDF5"/>
<path d="M73 22.8052H0V23.3819H73V22.8052Z" fill="#D4EDF4"/>
<path d="M73 23.3818H0V23.9585H73V23.3818Z" fill="#D3ECF4"/>
<path d="M73 23.9585H0V24.5352H73V23.9585Z" fill="#D2ECF4"/>
<path d="M73 24.5352H0V25.1119H73V24.5352Z" fill="#D1EBF4"/>
<path d="M73 25.1113H0V25.688H73V25.1113Z" fill="#D0EBF3"/>
<path d="M73 25.688H0V26.2647H73V25.688Z" fill="#CFEAF3"/>
<path d="M73 26.2646H0V26.8413H73V26.2646Z" fill="#CEEAF3"/>
<path d="M73 26.8413H0V27.418H73V26.8413Z" fill="#CDEAF3"/>
<path d="M73 27.418H0V27.9947H73V27.418Z" fill="#CCE9F2"/>
<path d="M73 27.9946H0V28.5713H73V27.9946Z" fill="#CBE9F2"/>
<path d="M73 28.5713H0V29.148H73V28.5713Z" fill="#CAE8F2"/>
<path d="M73 29.147H0V29.7237H73V29.147Z" fill="#C9E8F2"/>
<path d="M73 29.7236H0V30.3003H73V29.7236Z" fill="#C8E7F1"/>
<path d="M73 30.3003H0V30.877H73V30.3003Z" fill="#C7E7F1"/>
<path d="M73 30.877H0V31.4537H73V30.877Z" fill="#C6E7F1"/>
<path d="M73 31.4541H0V32.0308H73V31.4541Z" fill="#C5E6F1"/>
<path d="M73 32.0308H0V32.6075H73V32.0308Z" fill="#C4E6F0"/>
<path d="M73 32.6064H0V33.1831H73V32.6064Z" fill="#C3E5F0"/>
<path d="M73 33.1831H0V33.7598H73V33.1831Z" fill="#C2E5F0"/>
<path d="M73 33.7598H0V34.3365H73V33.7598Z" fill="#C1E5F0"/>
<path d="M73 34.3364H0V34.9131H73V34.3364Z" fill="#BFE4EF"/>
<path d="M73 34.9131H0V35.4898H73V34.9131Z" fill="#BEE4EF"/>
<path d="M73 35.4897H0V36.0664H73V35.4897Z" fill="#BDE3EF"/>
<path d="M73 36.0664H0V36.6431H73V36.0664Z" fill="#BCE3EF"/>
<path d="M73 36.6421H0V37.2188H73V36.6421Z" fill="#BBE2EE"/>
<path d="M73 37.2192H0V37.7959H73V37.2192Z" fill="#BAE2EE"/>
<path d="M73 37.7959H0V38.3726H73V37.7959Z" fill="#B9E2EE"/>
<path d="M73 38.3726H0V38.9493H73V38.3726Z" fill="#B8E1EE"/>
<path d="M73 38.9492H0V39.5259H73V38.9492Z" fill="#B7E1ED"/>
<path d="M73 39.5259H0V40.1026H73V39.5259Z" fill="#B6E0ED"/>
<path d="M73 40.1025H0V40.6792H73V40.1025Z" fill="#B5E0ED"/>
<path d="M73 40.6782H0V41.2549H73V40.6782Z" fill="#B4DFED"/>
<path d="M73 41.2549H0V41.8316H73V41.2549Z" fill="#B3DFEC"/>
<path d="M73 41.8315H0V42.4082H73V41.8315Z" fill="#B2DFEC"/>
<path d="M73 42.4082H0V42.9849H73V42.4082Z" fill="#B1DEEC"/>
<path d="M73 42.9854H0V43.5621H73V42.9854Z" fill="#B0DEEC"/>
<path d="M73 43.562H0V44.1387H73V43.562Z" fill="#AFDDEB"/>
<path d="M73 44.1387H0V44.7154H73V44.1387Z" fill="#AEDDEB"/>
<path d="M73 44.7144H0V45.2911H73V44.7144Z" fill="#ADDCEB"/>
<path d="M73 45.291H0V45.8677H73V45.291Z" fill="#ACDCEB"/>
<path d="M73 45.8677H0V46.4444H73V45.8677Z" fill="#ABDCEA"/>
<path d="M73 46.4443H0V47.021H73V46.4443Z" fill="#AADBEA"/>
<path d="M73 47.021H0V47.5977H73V47.021Z" fill="#A9DBEA"/>
<path d="M73 47.5977H0V48.1744H73V47.5977Z" fill="#A8DAEA"/>
<path d="M73 48.1738H0V48.7505H73V48.1738Z" fill="#A7DAE9"/>
<path d="M73 48.7505H0V49.3272H73V48.7505Z" fill="#A6D9E9"/>
<path d="M73 49.3271H0V49.9038H73V49.3271Z" fill="#A5D9E9"/>
<path d="M73 49.9038H0V50.4805H73V49.9038Z" fill="#A4D9E9"/>
<path d="M73 50.4805H0V51.0572H73V50.4805Z" fill="#A3D8E8"/>
<path d="M73 51.0571H0V51.6338H73V51.0571Z" fill="#A2D8E8"/>
<path d="M73 51.6338H0V52.2105H73V51.6338Z" fill="#A1D7E8"/>
<path d="M73 52.2095H0V52.7862H73V52.2095Z" fill="#A0D7E8"/>
<path d="M73 52.7861H0V53.3628H73V52.7861Z" fill="#9FD6E7"/>
<path d="M73 53.3628H0V53.9395H73V53.3628Z" fill="#9ED6E7"/>
<path d="M73 53.9399H0V54.5166H73V53.9399Z" fill="#9DD6E7"/>
<path d="M73 54.5166H0V55.0933H73V54.5166Z" fill="#9CD5E7"/>
<path d="M73 55.0933H0V55.67H73V55.0933Z" fill="#9BD5E6"/>
<path d="M73 55.6699H0V56.2466H73V55.6699Z" fill="#9AD4E6"/>
<path d="M73 56.2456H0V56.8223H73V56.2456Z" fill="#99D4E6"/>
<path d="M73 56.8223H0V57.399H73V56.8223Z" fill="#98D3E6"/>
<path d="M73 57.3989H0V57.9756H73V57.3989Z" fill="#97D3E5"/>
<path d="M73 57.9756H0V58.5523H73V57.9756Z" fill="#96D3E5"/>
<path d="M73 58.5522H0V59.1289H73V58.5522Z" fill="#95D2E5"/>
<path d="M73 59.1289H0V59.7056H73V59.1289Z" fill="#94D2E5"/>
<path d="M73 59.7056H0V60.2823H73V59.7056Z" fill="#93D1E4"/>
<path d="M73 60.2817H0V60.8584H73V60.2817Z" fill="#92D1E4"/>
<path d="M73 60.8584H0V61.4351H73V60.8584Z" fill="#91D0E4"/>
<path d="M73 61.4351H0V62.0118H73V61.4351Z" fill="#90D0E4"/>
<path d="M73 62.0117H0V62.5884H73V62.0117Z" fill="#8FD0E3"/>
<path d="M73 62.5884H0V63.1651H73V62.5884Z" fill="#8ECFE3"/>
<path d="M73 63.165H0V63.7417H73V63.165Z" fill="#8DCFE3"/>
<path d="M73 63.7407H0V64.3174H73V63.7407Z" fill="#8CCEE3"/>
<path d="M73 64.3174H0V64.8941H73V64.3174Z" fill="#8BCEE2"/>
<path d="M73 64.894H0V65.4707H73V64.894Z" fill="#8ACDE2"/>
<path d="M73 65.4712H0V66.0479H73V65.4712Z" fill="#89CDE2"/>
<path d="M73 66.0479H0V66.6246H73V66.0479Z" fill="#88CDE2"/>
<path d="M73 66.6245H0V67.2012H73V66.6245Z" fill="#87CCE1"/>
<path d="M73 67.2012H0V67.7779H73V67.2012Z" fill="#86CCE1"/>
<path d="M73 67.7769H0V68.3536H73V67.7769Z" fill="#85CBE1"/>
<path d="M73 68.3535H0V68.9302H73V68.3535Z" fill="#84CBE1"/>
<path d="M73 68.9302H0V69.5069H73V68.9302Z" fill="#83CAE0"/>
<path d="M73 69.5068H0V70.0835H73V69.5068Z" fill="#82CAE0"/>
<path d="M73 70.0835H0V72.9998H73V70.0835Z" fill="#82CAE0"/>
</g>
<path d="M36.5 70.7325C31.8791 70.7325 27.396 69.8273 23.1748 68.0424C19.0987 66.3187 15.4377 63.8504 12.2941 60.7059C9.15057 57.5614 6.68225 53.9014 4.95763 49.8253C3.17278 45.6049 2.26758 41.1218 2.26758 36.5C2.26758 36.3741 2.36978 36.2719 2.4957 36.2719C2.62163 36.2719 2.72383 36.3741 2.72383 36.5C2.72383 55.1241 17.8759 70.2762 36.5 70.2762C55.1242 70.2762 70.2762 55.1241 70.2762 36.5C70.2762 17.8759 55.1242 2.72383 36.5 2.72383C36.3741 2.72383 36.2719 2.62163 36.2719 2.4957C36.2719 2.36978 36.3741 2.26758 36.5 2.26758C41.1209 2.26758 45.604 3.17278 49.8243 4.95763C53.9005 6.68225 57.5614 9.14965 60.705 12.2941C63.8486 15.4386 66.3169 19.0986 68.0415 23.1748C69.8263 27.3951 70.7315 31.8782 70.7315 36.4991C70.7315 41.12 69.8263 45.6031 68.0415 49.8243C66.3178 53.9005 63.8495 57.5614 60.705 60.705C57.5605 63.8486 53.9005 66.3169 49.8243 68.0415C45.604 69.8263 41.1209 70.7315 36.5 70.7315V70.7325Z" fill="#052C47"/>
<path d="M36.5001 67.7175C36.3742 67.7175 36.272 67.6153 36.272 67.4893C36.272 67.3634 36.3742 67.2612 36.5001 67.2612C52.5108 67.2612 65.9848 54.7691 67.1747 38.8222C67.1838 38.6963 67.296 38.6023 67.4192 38.6115C67.5452 38.6206 67.6391 38.7301 67.63 38.856C67.046 46.6889 63.5484 53.9633 57.7814 59.3389C51.9861 64.7418 44.4279 67.7165 36.5001 67.7165V67.7175Z" fill="#052C47"/>
<path d="M5.59837 34.3883C5.59289 34.3883 5.58651 34.3883 5.58103 34.3883C5.45511 34.3792 5.36112 34.2697 5.37024 34.1438C5.95424 26.3109 9.45186 19.0364 15.2189 13.6609C21.0141 8.25795 28.5724 5.2832 36.5002 5.2832C36.6261 5.2832 36.7283 5.3854 36.7283 5.51133C36.7283 5.63725 36.6261 5.73945 36.5002 5.73945C20.4895 5.73945 7.01548 18.2316 5.82558 34.1784C5.81645 34.298 5.71699 34.3892 5.59837 34.3892V34.3883Z" fill="#052C47"/>
<path d="M5.51075 37.1196C5.47151 37.1196 5.43227 37.1095 5.39668 37.0895L4.19219 36.3941C4.12193 36.3531 4.07812 36.2783 4.07812 36.1961V34.8055C4.07812 34.7243 4.12193 34.6485 4.19219 34.6075L5.39668 33.9121C5.46695 33.8711 5.55455 33.8711 5.62481 33.9121L6.8293 34.6075C6.89957 34.6485 6.94337 34.7234 6.94337 34.8055V36.1961C6.94337 36.2773 6.89957 36.3531 6.8293 36.3941L5.62481 37.0895C5.58922 37.1095 5.54998 37.1196 5.51075 37.1196ZM4.53438 36.0647L5.51075 36.6287L6.48712 36.0647V34.9369L5.51075 34.373L4.53438 34.9369V36.0647Z" fill="#052C47"/>
<path d="M67.4894 39.1178C67.4501 39.1178 67.4109 39.1077 67.3753 39.0876L66.1863 38.4014C66.1161 38.3604 66.0723 38.2856 66.0723 38.2034V36.831C66.0723 36.7498 66.1161 36.6741 66.1863 36.633L67.3753 35.9468C67.4456 35.9057 67.5332 35.9057 67.6034 35.9468L68.7924 36.633C68.8627 36.6741 68.9065 36.7489 68.9065 36.831V38.2034C68.9065 38.2846 68.8627 38.3604 68.7924 38.4014L67.6034 39.0876C67.5679 39.1077 67.5286 39.1178 67.4894 39.1178ZM66.5285 38.072L67.4894 38.6268L68.4502 38.072V36.9624L67.4894 36.4076L66.5285 36.9624V38.072Z" fill="#052C47"/>
<path d="M30.0357 41.001C29.9098 41.001 29.8076 40.8988 29.8076 40.7729V38.3082C29.8076 38.1823 29.9098 38.0801 30.0357 38.0801C30.1617 38.0801 30.2639 38.1823 30.2639 38.3082V40.7729C30.2639 40.8988 30.1617 41.001 30.0357 41.001Z" fill="#052C47"/>
<path d="M42.9042 41.001C42.7783 41.001 42.6761 40.8988 42.6761 40.7729V35.2039C42.6761 34.5268 42.4434 33.8634 42.0218 33.336C41.7873 33.0412 41.5044 32.7967 41.1786 32.6105L37.9685 30.7573C37.045 30.2234 35.8971 30.2234 34.9736 30.7573L31.7626 32.6105C31.4368 32.7985 31.1539 33.0422 30.9194 33.3351C30.8409 33.4336 30.6968 33.45 30.5991 33.3707C30.5006 33.2922 30.4842 33.1489 30.5635 33.0504C30.8336 32.7127 31.1603 32.4317 31.5353 32.2154L34.7464 30.3621C35.8113 29.7471 37.1335 29.7471 38.1975 30.3621L41.4077 32.2154C41.7827 32.4308 42.1094 32.7127 42.3795 33.0522C42.8659 33.659 43.1332 34.4237 43.1332 35.2048V40.7738C43.1332 40.8997 43.031 41.0019 42.9051 41.0019L42.9042 41.001Z" fill="#052C47"/>
<path d="M36.4711 28.822C35.4463 28.822 34.4864 28.4196 33.7691 27.6896C33.0656 26.9787 32.6787 26.0334 32.6787 25.0296C32.6787 23.7001 33.3567 22.491 34.4909 21.7948C34.5977 21.7291 34.7391 21.7629 34.8048 21.8696C34.8705 21.9773 34.8368 22.1178 34.73 22.1835C33.7317 22.7958 33.135 23.8598 33.135 25.0296C33.135 25.9129 33.4753 26.7433 34.094 27.3693C34.7254 28.0117 35.5695 28.3657 36.4711 28.3657C37.3726 28.3657 38.2167 28.0117 38.8472 27.3702C39.4668 26.7442 39.8072 25.9129 39.8072 25.0296C39.8072 24.8079 39.7853 24.5843 39.7406 24.3644C39.7159 24.2412 39.7962 24.1208 39.9194 24.0961C40.0435 24.0715 40.163 24.1518 40.1877 24.275C40.2379 24.525 40.2625 24.7787 40.2625 25.0296C40.2625 26.0334 39.8747 26.9787 39.1711 27.6905C38.4548 28.4205 37.4949 28.822 36.4702 28.822H36.4711Z" fill="#052C47"/>
<path d="M38.1034 25.0715C36.3057 25.0715 34.7417 23.794 34.3868 22.0347C34.3366 21.7846 34.311 21.531 34.311 21.2791C34.311 20.8822 34.3722 20.4925 34.4917 20.1221C34.5118 20.0582 34.5592 20.0071 34.6213 19.9815C35.2181 19.7333 35.8522 19.6074 36.5074 19.6074C37.826 19.6074 39.0642 20.1202 39.995 21.0519C40.6009 21.6578 41.0398 22.4124 41.2643 23.2328C41.2816 23.2976 41.2707 23.3669 41.2323 23.4217C40.9321 23.8588 40.5352 24.2365 40.0835 24.513C39.4904 24.878 38.8051 25.0706 38.1043 25.0706L38.1034 25.0715ZM34.895 20.3639C34.8102 20.6586 34.7673 20.9661 34.7673 21.2791C34.7673 21.5009 34.7892 21.7244 34.8339 21.9443C35.1469 23.4919 36.522 24.6152 38.1034 24.6152C38.7202 24.6152 39.3225 24.4455 39.8444 24.1252C40.2122 23.9007 40.5379 23.5996 40.7934 23.2519C40.5826 22.5475 40.1957 21.9005 39.6711 21.3758C38.827 20.53 37.7028 20.0646 36.5065 20.0646C35.948 20.0646 35.4069 20.165 34.895 20.3639Z" fill="#052C47"/>
<path d="M41.2104 27.758H39.0104C38.8845 27.758 38.7823 27.6558 38.7823 27.5299C38.7823 27.404 38.8845 27.3018 39.0104 27.3018H40.9823V24.5405C40.9823 24.1372 40.9294 23.7384 40.8244 23.3552C40.6209 22.6106 40.2231 21.9262 39.6728 21.376C38.8288 20.5301 37.7046 20.0647 36.5083 20.0647C35.9143 20.0647 35.3385 20.1788 34.7974 20.4032C33.1184 21.0986 32.0334 22.7219 32.0334 24.5405V27.3018H33.9323C34.0582 27.3018 34.1604 27.404 34.1604 27.5299C34.1604 27.6558 34.0582 27.758 33.9323 27.758H31.8053C31.6793 27.758 31.5771 27.6558 31.5771 27.5299V24.5405C31.5771 22.5367 32.7725 20.7482 34.6231 19.9826C35.2189 19.7344 35.854 19.6094 36.5083 19.6094C37.8269 19.6094 39.0651 20.1222 39.9959 21.0539C40.6018 21.6598 41.0407 22.4144 41.2652 23.2347C41.3811 23.6572 41.4395 24.097 41.4395 24.5405V27.5299C41.4395 27.6558 41.3373 27.758 41.2113 27.758H41.2104Z" fill="#052C47"/>
<path d="M46.2218 40.4507C46.1825 40.4507 46.1433 40.4406 46.1077 40.4206L42.7899 38.5061C42.6804 38.4432 42.643 38.3036 42.7059 38.1941C42.7689 38.0846 42.9085 38.0481 43.018 38.1101L46.2218 39.9588L50.328 37.5882V34.576C50.328 33.9226 50.12 33.3003 49.7276 32.7765C49.483 32.4517 49.1819 32.1843 48.8306 31.9818L47.7192 31.3403C46.7957 30.8065 45.6478 30.8065 44.7244 31.3403L43.6129 31.9818C43.0837 32.2874 42.6658 32.74 42.4066 33.2903C42.3528 33.4043 42.2168 33.4527 42.1027 33.3989C41.9887 33.345 41.9403 33.2091 41.9942 33.095C42.2944 32.4608 42.7753 31.9389 43.3857 31.5866L44.4971 30.9452C45.562 30.3301 46.8842 30.3301 47.9482 30.9452L49.0596 31.5866C49.4639 31.8202 49.8115 32.1278 50.0926 32.5028C50.5452 33.106 50.7852 33.8223 50.7852 34.576V37.7205C50.7852 37.8017 50.7414 37.8774 50.6711 37.9185L46.3367 40.4206C46.3011 40.4406 46.2619 40.4507 46.2227 40.4507H46.2218Z" fill="#052C47"/>
<path d="M46.2219 29.7432C44.6214 29.7432 43.3184 28.4411 43.3184 26.8397C43.3184 25.2382 44.6205 23.937 46.2219 23.937C47.8234 23.937 49.1255 25.2391 49.1255 26.8397C49.1255 28.4402 47.8234 29.7432 46.2219 29.7432ZM46.2219 24.3933C44.8723 24.3933 43.7746 25.491 43.7746 26.8397C43.7746 28.1883 44.8723 29.287 46.2219 29.287C47.5715 29.287 48.6692 28.1893 48.6692 26.8397C48.6692 25.4901 47.5715 24.3933 46.2219 24.3933Z" fill="#052C47"/>
<path d="M52.5289 38.257C52.4897 38.257 52.4505 38.247 52.4149 38.2269L50.442 37.0881C50.3325 37.0252 50.2951 36.8855 50.3581 36.776C50.4211 36.6665 50.5607 36.63 50.6702 36.6921L52.5289 37.7643L55.4499 36.078V34.3908C55.4499 33.3505 54.8905 32.3805 53.9899 31.8604C53.5455 31.604 53.0399 31.4689 52.5289 31.4689C52.0179 31.4689 51.5124 31.6049 51.068 31.8604C50.682 32.0831 50.3471 32.396 50.0999 32.7665C50.0296 32.8715 49.8882 32.8997 49.7832 32.8295C49.6783 32.7592 49.65 32.6178 49.7203 32.5128C50.0068 32.0849 50.3937 31.7226 50.8399 31.4653C51.3536 31.1687 51.9376 31.0127 52.5289 31.0127C53.1202 31.0127 53.7042 31.1696 54.218 31.4653C55.2591 32.0666 55.9061 33.1872 55.9061 34.3908V36.2103C55.9061 36.2915 55.8623 36.3672 55.792 36.4083L52.643 38.226C52.6074 38.2461 52.5682 38.2561 52.5289 38.2561V38.257Z" fill="#052C47"/>
<path d="M52.5292 30.4763C51.332 30.4763 50.3574 29.5018 50.3574 28.3046C50.3574 27.1074 51.332 26.1328 52.5292 26.1328C53.7264 26.1328 54.7009 27.1074 54.7009 28.3046C54.7009 29.5018 53.7264 30.4763 52.5292 30.4763ZM52.5292 26.5891C51.5829 26.5891 50.8137 27.3583 50.8137 28.3046C50.8137 29.2508 51.5829 30.0201 52.5292 30.0201C53.4754 30.0201 54.2447 29.2499 54.2447 28.3046C54.2447 27.3592 53.4754 26.5891 52.5292 26.5891Z" fill="#052C47"/>
<path d="M26.7197 40.451C26.6805 40.451 26.6413 40.4409 26.6057 40.4208L22.2713 37.9188C22.201 37.8777 22.1572 37.8029 22.1572 37.7208V34.5763C22.1572 33.8226 22.3963 33.1062 22.8498 32.5031C23.13 32.129 23.4776 31.8205 23.8837 31.5869L24.9951 30.9454C26.0591 30.3313 27.3813 30.3313 28.4462 30.9454L29.5576 31.5869C30.1662 31.9392 30.6471 32.4602 30.9473 33.0944C30.9848 33.1729 30.9738 33.2659 30.92 33.3344C30.4975 33.8645 30.2657 34.5279 30.2657 35.2041V38.3084C30.2657 38.3896 30.2219 38.4654 30.1516 38.5064L26.8356 40.4208C26.8 40.4409 26.7608 40.451 26.7216 40.451H26.7197ZM22.6135 37.5884L26.7197 39.9591L29.8076 38.1761V35.2041C29.8076 34.475 30.0431 33.7569 30.4729 33.1674C30.2101 32.6728 29.8168 32.2649 29.3286 31.982L28.2172 31.3406C27.2928 30.8077 26.1449 30.8077 25.2223 31.3406L24.1109 31.982C23.7587 32.1846 23.4575 32.452 23.2148 32.7768C22.8215 33.3006 22.6135 33.9229 22.6135 34.5763V37.5884Z" fill="#052C47"/>
<path d="M26.72 29.7432C25.1194 29.7432 23.8164 28.4411 23.8164 26.8397C23.8164 25.2382 25.1185 23.937 26.72 23.937C28.3214 23.937 29.6235 25.2391 29.6235 26.8397C29.6235 28.4402 28.3214 29.7432 26.72 29.7432ZM26.72 24.3933C25.3704 24.3933 24.2727 25.491 24.2727 26.8397C24.2727 28.1883 25.3704 29.287 26.72 29.287C28.0696 29.287 29.1673 28.1893 29.1673 26.8397C29.1673 25.4901 28.0696 24.3933 26.72 24.3933Z" fill="#052C47"/>
<path d="M20.4127 38.2571C20.3735 38.2571 20.3343 38.2471 20.2987 38.227L17.1487 36.4093C17.0785 36.3682 17.0347 36.2934 17.0347 36.2113V34.3917C17.0347 33.1891 17.6816 32.0685 18.7237 31.4663C19.2384 31.1697 19.8224 31.0137 20.4127 31.0137C21.0031 31.0137 21.588 31.1706 22.1018 31.4663C22.548 31.7236 22.9349 32.0859 23.2214 32.5138C23.2917 32.6188 23.2634 32.7602 23.1584 32.8305C23.0535 32.9007 22.9121 32.8724 22.8418 32.7675C22.5945 32.397 22.2596 32.084 21.8737 31.8614C21.4284 31.605 20.9237 31.4699 20.4127 31.4699C19.9017 31.4699 19.3962 31.6059 18.9518 31.8614C18.0512 32.3815 17.4909 33.3515 17.4909 34.3917V36.079L20.4127 37.7653L22.2715 36.6931C22.3801 36.6301 22.5197 36.6675 22.5836 36.777C22.6475 36.8865 22.6091 37.0261 22.4996 37.0891L20.5268 38.2279C20.4912 38.248 20.452 38.258 20.4127 38.258V38.2571Z" fill="#052C47"/>
<path d="M20.4125 30.4763C19.2153 30.4763 18.2407 29.5018 18.2407 28.3046C18.2407 27.1074 19.2153 26.1328 20.4125 26.1328C21.6097 26.1328 22.5842 27.1074 22.5842 28.3046C22.5842 29.5018 21.6097 30.4763 20.4125 30.4763ZM20.4125 26.5891C19.4662 26.5891 18.697 27.3583 18.697 28.3046C18.697 29.2508 19.4662 30.0201 20.4125 30.0201C21.3587 30.0201 22.128 29.2499 22.128 28.3046C22.128 27.3592 21.3587 26.5891 20.4125 26.5891Z" fill="#052C47"/>
<path d="M20.4127 40.4509C20.3725 40.4509 20.3315 40.44 20.2941 40.4181L17.1441 38.5045C17.0364 38.4388 17.0018 38.2992 17.0675 38.1916C17.1332 38.0839 17.2737 38.0501 17.3805 38.1149L20.5304 40.0284C20.6381 40.0941 20.6727 40.2337 20.607 40.3414C20.5642 40.4117 20.4893 40.4509 20.4118 40.4509H20.4127Z" fill="#052C47"/>
<path d="M27.2252 44.7717C27.185 44.7717 27.1439 44.7607 27.1065 44.7388L22.3497 41.8507C22.242 41.785 22.2073 41.6454 22.273 41.5378C22.3387 41.4301 22.4783 41.3963 22.586 41.4611L27.3429 44.3492C27.4506 44.4149 27.4852 44.5545 27.4195 44.6622C27.3767 44.7324 27.3018 44.7717 27.2243 44.7717H27.2252Z" fill="#052C47"/>
<path d="M52.5874 40.4509C52.5108 40.4509 52.4351 40.4117 52.3922 40.3414C52.3265 40.2337 52.3612 40.0932 52.4688 40.0284L55.6188 38.1149C55.7264 38.0501 55.867 38.0839 55.9318 38.1916C55.9975 38.2992 55.9628 38.4398 55.8551 38.5045L52.7051 40.4181C52.6677 40.4409 52.6276 40.4509 52.5865 40.4509H52.5874Z" fill="#052C47"/>
<path d="M45.7144 44.8082C45.6378 44.8082 45.562 44.7689 45.5191 44.6987C45.4534 44.591 45.4881 44.4505 45.5958 44.3857L50.412 41.4611C50.5196 41.3963 50.6601 41.4301 50.7249 41.5378C50.7906 41.6454 50.756 41.786 50.6483 41.8507L45.8321 44.7753C45.7947 44.7981 45.7546 44.8082 45.7135 44.8082H45.7144Z" fill="#052C47"/>
<path d="M33.4814 43.9179C33.4814 44.3441 33.1656 44.6078 32.6565 44.6078H32.2194V45.1672H31.8599V43.229H32.6574C33.1666 43.229 33.4823 43.4891 33.4823 43.9189L33.4814 43.9179ZM33.1191 43.9179C33.1191 43.6743 32.9558 43.5329 32.6401 43.5329H32.2194V44.3021H32.6401C32.9558 44.3021 33.1191 44.1607 33.1191 43.917V43.9179Z" fill="#052C47"/>
<path d="M33.8417 43.228H34.2013V44.8614H35.2141V45.1662H33.8408V43.228H33.8417Z" fill="#052C47"/>
<path d="M36.7719 44.7182H35.8028L35.6121 45.1672H35.2407L36.1131 43.229H36.4671L37.3422 45.1672H36.9653L36.7719 44.7182ZM36.6533 44.4362L36.2874 43.5885L35.9251 44.4362H36.6533Z" fill="#052C47"/>
<path d="M37.8851 43.5328H37.2427V43.228H38.887V43.5328H38.2446V45.1662H37.8851V43.5328Z" fill="#052C47"/>
<path d="M38.9937 44.1971C38.9937 43.6241 39.4362 43.2007 40.0375 43.2007C40.6389 43.2007 41.0815 43.6213 41.0815 44.1971C41.0815 44.7729 40.6389 45.1936 40.0375 45.1936C39.4362 45.1936 38.9937 44.7702 38.9937 44.1971ZM40.7183 44.1971C40.7183 43.8011 40.4272 43.5164 40.0375 43.5164C39.6479 43.5164 39.3568 43.802 39.3568 44.1971C39.3568 44.5922 39.6479 44.8779 40.0375 44.8779C40.4272 44.8779 40.7183 44.5922 40.7183 44.1971Z" fill="#052C47"/>
<path d="M32.9339 46.856H32.2915V46.5513H33.9358V46.856H33.2934V48.4894H32.9339V46.856Z" fill="#052C47"/>
<path d="M35.6611 48.1884V48.4904H34.2075V46.5522H35.6228V46.8543H34.568V47.358H35.5042V47.6545H34.568V48.1893H35.6611V48.1884Z" fill="#052C47"/>
<path d="M37.3202 48.0414H36.3512L36.1604 48.4904H35.7891L36.6614 46.5522H37.0155L37.8906 48.4904H37.5137L37.3202 48.0414ZM37.2016 47.7595L36.8357 46.9118L36.4734 47.7595H37.2016Z" fill="#052C47"/>
<path d="M39.918 48.4894L39.9152 47.2046L39.2783 48.2677H39.1177L38.4808 47.221V48.4894H38.1377V46.5513H38.4343L39.2044 47.8361L39.96 46.5513H40.2565L40.2593 48.4894H39.9189H39.918Z" fill="#052C47"/>
<path d="M44.259 51.1445H28.6826C27.7537 51.1445 26.999 50.389 26.999 49.46V42.2285C26.999 41.2996 27.7546 40.5449 28.6826 40.5449H44.259C45.1879 40.5449 45.9434 41.3005 45.9434 42.2285V49.46C45.9434 50.389 45.1879 51.1445 44.259 51.1445ZM28.6826 41.0012C28.0055 41.0012 27.4553 41.5523 27.4553 42.2285V49.46C27.4553 50.1371 28.0064 50.6883 28.6826 50.6883H44.259C44.936 50.6883 45.4872 50.1371 45.4872 49.46V42.2285C45.4872 41.5514 44.936 41.0012 44.259 41.0012H28.6826Z" fill="#052C47"/>
<path d="M45.7143 53.3928H27.2262C27.1002 53.3928 26.998 53.2906 26.998 53.1646C26.998 53.0387 27.1002 52.9365 27.2262 52.9365H45.7143C45.8403 52.9365 45.9425 53.0387 45.9425 53.1646C45.9425 53.2906 45.8403 53.3928 45.7143 53.3928Z" fill="#052C47"/>
</svg>
