<svg width="100" height="100" viewBox="0 0 100 100" fill="none" xmlns="http://www.w3.org/2000/svg">
<path fill-rule="evenodd" clip-rule="evenodd" d="M50 0C22.3859 0 0 22.3857 0 50C0 77.6142 22.3859 100 50 100C77.6143 100 100 77.6142 100 50C100 22.3857 77.6143 0 50 0Z" fill="white"/>
<path d="M49.9998 3.41895C75.7257 3.41895 96.5806 24.274 96.5806 49.9998C96.5806 75.7258 75.7257 96.5807 49.9998 96.5807C24.2738 96.5807 3.41895 75.7258 3.41895 49.9998" stroke="#8ECFE3" stroke-miterlimit="10" stroke-linecap="round" stroke-linejoin="round"/>
<path d="M50 92.4515C72.3662 92.4515 90.6938 75.1526 92.3311 53.2051" stroke="#8ECFE3" stroke-miterlimit="10" stroke-linecap="round" stroke-linejoin="round"/>
<path d="M7.66895 46.7951C9.30645 24.8476 27.634 7.54883 50.0002 7.54883" stroke="#8ECFE3" stroke-miterlimit="10" stroke-linecap="round" stroke-linejoin="round"/>
<path d="M9.19882 49.5838V47.6783L7.54856 46.7256L5.89844 47.6783V49.5838L7.54856 50.5366L9.19882 49.5838Z" stroke="#8ECFE3" stroke-miterlimit="10" stroke-linecap="round" stroke-linejoin="round"/>
<path d="M94.0799 52.3339V50.4534L92.4514 49.5132L90.8228 50.4534V52.3339L92.4514 53.2741L94.0799 52.3339Z" stroke="#8ECFE3" stroke-miterlimit="10" stroke-linecap="round" stroke-linejoin="round"/>
<path d="M47.4683 46.5732C48.0847 46.6645 48.6895 46.8713 49.2473 47.1924L54.2665 50.0901C54.8215 50.4096 55.2994 50.8262 55.6847 51.3112C56.388 52.1902 56.7861 53.2945 56.7861 54.4543V56.3668" stroke="#8ECFE3" stroke-miterlimit="10" stroke-linecap="round" stroke-linejoin="round"/>
<path d="M38.1504 63.1616V59.308V54.4543C38.1504 53.2944 38.5485 52.1902 39.2519 51.3112C39.637 50.8262 40.115 50.4096 40.6699 50.0901L45.6891 47.1924C46.2469 46.8713 46.8519 46.6645 47.4683 46.5732" stroke="#8ECFE3" stroke-miterlimit="10" stroke-linecap="round" stroke-linejoin="round"/>
<path d="M44.5593 33.793C42.9619 34.7725 41.8955 36.536 41.8955 38.5466C41.8955 40.0721 42.5061 41.452 43.4986 42.4555C44.5076 43.483 45.9133 44.1193 47.4682 44.1193C49.0215 44.1193 50.429 43.483 51.4379 42.4555C52.4304 41.452 53.041 40.0721 53.041 38.5466C53.041 38.1666 53.0023 37.7958 52.9304 37.4362" stroke="#8ECFE3" stroke-miterlimit="10" stroke-linecap="round" stroke-linejoin="round"/>
<path d="M54.6182 35.8334C54.1756 36.479 53.6 37.0269 52.9305 37.4364C52.0837 37.9566 51.0876 38.2554 50.0215 38.2554C47.3245 38.2554 45.074 36.3388 44.5594 33.7933C44.4875 33.4335 44.4487 33.0628 44.4487 32.6827C44.4487 32.0906 44.541 31.5188 44.7143 30.9839C45.5795 30.6241 46.5295 30.4268 47.5256 30.4268C49.5566 30.4268 51.3957 31.2495 52.7256 32.5813C53.6148 33.4704 54.2771 34.5845 54.6182 35.8334V35.8334Z" stroke="#8ECFE3" stroke-miterlimit="10" stroke-linecap="round" stroke-linejoin="round"/>
<path d="M48.2547 30.4629H48.2505" stroke="#8ECFE3" stroke-miterlimit="10" stroke-linecap="round" stroke-linejoin="round"/>
<path d="M42.3296 36.3882C42.692 36.7962 43.1143 37.1501 43.5837 37.4368C44.4297 37.9561 45.4256 38.2557 46.4928 38.2557C47.1091 38.2557 47.7026 38.1559 48.2576 37.9704" stroke="#8ECFE3" stroke-miterlimit="10" stroke-linecap="round" stroke-linejoin="round"/>
<path d="M52.0171 31.958V31.9565" stroke="#8ECFE3" stroke-miterlimit="10" stroke-linecap="round" stroke-linejoin="round"/>
<path d="M43.4987 42.4553H40.1729V37.7809C40.1729 34.7152 42.0489 32.0865 44.7143 30.9834C45.5795 30.6237 46.5295 30.4263 47.5256 30.4263C49.5566 30.4263 51.3957 31.249 52.7256 32.5809C53.6149 33.47 54.2771 34.5842 54.6182 35.8329C54.788 36.4528 54.8784 37.1058 54.8784 37.7809V42.4553H51.4381" stroke="#8ECFE3" stroke-miterlimit="10" stroke-linecap="round" stroke-linejoin="round"/>
<path d="M33.1021 49.0771C33.5158 49.1385 33.9209 49.2769 34.2948 49.4923L37.6589 51.4342C38.0299 51.6481 38.3509 51.9276 38.6092 52.253C38.6192 52.2658 38.6305 52.2802 38.639 52.2929" stroke="#8ECFE3" stroke-miterlimit="10" stroke-linecap="round" stroke-linejoin="round"/>
<path d="M33.1022 62.2106L26.8574 60.1944V57.6119V54.359C26.8574 53.5816 27.1242 52.8415 27.5956 52.2525C27.8538 51.9274 28.174 51.6483 28.5461 51.434L31.9098 49.492C32.2837 49.2769 32.6891 49.1383 33.1022 49.0771" stroke="#8ECFE3" stroke-miterlimit="10" stroke-linecap="round" stroke-linejoin="round"/>
<path d="M31.1523 40.5117C30.0817 41.1682 29.3672 42.3501 29.3672 43.6976C29.3672 44.72 29.7763 45.6447 30.4414 46.3172C31.1177 47.0059 32.0597 47.4324 33.1019 47.4324C34.1428 47.4324 35.0861 47.0059 35.7623 46.3172C36.4274 45.6447 36.8367 44.72 36.8367 43.6976C36.8367 43.443 36.8107 43.1945 36.7624 42.9533" stroke="#8ECFE3" stroke-miterlimit="10" stroke-linecap="round" stroke-linejoin="round"/>
<path d="M37.8936 41.8789C37.5969 42.3115 37.2111 42.6788 36.7624 42.9533C36.195 43.3019 35.5274 43.5021 34.8129 43.5021C33.0055 43.5021 31.4971 42.2176 31.1523 40.5116C31.1041 40.2705 31.0781 40.022 31.0781 39.7674C31.0781 39.3705 31.14 38.9873 31.256 38.6288C31.8359 38.3876 32.4726 38.2554 33.1403 38.2554C34.5012 38.2554 35.7339 38.8067 36.6252 39.6994C37.2211 40.2953 37.6649 41.042 37.8936 41.8789V41.8789Z" stroke="#8ECFE3" stroke-miterlimit="10" stroke-linecap="round" stroke-linejoin="round"/>
<path d="M33.6293 38.2798H33.6265" stroke="#8ECFE3" stroke-miterlimit="10" stroke-linecap="round" stroke-linejoin="round"/>
<path d="M36.1509 39.2821V39.2812" stroke="#8ECFE3" stroke-miterlimit="10" stroke-linecap="round" stroke-linejoin="round"/>
<path d="M31.2559 38.6296C31.8366 38.3885 32.4729 38.2559 33.1405 38.2559C33.1876 38.2559 33.2348 38.2559 33.2817 38.2572C33.3389 38.2601 33.3974 38.263 33.4545 38.2659C33.4716 38.2672 33.4886 38.2686 33.5072 38.2701C33.5471 38.2729 33.5871 38.2757 33.6271 38.2801H33.6299C33.687 38.2859 33.744 38.293 33.8011 38.3001C33.8282 38.3029 33.8554 38.3071 33.8825 38.3115C33.9495 38.3215 34.0151 38.3329 34.0821 38.3458C34.1192 38.3529 34.1549 38.36 34.192 38.3686C34.242 38.3785 34.2919 38.39 34.3418 38.4043C34.3918 38.4156 34.4404 38.4285 34.4903 38.4427C34.5445 38.457 34.5971 38.4741 34.6515 38.4912C34.6744 38.4984 34.6971 38.507 34.7214 38.5141C34.7755 38.5326 34.8297 38.5526 34.884 38.5725C34.9425 38.594 35.0025 38.6182 35.0595 38.6425C35.1336 38.6739 35.2064 38.7067 35.2792 38.7424C35.3505 38.7766 35.4219 38.8122 35.4904 38.8507C35.5604 38.8879 35.6288 38.9279 35.6959 38.9692C35.7571 39.0049 35.817 39.0434 35.8756 39.0834C35.897 39.0976 35.9169 39.1119 35.9384 39.1275C35.9697 39.1476 36.0026 39.1704 36.0325 39.1932C36.0654 39.216 36.0968 39.2402 36.1281 39.2645C36.1609 39.2887 36.1937 39.3145 36.2251 39.3416C36.3649 39.4529 36.499 39.5726 36.626 39.6998C37.221 40.2961 37.6647 41.0422 37.8944 41.8796" stroke="#8ECFE3" stroke-miterlimit="10" stroke-linecap="round" stroke-linejoin="round"/>
<path d="M62.7068 65.4947V60.5605C62.7068 59.9718 62.3927 59.428 61.883 59.1336L57.61 56.6666C57.1001 56.3722 56.4719 56.3722 55.9622 56.6666L51.6891 59.1336C51.1792 59.428 50.8652 59.9718 50.8652 60.5605V65.4947C50.8652 66.0833 51.1792 66.6273 51.6891 66.9216L55.9622 69.3887C56.4719 69.6831 57.1001 69.6831 57.61 69.3887L61.883 66.9216C62.3927 66.6273 62.7068 66.0833 62.7068 65.4947Z" stroke="#8ECFE3" stroke-miterlimit="10" stroke-linecap="round" stroke-linejoin="round"/>
<path d="M64.4414 35.2207V65.9973" stroke="#8ECFE3" stroke-miterlimit="10" stroke-linecap="round" stroke-linejoin="round"/>
<path d="M41.2383 54.8677V63.1619" stroke="#8ECFE3" stroke-miterlimit="10" stroke-linecap="round" stroke-linejoin="round"/>
<path d="M26.8574 63.0278L33.1022 65.1917" stroke="#8ECFE3" stroke-miterlimit="10" stroke-linecap="round" stroke-linejoin="round"/>
<path d="M73.1426 58.0725H64.4414V37.3218H73.1426V58.0725Z" stroke="#8ECFE3" stroke-miterlimit="10" stroke-linecap="round" stroke-linejoin="round"/>
<path d="M66.8704 51.0262C66.6291 51.0262 66.4891 51.1881 66.4891 51.5008V51.9176H67.2518V51.5008C67.2518 51.1881 67.1118 51.0262 66.8704 51.0262ZM66.8704 50.667C67.2928 50.667 67.5533 50.9796 67.5533 51.4843V51.9176H68.1074V52.2741H66.1875V51.4843C66.1875 50.9796 66.4454 50.667 66.8704 50.667Z" fill="#8ECFE3"/>
<path d="M66.1875 50.3116V49.9551H67.8056V48.9512H68.1072V50.3116H66.1875Z" fill="#8ECFE3"/>
<path d="M67.3831 47.5286L66.5439 47.8906L67.3831 48.2498V47.5286ZM67.6629 47.4106V48.3706L68.1073 48.5598V48.9272L66.1875 48.0634V47.7124L68.1073 46.8457V47.2187L67.6629 47.4106Z" fill="#8ECFE3"/>
<path d="M66.4891 46.3087V46.9449H66.1875V45.3159H66.4891V45.952H68.1073V46.3087H66.4891Z" fill="#8ECFE3"/>
<path d="M67.1469 43.5038C66.7548 43.5038 66.4724 43.7918 66.4724 44.1784C66.4724 44.5651 66.7548 44.853 67.1469 44.853C67.5392 44.853 67.8216 44.5651 67.8216 44.1784C67.8216 43.7918 67.5392 43.5038 67.1469 43.5038ZM67.1469 45.2123C66.5793 45.2123 66.1597 44.7735 66.1597 44.1784C66.1597 43.5833 66.5767 43.1445 67.1469 43.1445C67.7173 43.1445 68.1342 43.5833 68.1342 44.1784C68.1342 44.7735 67.7147 45.2123 67.1469 45.2123Z" fill="#8ECFE3"/>
<path d="M71.3968 53.1191L70.1242 53.1217L71.1774 53.7525V53.9116L70.1407 54.5424H71.3968V54.8825H69.4771V54.589L70.7494 53.8266L69.4771 53.078V52.7844L71.3968 52.7817V53.1191Z" fill="#8ECFE3"/>
<path d="M71.0979 50.8247H71.3969V52.2646H69.4771V50.8631H69.776V51.908H70.2752V50.9811H70.5687V51.908H71.0979V50.8247Z" fill="#8ECFE3"/>
<path d="M71.3968 48.6645L70.1242 48.6671L71.1774 49.298V49.457L70.1407 50.0879H71.3968V50.4279H69.4771V50.1345L70.7494 49.372L69.4771 48.6233V48.3299L71.3968 48.3271V48.6645Z" fill="#8ECFE3"/>
<path d="M70.84 46.4633C70.6481 46.4633 70.5629 46.6086 70.5629 46.8774V47.4533H71.117V46.8774C71.117 46.6086 71.0319 46.4633 70.84 46.4633ZM69.7568 47.4533H70.286V46.9486C70.286 46.7019 70.1981 46.562 70.0226 46.562C69.8444 46.562 69.7568 46.7019 69.7568 46.9486V47.4533ZM70.8755 46.104C71.2048 46.104 71.3968 46.3617 71.3968 46.8554V47.8099H69.4771V46.9104C69.4771 46.4495 69.6716 46.2028 69.9762 46.2028C70.1735 46.2028 70.3189 46.3015 70.3985 46.4495C70.4643 46.2439 70.626 46.104 70.8755 46.104Z" fill="#8ECFE3"/>
<path d="M71.0979 44.2842H71.3969V45.724H69.4771V44.3226H69.776V45.3674H70.2752V44.4404H70.5687V45.3674H71.0979V44.2842Z" fill="#8ECFE3"/>
<path d="M69.7787 43.1137V43.5306H70.5439V43.1137C70.5439 42.8011 70.4012 42.6393 70.1598 42.6393C69.9187 42.6393 69.7787 42.8011 69.7787 43.1137ZM71.3968 42.6311L70.8344 43.0232C70.8374 43.048 70.8374 43.0726 70.8374 43.0973V43.5306H71.3968V43.8871H69.4771V43.0973C69.4771 42.5927 69.7348 42.2801 70.1598 42.2801C70.4507 42.2801 70.6646 42.4282 70.7659 42.6887L71.3968 42.2471V42.6311Z" fill="#8ECFE3"/>
<path d="M71.194 42.0448L70.9168 41.9215C71.0403 41.7679 71.1282 41.5238 71.1282 41.288C71.1282 40.989 71.0211 40.8629 70.8787 40.8629C70.4644 40.8629 70.736 42.0037 70.0228 42.0037C69.7129 42.0037 69.4497 41.7568 69.4497 41.2302C69.4497 41 69.5099 40.7586 69.6197 40.5912L69.8967 40.7037C69.7952 40.8765 69.746 41.0657 69.746 41.2331C69.746 41.5292 69.8611 41.6498 70.0065 41.6498C70.4151 41.6498 70.1492 40.5117 70.8538 40.5117C71.1611 40.5117 71.4243 40.7613 71.4243 41.288C71.4243 41.5868 71.3311 41.8857 71.194 42.0448Z" fill="#8ECFE3"/>
<path d="M53.9126 65.7771V64.0558C53.9126 62.4687 55.1992 61.1821 56.7863 61.1821C58.3735 61.1821 59.6599 62.4687 59.6599 64.0558V65.7771" stroke="#8ECFE3" stroke-miterlimit="10" stroke-linecap="round" stroke-linejoin="round"/>
<path d="M56.7861 60.2778V65.7772" stroke="#8ECFE3" stroke-miterlimit="10" stroke-linecap="round" stroke-linejoin="round"/>
</svg>
