<svg width="100" height="100" viewBox="0 0 100 100" fill="none" xmlns="http://www.w3.org/2000/svg">
<g clip-path="url(#clip0_420_2673)">
<path d="M50.0001 3.41895C75.7261 3.41895 96.581 24.274 96.581 49.9998C96.581 75.7258 75.7261 96.5807 50.0001 96.5807C24.2742 96.5807 3.41919 75.7258 3.41919 49.9998" stroke="#2A3D52" stroke-miterlimit="10" stroke-linecap="round" stroke-linejoin="round"/>
<path d="M50 92.4515C72.3663 92.4515 90.6938 75.1526 92.3313 53.2051" stroke="#2A3D52" stroke-miterlimit="10" stroke-linecap="round" stroke-linejoin="round"/>
<path d="M7.6687 46.7951C9.30617 24.8476 27.6337 7.54883 49.9999 7.54883" stroke="#2A3D52" stroke-miterlimit="10" stroke-linecap="round" stroke-linejoin="round"/>
<path d="M9.19878 49.5838V47.6783L7.54856 46.7256L5.89844 47.6783V49.5838L7.54856 50.5366L9.19878 49.5838Z" stroke="#2A3D52" stroke-miterlimit="10" stroke-linecap="round" stroke-linejoin="round"/>
<path d="M94.08 52.3339V50.4534L92.4514 49.5132L90.8228 50.4534V52.3339L92.4514 53.2741L94.08 52.3339Z" stroke="#2A3D52" stroke-miterlimit="10" stroke-linecap="round" stroke-linejoin="round"/>
<path d="M24.3847 63.1918C23.1405 63.5272 21.8603 62.7905 21.525 61.5465L21.5084 61.4851C21.1732 60.2411 21.9098 58.9607 23.1538 58.6255L24.3847 63.1918Z" stroke="#2A3D52" stroke-miterlimit="10" stroke-linecap="round" stroke-linejoin="round"/>
<path d="M34.5533 63.7041L27.4548 65.6174C26.2106 65.9527 24.9304 65.2162 24.595 63.972L22.9435 57.8448C22.6082 56.6008 23.3449 55.3204 24.5889 54.9852L31.6874 53.0718L34.5533 63.7041Z" stroke="#2A3D52" stroke-miterlimit="10" stroke-linecap="round" stroke-linejoin="round"/>
<path d="M36.4446 63.1944L34.5534 63.7041L31.6875 53.072L33.5788 52.562L36.4446 63.1944Z" stroke="#2A3D52" stroke-miterlimit="10" stroke-linecap="round" stroke-linejoin="round"/>
<path d="M43.5545 65.1619L36.4445 63.1946L33.5786 52.5622L38.7367 47.2881L43.5545 65.1619Z" stroke="#2A3D52" stroke-miterlimit="10" stroke-linecap="round" stroke-linejoin="round"/>
<path d="M30.9185 72.4517L30.0134 72.6957L28.0615 65.4542L30.6685 64.7515L32.4655 69.4016C32.958 70.6759 32.2377 72.0961 30.9185 72.4517V72.4517Z" stroke="#2A3D52" stroke-miterlimit="10" stroke-linecap="round" stroke-linejoin="round"/>
<path d="M41.9709 59.2854C43.6607 58.83 44.6612 57.0909 44.2054 55.4C43.75 53.7102 42.0109 52.7098 40.3213 53.1651" stroke="#2A3D52" stroke-miterlimit="10" stroke-linecap="round" stroke-linejoin="round"/>
<path d="M74.1725 28.9483L50.8976 31.2934C49.0547 31.4792 47.5805 32.9062 47.3349 34.7421L45.9555 45.0533C45.6543 47.3047 47.2865 49.3546 49.548 49.5653L50.5596 49.6594C49.2838 52.0694 46.4613 54.9608 46.4613 54.9608L54.5092 50.0275L73.9068 51.8352C76.2204 52.0508 78.23 50.2558 78.2759 47.9327L78.5715 33.0062C78.619 30.6079 76.5591 28.7078 74.1725 28.9483V28.9483Z" stroke="#2A3D52" stroke-miterlimit="10" stroke-linecap="round" stroke-linejoin="round"/>
<path d="M43.5545 45.9751L42.3184 50.3872" stroke="#2A3D52" stroke-miterlimit="10" stroke-linecap="round" stroke-linejoin="round"/>
<path d="M44.3157 60.7983L48.2431 61.9277" stroke="#2A3D52" stroke-miterlimit="10" stroke-linecap="round" stroke-linejoin="round"/>
<path d="M54.6501 39.6644C54.6501 38.9731 54.2599 38.5984 53.5225 38.635L52.5588 38.6827V40.8108L53.5225 40.7826C54.2599 40.7611 54.6501 40.3556 54.6501 39.6644V39.6644ZM55.2379 39.6411C55.2379 40.6979 54.5916 41.3525 53.5396 41.3774L52.5588 41.4004V42.8371L52 42.8425V38.1241L53.5396 38.039C54.5916 37.9809 55.2379 38.5846 55.2379 39.6411Z" fill="#2A3D52"/>
<path d="M56.1143 37.8966L56.7184 37.8633V42.1835L59.071 42.1474V42.7739L56.1143 42.8027V37.8966Z" fill="#2A3D52"/>
<path d="M62.5313 40.8468L61.5218 38.3487L60.53 40.8995L62.5313 40.8468V40.8468ZM62.768 41.4359L60.3025 41.488L59.8053 42.7671L59.1475 42.7734L61.198 37.6158L61.8541 37.5796L64.0139 42.7262L63.2918 42.7332L62.768 41.4359V41.4359Z" fill="#2A3D52"/>
<path d="M65.4726 38.0423L63.7935 38.1257V37.4723L67.9293 37.2437V37.9203L66.1795 38.0072V42.7053L65.4726 42.712V38.0423Z" fill="#2A3D52"/>
<path d="M73.2309 39.7935C73.2309 38.5344 72.3016 37.6547 71.0815 37.7158C69.8697 37.7764 68.9896 38.7151 68.9896 39.9314C68.9896 41.1476 69.8697 42.029 71.0815 42.0109C72.3016 41.9926 73.2309 41.0526 73.2309 39.7935V39.7935ZM68.2412 39.9556C68.2412 38.357 69.4281 37.0976 71.0815 37.0053C72.7646 36.9114 74.0432 38.0827 74.0432 39.7671C74.0432 41.4514 72.7646 42.706 71.0815 42.7214C69.4281 42.7366 68.2412 41.5544 68.2412 39.9556V39.9556Z" fill="#2A3D52"/>
<path d="M66.2078 54.4102L78.5725 55.5748" stroke="#2A3D52" stroke-miterlimit="10" stroke-linecap="round" stroke-linejoin="round"/>
<path d="M47.2546 28.9276L58.1874 27.3042" stroke="#2A3D52" stroke-miterlimit="10" stroke-linecap="round" stroke-linejoin="round"/>
</g>
<defs>
<clipPath id="clip0_420_2673">
<rect width="100" height="100" fill="white"/>
</clipPath>
</defs>
</svg>
