<svg width="100" height="100" viewBox="0 0 100 100" fill="none" xmlns="http://www.w3.org/2000/svg">
<g clip-path="url(#clip0_420_2702)">
<path d="M50 3.41919C75.726 3.41919 96.5809 24.2742 96.5809 50.0001C96.5809 75.7261 75.726 96.581 50 96.581C24.2741 96.581 3.41919 75.7261 3.41919 50.0001" stroke="#2A3D52" stroke-miterlimit="10" stroke-linecap="round" stroke-linejoin="round"/>
<path d="M49.9998 92.4512C72.3661 92.4512 90.6937 75.1524 92.331 53.2048" stroke="#2A3D52" stroke-miterlimit="10" stroke-linecap="round" stroke-linejoin="round"/>
<path d="M7.6687 46.7951C9.30617 24.8476 27.6337 7.54883 49.9998 7.54883" stroke="#2A3D52" stroke-miterlimit="10" stroke-linecap="round" stroke-linejoin="round"/>
<path d="M9.19882 49.5841V47.6786L7.54856 46.7258L5.89844 47.6786V49.5841L7.54856 50.5368L9.19882 49.5841Z" stroke="#2A3D52" stroke-miterlimit="10" stroke-linecap="round" stroke-linejoin="round"/>
<path d="M94.0799 52.3339V50.4534L92.4514 49.5132L90.8228 50.4534V52.3339L92.4514 53.2741L94.0799 52.3339Z" stroke="#2A3D52" stroke-miterlimit="10" stroke-linecap="round" stroke-linejoin="round"/>
<path d="M43.7131 44.7764C43.7131 48.8524 40.4088 52.1567 36.3328 52.1567C32.2568 52.1567 28.9524 48.8524 28.9524 44.7764C28.9524 40.7004 32.2568 37.396 36.3328 37.396C40.4088 37.396 43.7131 40.7004 43.7131 44.7764Z" stroke="#2A3D52" stroke-miterlimit="10" stroke-linecap="round" stroke-linejoin="round"/>
<path d="M39.1853 53.2963C42.0712 52.3307 44.3045 49.941 45.0497 46.9607" stroke="#2A3D52" stroke-miterlimit="10" stroke-linecap="round" stroke-linejoin="round"/>
<path d="M27.6985 42.2913C28.776 38.5394 32.2345 35.7939 36.3331 35.7939C40.4318 35.7939 43.8903 38.5394 44.9678 42.2913" stroke="#2A3D52" stroke-miterlimit="10" stroke-linecap="round" stroke-linejoin="round"/>
<path d="M42.073 51.6854L44.3384 52.9923C46.0988 54.0076 47.1817 55.8854 47.1817 57.9177V67.1606L36.3332 73.425L25.4829 67.1606V57.9177C25.4829 55.8854 26.5675 54.0076 28.3279 52.9923L32.094 50.8176" stroke="#2A3D52" stroke-miterlimit="10" stroke-linecap="round" stroke-linejoin="round"/>
<path d="M28.2096 46.9605H26.4905C26.0474 46.9605 25.688 46.6012 25.688 46.158V43.0937C25.688 42.6506 26.0474 42.2913 26.4905 42.2913H28.2096C28.6527 42.2913 29.0121 42.6506 29.0121 43.0937V46.158C29.0121 46.6012 28.6527 46.9605 28.2096 46.9605Z" stroke="#2A3D52" stroke-miterlimit="10" stroke-linecap="round" stroke-linejoin="round"/>
<path d="M46.1759 46.9605H44.4568C44.0137 46.9605 43.6543 46.6012 43.6543 46.158V43.0937C43.6543 42.6506 44.0137 42.2913 44.4568 42.2913H46.1759C46.6191 42.2913 46.9784 42.6506 46.9784 43.0937V46.158C46.9784 46.6012 46.6191 46.9605 46.1759 46.9605Z" stroke="#2A3D52" stroke-miterlimit="10" stroke-linecap="round" stroke-linejoin="round"/>
<path d="M38.782 54.4456L37.3128 54.6686C36.9851 54.7183 36.6794 54.493 36.6295 54.1653L36.5535 53.6641C36.5038 53.3365 36.729 53.0306 37.0566 52.9808L38.5259 52.7578C38.8535 52.7082 39.1595 52.9335 39.2092 53.2611L39.2851 53.7624C39.335 54.09 39.1096 54.396 38.782 54.4456Z" stroke="#2A3D52" stroke-miterlimit="10" stroke-linecap="round" stroke-linejoin="round"/>
<path d="M32.9727 58.8885L34.3143 57.5469L35.476 58.7088L34.4978 59.6869C34.1747 60.01 34.1747 60.533 34.4978 60.8562L36.8868 63.2452C37.2088 63.567 37.733 63.5683 38.0561 63.2453L39.0343 62.2669L40.1948 63.4275L38.8533 64.769C38.1832 65.4392 37.0955 65.4405 36.424 64.769L32.974 61.3189C32.3025 60.6474 32.3025 59.5586 32.9727 58.8885V58.8885Z" stroke="#2A3D52" stroke-miterlimit="10" stroke-linecap="round" stroke-linejoin="round"/>
<path d="M71.5593 26.2502H53.4663C51.8329 26.2502 50.5088 27.5744 50.5088 29.2078V41.2118C50.5088 42.8453 51.8329 44.1694 53.4663 44.1694H54.3362V48.6926L58.9887 44.1694H71.5593C73.1927 44.1694 74.5168 42.8453 74.5168 41.2118V29.2078C74.5168 27.5744 73.1927 26.2502 71.5593 26.2502H71.5593Z" stroke="#2A3D52" stroke-miterlimit="10" stroke-linecap="round" stroke-linejoin="round"/>
<path d="M62.5127 48.0901H74.5167" stroke="#2A3D52" stroke-miterlimit="10" stroke-linecap="round" stroke-linejoin="round"/>
<path d="M25.4829 71.0414L36.3332 77.3104L47.1817 70.5325" stroke="#2A3D52" stroke-miterlimit="10" stroke-linecap="round" stroke-linejoin="round"/>
<path d="M50.5088 22.6897H61.0233" stroke="#2A3D52" stroke-miterlimit="10" stroke-linecap="round" stroke-linejoin="round"/>
<path d="M57.825 32.6375C57.825 32.287 57.5898 32.0839 57.1357 32.0839H56.5306V33.1913H57.1357C57.5898 33.1913 57.825 32.988 57.825 32.6375ZM58.3468 32.6375C58.3468 33.2509 57.8927 33.6294 57.1598 33.6294H56.5306V34.4339H56.0127V31.6458H57.1598C57.8927 31.6458 58.3468 32.0203 58.3468 32.6375Z" fill="#2A3D52"/>
<path d="M58.8645 31.646H59.3824V33.996H60.8402V34.4341H58.8645V31.646Z" fill="#2A3D52"/>
<path d="M62.9072 33.3824L62.3816 32.1636L61.8598 33.3824H62.9072ZM63.0786 33.7886H61.6846L61.4097 34.4339H60.876L62.1307 31.6458H62.6405L63.8992 34.4339H63.3574L63.0786 33.7886V33.7886Z" fill="#2A3D52"/>
<path d="M64.6796 32.0839H63.7556V31.6458H66.1216V32.0839H65.1975V34.4339H64.6796V32.0839Z" fill="#2A3D52"/>
<path d="M68.7542 33.0399C68.7542 32.4702 68.3361 32.06 67.7745 32.06C67.2127 32.06 66.7946 32.4702 66.7946 33.0399C66.7946 33.6095 67.2127 34.0196 67.7745 34.0196C68.3361 34.0196 68.7542 33.6095 68.7542 33.0399ZM66.2727 33.0399C66.2727 32.2153 66.9101 31.606 67.7745 31.606C68.6387 31.606 69.2761 32.2113 69.2761 33.0399C69.2761 33.8684 68.6387 34.4737 67.7745 34.4737C66.9101 34.4737 66.2727 33.8644 66.2727 33.0399Z" fill="#2A3D52"/>
<path d="M53.8022 38.9189L53.9815 38.5166C54.2044 38.6959 54.559 38.8233 54.9016 38.8233C55.3358 38.8233 55.5189 38.668 55.5189 38.4609C55.5189 37.8594 53.862 38.2537 53.862 37.2182C53.862 36.768 54.2204 36.3857 54.9851 36.3857C55.3197 36.3857 55.6702 36.4734 55.9132 36.6326L55.7499 37.0349C55.4989 36.8876 55.224 36.8159 54.9811 36.8159C54.551 36.8159 54.3757 36.9831 54.3757 37.1943C54.3757 37.7878 56.0288 37.4014 56.0288 38.425C56.0288 38.8711 55.6664 39.2535 54.9016 39.2535C54.4673 39.2535 54.0332 39.118 53.8022 38.9189Z" fill="#2A3D52"/>
<path d="M58.6334 38.7794V39.2135H56.5422V36.4253H58.5777V36.8595H57.0601V37.5844H58.4065V38.0106H57.0601V38.7794H58.6334Z" fill="#2A3D52"/>
<path d="M60.3342 36.8636H59.7288V37.9749H60.3342C60.7883 37.9749 61.0234 37.7678 61.0234 37.4173C61.0234 37.0668 60.7883 36.8636 60.3342 36.8636ZM61.0354 39.2137L60.4657 38.3971C60.4299 38.401 60.394 38.401 60.3582 38.401H59.7288V39.2137H59.2112V36.4255H60.3582C61.0912 36.4255 61.5452 36.7999 61.5452 37.4173C61.5452 37.8395 61.3302 38.1501 60.9517 38.2975L61.5929 39.2137H61.0354V39.2137Z" fill="#2A3D52"/>
<path d="M64.6716 36.4253L63.4568 39.2134H62.9469L61.728 36.4253H62.2896L63.2178 38.5762L64.1538 36.4253H64.6716Z" fill="#2A3D52"/>
<path d="M64.9661 36.4253H65.4839V39.2134H64.9661V36.4253Z" fill="#2A3D52"/>
<path d="M66.0376 37.8194C66.0376 36.9869 66.675 36.3855 67.5313 36.3855C67.9853 36.3855 68.3757 36.5487 68.6344 36.8515L68.3001 37.1661C68.097 36.947 67.846 36.8396 67.5551 36.8396C66.9776 36.8396 66.5595 37.2459 66.5595 37.8194C66.5595 38.393 66.9776 38.7992 67.5551 38.7992C67.846 38.7992 68.097 38.6916 68.3001 38.4686L68.6344 38.7873C68.3757 39.09 67.9853 39.2532 67.5273 39.2532C66.675 39.2532 66.0376 38.6519 66.0376 37.8194V37.8194Z" fill="#2A3D52"/>
<path d="M71.2234 38.7794V39.2135H69.1323V36.4253H71.1678V36.8595H69.6502V37.5844H70.9966V38.0106H69.6502V38.7794H71.2234Z" fill="#2A3D52"/>
</g>
<defs>
<clipPath id="clip0_420_2702">
<rect width="100" height="100" fill="white"/>
</clipPath>
</defs>
</svg>
