<svg width="100" height="100" viewBox="0 0 100 100" fill="none" xmlns="http://www.w3.org/2000/svg">
<g clip-path="url(#clip0_420_2738)">
<path d="M49.9997 3.41895C75.7257 3.41895 96.5806 24.274 96.5806 49.9998C96.5806 75.7258 75.7258 96.5808 49.9997 96.5808C24.2739 96.5808 3.41895 75.7259 3.41895 49.9998" stroke="#2A3D52" stroke-miterlimit="10" stroke-linecap="round" stroke-linejoin="round"/>
<path d="M50 92.4515C72.3664 92.4515 90.6939 75.1526 92.3313 53.2051" stroke="#2A3D52" stroke-miterlimit="10" stroke-linecap="round" stroke-linejoin="round"/>
<path d="M7.66846 46.7951C9.30593 24.8476 27.6334 7.54883 49.9996 7.54883" stroke="#2A3D52" stroke-miterlimit="10" stroke-linecap="round" stroke-linejoin="round"/>
<path d="M9.19882 49.5838V47.6783L7.54859 46.7256L5.89844 47.6783V49.5838L7.54859 50.5366L9.19882 49.5838Z" stroke="#2A3D52" stroke-miterlimit="10" stroke-linecap="round" stroke-linejoin="round"/>
<path d="M94.0799 52.3339V50.4534L92.4514 49.5132L90.8228 50.4534V52.3339L92.4514 53.2741L94.0799 52.3339Z" stroke="#2A3D52" stroke-miterlimit="10" stroke-linecap="round" stroke-linejoin="round"/>
<path d="M36.4378 52.3412C36.342 52.4603 36.3203 52.7364 36.39 52.8772C37.0541 54.2173 37.7227 55.5549 38.3932 56.8917H40.5844V47.2637C39.1416 49.0232 37.7795 50.6739 36.4378 52.3412Z" stroke="#2A3D52" stroke-miterlimit="10" stroke-linecap="round" stroke-linejoin="round"/>
<path d="M36.39 52.8772C36.3202 52.7365 36.342 52.4604 36.4379 52.3412C37.7795 50.674 39.1416 49.0231 40.5844 47.2637V56.8917H45.404C45.9324 53.0617 46.0855 49.2312 46.6962 45.4138C46.8772 44.2816 46.782 43.3576 45.9813 42.5108C45.6133 42.1217 45.7382 41.623 45.3891 41.2126C45.2519 41.0511 44.9943 40.9157 44.7847 40.9053C44.0586 40.8691 43.3286 40.9179 42.6019 40.8895C40.1615 40.794 38.2605 41.8128 36.7649 43.6791C34.9186 45.9826 33.0815 48.2935 31.2355 50.5972C30.4922 51.5245 30.3981 52.4971 30.945 53.5556C31.519 54.6667 32.0904 55.7795 32.6622 56.8917H38.3931C37.7228 55.555 37.054 54.2173 36.39 52.8772V52.8772Z" stroke="#2A3D52" stroke-miterlimit="10" stroke-linecap="round" stroke-linejoin="round"/>
<path d="M58.755 52.8772C58.8248 52.7365 58.8031 52.4604 58.7071 52.3412C57.3654 50.674 56.0034 49.0231 54.5605 47.2637V56.8917H49.7409C49.2127 53.0617 49.0595 49.2312 48.4489 45.4138C48.2678 44.2816 48.363 43.3576 49.1638 42.5108C49.5318 42.1217 49.4068 41.623 49.7558 41.2126C49.893 41.0511 50.1507 40.9157 50.3604 40.9053C51.0863 40.8691 51.8163 40.9179 52.5432 40.8895C54.9835 40.794 56.8844 41.8128 58.3801 43.6791C60.2263 45.9826 62.0636 48.2935 63.9096 50.5972C64.6527 51.5245 64.7468 52.4971 64.2 53.5556C63.6259 54.6667 63.0546 55.7795 62.4827 56.8917H56.7519C57.4223 55.555 58.0911 54.2173 58.755 52.8772V52.8772Z" stroke="#2A3D52" stroke-miterlimit="10" stroke-linecap="round" stroke-linejoin="round"/>
<path d="M47.431 39.2399C50.9822 39.2627 53.8806 36.4309 53.8958 32.9234C53.9112 29.3823 51.0776 26.5137 47.5447 26.4942C44.0158 26.4748 41.1607 29.3176 41.1446 32.867C41.129 36.3346 43.973 39.2176 47.431 39.2399Z" stroke="#2A3D52" stroke-miterlimit="10" stroke-linecap="round" stroke-linejoin="round"/>
<path d="M45.4038 56.8916H70.5389" stroke="#2A3D52" stroke-miterlimit="10" stroke-linecap="round" stroke-linejoin="round"/>
<path d="M30.0957 48.1999L36.1346 40.8833" stroke="#2A3D52" stroke-miterlimit="10" stroke-linecap="round" stroke-linejoin="round"/>
<path d="M47.4143 66.9136C47.4143 66.7182 47.2833 66.6047 47.0301 66.6047H46.6922V67.2226H47.0301C47.2833 67.2226 47.4143 67.1091 47.4143 66.9136V66.9136ZM47.7052 66.9136C47.7052 67.2557 47.452 67.4669 47.0431 67.4669H46.6922V67.9157H46.4033V66.3604H47.0431C47.452 66.3604 47.7052 66.5692 47.7052 66.9136V66.9136Z" fill="#2A3D52"/>
<path d="M47.9951 66.3604H48.284V67.6712H49.0972V67.9156H47.9951V66.3604Z" fill="#2A3D52"/>
<path d="M50.2509 67.3291L49.9574 66.6492L49.6665 67.3291H50.2509ZM50.3464 67.5557H49.5688L49.4153 67.9156H49.1177L49.8174 66.3604H50.1018L50.8042 67.9156H50.5021L50.3464 67.5557Z" fill="#2A3D52"/>
<path d="M51.2406 66.6047H50.7251V66.3604H52.0451V66.6047H51.5295V67.9156H51.2406V66.6047Z" fill="#2A3D52"/>
<path d="M53.5143 67.1378C53.5143 66.82 53.2809 66.5912 52.9675 66.5912C52.6541 66.5912 52.4208 66.82 52.4208 67.1378C52.4208 67.4555 52.6541 67.6843 52.9675 67.6843C53.2809 67.6843 53.5143 67.4555 53.5143 67.1378ZM52.1299 67.1378C52.1299 66.6778 52.4852 66.3379 52.9675 66.3379C53.4494 66.3379 53.8051 66.6756 53.8051 67.1378C53.8051 67.5998 53.4494 67.9375 52.9675 67.9375C52.4852 67.9375 52.1299 67.5978 52.1299 67.1378Z" fill="#2A3D52"/>
<path d="M42.7016 69.9967L42.4081 69.3169L42.1173 69.9967H42.7016ZM42.7971 70.2232H42.0195L41.8661 70.5832H41.5684L42.2681 69.0278H42.5525L43.2549 70.5832H42.9527L42.7971 70.2232V70.2232Z" fill="#2A3D52"/>
<path d="M44.8816 70.5832L44.8795 69.5522L44.3686 70.4054H44.2397L43.7285 69.5655V70.5832H43.4531V69.0278H43.6908L44.3085 70.0588L44.915 69.0278H45.153L45.1551 70.5832H44.8816Z" fill="#2A3D52"/>
<path d="M46.6675 70.1322C46.6675 69.9766 46.5496 69.9077 46.3315 69.9077H45.8653V70.3566H46.3315C46.5496 70.3566 46.6675 70.2877 46.6675 70.1322V70.1322ZM45.8653 69.2546V69.6833H46.2742C46.4738 69.6833 46.5871 69.6122 46.5871 69.4701C46.5871 69.3257 46.4738 69.2546 46.2742 69.2546H45.8653ZM46.9583 70.161C46.9583 70.4277 46.7496 70.5832 46.3494 70.5832H45.5762V69.0278H46.3053C46.6783 69.0278 46.8783 69.1857 46.8783 69.4323C46.8783 69.5923 46.7984 69.7101 46.6783 69.7745C46.8452 69.8277 46.9583 69.9588 46.9583 70.161Z" fill="#2A3D52"/>
<path d="M48.1812 69.9967L47.8881 69.3169L47.5968 69.9967H48.1812ZM48.2767 70.2232H47.4992L47.3457 70.5832H47.0483L47.7481 69.0278H48.0326L48.7345 70.5832H48.4324L48.2767 70.2232Z" fill="#2A3D52"/>
<path d="M48.8018 70.4189L48.9016 70.1946C49.0261 70.2946 49.224 70.3656 49.4151 70.3656C49.6571 70.3656 49.7595 70.279 49.7595 70.1635C49.7595 69.8279 48.8351 70.0479 48.8351 69.4702C48.8351 69.2191 49.0351 69.0059 49.4618 69.0059C49.6484 69.0059 49.8439 69.0547 49.9796 69.1437L49.8884 69.368C49.7482 69.2858 49.595 69.2457 49.4596 69.2457C49.2198 69.2457 49.1218 69.3391 49.1218 69.457C49.1218 69.788 50.044 69.5725 50.044 70.1435C50.044 70.3924 49.8416 70.6056 49.4151 70.6056C49.1731 70.6056 48.9306 70.53 48.8018 70.4189V70.4189Z" fill="#2A3D52"/>
<path d="M50.2002 70.4189L50.3 70.1946C50.4245 70.2946 50.6221 70.3656 50.813 70.3656C51.0555 70.3656 51.1576 70.279 51.1576 70.1635C51.1576 69.8279 50.2334 70.0479 50.2334 69.4702C50.2334 69.2191 50.4331 69.0059 50.8597 69.0059C51.0465 69.0059 51.2422 69.0547 51.3776 69.1437L51.2863 69.368C51.1467 69.2858 50.9933 69.2457 50.8575 69.2457C50.6177 69.2457 50.52 69.3391 50.52 69.457C50.52 69.788 51.4419 69.5725 51.4419 70.1435C51.4419 70.3924 51.2395 70.6056 50.813 70.6056C50.5711 70.6056 50.3289 70.53 50.2002 70.4189V70.4189Z" fill="#2A3D52"/>
<path d="M52.6427 69.9967L52.3495 69.3169L52.0583 69.9967H52.6427ZM52.7383 70.2232H51.9607L51.8072 70.5832H51.5098L52.2095 69.0278H52.494L53.1959 70.5832H52.8938L52.7383 70.2232V70.2232Z" fill="#2A3D52"/>
<path d="M54.0614 70.3387C54.4079 70.3387 54.6323 70.1278 54.6323 69.8054C54.6323 69.4833 54.4079 69.2723 54.0614 69.2723H53.6837V70.3387H54.0614ZM53.3945 69.0278H54.0744C54.5788 69.0278 54.9233 69.3389 54.9233 69.8054C54.9233 70.2721 54.5788 70.5832 54.0744 70.5832H53.3945V69.0278Z" fill="#2A3D52"/>
<path d="M56.504 69.8056C56.504 69.488 56.2706 69.2591 55.9573 69.2591C55.6443 69.2591 55.411 69.488 55.411 69.8056C55.411 70.1234 55.6443 70.3522 55.9573 70.3522C56.2706 70.3522 56.504 70.1234 56.504 69.8056ZM55.1196 69.8056C55.1196 69.3457 55.4754 69.0059 55.9573 69.0059C56.4397 69.0059 56.7949 69.3435 56.7949 69.8056C56.7949 70.2677 56.4397 70.6055 55.9573 70.6055C55.4754 70.6055 55.1196 70.2656 55.1196 69.8056Z" fill="#2A3D52"/>
<path d="M57.7293 69.2723H57.3917V69.8922H57.7293C57.9824 69.8922 58.1134 69.7767 58.1134 69.5812C58.1134 69.3856 57.9824 69.2723 57.7293 69.2723V69.2723ZM58.1204 70.5832L57.8027 70.1278C57.7824 70.1298 57.7626 70.1298 57.7426 70.1298H57.3917V70.5832H57.1025V69.0278H57.7426C58.1515 69.0278 58.4048 69.2367 58.4048 69.5812C58.4048 69.8166 58.2845 69.99 58.0737 70.0722L58.4316 70.5832H58.1204V70.5832Z" fill="#2A3D52"/>
<path d="M70.5389 60.1646H29.4604V56.8916H70.5389V60.1646Z" stroke="#2A3D52" stroke-miterlimit="10" stroke-linecap="round" stroke-linejoin="round"/>
<path d="M66.7889 63.4376H33.2104L29.4604 60.1646H70.5389L66.7889 63.4376Z" stroke="#2A3D52" stroke-miterlimit="10" stroke-linecap="round" stroke-linejoin="round"/>
<path d="M62.6 73.5058H37.3999V63.4375H62.6V73.5058Z" stroke="#2A3D52" stroke-miterlimit="10" stroke-linecap="round" stroke-linejoin="round"/>
<path d="M68.4254 56.8917V45.3412L64.1455 40.5024" stroke="#2A3D52" stroke-miterlimit="10" stroke-linecap="round" stroke-linejoin="round"/>
<path d="M64.1457 40.5027C63.6983 40.8639 63.0428 40.7941 62.6816 40.3467L61.5729 38.9737C61.2117 38.5262 61.2816 37.8706 61.7289 37.5094C62.1764 37.1483 62.8319 37.218 63.1932 37.6654L64.3017 39.0385C64.663 39.4859 64.5931 40.1414 64.1457 40.5027Z" stroke="#2A3D52" stroke-miterlimit="10" stroke-linecap="round" stroke-linejoin="round"/>
</g>
<defs>
<clipPath id="clip0_420_2738">
<rect width="100" height="100" fill="white"/>
</clipPath>
</defs>
</svg>
