<svg width="100" height="100" viewBox="0 0 100 100" fill="none" xmlns="http://www.w3.org/2000/svg">
<g clip-path="url(#clip0_420_2776)">
<path d="M49.9998 3.41895C75.7258 3.41895 96.5806 24.274 96.5806 49.9998C96.5806 75.7258 75.7258 96.5807 49.9998 96.5807C24.2738 96.5807 3.41895 75.7258 3.41895 49.9998" stroke="#2A3D52" stroke-miterlimit="10" stroke-linecap="round" stroke-linejoin="round"/>
<path d="M50 92.4515C72.3663 92.4515 90.6938 75.1526 92.3312 53.2051" stroke="#2A3D52" stroke-miterlimit="10" stroke-linecap="round" stroke-linejoin="round"/>
<path d="M7.66895 46.7951C9.30659 24.8476 27.6341 7.54883 50.0002 7.54883" stroke="#2A3D52" stroke-miterlimit="10" stroke-linecap="round" stroke-linejoin="round"/>
<path d="M9.19882 49.5838V47.6783L7.54856 46.7256L5.89844 47.6783V49.5838L7.54856 50.5366L9.19882 49.5838Z" stroke="#2A3D52" stroke-miterlimit="10" stroke-linecap="round" stroke-linejoin="round"/>
<path d="M94.0799 52.3339V50.4534L92.4514 49.5132L90.8228 50.4534V52.3339L92.4514 53.2741L94.0799 52.3339Z" stroke="#2A3D52" stroke-miterlimit="10" stroke-linecap="round" stroke-linejoin="round"/>
<path d="M40.2715 46.8649C39.8314 46.4281 37.8318 44.4321 37.2289 43.8339C37.0975 44.0155 36.9903 44.2121 36.839 44.3651C35.7108 45.5064 34.5761 46.6414 33.4384 47.7731C32.8727 48.336 32.3038 48.3926 31.8522 47.9476C31.4157 47.5177 31.4761 46.9035 32.0134 46.3633C32.7559 45.6164 33.498 44.8689 34.2471 44.1286C34.8004 43.5819 35.3648 43.0463 35.917 42.5126C35.4858 42.0721 33.6271 40.2059 33.3183 39.8904L40.2715 46.8649ZM65.7621 40.5615C65.3618 40.9715 63.5018 42.884 63.0305 43.3665C64.2011 44.5259 65.3787 45.6869 66.5498 46.8544C67.0687 47.3717 67.1149 47.978 66.6863 48.4058C66.2658 48.8255 65.6522 48.7784 65.1348 48.2725C64.5492 47.7 63.9702 47.1205 63.3933 46.5392C62.7963 45.9377 62.2053 45.3304 61.63 44.7444C61.1473 45.2174 58.816 47.3827 58.4403 47.7511L65.7621 40.5615ZM68.6074 57.5107C65.7395 54.6366 59.9645 49.3029 57.072 46.4042L68.6074 57.5107ZM58.9174 51.7356C58.9438 53.7232 58.0923 55.24 56.3206 56.1304C56.1667 56.2077 56.0069 56.2732 55.8438 56.3304C54.8226 56.6885 53.7111 56.6962 52.6701 56.4005L49.9328 55.6225L58.9174 51.7356ZM41.6495 45.4903C37.9004 49.2301 34.215 52.9065 30.4469 56.6652L41.6495 45.4903ZM49.9328 55.6225C49.7023 55.391 49.5377 55.3702 49.2553 55.5326C47.8943 56.3155 46.5251 57.0845 45.148 57.8384C43.6653 58.6497 41.7603 58.0959 40.9763 56.646C40.1544 55.1265 40.6883 53.2926 42.1934 52.4465C43.271 51.8406 44.3445 51.2276 45.4198 50.6177C46.2887 50.125 49.6718 48.2699 50.586 47.7511L49.9328 55.6225ZM61.368 70.597C61.9932 72.9114 60.1615 75.078 57.5077 74.5356C56.5672 76.8764 53.6018 77.5754 51.5393 74.9386C51.0725 75.7335 50.4508 76.33 49.551 76.5733C48.6465 76.818 47.7988 76.6795 47.0075 76.1919C45.191 78.061 42.4712 77.4665 41.6315 75.303C40.9361 75.2336 40.2521 75.2742 39.641 75.0825C38.1514 74.615 37.3743 73.1838 37.667 71.643C37.7094 71.42 37.734 71.261 37.4588 71.1219C35.4406 70.1016 34.9982 67.9906 36.4136 66.2303C36.4853 66.1411 36.5523 66.0484 36.6793 65.8814C36.0028 65.2273 35.3271 64.5834 34.662 63.9289C33.4852 62.771 32.6231 61.418 32.159 59.8247C32.0796 59.5528 31.968 59.2764 31.9611 59C31.9438 58.2995 31.5398 57.857 31.076 57.3994C28.8266 55.1797 26.5988 52.9384 24.364 50.7041C23.6913 50.0315 23.678 49.5389 24.3526 48.862C27.5161 45.6886 30.6846 42.5203 33.8553 39.3541C34.5159 38.6944 35.0219 38.7122 35.7019 39.3927C37.9238 41.6154 40.1481 43.8353 42.3613 46.0666C42.5803 46.2875 42.7873 46.3832 43.1023 46.3617C44.819 46.244 46.5101 46.4078 48.1444 46.9619C48.6603 47.1368 49.1558 47.3952 49.6263 47.6734C49.957 47.8689 50.2134 47.8843 50.586 47.7511C52.1462 47.1934 53.7839 47.0575 55.4234 47.0825C56.1153 47.093 56.5861 46.9044 57.072 46.4042C59.1694 44.2462 61.314 42.1343 63.4453 40.0095C64.07 39.3865 64.5826 39.3845 65.216 40.0164C68.3994 43.1929 71.5794 46.3729 74.7563 49.5561C75.3958 50.1969 75.3799 50.7056 74.7237 51.3628C72.3373 53.7525 69.9473 56.1386 67.5673 58.5347C67.4124 58.6907 67.2563 58.9085 67.2263 59.1158C66.9064 61.3184 65.9079 63.1591 64.3211 64.699C63.9614 65.0484 63.5955 65.3943 63.2684 65.7727C63.1693 65.8872 63.114 66.1375 63.169 66.2725C63.9015 68.0729 63.2825 69.6834 61.5177 70.5115C61.4745 70.5317 61.4347 70.5587 61.368 70.597V70.597Z" stroke="#2A3D52" stroke-miterlimit="10" stroke-linecap="round" stroke-linejoin="round"/>
<path d="M51.539 74.9389L44.0732 67.4482" stroke="#2A3D52" stroke-miterlimit="10" stroke-linecap="round" stroke-linejoin="round"/>
<path d="M57.5076 74.5356L46.9448 64.4282" stroke="#2A3D52" stroke-miterlimit="10" stroke-linecap="round" stroke-linejoin="round"/>
<path d="M70.7329 50.6618L69.5961 49.5249L68.0431 49.941L67.627 51.4941L68.7639 52.6309L70.3169 52.2148L70.7329 50.6618Z" stroke="#2A3D52" stroke-miterlimit="10" stroke-linecap="round" stroke-linejoin="round"/>
<path d="M29.8441 51.9161L30.981 50.7792L30.565 49.2262L29.012 48.8101L27.875 49.947L28.2911 51.4999L29.8441 51.9161Z" stroke="#2A3D52" stroke-miterlimit="10" stroke-linecap="round" stroke-linejoin="round"/>
<path d="M39.952 69.1475L37.6924 71.4607" stroke="#2A3D52" stroke-miterlimit="10" stroke-linecap="round" stroke-linejoin="round"/>
<path d="M43.955 73.1426L41.6313 75.3025" stroke="#2A3D52" stroke-miterlimit="10" stroke-linecap="round" stroke-linejoin="round"/>
<path d="M63.1688 66.2729L53.4497 56.5537" stroke="#2A3D52" stroke-miterlimit="10" stroke-linecap="round" stroke-linejoin="round"/>
<path d="M61.3678 70.5974L51.8037 60.9365" stroke="#2A3D52" stroke-miterlimit="10" stroke-linecap="round" stroke-linejoin="round"/>
<path d="M36.6792 65.8818L39.9522 69.1477L43.9548 73.143L47.0078 76.1916" stroke="#2A3D52" stroke-miterlimit="10" stroke-linecap="round" stroke-linejoin="round"/>
<path d="M58.6147 22.6899H40.464C39.2981 22.6899 38.353 23.635 38.353 24.8008V34.2707C38.353 35.4366 39.2981 36.3817 40.464 36.3817H46.5675L49.6981 41.3982L52.8288 36.3817H58.6147C59.7806 36.3817 60.7257 35.4366 60.7257 34.2707V24.8008C60.7257 23.635 59.7806 22.6899 58.6147 22.6899V22.6899Z" stroke="#2A3D52" stroke-miterlimit="10" stroke-linecap="round" stroke-linejoin="round"/>
<path d="M45.8165 27.543C45.8165 27.2171 45.5982 27.0312 45.1809 27.0312H44.6268V28.0547H45.1809C45.5982 28.0547 45.8165 27.8689 45.8165 27.543ZM46.1425 27.543C46.1425 28.0385 45.7839 28.3383 45.1906 28.3383H44.6268V29.0293H44.3008V26.7476H45.1906C45.7839 26.7476 46.1425 27.0475 46.1425 27.543Z" fill="#2A3D52"/>
<path d="M46.6221 26.7476H46.9479V28.7457H48.1835V29.0293H46.6221V26.7476Z" fill="#2A3D52"/>
<path d="M49.9084 28.1985L49.4161 27.0804L48.924 28.1985H49.9084ZM50.0225 28.4593H48.8099L48.5589 29.0296H48.2231L49.2564 26.748H49.5791L50.6157 29.0296H50.2735L50.0225 28.4593V28.4593Z" fill="#2A3D52"/>
<path d="M51.2941 27.0312H50.5117V26.7476H52.3991V27.0312H51.6168V29.0293H51.2941V27.0312Z" fill="#2A3D52"/>
<path d="M54.6354 27.8886C54.6354 27.3833 54.2572 27.0117 53.752 27.0117C53.2403 27.0117 52.862 27.3833 52.862 27.8886C52.862 28.3938 53.2403 28.7655 53.752 28.7655C54.2572 28.7655 54.6354 28.3938 54.6354 27.8886ZM52.5361 27.8886C52.5361 27.2203 53.0511 26.7217 53.752 26.7217C54.4462 26.7217 54.9612 27.2171 54.9612 27.8886C54.9612 28.5601 54.4462 29.0554 53.752 29.0554C53.0511 29.0554 52.5361 28.5568 52.5361 27.8886V27.8886Z" fill="#2A3D52"/>
<path d="M42.361 31.4556C42.361 31.1297 42.1426 30.9438 41.7253 30.9438H41.1711V31.9673H41.7253C42.1426 31.9673 42.361 31.7815 42.361 31.4556ZM42.6869 31.4556C42.6869 31.9509 42.3283 32.2509 41.7351 32.2509H41.1711V32.942H40.8452V30.6602H41.7351C42.3283 30.6602 42.6869 30.9601 42.6869 31.4556V31.4556Z" fill="#2A3D52"/>
<path d="M44.3923 32.1106L43.9 30.9925L43.4079 32.1106H44.3923ZM44.5064 32.3714H43.2938L43.0428 32.9419H42.707L43.7403 30.6602H44.0631L45.0995 32.9419H44.7574L44.5064 32.3714V32.3714Z" fill="#2A3D52"/>
<path d="M46.9547 31.4556C46.9547 31.1297 46.7364 30.9438 46.3191 30.9438H45.765V31.9707H46.3191C46.7364 31.9707 46.9547 31.7815 46.9547 31.4556ZM46.9646 32.942L46.4723 32.2412C46.4266 32.2444 46.3778 32.2477 46.3288 32.2477H45.765V32.942H45.439V30.6602H46.3288C46.9222 30.6602 47.2807 30.9601 47.2807 31.4556C47.2807 31.8076 47.0981 32.0619 46.7788 32.1759L47.3199 32.942H46.9646V32.942Z" fill="#2A3D52"/>
<path d="M48.2296 30.9438H47.4473V30.6602H49.3346V30.9438H48.5524V32.942H48.2296V30.9438Z" fill="#2A3D52"/>
<path d="M51.6523 30.6602V32.9419H51.3851L50.0159 31.2404V32.9419H49.6899V30.6602H49.9572L51.3265 32.3617V30.6602H51.6523Z" fill="#2A3D52"/>
<path d="M53.9933 32.6583V32.9419H52.3374V30.6602H53.9478V30.9437H52.6634V31.6445H53.8077V31.9217H52.6634V32.6583H53.9933Z" fill="#2A3D52"/>
<path d="M56.0372 31.4556C56.0372 31.1297 55.819 30.9438 55.4017 30.9438H54.8475V31.9707H55.4017C55.819 31.9707 56.0372 31.7815 56.0372 31.4556ZM56.0471 32.942L55.555 32.2412C55.5091 32.2444 55.4604 32.2477 55.4114 32.2477H54.8475V32.942H54.5215V30.6602H55.4114C56.0048 30.6602 56.3633 30.9601 56.3633 31.4556C56.3633 31.8076 56.1807 32.0619 55.8614 32.1759L56.4024 32.942H56.0471V32.942Z" fill="#2A3D52"/>
<path d="M56.6831 32.6809L56.8039 32.4266C56.9733 32.5798 57.2635 32.6907 57.5569 32.6907C57.9512 32.6907 58.1207 32.5374 58.1207 32.3387C58.1207 31.7812 56.7385 32.1333 56.7385 31.2857C56.7385 30.9337 57.0125 30.6338 57.6122 30.6338C57.8794 30.6338 58.1565 30.7055 58.3456 30.8359L58.2381 31.0967C58.0392 30.9696 57.8143 30.9108 57.6122 30.9108C57.2242 30.9108 57.058 31.0739 57.058 31.2727C57.058 31.83 58.4402 31.4813 58.4402 32.3191C58.4402 32.6678 58.1597 32.9677 57.5569 32.9677C57.208 32.9677 56.8657 32.8503 56.6831 32.6809V32.6809Z" fill="#2A3D52"/>
<path d="M70.481 59.4648L77.1571 52.4492" stroke="#2A3D52" stroke-miterlimit="10" stroke-linecap="round" stroke-linejoin="round"/>
<path d="M22.8428 52.4492L28.5005 58.0165" stroke="#2A3D52" stroke-miterlimit="10" stroke-linecap="round" stroke-linejoin="round"/>
</g>
<defs>
<clipPath id="clip0_420_2776">
<rect width="100" height="100" fill="white"/>
</clipPath>
</defs>
</svg>
