<svg width="100" height="100" viewBox="0 0 100 100" fill="none" xmlns="http://www.w3.org/2000/svg">
<path fill-rule="evenodd" clip-rule="evenodd" d="M49.7001 5.29988C49.7001 5.13426 49.8344 5 50 5C74.8529 5 95 25.1471 95 50C95 74.8529 74.8529 95 50 95C25.1471 95 5 74.8529 5 50C5 49.8344 5.13426 49.7001 5.29988 49.7001C5.4655 49.7001 5.59976 49.8344 5.59976 50C5.59976 74.5217 25.4783 94.4002 50 94.4002C74.5217 94.4002 94.4002 74.5217 94.4002 50C94.4002 25.4783 74.5217 5.59976 50 5.59976C49.8344 5.59976 49.7001 5.4655 49.7001 5.29988Z" fill="#2A3D52" stroke="#2A3D52" stroke-width="0.3" stroke-linecap="round" stroke-linejoin="round"/>
<path fill-rule="evenodd" clip-rule="evenodd" d="M90.6441 52.7728C90.8093 52.7851 90.9332 52.929 90.9209 53.0942C89.3379 74.3143 71.6212 91.0367 50.0001 91.0367C49.8345 91.0367 49.7002 90.9024 49.7002 90.7368C49.7002 90.5712 49.8345 90.4369 50.0001 90.4369C71.3049 90.4369 88.763 73.959 90.3228 53.0496C90.3351 52.8844 90.479 52.7605 90.6441 52.7728Z" fill="#2A3D52" stroke="#2A3D52" stroke-width="0.3" stroke-linecap="round" stroke-linejoin="round"/>
<path fill-rule="evenodd" clip-rule="evenodd" d="M49.9998 9.55948C28.6949 9.55948 11.2369 26.041 9.67707 46.9468C9.66475 47.112 9.52087 47.2359 9.35571 47.2236C9.19055 47.2113 9.06665 47.0674 9.07897 46.9022C10.6619 25.6857 28.3786 8.95972 49.9998 8.95972C50.1654 8.95972 50.2997 9.09398 50.2997 9.2596C50.2997 9.42522 50.1654 9.55948 49.9998 9.55948Z" fill="#2A3D52" stroke="#2A3D52" stroke-width="0.3" stroke-linecap="round" stroke-linejoin="round"/>
<path fill-rule="evenodd" clip-rule="evenodd" d="M9.1132 46.5988C9.20597 46.5452 9.32027 46.5452 9.41305 46.5988L10.9964 47.5128C11.0892 47.5664 11.1464 47.6654 11.1464 47.7725V49.6006C11.1464 49.7077 11.0892 49.8067 10.9964 49.8603L9.41305 50.7743C9.32027 50.8279 9.20597 50.8279 9.1132 50.7743L7.52984 49.8603C7.43705 49.8067 7.37988 49.7077 7.37988 49.6006V47.7725C7.37988 47.6654 7.43705 47.5664 7.52984 47.5128L9.1132 46.5988ZM9.26312 47.2047L7.97964 47.9457V49.4274L9.26312 50.1684L10.5466 49.4274V47.9457L9.26312 47.2047Z" fill="#2A3D52" stroke="#2A3D52" stroke-width="0.3" stroke-linecap="round" stroke-linejoin="round"/>
<path fill-rule="evenodd" clip-rule="evenodd" d="M90.587 49.2735C90.6797 49.22 90.794 49.22 90.8868 49.2735L92.4498 50.1756C92.5426 50.2292 92.5997 50.3282 92.5997 50.4353V52.2394C92.5997 52.3466 92.5426 52.4456 92.4498 52.4991L90.8868 53.4012C90.794 53.4547 90.6797 53.4547 90.587 53.4012L89.024 52.4991C88.9312 52.4456 88.874 52.3466 88.874 52.2394V50.4353C88.874 50.3282 88.9312 50.2292 89.024 50.1756L90.587 49.2735ZM89.4738 50.6085V52.0662L90.7369 52.7952L92 52.0662V50.6085L90.7369 49.8795L89.4738 50.6085Z" fill="#2A3D52" stroke="#2A3D52" stroke-width="0.3" stroke-linecap="round" stroke-linejoin="round"/>
<path fill-rule="evenodd" clip-rule="evenodd" d="M26.1895 59.6082C26.1895 59.4426 26.3237 59.3083 26.4893 59.3083H31.6269C31.7925 59.3083 31.9268 59.4426 31.9268 59.6082V76.621C31.9268 76.7866 31.7925 76.9209 31.6269 76.9209H26.4893C26.3237 76.9209 26.1895 76.7866 26.1895 76.621V59.6082ZM26.7892 59.9081V76.3211H31.327V59.9081H26.7892Z" fill="#2A3D52" stroke="#2A3D52" stroke-width="0.3" stroke-linecap="round" stroke-linejoin="round"/>
<path fill-rule="evenodd" clip-rule="evenodd" d="M31.6674 62.6115C31.6673 62.6115 31.6673 62.6115 31.6541 62.5137L31.6674 62.6115C31.5032 62.6337 31.3521 62.5187 31.3299 62.3546C31.3077 62.1905 31.4227 62.0394 31.5868 62.0172L31.6271 62.3143C31.5868 62.0172 31.5868 62.0172 31.5869 62.0172L31.5919 62.0165L31.606 62.0146C31.6185 62.013 31.6368 62.0105 31.6608 62.0074C31.7087 62.0013 31.7791 61.9923 31.8694 61.9813C32.05 61.9592 32.3105 61.9286 32.631 61.8947C33.2716 61.8268 34.1529 61.7454 35.1152 61.6911C36.0767 61.6368 37.1231 61.6093 38.0929 61.6504C39.057 61.6912 39.9683 61.8004 40.6476 62.0303C40.794 62.0798 40.9532 62.1341 41.1242 62.1924C43.6284 63.0464 48.6574 64.7615 53.0563 65.0583C54.1344 65.1312 55.0009 65.97 55.0009 67.0129C55.0009 68.1186 54.0323 68.9729 52.8922 68.9729H44.8554C44.6898 68.9729 44.5555 68.8386 44.5555 68.673C44.5555 68.5074 44.6898 68.3731 44.8554 68.3731H52.8922C53.7504 68.3731 54.4011 67.74 54.4011 67.0129C54.4011 66.3236 53.8186 65.711 53.0159 65.6567C48.5333 65.3543 43.4333 63.6141 40.9366 62.7622C40.7633 62.703 40.6025 62.6482 40.4554 62.5984M31.6674 62.6115L31.6675 62.6115ZM31.6675 62.6115L31.6683 62.6114ZM31.6683 62.6114L31.6715 62.6109ZM31.6715 62.6109L31.6848 62.6092ZM31.6848 62.6092C31.6966 62.6076 31.7144 62.6053 31.7377 62.6023ZM31.7377 62.6023C31.7844 62.5962 31.8534 62.5875 31.9423 62.5766ZM31.9423 62.5766C32.1201 62.5548 32.3773 62.5246 32.6941 62.4911ZM32.6941 62.4911C33.328 62.424 34.1992 62.3435 35.149 62.2899ZM35.149 62.2899C36.0995 62.2362 37.1246 62.2097 38.0675 62.2496ZM38.0675 62.2496C39.016 62.2897 39.8584 62.3964 40.4554 62.5984Z" fill="#2A3D52"/>
<path d="M31.6674 62.6115C31.6673 62.6115 31.6673 62.6115 31.6541 62.5137L31.6674 62.6115ZM31.6674 62.6115C31.5032 62.6337 31.3521 62.5187 31.3299 62.3546C31.3077 62.1905 31.4227 62.0394 31.5868 62.0172L31.6271 62.3143C31.5868 62.0172 31.5868 62.0172 31.5869 62.0172L31.5919 62.0165L31.606 62.0146C31.6185 62.013 31.6368 62.0105 31.6608 62.0074C31.7087 62.0013 31.7791 61.9923 31.8694 61.9813C32.05 61.9592 32.3105 61.9286 32.631 61.8947C33.2716 61.8268 34.1529 61.7454 35.1152 61.6911C36.0767 61.6368 37.1231 61.6093 38.0929 61.6504C39.057 61.6912 39.9683 61.8004 40.6476 62.0303C40.794 62.0798 40.9532 62.1341 41.1242 62.1924C43.6284 63.0464 48.6574 64.7615 53.0563 65.0583C54.1344 65.1312 55.0009 65.97 55.0009 67.0129C55.0009 68.1186 54.0323 68.9729 52.8922 68.9729H44.8554C44.6898 68.9729 44.5555 68.8386 44.5555 68.673C44.5555 68.5074 44.6898 68.3731 44.8554 68.3731H52.8922C53.7504 68.3731 54.4011 67.74 54.4011 67.0129C54.4011 66.3236 53.8186 65.711 53.0159 65.6567C48.5333 65.3543 43.4333 63.6141 40.9366 62.7622C40.7633 62.703 40.6025 62.6482 40.4554 62.5984M31.6674 62.6115L40.4554 62.5984M31.6674 62.6115L31.6675 62.6115L31.6683 62.6114L31.6715 62.6109L31.6848 62.6092M40.4554 62.5984C39.8584 62.3964 39.016 62.2897 38.0675 62.2496M40.4554 62.5984L38.0675 62.2496M31.6848 62.6092C31.6966 62.6076 31.7144 62.6053 31.7377 62.6023M31.6848 62.6092L31.7377 62.6023M31.7377 62.6023C31.7844 62.5962 31.8534 62.5875 31.9423 62.5766M31.7377 62.6023L31.9423 62.5766M31.9423 62.5766C32.1201 62.5548 32.3773 62.5246 32.6941 62.4911M31.9423 62.5766L32.6941 62.4911M32.6941 62.4911C33.328 62.424 34.1992 62.3435 35.149 62.2899M32.6941 62.4911L35.149 62.2899M35.149 62.2899C36.0995 62.2362 37.1246 62.2097 38.0675 62.2496M35.149 62.2899L38.0675 62.2496" stroke="#2A3D52" stroke-width="0.3" stroke-linecap="round" stroke-linejoin="round"/>
<path fill-rule="evenodd" clip-rule="evenodd" d="M69.2344 59.4347C69.9009 59.41 70.5601 59.5797 71.1318 59.9232C71.1333 59.9241 71.1348 59.925 71.1363 59.9259L71.1552 59.9377C71.1553 59.9378 71.1554 59.9379 71.1555 59.9379M70.8207 60.4359C70.3493 60.1533 69.8059 60.0137 69.2566 60.0341C68.7077 60.0545 68.1765 60.2338 67.7275 60.5502C66.3322 61.5881 64.1764 63.0884 61.8288 64.3403C59.4886 65.5882 56.918 66.6113 54.7063 66.6504C54.5408 66.6533 54.4041 66.5215 54.4012 66.3559C54.3983 66.1903 54.5302 66.0537 54.6957 66.0507C56.7592 66.0143 59.2248 65.0492 61.5465 63.8111C63.8591 62.5779 65.9896 61.0956 67.3725 60.0668C67.3745 60.0653 67.3764 60.0639 67.3784 60.0625C67.9231 59.6776 68.5679 59.4595 69.2344 59.4347M70.8207 60.4359C70.8214 60.4364 70.8222 60.4368 70.8229 60.4373ZM70.8229 60.4373L70.8376 60.4466ZM71.7792 61.8613C71.7321 61.3385 71.4251 60.8127 70.8379 60.4467L70.8376 60.4466M71.7792 61.8613C71.8262 62.3827 71.6181 62.9336 71.1092 63.3623ZM71.1092 63.3623L71.109 63.3625ZM57.1362 74.2085C55.5428 75.0507 54.0793 75.6294 52.9351 75.7203C50.0749 75.9477 44.7197 75.3529 40.1118 74.7092C37.8008 74.3864 35.6668 74.0497 34.1106 73.7936C33.3324 73.6655 32.6986 73.5577 32.2592 73.4818C32.0395 73.4438 31.8684 73.4139 31.7521 73.3934C31.694 73.3832 31.6496 73.3753 31.6196 73.37L31.5744 73.3619C31.5743 73.3619 31.5742 73.3619 31.6271 73.0667C31.68 72.7715 31.68 72.7715 31.6801 72.7715L31.6806 72.7716L31.7246 72.7795C31.7542 72.7847 31.7983 72.7925 31.8561 72.8027C31.9718 72.8231 32.1422 72.8529 32.3612 72.8908C32.7993 72.9664 33.4315 73.074 34.208 73.2018C35.7609 73.4573 37.89 73.7933 40.1948 74.1153C44.8184 74.7611 50.1053 75.3436 52.8876 75.1224C53.9026 75.0418 55.2748 74.5139 56.856 73.6783C58.4281 72.8474 60.1737 71.7305 61.9261 70.5058C65.4304 68.0568 68.9406 65.1919 71.109 63.3625M57.1362 74.2085C58.7388 73.3616 60.5069 72.2293 62.2697 70.9974ZM62.2697 70.9974C65.7957 68.5332 69.3218 65.6549 71.4956 63.821ZM31.3319 73.0138C31.3611 72.8508 31.517 72.7423 31.68 72.7715L31.6271 73.0667L31.5742 73.3619C31.4112 73.3326 31.3027 73.1768 31.3319 73.0138Z" fill="#2A3D52"/>
<path d="M69.2344 59.4347C69.9009 59.41 70.5601 59.5797 71.1318 59.9232C71.1333 59.9241 71.1348 59.925 71.1363 59.9259L71.1552 59.9377C71.1553 59.9378 71.1554 59.9379 71.1555 59.9379L69.2344 59.4347ZM69.2344 59.4347C68.5679 59.4595 67.9231 59.6776 67.3784 60.0625C67.3764 60.0639 67.3745 60.0653 67.3725 60.0668C65.9896 61.0956 63.8591 62.5779 61.5465 63.8111C59.2248 65.0492 56.7592 66.0143 54.6957 66.0507C54.5302 66.0537 54.3983 66.1903 54.4012 66.3559C54.4041 66.5215 54.5408 66.6533 54.7063 66.6504C56.918 66.6113 59.4886 65.5882 61.8288 64.3403C64.1764 63.0884 66.3322 61.5881 67.7275 60.5502C68.1765 60.2338 68.7077 60.0545 69.2566 60.0341C69.8059 60.0137 70.3493 60.1533 70.8207 60.4359M69.2344 59.4347L70.8207 60.4359M70.8207 60.4359C70.8214 60.4364 70.8222 60.4368 70.8229 60.4373M70.8207 60.4359L70.8229 60.4373M70.8229 60.4373L70.8376 60.4466M70.8376 60.4466L70.8379 60.4467C71.4251 60.8127 71.7321 61.3385 71.7792 61.8613M70.8376 60.4466L71.7792 61.8613M71.7792 61.8613C71.8262 62.3827 71.6181 62.9336 71.1092 63.3623M71.7792 61.8613L71.1092 63.3623M71.1092 63.3623L71.109 63.3625M71.109 63.3625C68.9406 65.1919 65.4304 68.0568 61.9261 70.5058C60.1737 71.7305 58.4281 72.8474 56.856 73.6783C55.2748 74.5139 53.9026 75.0418 52.8876 75.1224C50.1053 75.3436 44.8184 74.7611 40.1948 74.1153C37.89 73.7933 35.7609 73.4573 34.208 73.2018C33.4315 73.074 32.7993 72.9664 32.3612 72.8908C32.1422 72.8529 31.9718 72.8231 31.8561 72.8027C31.7983 72.7925 31.7542 72.7847 31.7246 72.7795L31.6806 72.7716L31.6801 72.7715C31.68 72.7715 31.68 72.7715 31.6271 73.0667M71.109 63.3625L57.1362 74.2085M57.1362 74.2085C55.5428 75.0507 54.0793 75.6294 52.9351 75.7203C50.0749 75.9477 44.7197 75.3529 40.1118 74.7092C37.8008 74.3864 35.6668 74.0497 34.1106 73.7936C33.3324 73.6655 32.6986 73.5577 32.2592 73.4818C32.0395 73.4438 31.8684 73.4139 31.7521 73.3934C31.694 73.3832 31.6496 73.3753 31.6196 73.37L31.5744 73.3619C31.5743 73.3619 31.5742 73.3619 31.6271 73.0667M57.1362 74.2085C58.7388 73.3616 60.5069 72.2293 62.2697 70.9974M57.1362 74.2085L62.2697 70.9974M31.6271 73.0667L31.68 72.7715C31.517 72.7423 31.3611 72.8508 31.3319 73.0138C31.3027 73.1768 31.4112 73.3326 31.5742 73.3619L31.6271 73.0667ZM62.2697 70.9974C65.7957 68.5332 69.3218 65.6549 71.4956 63.821L62.2697 70.9974Z" stroke="#2A3D52" stroke-width="0.3" stroke-linecap="round" stroke-linejoin="round"/>
<path fill-rule="evenodd" clip-rule="evenodd" d="M29.0587 59.3083C29.2243 59.3083 29.3585 59.4426 29.3585 59.6082V76.621C29.3585 76.7866 29.2243 76.9209 29.0587 76.9209C28.893 76.9209 28.7588 76.7866 28.7588 76.621V59.6082C28.7588 59.4426 28.893 59.3083 29.0587 59.3083Z" fill="#2A3D52" stroke="#2A3D52" stroke-width="0.3" stroke-linecap="round" stroke-linejoin="round"/>
<path fill-rule="evenodd" clip-rule="evenodd" d="M73.7412 64.5876C73.8471 64.7149 73.8298 64.904 73.7025 65.0099L63.2271 73.7268C63.0997 73.8327 62.9107 73.8154 62.8047 73.6881C62.6988 73.5608 62.7161 73.3717 62.8434 73.2658L73.3188 64.5489C73.4462 64.4429 73.6352 64.4603 73.7412 64.5876Z" fill="#2A3D52" stroke="#2A3D52" stroke-width="0.3" stroke-linecap="round" stroke-linejoin="round"/>
<path fill-rule="evenodd" clip-rule="evenodd" d="M51.508 38.8322C50.7388 38.6738 49.9447 38.6819 49.179 38.8562L49.177 38.8567C47.992 39.1181 46.8874 39.6615 45.9571 40.4407L45.9567 40.441C45.4357 40.8759 44.9657 41.3684 44.5557 41.9093L44.5544 41.911C43.7754 42.9238 43.2697 44.0529 43.136 45.3088C43.1275 45.3907 43.1209 45.4712 43.1152 45.555C43.2266 45.7507 43.3277 45.9521 43.4181 46.1583C43.4181 46.1585 43.4182 46.1586 43.4183 46.1588L43.4407 46.2095L43.4418 46.212C43.7866 47.0117 43.981 47.8681 44.0154 48.7383L44.0155 48.7424C44.0665 50.7095 44.0583 52.6784 44.0501 54.6421C44.0495 54.7782 44.049 54.9142 44.0484 55.0502C44.6799 55.8725 45.5514 56.3809 46.7031 56.5316L46.7035 56.5316C47.1039 56.5846 47.5054 56.5784 47.9313 56.5719C48.0725 56.5697 48.2164 56.5675 48.3639 56.5674C48.5456 56.5554 48.7272 56.5929 48.8893 56.6761C49.0537 56.7604 49.1917 56.8882 49.2882 57.0457C49.4484 57.2908 49.6908 57.471 49.9719 57.5536C49.974 57.5542 49.9761 57.5549 49.9782 57.5555C50.4633 57.7098 50.9811 57.535 51.3234 57.0374C51.4186 56.8838 51.5541 56.7592 51.7152 56.677C51.8764 56.5947 52.057 56.5582 52.2374 56.5713C52.393 56.5757 52.5462 56.5742 52.7037 56.5727C52.7862 56.5718 52.8698 56.571 52.9557 56.571H53.4091L53.4123 56.571C54.0865 56.5783 54.7517 56.4151 55.3459 56.0966C55.9401 55.778 56.4442 55.3144 56.8113 54.7488L56.8115 54.7484C57.0196 54.429 57.1835 54.0828 57.2987 53.7194C57.3757 53.4753 57.4327 53.2254 57.4689 52.972C57.4923 52.808 57.6442 52.6941 57.8082 52.7176C57.9721 52.741 58.086 52.8929 58.0626 53.0569C58.0217 53.3427 57.9575 53.6247 57.8706 53.9L57.8705 53.9003C57.739 54.3153 57.5519 54.7106 57.3144 55.0753C56.8923 55.7257 56.3126 56.2588 55.6293 56.6251C54.9465 56.9912 54.1823 57.1789 53.4076 57.1708H52.9557C52.8824 57.1708 52.8052 57.1715 52.7258 57.1723C52.5588 57.1739 52.3821 57.1756 52.2127 57.1706C52.2076 57.1705 52.2024 57.1702 52.1972 57.1698C52.1249 57.1639 52.0524 57.1782 51.9878 57.2112C51.9232 57.2442 51.869 57.2945 51.8313 57.3565C51.8286 57.361 51.8257 57.3654 51.8228 57.3697C51.3476 58.0664 50.5639 58.3696 49.7996 58.1281C49.3811 58.0042 49.0205 57.735 48.7829 57.3688C48.7812 57.3662 48.7795 57.3636 48.7779 57.3609C48.7389 57.2965 48.6827 57.2442 48.6157 57.2098C48.5486 57.1754 48.4733 57.1603 48.3982 57.1663C48.3904 57.1669 48.3825 57.1672 48.3747 57.1672C48.2447 57.1672 48.1107 57.1693 47.974 57.1714C47.5373 57.1782 47.0732 57.1855 46.6249 57.1262C45.2817 56.9504 44.2426 56.3323 43.5062 55.3268C43.4683 55.275 43.448 55.2125 43.4483 55.1484C43.4489 54.9793 43.4496 54.8101 43.4503 54.6411C43.4585 52.6763 43.4667 50.717 43.416 48.76C43.3844 47.9645 43.2066 47.1817 42.8915 46.4507C42.8914 46.4503 42.8912 46.4498 42.891 46.4494L42.8689 46.3995C42.7756 46.1864 42.6696 45.9791 42.5517 45.7787C42.5215 45.7273 42.5072 45.6681 42.5108 45.6086C42.5182 45.486 42.5269 45.3687 42.5394 45.2468L42.5395 45.2458C42.6866 43.8633 43.2433 42.6322 44.0784 41.5462C44.5155 40.9696 45.0166 40.4444 45.5722 39.9807C46.5762 39.1399 47.768 38.5535 49.0468 38.2712C49.896 38.0781 50.7767 38.0691 51.6296 38.2449L51.569 38.5386L51.6306 38.2451C52.1572 38.3557 52.669 38.5276 53.1555 38.7574C53.8633 39.0827 54.5301 39.4907 55.142 39.9728L55.1431 39.9736C56.5267 41.0739 57.528 42.5827 58.0042 44.2851L58.0045 44.2865C58.1804 44.9269 58.2592 45.5901 58.2384 46.2539V47.0552C58.2384 47.0614 58.2382 47.0675 58.2378 47.0736C58.2357 47.1075 58.2408 47.1415 58.2528 47.1733C58.2648 47.2051 58.2833 47.234 58.3072 47.2581C58.3312 47.2823 58.3599 47.3011 58.3916 47.3133C58.4233 47.3255 58.4573 47.3309 58.4912 47.3291C58.4999 47.3287 58.5086 47.3286 58.5173 47.3289C58.7574 47.3371 58.995 47.3809 59.2222 47.4589L59.2234 47.4593C59.3851 47.5156 59.5402 47.5895 59.6857 47.6797C59.9253 47.8192 60.1066 48.0403 60.1966 48.3026C60.2503 48.4593 60.1668 48.6299 60.0101 48.6836C59.8535 48.7373 59.6829 48.6538 59.6292 48.4971C59.5858 48.3703 59.4978 48.2636 59.3817 48.1967C59.3788 48.195 59.3759 48.1933 59.373 48.1915C59.2641 48.1237 59.1479 48.0682 59.0268 48.026C58.8594 47.9686 58.6847 47.9358 58.508 47.9287C58.3946 47.9327 58.2816 47.9137 58.1757 47.8728C58.0651 47.8302 57.9648 47.7646 57.8814 47.6804C57.7979 47.5963 57.7332 47.4955 57.6915 47.3845C57.6509 47.2768 57.6329 47.1619 57.6386 47.047V46.2491C57.6386 46.2459 57.6387 46.2427 57.6388 46.2395C57.6582 45.6344 57.5866 45.0299 57.4264 44.4461C56.9842 42.8657 56.0547 41.465 54.7703 40.4435C54.1954 39.9906 53.5688 39.6073 52.9036 39.3017L52.9007 39.3004C52.4564 39.0904 51.9889 38.9332 51.508 38.8322Z" fill="#2A3D52" stroke="#2A3D52" stroke-width="0.3" stroke-linecap="round" stroke-linejoin="round"/>
<path fill-rule="evenodd" clip-rule="evenodd" d="M51.918 47.1478C52.1793 46.9035 52.5334 46.7842 52.9305 46.7842H55.2976C55.7137 46.7849 56.0796 46.9149 56.3418 47.1784C56.6038 47.4416 56.7305 47.806 56.7305 48.214C56.7305 48.4435 56.7309 48.673 56.7313 48.9029C56.7321 49.3642 56.7329 49.827 56.7305 50.2943C56.7284 50.7041 56.6027 51.0666 56.3403 51.3269C56.0781 51.5871 55.7142 51.7106 55.3031 51.7106H52.9157C52.5118 51.7085 52.1524 51.5832 51.8922 51.3259C51.6317 51.0682 51.5025 50.7097 51.4982 50.3031L51.4982 50.302C51.4934 49.6029 51.4934 48.9029 51.4982 48.2022V48.1408C51.4982 48.1363 51.4983 48.1317 51.4985 48.1271C51.5165 47.7359 51.6559 47.3927 51.918 47.1478ZM52.098 48.1481V48.2032L52.098 48.2053C52.0932 48.9034 52.0932 49.6008 52.098 50.2974C52.101 50.5802 52.1883 50.7751 52.314 50.8994C52.4399 51.024 52.6363 51.1092 52.9181 51.1108H55.3031C55.5949 51.1108 55.793 51.0251 55.9179 50.9011C56.0427 50.7773 56.1293 50.5808 56.1308 50.2912C56.1332 49.8259 56.1324 49.3668 56.1316 48.9068C56.1312 48.6764 56.1308 48.4457 56.1308 48.214C56.1308 47.9299 56.0446 47.7299 55.9167 47.6015C55.7892 47.4733 55.5883 47.3845 55.2968 47.3839H52.9305C52.6533 47.3839 52.4563 47.4655 52.3275 47.5859C52.2004 47.7047 52.1112 47.8879 52.098 48.1481Z" fill="#2A3D52" stroke="#2A3D52" stroke-width="0.3" stroke-linecap="round" stroke-linejoin="round"/>
<path fill-rule="evenodd" clip-rule="evenodd" d="M44.606 47.1849C44.8673 46.9406 45.2214 46.8213 45.6185 46.8213H47.9856C48.4017 46.822 48.7676 46.9521 49.0298 47.2155C49.2918 47.4787 49.4185 47.8431 49.4185 48.2511C49.4185 48.4806 49.4189 48.7101 49.4193 48.9401C49.4201 49.4013 49.4209 49.8641 49.4185 50.3314C49.4164 50.7412 49.2906 51.1037 49.0283 51.364C48.7661 51.6242 48.4022 51.7477 47.9911 51.7477H45.6037C45.1997 51.7456 44.8404 51.6204 44.5802 51.363C44.3197 51.1053 44.1905 50.7468 44.1862 50.3402L44.1862 50.3391C44.1814 49.64 44.1814 48.94 44.1862 48.2393V48.1779C44.1862 48.1734 44.1863 48.1688 44.1865 48.1642C44.2044 47.773 44.3439 47.4298 44.606 47.1849ZM44.786 48.1852V48.2403L44.786 48.2424C44.7812 48.9405 44.7812 49.6379 44.786 50.3345C44.789 50.6173 44.8763 50.8122 45.002 50.9366C45.1279 51.0611 45.3243 51.1463 45.6061 51.148H47.9911C48.2829 51.148 48.481 51.0622 48.6059 50.9382C48.7307 50.8144 48.8173 50.6179 48.8188 50.3283C48.8212 49.863 48.8204 49.4039 48.8196 48.9439C48.8192 48.7135 48.8188 48.4829 48.8188 48.2511C48.8188 47.967 48.7326 47.767 48.6047 47.6386C48.4771 47.5104 48.2763 47.4216 47.9848 47.421H45.6185C45.3413 47.421 45.1443 47.5027 45.0155 47.623C44.8884 47.7418 44.7992 47.925 44.786 48.1852Z" fill="#2A3D52" stroke="#2A3D52" stroke-width="0.3" stroke-linecap="round" stroke-linejoin="round"/>
<path fill-rule="evenodd" clip-rule="evenodd" d="M49.3634 48.3601C49.3634 48.3602 49.3634 48.3602 49.3634 48.3601ZM49.3635 48.36C49.2421 48.4719 49.053 48.4647 48.9406 48.3437C48.8278 48.2224 48.8348 48.0326 48.9561 47.9199L49.1575 48.1367C48.9561 47.9199 48.9562 47.9198 48.9563 47.9197L48.9566 47.9194L48.9573 47.9188L48.9589 47.9173L48.9635 47.9132C48.9672 47.9099 48.9721 47.9055 48.9781 47.9003C48.9903 47.8898 49.0072 47.8755 49.0286 47.8585C49.0714 47.8244 49.1325 47.7787 49.21 47.7284C49.3642 47.6284 49.5876 47.5074 49.8634 47.4263C50.4281 47.2603 51.192 47.2695 51.9866 47.9054C52.1159 48.0089 52.1368 48.1976 52.0333 48.3269C51.9298 48.4562 51.7411 48.4772 51.6118 48.3737C50.9885 47.8748 50.433 47.884 50.0326 48.0017C49.826 48.0625 49.6555 48.1543 49.5364 48.2315C49.4773 48.2699 49.4319 48.304 49.4023 48.3275C49.3876 48.3393 49.3769 48.3483 49.3705 48.3539C49.3672 48.3567 49.3651 48.3586 49.3641 48.3595C49.3638 48.3598 49.3636 48.3599 49.3635 48.36C49.3635 48.36 49.3635 48.36 49.3635 48.36Z" fill="#2A3D52" stroke="#2A3D52" stroke-width="0.3" stroke-linecap="round" stroke-linejoin="round"/>
<path fill-rule="evenodd" clip-rule="evenodd" d="M45.6495 40.5106C44.6722 40.5107 43.7234 40.8393 42.9554 41.4436C42.1875 42.0479 41.645 42.8929 41.4151 43.8427C41.3762 44.0036 41.2141 44.1026 41.0532 44.0636C40.8922 44.0247 40.7933 43.8626 40.8322 43.7016C41.0937 42.621 41.7109 41.6598 42.5845 40.9722C43.4582 40.2847 44.5377 39.9109 45.6495 39.9109H45.761C45.9266 39.9109 46.0609 40.0451 46.0609 40.2108C46.0609 40.3764 45.9266 40.5106 45.761 40.5106H45.6495C45.6495 40.5106 45.6495 40.5106 45.6495 40.5106Z" fill="#2A3D52"/>
<path d="M45.6495 40.5106C44.6722 40.5107 43.7234 40.8393 42.9554 41.4436C42.1875 42.0479 41.645 42.8929 41.4151 43.8427C41.3762 44.0036 41.2141 44.1026 41.0532 44.0636C40.8922 44.0247 40.7933 43.8626 40.8322 43.7016C41.0937 42.621 41.7109 41.6598 42.5845 40.9722C43.4582 40.2847 44.5377 39.9109 45.6495 39.9109H45.761C45.9266 39.9109 46.0609 40.0451 46.0609 40.2108C46.0609 40.3764 45.9266 40.5106 45.761 40.5106H45.6495ZM45.6495 40.5106C45.6495 40.5106 45.6495 40.5106 45.6495 40.5106Z" stroke="#2A3D52" stroke-width="0.3" stroke-linecap="round" stroke-linejoin="round"/>
<path fill-rule="evenodd" clip-rule="evenodd" d="M54.6577 40.2108C54.6577 40.0451 54.792 39.9109 54.9576 39.9109H54.9672C54.9672 39.9109 54.9672 39.9109 54.9672 39.9109C55.8862 39.9109 56.7871 40.1662 57.5693 40.6484C58.3516 41.1307 58.9845 41.8208 59.3974 42.6418C59.8103 43.4628 59.9869 44.3823 59.9076 45.2979C59.8282 46.2134 59.496 47.0889 58.948 47.8266C58.8493 47.9596 58.6614 47.9873 58.5285 47.8885C58.3955 47.7898 58.3678 47.6019 58.4666 47.469C58.9483 46.8205 59.2403 46.0509 59.31 45.2461C59.3798 44.4413 59.2245 43.6329 58.8616 42.9112C58.4986 42.1895 57.9423 41.5829 57.2546 41.159C56.567 40.7351 55.775 40.5106 54.9672 40.5106H54.9576C54.792 40.5106 54.6577 40.3764 54.6577 40.2108Z" fill="#2A3D52"/>
<path d="M54.9672 39.9109H54.9576C54.792 39.9109 54.6577 40.0451 54.6577 40.2108C54.6577 40.3764 54.792 40.5106 54.9576 40.5106H54.9672C55.775 40.5106 56.567 40.7351 57.2546 41.159C57.9423 41.5829 58.4986 42.1895 58.8616 42.9112C59.2245 43.6329 59.3798 44.4413 59.31 45.2461C59.2403 46.0509 58.9483 46.8205 58.4666 47.469C58.3678 47.6019 58.3955 47.7898 58.5285 47.8885C58.6614 47.9873 58.8493 47.9596 58.948 47.8266C59.496 47.0889 59.8282 46.2134 59.9076 45.2979C59.9869 44.3823 59.8103 43.4628 59.3974 42.6418C58.9845 41.8208 58.3516 41.1307 57.5693 40.6484C56.7871 40.1662 55.8862 39.9109 54.9672 39.9109ZM54.9672 39.9109C54.9672 39.9109 54.9672 39.9109 54.9672 39.9109Z" stroke="#2A3D52" stroke-width="0.3" stroke-linecap="round" stroke-linejoin="round"/>
<path fill-rule="evenodd" clip-rule="evenodd" d="M34.4244 43.2896C34.5087 43.4321 34.4615 43.616 34.319 43.7004C34.0621 43.8523 33.8169 44.0231 33.5852 44.2112L33.3962 43.9784L33.5831 44.213C32.9397 44.7257 32.413 45.3697 32.0382 46.102C31.6636 46.8339 31.4492 47.6373 31.4095 48.4586C31.3329 50.4073 31.3451 52.3557 31.3574 54.3123C31.362 55.0415 31.3666 55.7719 31.3666 56.5038V57.1384C31.3666 57.304 31.2323 57.4383 31.0667 57.4383C30.9011 57.4383 30.7668 57.304 30.7668 57.1384V56.5038C30.7668 55.7803 30.7623 55.055 30.7577 54.3286C30.7454 52.367 30.733 50.3976 30.8102 48.4337L30.8104 48.431C30.8541 47.5241 31.0906 46.637 31.5043 45.8287C31.9177 45.0209 32.4986 44.3105 33.2082 43.7448C33.4625 43.5383 33.7317 43.351 34.0136 43.1842C34.1561 43.0998 34.34 43.147 34.4244 43.2896ZM43.7456 54.8521C43.9113 54.8521 44.0455 54.9864 44.0455 55.152V57.1396C44.0455 57.3052 43.9113 57.4395 43.7456 57.4395C43.58 57.4395 43.4458 57.3052 43.4458 57.1396V55.152C43.4458 54.9864 43.58 54.8521 43.7456 54.8521Z" fill="#2A3D52" stroke="#2A3D52" stroke-width="0.3" stroke-linecap="round" stroke-linejoin="round"/>
<path fill-rule="evenodd" clip-rule="evenodd" d="M36.183 42.3734C37.0696 42.2114 37.9798 42.2302 38.8589 42.4287C39.7381 42.6272 40.5681 43.0014 41.299 43.5288L41.3002 43.5296C42.2274 44.2053 42.9583 45.1154 43.418 46.1666C43.4181 46.1668 43.4182 46.167 43.4183 46.1673L43.4406 46.2177L43.4417 46.2202C43.7865 47.0199 43.981 47.8764 44.0154 48.7465L44.0155 48.7506C44.0664 50.7178 44.0582 52.6867 44.0501 54.6505C44.0493 54.82 44.0486 54.9895 44.048 55.159C44.0473 55.3246 43.9125 55.4584 43.7469 55.4577C43.5813 55.4571 43.4476 55.3223 43.4482 55.1567C43.4489 54.9875 43.4496 54.8184 43.4503 54.6494C43.4585 52.6846 43.4666 50.7252 43.416 48.7682C43.3843 47.9728 43.2065 47.19 42.8915 46.459C42.8913 46.4585 42.8911 46.4581 42.891 46.4577L42.8693 46.4086L42.8688 46.4075C42.4518 45.4537 41.7887 44.6279 40.9475 44.0147C40.2822 43.5349 39.5269 43.1944 38.7268 43.0137C37.9264 42.833 37.0978 42.8159 36.2906 42.9634L36.2902 42.9635C35.6447 43.0805 35.0232 43.303 34.4507 43.6218C34.4359 44.175 34.6413 44.6008 34.8639 44.8998C34.9856 45.0633 35.1114 45.1871 35.2061 45.2693C35.2532 45.3103 35.2921 45.3406 35.3182 45.3599C35.3302 45.3688 35.3394 45.3753 35.3454 45.3795C36.4681 45.988 37.6508 46.167 38.8831 46.2533C39.4732 46.2937 39.961 46.4816 40.3609 46.7902C40.7578 47.0965 41.0535 47.5101 41.2809 47.9816L41.2825 47.985C41.285 47.9904 41.2874 47.9951 41.2931 48.0067C41.2975 48.0157 41.3037 48.0284 41.3101 48.0428C41.6685 48.8075 41.7605 49.5981 41.7605 50.3777C41.7605 50.5434 41.6262 50.6776 41.4606 50.6776C41.295 50.6776 41.1607 50.5434 41.1607 50.3777C41.1607 49.6422 41.0731 48.949 40.7657 48.2945C40.7646 48.2921 40.7635 48.2897 40.7624 48.2872C40.7583 48.2776 40.7572 48.2757 40.7554 48.2723C40.7534 48.2684 40.7502 48.2626 40.7399 48.2405C40.5404 47.8274 40.2971 47.4986 39.9945 47.2651C39.6946 47.0336 39.3218 46.8845 38.842 46.8517L38.8415 46.8516C37.5787 46.7632 36.2874 46.576 35.046 45.8993C35.0394 45.8958 35.033 45.8919 35.0267 45.8879L35.1895 45.636C35.0267 45.8879 35.0266 45.8878 35.0265 45.8877L35.0262 45.8876L35.0256 45.8871L35.024 45.8861L35.0197 45.8832C35.0162 45.8809 35.0117 45.8778 35.0061 45.874C34.995 45.8663 34.9798 45.8556 34.9611 45.8418C34.9239 45.8142 34.8727 45.7742 34.8126 45.722C34.6928 45.6178 34.5355 45.463 34.3828 45.2579C34.0764 44.8464 33.7845 44.2255 33.863 43.4133C33.8723 43.318 33.9264 43.2328 34.0088 43.1841C34.6797 42.7869 35.4159 42.5124 36.183 42.3734ZM35.3527 45.3844C35.3532 45.3847 35.3534 45.3849 35.3533 45.3848L35.353 45.3847L35.3527 45.3845L35.3527 45.3844Z" fill="#2A3D52" stroke="#2A3D52" stroke-width="0.3" stroke-linecap="round" stroke-linejoin="round"/>
<path fill-rule="evenodd" clip-rule="evenodd" d="M35.3399 45.3699C35.4843 45.451 35.5355 45.6339 35.4543 45.7782C34.7011 47.1174 34.1065 48.4569 33.7948 49.9021C33.5787 50.9124 33.4803 51.8729 33.859 52.761C34.2942 53.7785 35.0186 54.6458 35.9423 55.2554L35.9437 55.2564C36.4172 55.5728 36.9216 55.8401 37.4493 56.0543L37.4513 56.0551C37.4504 56.0548 37.4499 56.0546 37.4499 56.0545C37.4501 56.0539 37.4774 56.0603 37.546 56.047C37.6155 56.0334 37.6941 56.0062 37.7658 55.9753L37.7666 55.9749C38.1561 55.8082 38.5299 55.6073 38.8837 55.3745C40.2171 54.4869 41.0006 53.1993 41.1228 51.3915L41.1229 51.3911C41.1466 51.0461 41.1641 50.7072 41.1641 50.3741C41.1641 50.2085 41.2984 50.0743 41.464 50.0743C41.6296 50.0743 41.7639 50.2085 41.7639 50.3741C41.7639 50.7272 41.7454 51.0816 41.7212 51.4324C41.5866 53.4218 40.7078 54.8809 39.2155 55.8741L39.2142 55.8749C38.8306 56.1275 38.4253 56.3454 38.003 56.5261C37.908 56.5671 37.7865 56.6111 37.6607 56.6356C37.5434 56.6585 37.3779 56.6735 37.2228 56.6096C36.658 56.3803 36.118 56.0941 35.6112 55.7555C34.5898 55.0812 33.7888 54.1219 33.3074 52.9967L33.3073 52.9964C32.8512 51.9269 32.9878 50.8076 33.2083 49.7764L33.2084 49.7759C33.5373 48.2512 34.1614 46.8535 34.9315 45.4842C35.0127 45.3399 35.1956 45.2887 35.3399 45.3699Z" fill="#2A3D52" stroke="#2A3D52" stroke-width="0.3" stroke-linecap="round" stroke-linejoin="round"/>
<path fill-rule="evenodd" clip-rule="evenodd" d="M34.1651 43.1411C34.3307 43.1411 34.465 43.2754 34.465 43.441V43.4422C34.465 43.6078 34.3307 43.7421 34.1651 43.7421C33.9995 43.7421 33.8652 43.6078 33.8652 43.4422V43.441C33.8652 43.2754 33.9995 43.1411 34.1651 43.1411Z" fill="#2A3D52" stroke="#2A3D52" stroke-width="0.3" stroke-linecap="round" stroke-linejoin="round"/>
<path fill-rule="evenodd" clip-rule="evenodd" d="M35.6639 55.228C35.7561 55.1904 35.861 55.201 35.9437 55.2564C36.4172 55.5728 36.9216 55.8401 37.4493 56.0543L37.4514 56.0552C37.4504 56.0548 37.4499 56.0546 37.4499 56.0545C37.4501 56.0539 37.4773 56.0603 37.5456 56.0469C37.6148 56.0333 37.6931 56.006 37.7642 55.9748L37.7674 55.9734C38.1571 55.8079 38.5309 55.6073 38.8843 55.3741C38.9671 55.3195 39.0716 55.3094 39.1634 55.3471C39.2552 55.3848 39.3224 55.4655 39.3428 55.5627L39.8227 57.8418C39.8568 58.0038 39.753 58.1629 39.591 58.197C39.4289 58.2311 39.2699 58.1274 39.2358 57.9653L38.844 56.1043C38.5729 56.2616 38.2922 56.402 38.0035 56.5247C37.9081 56.5665 37.7868 56.6108 37.6612 56.6354C37.5435 56.6585 37.378 56.6736 37.2229 56.6097C36.7936 56.4354 36.3786 56.2282 35.9816 55.9901L35.5656 57.9665C35.5314 58.1286 35.3724 58.2323 35.2103 58.1982C35.0483 58.1641 34.9445 58.005 34.9787 57.843L35.4837 55.4439C35.5042 55.3465 35.5717 55.2656 35.6639 55.228Z" fill="#2A3D52" stroke="#2A3D52" stroke-width="0.3" stroke-linecap="round" stroke-linejoin="round"/>
<path fill-rule="evenodd" clip-rule="evenodd" d="M60.2528 48.5464C60.3225 48.9105 60.3275 49.2347 60.2335 49.5364C60.126 49.8814 59.9021 50.156 59.5926 50.414L59.592 50.4145C59.2513 50.6968 58.839 50.8791 58.4009 50.941C58.2633 50.9612 58.2136 51.0001 58.1919 51.0258C58.1678 51.0543 58.1353 51.1176 58.1314 51.2684C58.1277 51.4175 58.127 51.5723 58.1263 51.7306C58.1245 52.1444 58.1226 52.5821 58.066 53.0042C58.0659 53.0138 58.0656 53.0235 58.065 53.0331C58.0645 53.0411 58.0637 53.049 58.0625 53.0569C58.0255 53.3162 57.9692 53.5724 57.8941 53.8233C58.1437 54.9457 58.7856 55.9433 59.7056 56.6358C60.6459 57.3434 61.8119 57.6836 62.9852 57.5927C64.1584 57.5018 65.2581 56.9859 66.0781 56.1419C66.8981 55.2979 67.382 54.1837 67.439 53.0083L67.4391 53.0056C67.4433 52.932 67.4456 52.8576 67.4458 52.7824C67.4453 52.7799 67.4446 52.7764 67.4436 52.7717C67.4427 52.767 67.4391 52.7505 67.4372 52.7404C67.436 52.7342 67.4343 52.7251 67.4328 52.715C67.4316 52.7068 67.429 52.6876 67.429 52.6642V52.5101C67.4269 52.4625 67.4247 52.4272 67.4193 52.3633C67.4136 52.2966 67.4069 52.2303 67.3991 52.1652L67.3857 52.0682C67.3827 52.0502 67.3799 52.0327 67.3776 52.0175L67.3774 52.0163C67.3746 51.9985 67.3723 51.9836 67.3698 51.9691C67.3681 51.9589 67.3668 51.9488 67.366 51.9386C67.3574 51.8888 67.3477 51.8353 67.3391 51.7935C67.3291 51.7444 67.3178 51.6948 67.3057 51.6415C67.3039 51.6336 67.3024 51.6256 67.3013 51.6175C67.2657 51.4911 67.2312 51.3705 67.193 51.2528C67.1733 51.1927 67.1511 51.1313 67.1274 51.0674C67.1056 51.0084 67.081 50.9482 67.0551 50.8855C66.9799 50.7063 66.8935 50.5319 66.7963 50.3635L66.7951 50.3614C66.758 50.2961 66.718 50.2315 66.6748 50.1637C66.5918 50.0337 66.5019 49.9077 66.4059 49.7857C66.4057 49.7854 66.4055 49.7852 66.4053 49.7849L66.3416 49.7051C66.2403 49.5813 66.1335 49.4633 66.021 49.3509C66.017 49.3468 66.0131 49.3427 66.0093 49.3384C65.9909 49.3178 65.982 49.3093 65.9654 49.2936C65.952 49.2809 65.9336 49.2634 65.9011 49.2309C65.8642 49.194 65.8135 49.1504 65.7683 49.1115C65.7597 49.1041 65.7512 49.0968 65.743 49.0897C65.7283 49.077 65.712 49.0639 65.6908 49.0469C65.6877 49.0445 65.6845 49.0419 65.6812 49.0392C65.6587 49.0211 65.6276 48.9962 65.6002 48.9706C65.5773 48.9492 65.5467 48.9251 65.5061 48.8949C65.4633 48.8632 65.4266 48.836 65.3887 48.8103L65.3855 48.8082L65.3019 48.7501L65.2182 48.6947L65.1375 48.6434C65.1019 48.6229 65.076 48.6074 65.0523 48.5933C65.0236 48.5761 64.9982 48.5609 64.9631 48.5413L64.872 48.4916L64.8691 48.49C64.8462 48.4772 64.8214 48.4648 64.7891 48.4486L64.7864 48.4473C64.6967 48.4013 64.6063 48.3589 64.514 48.32L64.4144 48.278L64.4134 48.2775C64.3704 48.2592 64.3271 48.2423 64.2835 48.2268C64.2834 48.2268 64.2833 48.2267 64.2832 48.2267L64.1368 48.1752C64.0406 48.1436 63.9444 48.1145 63.8479 48.089C63.8477 48.089 63.8475 48.0889 63.8474 48.0889L63.7329 48.0591L63.6533 48.0409L63.6504 48.0402C63.6007 48.0283 63.538 48.0154 63.4957 48.0084C63.4714 48.0043 63.4514 48.0008 63.4333 47.9976C63.405 47.9926 63.3812 47.9883 63.3526 47.9843L63.3513 47.9841C63.2817 47.9738 63.2107 47.9646 63.1395 47.9566C63.1375 47.9564 63.1355 47.9561 63.1335 47.9559C63.126 47.9549 63.1194 47.954 63.1135 47.9532C63.0819 47.9489 63.0727 47.9477 63.0628 47.9477C63.0517 47.9477 63.0406 47.9471 63.0296 47.9459C62.9767 47.94 62.9297 47.9357 62.8888 47.9357H62.5997C61.777 47.9355 60.969 48.1463 60.2528 48.5464ZM62.5997 47.3359C61.594 47.3357 60.6081 47.6158 59.7527 48.1449C59.6332 48.2188 59.581 48.3658 59.6272 48.4985C59.6311 48.5098 59.6344 48.5214 59.6371 48.533L59.6373 48.5342C59.7233 48.9085 59.7227 49.1596 59.6608 49.3581C59.6001 49.5531 59.4678 49.7372 59.209 49.953C58.9536 50.1644 58.6446 50.3009 58.3163 50.3473L58.315 50.3475C58.0908 50.3801 57.8822 50.4629 57.7335 50.639C57.5873 50.8123 57.5376 51.0309 57.5319 51.2531L57.5319 51.2533C57.5275 51.4299 57.5267 51.6009 57.526 51.7683C57.5242 52.1745 57.5225 52.5585 57.4687 52.9455C57.4665 52.9611 57.4656 52.9768 57.4658 52.9925C57.4295 53.2388 57.3736 53.4819 57.2986 53.7195C57.2832 53.7682 57.2805 53.8201 57.2908 53.8702C57.5577 55.1658 58.2881 56.3195 59.345 57.115C60.4019 57.9104 61.7127 58.2929 63.0315 58.1907C64.3503 58.0885 65.5866 57.5086 66.5083 56.5598C67.4297 55.6114 67.9736 54.3595 68.0379 53.0388C68.043 52.9502 68.0456 52.8609 68.0456 52.771C68.0456 52.7407 68.0421 52.7139 68.0395 52.6968C68.0367 52.6785 68.0333 52.6616 68.0309 52.65C68.03 52.6457 68.0293 52.6424 68.0288 52.6397V52.5035C68.0288 52.4991 68.0287 52.4948 68.0285 52.4904C68.0259 52.431 68.0232 52.3873 68.0169 52.3126C68.0106 52.2385 68.0031 52.1642 67.9942 52.0909C67.9941 52.0899 67.994 52.0889 67.9939 52.0879C67.9938 52.0872 67.9937 52.0865 67.9936 52.0858L67.9792 51.9815C67.9787 51.9782 67.9782 51.9748 67.9776 51.9715C67.9751 51.957 67.9728 51.9421 67.97 51.9243C67.9684 51.9135 67.9665 51.9015 67.9645 51.889C67.9638 51.8791 67.9626 51.8692 67.9609 51.8594C67.9512 51.8019 67.9385 51.7309 67.9267 51.6733C67.917 51.6259 67.9065 51.579 67.8964 51.5343C67.8946 51.5174 67.8914 51.5007 67.8869 51.4844C67.8486 51.348 67.8087 51.2071 67.7634 51.0675L67.7632 51.0667C67.7397 50.995 67.7141 50.9246 67.6898 50.8591C67.6638 50.7887 67.6355 50.7196 67.6088 50.6552L67.6084 50.6543C67.5236 50.4518 67.426 50.2549 67.3163 50.0647C67.2719 49.9865 67.2258 49.9123 67.1804 49.8412C67.086 49.6932 66.9843 49.5508 66.8766 49.414L66.8754 49.4125L66.8095 49.3298L66.8071 49.3268C66.6945 49.1892 66.5757 49.0577 66.4507 48.9324C66.4202 48.8988 66.388 48.8677 66.3599 48.8406C66.3473 48.8285 66.3356 48.8172 66.3252 48.8068C66.2704 48.752 66.1982 48.6901 66.1546 48.6526C66.1473 48.6464 66.1408 48.6408 66.1354 48.6361C66.1114 48.6154 66.0854 48.5945 66.0651 48.5783C66.0621 48.5759 66.0593 48.5736 66.0566 48.5715C66.032 48.5518 66.0181 48.5402 66.0095 48.5321C65.9605 48.4864 65.9071 48.4457 65.8637 48.4135L65.8619 48.4121C65.8216 48.3822 65.7755 48.348 65.7261 48.3145L65.6412 48.2556C65.6394 48.2543 65.6376 48.2531 65.6358 48.2518L65.547 48.1931C65.5454 48.192 65.5438 48.191 65.5422 48.19L65.4534 48.1336C65.4497 48.1312 65.4458 48.1289 65.442 48.1266C65.4239 48.1163 65.4 48.1021 65.3742 48.0868C65.3342 48.0631 65.2894 48.0366 65.254 48.0169L65.2515 48.0155L65.1606 47.9659C65.1249 47.9459 65.0889 47.928 65.0597 47.9133L65.0586 47.9128C64.9569 47.8607 64.8534 47.8122 64.7471 47.7673C64.7471 47.7673 64.7471 47.7673 64.7471 47.7673L64.6486 47.7258C64.6484 47.7257 64.6482 47.7257 64.6481 47.7256C64.5938 47.7025 64.539 47.6811 64.4837 47.6615L64.3331 47.6084C64.3312 47.6078 64.3292 47.6071 64.3273 47.6065C64.2207 47.5714 64.1117 47.5384 64.0007 47.509L63.8795 47.4775C63.8766 47.4768 63.8738 47.4761 63.8709 47.4754L63.7883 47.4566C63.7279 47.4421 63.6522 47.4264 63.5943 47.4168C63.5823 47.4148 63.5679 47.4123 63.5521 47.4095C63.5171 47.4033 63.4752 47.3959 63.4382 47.3906C63.3627 47.3795 63.2863 47.3696 63.2101 47.361C63.2077 47.3607 63.2049 47.3603 63.2019 47.3598C63.1762 47.3562 63.13 47.3497 63.0819 47.3482C63.0285 47.3424 62.9592 47.3359 62.8888 47.3359H62.5997C62.5998 47.3359 62.5997 47.3359 62.5997 47.3359ZM67.9606 51.8656C67.9607 51.8661 67.9608 51.8666 67.9608 51.8672L67.9606 51.8656Z" fill="#2A3D52"/>
<path d="M62.5997 47.3359C61.594 47.3357 60.6081 47.6158 59.7527 48.1449C59.6332 48.2188 59.581 48.3658 59.6272 48.4985C59.6311 48.5098 59.6344 48.5214 59.6371 48.533L59.6373 48.5342C59.7233 48.9085 59.7227 49.1596 59.6608 49.3581C59.6001 49.5531 59.4678 49.7372 59.209 49.953C58.9536 50.1644 58.6446 50.3009 58.3163 50.3473L58.315 50.3475C58.0908 50.3801 57.8822 50.4629 57.7335 50.639C57.5873 50.8123 57.5376 51.0309 57.5319 51.2531L57.5319 51.2533C57.5275 51.4299 57.5267 51.6009 57.526 51.7683C57.5242 52.1745 57.5225 52.5585 57.4687 52.9455C57.4665 52.9611 57.4656 52.9768 57.4658 52.9925C57.4295 53.2388 57.3736 53.4819 57.2986 53.7195C57.2832 53.7682 57.2805 53.8201 57.2908 53.8702C57.5577 55.1658 58.2881 56.3195 59.345 57.115C60.4019 57.9104 61.7127 58.2929 63.0315 58.1907C64.3503 58.0885 65.5866 57.5086 66.5083 56.5598C67.4297 55.6114 67.9736 54.3595 68.0379 53.0388C68.043 52.9502 68.0456 52.8609 68.0456 52.771C68.0456 52.7407 68.0421 52.7139 68.0395 52.6968C68.0367 52.6785 68.0333 52.6616 68.0309 52.65C68.03 52.6457 68.0293 52.6424 68.0288 52.6397V52.5035C68.0288 52.4991 68.0287 52.4948 68.0285 52.4904C68.0259 52.431 68.0232 52.3873 68.0169 52.3126C68.0106 52.2385 68.0031 52.1642 67.9942 52.0909C67.9941 52.0899 67.994 52.0889 67.9939 52.0879C67.9938 52.0872 67.9937 52.0865 67.9936 52.0858L67.9792 51.9815C67.9787 51.9782 67.9782 51.9748 67.9776 51.9715C67.9751 51.957 67.9728 51.9421 67.97 51.9243C67.9684 51.9135 67.9665 51.9015 67.9645 51.889C67.9638 51.8791 67.9626 51.8692 67.9609 51.8594C67.9512 51.8019 67.9385 51.7309 67.9267 51.6733C67.917 51.6259 67.9065 51.579 67.8964 51.5343C67.8946 51.5174 67.8914 51.5007 67.8869 51.4844C67.8486 51.348 67.8087 51.2071 67.7634 51.0675L67.7632 51.0667C67.7397 50.995 67.7141 50.9246 67.6898 50.8591C67.6638 50.7887 67.6355 50.7196 67.6088 50.6552L67.6084 50.6543C67.5236 50.4518 67.426 50.2549 67.3163 50.0647C67.2719 49.9865 67.2258 49.9123 67.1804 49.8412C67.086 49.6932 66.9843 49.5508 66.8766 49.414L66.8754 49.4125L66.8095 49.3298L66.8071 49.3268C66.6945 49.1892 66.5757 49.0577 66.4507 48.9324C66.4202 48.8988 66.388 48.8677 66.3599 48.8406C66.3473 48.8285 66.3356 48.8172 66.3252 48.8068C66.2704 48.752 66.1982 48.6901 66.1546 48.6526C66.1473 48.6464 66.1408 48.6408 66.1354 48.6361C66.1114 48.6154 66.0854 48.5945 66.0651 48.5783C66.0621 48.5759 66.0593 48.5736 66.0566 48.5715C66.032 48.5518 66.0181 48.5402 66.0095 48.5321C65.9605 48.4864 65.9071 48.4457 65.8637 48.4135L65.8619 48.4121C65.8216 48.3822 65.7755 48.348 65.7261 48.3145L65.6412 48.2556C65.6394 48.2543 65.6376 48.2531 65.6358 48.2518L65.547 48.1931C65.5454 48.192 65.5438 48.191 65.5422 48.19L65.4534 48.1336C65.4497 48.1312 65.4458 48.1289 65.442 48.1266C65.4239 48.1163 65.4 48.1021 65.3742 48.0868C65.3342 48.0631 65.2894 48.0366 65.254 48.0169L65.2515 48.0155L65.1606 47.9659C65.1249 47.9459 65.0889 47.928 65.0597 47.9133L65.0586 47.9128C64.9569 47.8607 64.8534 47.8122 64.7471 47.7673M62.5997 47.3359C62.5997 47.3359 62.5998 47.3359 62.5997 47.3359ZM62.5997 47.3359H62.8888C62.9592 47.3359 63.0285 47.3424 63.0819 47.3482C63.13 47.3497 63.1762 47.3562 63.2019 47.3598C63.2049 47.3603 63.2077 47.3607 63.2101 47.361C63.2863 47.3696 63.3627 47.3795 63.4382 47.3906C63.4752 47.3959 63.5171 47.4033 63.5521 47.4095C63.5679 47.4123 63.5823 47.4148 63.5943 47.4168C63.6522 47.4264 63.7279 47.4421 63.7883 47.4566L63.8709 47.4754C63.8738 47.4761 63.8766 47.4768 63.8795 47.4775L64.0007 47.509C64.1117 47.5384 64.2207 47.5714 64.3273 47.6065C64.3292 47.6071 64.3312 47.6078 64.3331 47.6084L64.4837 47.6615C64.539 47.6811 64.5938 47.7025 64.6481 47.7256C64.6482 47.7257 64.6484 47.7257 64.6486 47.7258L64.7471 47.7673M64.7471 47.7673C64.7471 47.7673 64.7471 47.7673 64.7471 47.7673ZM60.2335 49.5364C60.3275 49.2347 60.3225 48.9105 60.2528 48.5464C60.969 48.1463 61.777 47.9355 62.5997 47.9357H62.8888C62.9297 47.9357 62.9767 47.94 63.0296 47.9459C63.0406 47.9471 63.0517 47.9477 63.0628 47.9477C63.0727 47.9477 63.0819 47.9489 63.1135 47.9532C63.1194 47.954 63.126 47.9549 63.1335 47.9559C63.1355 47.9561 63.1375 47.9564 63.1395 47.9566C63.2107 47.9646 63.2817 47.9738 63.3513 47.9841L63.3526 47.9843C63.3812 47.9883 63.405 47.9926 63.4333 47.9976C63.4514 48.0008 63.4714 48.0043 63.4957 48.0084C63.538 48.0154 63.6007 48.0283 63.6504 48.0402L63.6533 48.0409L63.7329 48.0591L63.8474 48.0889C63.8475 48.0889 63.8477 48.089 63.8479 48.089C63.9444 48.1145 64.0406 48.1436 64.1368 48.1752L64.2832 48.2267C64.2833 48.2267 64.2834 48.2268 64.2835 48.2268C64.3271 48.2423 64.3704 48.2592 64.4134 48.2775L64.4144 48.278L64.514 48.32C64.6063 48.3589 64.6967 48.4013 64.7864 48.4473L64.7891 48.4486C64.8214 48.4648 64.8462 48.4772 64.8691 48.49L64.872 48.4916L64.9631 48.5413C64.9982 48.5609 65.0236 48.5761 65.0523 48.5933C65.076 48.6074 65.1019 48.6229 65.1375 48.6434L65.2182 48.6947L65.3019 48.7501L65.3855 48.8082L65.3887 48.8103C65.4266 48.836 65.4633 48.8632 65.5061 48.8949C65.5467 48.9251 65.5773 48.9492 65.6002 48.9706C65.6276 48.9962 65.6587 49.0211 65.6812 49.0392C65.6845 49.0419 65.6877 49.0445 65.6908 49.0469C65.712 49.0639 65.7283 49.077 65.743 49.0897C65.7512 49.0968 65.7597 49.1041 65.7683 49.1115C65.8135 49.1504 65.8642 49.194 65.9011 49.2309C65.9336 49.2634 65.952 49.2809 65.9654 49.2936C65.982 49.3093 65.9909 49.3178 66.0093 49.3384C66.0131 49.3427 66.017 49.3468 66.021 49.3509C66.1335 49.4633 66.2403 49.5813 66.3416 49.7051L66.4053 49.7849C66.4055 49.7852 66.4057 49.7854 66.4059 49.7857C66.5019 49.9077 66.5918 50.0337 66.6748 50.1637C66.718 50.2315 66.758 50.2961 66.7951 50.3614L66.7963 50.3635C66.8935 50.5319 66.9799 50.7063 67.0551 50.8855C67.081 50.9482 67.1056 51.0084 67.1274 51.0674C67.1511 51.1313 67.1733 51.1927 67.193 51.2528C67.2312 51.3705 67.2657 51.4911 67.3013 51.6175C67.3024 51.6256 67.3039 51.6336 67.3057 51.6415C67.3178 51.6948 67.3291 51.7444 67.3391 51.7935C67.3477 51.8353 67.3574 51.8888 67.366 51.9386C67.3668 51.9488 67.3681 51.9589 67.3698 51.9691C67.3723 51.9836 67.3746 51.9985 67.3774 52.0163L67.3776 52.0175C67.3799 52.0327 67.3827 52.0502 67.3857 52.0682L67.3991 52.1652C67.4069 52.2303 67.4136 52.2966 67.4193 52.3633C67.4247 52.4272 67.4269 52.4625 67.429 52.5101V52.6642C67.429 52.6876 67.4316 52.7068 67.4328 52.715C67.4343 52.7251 67.436 52.7342 67.4372 52.7404C67.4391 52.7505 67.4427 52.767 67.4436 52.7717C67.4446 52.7764 67.4453 52.7799 67.4458 52.7824C67.4456 52.8576 67.4433 52.932 67.4391 53.0056L67.439 53.0083C67.382 54.1837 66.8981 55.2979 66.0781 56.1419C65.2581 56.9859 64.1584 57.5018 62.9852 57.5927C61.8119 57.6836 60.6459 57.3434 59.7056 56.6358C58.7856 55.9433 58.1437 54.9457 57.8941 53.8233C57.9692 53.5724 58.0255 53.3162 58.0625 53.0569C58.0637 53.049 58.0645 53.0411 58.065 53.0331C58.0656 53.0235 58.0659 53.0138 58.066 53.0042C58.1226 52.5821 58.1245 52.1444 58.1263 51.7306C58.127 51.5723 58.1277 51.4175 58.1314 51.2684C58.1353 51.1176 58.1678 51.0543 58.1919 51.0258C58.2136 51.0001 58.2633 50.9612 58.4009 50.941C58.839 50.8791 59.2513 50.6968 59.592 50.4145L59.5926 50.414C59.9021 50.156 60.126 49.8814 60.2335 49.5364ZM67.9606 51.8656C67.9607 51.8661 67.9608 51.8666 67.9608 51.8672L67.9606 51.8656Z" stroke="#2A3D52" stroke-width="0.3" stroke-linecap="round" stroke-linejoin="round"/>
<path fill-rule="evenodd" clip-rule="evenodd" d="M62.3197 47.6185C62.3289 47.4597 62.4605 47.3357 62.6196 47.3359C64.0595 47.3383 65.4396 47.9119 66.457 48.931C67.4743 49.95 68.0457 51.331 68.0457 52.771C68.0457 52.8614 68.0432 52.9511 68.038 53.0401C68.0289 53.199 67.8972 53.323 67.7381 53.3227C66.2982 53.3204 64.9181 52.7467 63.9008 51.7277C62.8834 50.7087 62.312 49.3276 62.312 47.8877C62.312 47.7973 62.3146 47.7076 62.3197 47.6185ZM62.9121 47.9451C62.927 49.2054 63.4336 50.411 64.3252 51.304C65.1609 52.141 66.2718 52.6403 67.4456 52.7136C67.4307 51.4533 66.9241 50.2477 66.0325 49.3547C65.1968 48.5176 64.086 48.0184 62.9121 47.9451Z" fill="#2A3D52" stroke="#2A3D52" stroke-width="0.3" stroke-linecap="round" stroke-linejoin="round"/>
<path fill-rule="evenodd" clip-rule="evenodd" d="M60.2528 48.5464C60.3225 48.9105 60.3275 49.2347 60.2335 49.5364C60.126 49.8814 59.9022 50.156 59.5926 50.414L59.592 50.4145C59.2513 50.6968 58.839 50.8791 58.4009 50.941C58.2633 50.9612 58.2136 51.0001 58.1919 51.0258C58.1678 51.0543 58.1354 51.1176 58.1315 51.2684C58.1277 51.4175 58.1271 51.5723 58.1264 51.7306C58.125 52.0401 58.1236 52.3628 58.0993 52.6825C59.2004 52.5395 60.2229 52.0211 60.9905 51.209C61.8261 50.325 62.2973 49.1592 62.3116 47.9443C61.5891 47.9874 60.8852 48.1931 60.2528 48.5464ZM59.7527 48.1449C60.6081 47.6158 61.5941 47.3357 62.5999 47.3359C62.7543 47.336 62.8835 47.4534 62.8983 47.6071C62.9072 47.7 62.9116 47.7935 62.9116 47.8877V47.8877C62.9116 49.2762 62.3801 50.612 61.4264 51.621C60.4726 52.63 59.1688 53.2357 57.7826 53.3139C57.697 53.3187 57.6135 53.2867 57.553 53.2259C57.4937 53.1663 57.4623 53.0845 57.4661 53.0007C57.4653 52.9822 57.4661 52.9638 57.4687 52.9455C57.5226 52.5585 57.5242 52.1745 57.526 51.7683C57.5267 51.6009 57.5275 51.4299 57.5319 51.2533L57.5319 51.2531C57.5376 51.0309 57.5873 50.8123 57.7336 50.639C57.8822 50.4629 58.0908 50.3801 58.315 50.3475L58.3164 50.3473L58.3164 50.3473C58.6446 50.3009 58.9536 50.1644 59.209 49.953C59.4678 49.7372 59.6001 49.5531 59.6609 49.3581C59.7227 49.1596 59.7234 48.9085 59.6374 48.5342L59.6371 48.533L59.6371 48.533C59.6345 48.5214 59.6312 48.5098 59.6272 48.4985C59.581 48.3658 59.6332 48.2188 59.7527 48.1449Z" fill="#2A3D52" stroke="#2A3D52" stroke-width="0.3" stroke-linecap="round" stroke-linejoin="round"/>
<path fill-rule="evenodd" clip-rule="evenodd" d="M68.0064 52.3858C68.258 52.8664 68.7027 53.4593 69.2851 54.0416C69.8675 54.624 70.4604 55.0687 70.941 55.3204C71.1829 55.447 71.3809 55.5166 71.5254 55.5382C71.5966 55.5489 71.6442 55.5463 71.6728 55.5403C71.6864 55.5375 71.6942 55.5342 71.6979 55.5323C71.7014 55.5305 71.7024 55.5294 71.7024 55.5294L71.7024 55.5294C71.7026 55.5292 71.7036 55.5282 71.7053 55.5249C71.7072 55.5211 71.7105 55.5133 71.7134 55.4997C71.7193 55.4712 71.722 55.4236 71.7113 55.3523C71.6896 55.2078 71.6201 55.0099 71.4934 54.7679C71.2418 54.2873 70.7971 53.6944 70.2147 53.112C69.6323 52.5297 69.0394 52.0849 68.5588 51.8333C68.3169 51.7066 68.1189 51.6371 67.9744 51.6155C67.9032 51.6048 67.8556 51.6074 67.827 51.6134C67.8134 51.6162 67.8056 51.6195 67.8019 51.6214C67.7985 51.6231 67.7975 51.6242 67.7974 51.6243L67.7974 51.6243L67.7974 51.6243C67.7972 51.6244 67.7962 51.6255 67.7945 51.6288C67.7926 51.6326 67.7893 51.6404 67.7864 51.654C67.7805 51.6825 67.7778 51.7301 67.7885 51.8014C67.8102 51.9458 67.8797 52.1438 68.0064 52.3858ZM67.1954 51.8903C67.161 51.6609 67.181 51.3925 67.3733 51.2002C67.5655 51.008 67.834 50.988 68.0633 51.0223C68.2999 51.0578 68.5648 51.1594 68.837 51.302C69.3848 51.5888 70.0257 52.0748 70.6388 52.6879C71.2519 53.301 71.7379 53.9419 72.0248 54.4897C72.1673 54.762 72.2689 55.0268 72.3044 55.2634C72.3388 55.4928 72.3188 55.7612 72.1265 55.9535C71.9343 56.1457 71.6658 56.1657 71.4365 56.1313C71.1999 56.0959 70.935 55.9942 70.6628 55.8517C70.115 55.5649 69.4741 55.0788 68.861 54.4657C68.2479 53.8526 67.7619 53.2118 67.475 52.664C67.3325 52.3917 67.2309 52.1268 67.1954 51.8903Z" fill="#2A3D52" stroke="#2A3D52" stroke-width="0.3" stroke-linecap="round" stroke-linejoin="round"/>
<path fill-rule="evenodd" clip-rule="evenodd" d="M41.1607 30.4097C41.2453 30.2673 41.4293 30.2205 41.5717 30.305L43.1369 31.2346L44.4599 30.3165C44.5577 30.2487 44.6862 30.245 44.7876 30.3072L46.307 31.2386L47.8088 30.308C47.9496 30.2207 48.1344 30.2641 48.2217 30.4049C48.3089 30.5457 48.2655 30.7305 48.1247 30.8178L46.4658 31.8458C46.3695 31.9055 46.2477 31.9057 46.1511 31.8465L44.641 30.9208L43.3204 31.8372C43.224 31.9042 43.0973 31.9086 42.9963 31.8487L41.2654 30.8207C41.1231 30.7361 41.0762 30.5521 41.1607 30.4097Z" fill="#2A3D52" stroke="#2A3D52" stroke-width="0.3" stroke-linecap="round" stroke-linejoin="round"/>
<path fill-rule="evenodd" clip-rule="evenodd" d="M44.6933 25.9102C44.7875 25.9102 44.8763 25.9545 44.9329 26.0298L48.2076 30.3828L53.1749 36.9886C53.2744 37.121 53.2478 37.309 53.1154 37.4085C52.983 37.5081 52.795 37.4815 52.6955 37.3491L47.7283 30.7434L44.6933 26.7089L41.6701 30.7275C41.6664 30.7333 41.6624 30.739 41.6582 30.7446L31.5679 44.16C31.4683 44.2923 31.2803 44.3189 31.148 44.2194C31.0156 44.1198 30.989 43.9318 31.0886 43.7995L36.905 36.0662L41.167 30.3999C41.1708 30.3941 41.1748 30.3884 41.1789 30.3828L44.4536 26.0298C44.5103 25.9545 44.599 25.9102 44.6933 25.9102Z" fill="#2A3D52"/>
<path d="M36.905 36.0662L31.0886 43.7995C30.989 43.9318 31.0156 44.1198 31.148 44.2194C31.2803 44.3189 31.4683 44.2923 31.5679 44.16L41.6582 30.7446C41.6624 30.739 41.6664 30.7333 41.6701 30.7275L44.6933 26.7089L47.7283 30.7434L52.6955 37.3491C52.795 37.4815 52.983 37.5081 53.1154 37.4085C53.2478 37.309 53.2744 37.121 53.1749 36.9886L48.2076 30.3828L44.9329 26.0298C44.8763 25.9545 44.7875 25.9102 44.6933 25.9102C44.599 25.9102 44.5103 25.9545 44.4536 26.0298L41.1789 30.3828C41.1748 30.3884 41.1708 30.3941 41.167 30.3999L36.905 36.0662ZM36.905 36.0662L37.1447 36.2464" stroke="#2A3D52" stroke-width="0.3" stroke-linecap="round" stroke-linejoin="round"/>
<path fill-rule="evenodd" clip-rule="evenodd" d="M57.3757 30.9636C57.4699 30.9636 57.5587 31.0079 57.6154 31.0832L63.2639 38.5922L68.9113 46.1012C69.0108 46.2336 68.9842 46.4216 68.8518 46.5212C68.7195 46.6207 68.5315 46.5941 68.4319 46.4617L62.7846 38.9528L57.3757 31.7624L55.665 34.0371L54.3743 35.7536L52.0935 38.7862L52.0928 38.7872C51.9933 38.9194 51.8057 38.9461 51.6734 38.847C51.541 38.7479 51.5139 38.5603 51.6127 38.4277L51.6135 38.4267L51.6619 38.3618C51.6651 38.3574 51.6684 38.3532 51.6718 38.3491L53.8949 35.3932L55.1856 33.6766L57.1361 31.0833C57.1927 31.0079 57.2815 30.9636 57.3757 30.9636Z" fill="#2A3D52" stroke="#2A3D52" stroke-width="0.3" stroke-linecap="round" stroke-linejoin="round"/>
<path fill-rule="evenodd" clip-rule="evenodd" d="M53.9679 35.3099C54.0525 35.1675 54.2365 35.1206 54.3788 35.2052L55.8792 36.0963L57.1458 35.2167C57.2436 35.1488 57.3722 35.1452 57.4737 35.2074L58.9293 36.1003L60.3675 35.2082C60.5083 35.1209 60.6931 35.1642 60.7804 35.3049C60.8677 35.4457 60.8244 35.6305 60.6837 35.7178L59.0883 36.7075C58.9919 36.7672 58.8701 36.7675 58.7734 36.7082L57.327 35.821L56.0629 36.6989C55.9664 36.7659 55.8397 36.7704 55.7387 36.7104L54.0726 35.7208C53.9302 35.6363 53.8833 35.4523 53.9679 35.3099Z" fill="#2A3D52" stroke="#2A3D52" stroke-width="0.3" stroke-linecap="round" stroke-linejoin="round"/>
<path fill-rule="evenodd" clip-rule="evenodd" d="M36.5894 36.5858C36.5894 36.4201 36.7236 36.2859 36.8892 36.2859H41.6909C41.8565 36.2859 41.9908 36.4201 41.9908 36.5858C41.9908 36.7514 41.8565 36.8856 41.6909 36.8856H36.8892C36.7236 36.8856 36.5894 36.7514 36.5894 36.5858Z" fill="#2A3D52" stroke="#2A3D52" stroke-width="0.3" stroke-linecap="round" stroke-linejoin="round"/>
<path fill-rule="evenodd" clip-rule="evenodd" d="M60.4297 39.9625C60.4297 39.7969 60.5639 39.6626 60.7296 39.6626H63.8795C64.0451 39.6626 64.1794 39.7969 64.1794 39.9625C64.1794 40.1281 64.0451 40.2624 63.8795 40.2624H60.7296C60.5639 40.2624 60.4297 40.1281 60.4297 39.9625Z" fill="#2A3D52" stroke="#2A3D52" stroke-width="0.3" stroke-linecap="round" stroke-linejoin="round"/>
<path fill-rule="evenodd" clip-rule="evenodd" d="M60.7322 33.0888C60.8636 32.988 61.0519 33.0129 61.1526 33.1443L67.2102 41.0455C67.311 41.177 67.2861 41.3652 67.1547 41.466C67.0232 41.5667 66.835 41.5419 66.7342 41.4104L60.6767 33.5092C60.5759 33.3778 60.6007 33.1895 60.7322 33.0888Z" fill="#2A3D52" stroke="#2A3D52" stroke-width="0.3" stroke-linecap="round" stroke-linejoin="round"/>
<path fill-rule="evenodd" clip-rule="evenodd" d="M62.6257 35.1C62.627 35.1008 62.633 35.1044 62.6501 35.1054C62.6688 35.1064 62.6998 35.1039 62.7451 35.0904C62.8381 35.0627 62.9629 34.9968 63.1112 34.8818C63.4062 34.6533 63.7432 34.2709 64.0398 33.7849C64.3364 33.2989 64.5226 32.8244 64.591 32.4576C64.6254 32.2731 64.627 32.132 64.6092 32.0366C64.6005 31.9901 64.5885 31.9614 64.579 31.9453C64.5704 31.9305 64.5644 31.9269 64.5631 31.9261C64.5618 31.9253 64.5559 31.9216 64.5388 31.9207C64.5201 31.9197 64.489 31.9221 64.4437 31.9356C64.3508 31.9634 64.226 32.0293 64.0776 32.1442C63.7826 32.3727 63.4457 32.7552 63.1491 33.2412C62.8524 33.7272 62.6663 34.2017 62.5979 34.5685C62.5634 34.753 62.5619 34.8941 62.5797 34.9894C62.5884 35.0359 62.6004 35.0646 62.6098 35.0808C62.6185 35.0956 62.6244 35.0992 62.6257 35.1ZM62.0083 34.4585C62.0932 34.0033 62.3125 33.4605 62.6371 32.9287C62.9618 32.3968 63.3443 31.9537 63.7103 31.6701C63.8924 31.529 64.0835 31.4173 64.2722 31.3609C64.4608 31.3046 64.6808 31.2952 64.8756 31.4141C65.0704 31.5331 65.1626 31.7331 65.1987 31.9265C65.2349 32.1201 65.2228 32.3411 65.1806 32.5676C65.0957 33.0227 64.8764 33.5655 64.5517 34.0974C64.2271 34.6292 63.8446 35.0724 63.4786 35.356C63.2964 35.497 63.1054 35.6088 62.9167 35.6651C62.7281 35.7214 62.5081 35.7309 62.3133 35.6119C62.1184 35.493 62.0263 35.293 61.9901 35.0996C61.954 34.906 61.966 34.685 62.0083 34.4585Z" fill="#2A3D52" stroke="#2A3D52" stroke-width="0.3" stroke-linecap="round" stroke-linejoin="round"/>
<path fill-rule="evenodd" clip-rule="evenodd" d="M65.095 38.3219C65.0963 38.3227 65.1022 38.3264 65.1193 38.3273C65.138 38.3283 65.1691 38.3259 65.2144 38.3123C65.3073 38.2846 65.4321 38.2187 65.5805 38.1038C65.8755 37.8752 66.2124 37.4928 66.509 37.0068C66.8057 36.5208 66.9918 36.0463 67.0602 35.6795C67.0947 35.495 67.0962 35.3539 67.0784 35.2585C67.0697 35.2121 67.0577 35.1833 67.0483 35.1672C67.0396 35.1524 67.0337 35.1488 67.0324 35.148C67.0311 35.1472 67.0251 35.1436 67.008 35.1426C66.9893 35.1416 66.9583 35.144 66.913 35.1576C66.82 35.1853 66.6952 35.2512 66.5468 35.3662C66.2519 35.5947 65.9149 35.9771 65.6183 36.4631C65.3217 36.9491 65.1355 37.4236 65.0671 37.7904C65.0327 37.9749 65.0311 38.116 65.0489 38.2114C65.0576 38.2578 65.0696 38.2866 65.0791 38.3027C65.0877 38.3175 65.0937 38.3211 65.095 38.3219ZM64.4775 37.6804C64.5624 37.2253 64.7817 36.6825 65.1064 36.1506C65.431 35.6188 65.8135 35.1756 66.1795 34.892C66.3617 34.7509 66.5527 34.6392 66.7414 34.5829C66.93 34.5266 67.15 34.5171 67.3448 34.6361C67.5397 34.755 67.6318 34.955 67.668 35.1484C67.7041 35.342 67.6921 35.563 67.6498 35.7895C67.5649 36.2447 67.3456 36.7874 67.021 37.3193C66.6963 37.8511 66.3138 38.2943 65.9478 38.5779C65.7657 38.719 65.5746 38.8307 65.3859 38.887C65.1973 38.9433 64.9773 38.9528 64.7825 38.8339C64.5877 38.7149 64.4955 38.5149 64.4594 38.3215C64.4232 38.1279 64.4353 37.9069 64.4775 37.6804Z" fill="#2A3D52" stroke="#2A3D52" stroke-width="0.3" stroke-linecap="round" stroke-linejoin="round"/>
<path fill-rule="evenodd" clip-rule="evenodd" d="M43.4352 25.2018C43.5666 25.3025 43.5915 25.4907 43.4908 25.6222L37.4344 33.5246C37.3337 33.6561 37.1454 33.681 37.014 33.5802C36.8825 33.4795 36.8576 33.2913 36.9584 33.1598L43.0147 25.2574C43.1155 25.1259 43.3037 25.101 43.4352 25.2018Z" fill="#2A3D52" stroke="#2A3D52" stroke-width="0.3" stroke-linecap="round" stroke-linejoin="round"/>
<path fill-rule="evenodd" clip-rule="evenodd" d="M39.5744 24.5866C39.6428 24.9534 39.829 25.4279 40.1256 25.9139C40.4223 26.3998 40.7592 26.7823 41.0542 27.0108C41.2025 27.1257 41.3273 27.1916 41.4203 27.2194C41.4656 27.2329 41.4966 27.2354 41.5153 27.2343C41.5324 27.2334 41.5384 27.2298 41.5397 27.229C41.541 27.2282 41.5469 27.2245 41.5556 27.2098C41.565 27.1936 41.577 27.1649 41.5857 27.1184C41.6035 27.023 41.602 26.8819 41.5676 26.6974C41.4991 26.3306 41.313 25.8561 41.0164 25.3701C40.7197 24.8842 40.3828 24.5017 40.0878 24.2732C39.9394 24.1583 39.8146 24.0924 39.7217 24.0646C39.6764 24.0511 39.6453 24.0486 39.6266 24.0497C39.6096 24.0506 39.6036 24.0542 39.6023 24.055C39.601 24.0558 39.595 24.0595 39.5864 24.0742C39.5769 24.0904 39.5649 24.1191 39.5563 24.1656C39.5384 24.261 39.54 24.4021 39.5744 24.5866ZM38.9667 24.0555C39.0028 23.862 39.095 23.662 39.2898 23.5431C39.4846 23.4242 39.7047 23.4336 39.8932 23.4899C40.0819 23.5462 40.273 23.658 40.4551 23.7991C40.8211 24.0826 41.2036 24.5258 41.5283 25.0577C41.8529 25.5895 42.0723 26.1323 42.1572 26.5875C42.1994 26.8139 42.2114 27.035 42.1753 27.2285C42.1392 27.422 42.047 27.622 41.8522 27.7409C41.6573 27.8598 41.4373 27.8504 41.2487 27.7941C41.0601 27.7378 40.869 27.626 40.6869 27.4849C40.3208 27.2014 39.9383 26.7582 39.6137 26.2263C39.2891 25.6945 39.0697 25.1517 38.9848 24.6965C38.9426 24.4701 38.9305 24.249 38.9667 24.0555Z" fill="#2A3D52" stroke="#2A3D52" stroke-width="0.3" stroke-linecap="round" stroke-linejoin="round"/>
<path fill-rule="evenodd" clip-rule="evenodd" d="M37.1023 27.8097C37.1707 28.1765 37.3568 28.651 37.6534 29.137C37.9501 29.623 38.287 30.0054 38.582 30.2339C38.7304 30.3489 38.8552 30.4148 38.9481 30.4425C38.9934 30.4561 39.0245 30.4585 39.0432 30.4575C39.0603 30.4565 39.0662 30.4529 39.0675 30.4521C39.0688 30.4513 39.0748 30.4477 39.0834 30.4329C39.0929 30.4168 39.1049 30.388 39.1136 30.3416C39.1314 30.2462 39.1298 30.1051 39.0954 29.9206C39.027 29.5538 38.8408 29.0793 38.5442 28.5933C38.2476 28.1073 37.9106 27.7249 37.6156 27.4963C37.4673 27.3814 37.3425 27.3155 37.2495 27.2878C37.2042 27.2742 37.1732 27.2718 37.1545 27.2728C37.1374 27.2737 37.1314 27.2774 37.1301 27.2782C37.1288 27.279 37.1229 27.2826 37.1142 27.2974C37.1048 27.3135 37.0928 27.3423 37.0841 27.3887C37.0663 27.4841 37.0678 27.6252 37.1023 27.8097ZM36.4945 27.2786C36.5306 27.0852 36.6228 26.8852 36.8177 26.7662C37.0125 26.6473 37.2325 26.6568 37.4211 26.7131C37.6098 26.7694 37.8008 26.8811 37.983 27.0222C38.349 27.3058 38.7315 27.749 39.0561 28.2808C39.3808 28.8127 39.6001 29.3554 39.685 29.8106C39.7272 30.0371 39.7393 30.2581 39.7031 30.4517C39.667 30.6451 39.5748 30.8451 39.38 30.964C39.1852 31.083 38.9652 31.0735 38.7766 31.0172C38.5879 30.9609 38.3968 30.8492 38.2147 30.7081C37.8487 30.4245 37.4662 29.9813 37.1415 29.4495C36.8169 28.9176 36.5976 28.3748 36.5127 27.9197C36.4704 27.6932 36.4584 27.4722 36.4945 27.2786Z" fill="#2A3D52" stroke="#2A3D52" stroke-width="0.3" stroke-linecap="round" stroke-linejoin="round"/>
<path fill-rule="evenodd" clip-rule="evenodd" d="M52.5947 31.0873C51.9669 30.8666 51.2935 30.808 50.637 30.9171C49.9805 31.0262 49.3622 31.2993 48.8395 31.7113C48.7094 31.8138 48.5209 31.7914 48.4184 31.6613C48.3159 31.5313 48.3382 31.3427 48.4683 31.2402C49.0703 30.7657 49.7825 30.4511 50.5387 30.3254C51.2949 30.1998 52.0706 30.2673 52.7937 30.5215C53.5168 30.7758 54.164 31.2087 54.6751 31.78C55.1863 32.3512 55.5448 33.0424 55.7174 33.7893C55.7547 33.9506 55.6541 34.1117 55.4927 34.149C55.3313 34.1863 55.1703 34.0857 55.133 33.9243C54.9832 33.2759 54.6719 32.6758 54.2282 32.1799C53.7844 31.6839 53.2226 31.3081 52.5947 31.0873Z" fill="#2A3D52" stroke="#2A3D52" stroke-width="0.3" stroke-linecap="round" stroke-linejoin="round"/>
<path fill-rule="evenodd" clip-rule="evenodd" d="M55.3318 23.0988C55.4866 23.1578 55.5643 23.331 55.5053 23.4858L53.2155 29.4978C53.1565 29.6526 52.9832 29.7302 52.8285 29.6713C52.6737 29.6123 52.596 29.4391 52.655 29.2843L54.9449 23.2723C55.0038 23.1176 55.1771 23.0399 55.3318 23.0988Z" fill="#2A3D52" stroke="#2A3D52" stroke-width="0.3" stroke-linecap="round" stroke-linejoin="round"/>
<path fill-rule="evenodd" clip-rule="evenodd" d="M57.7744 27.2677C57.8898 27.3865 57.8871 27.5763 57.7683 27.6917L55.0406 30.3415C54.9218 30.4569 54.7319 30.4541 54.6165 30.3353C54.5011 30.2165 54.5039 30.0267 54.6227 29.9113L57.3504 27.2615C57.4692 27.1461 57.659 27.1489 57.7744 27.2677Z" fill="#2A3D52" stroke="#2A3D52" stroke-width="0.3" stroke-linecap="round" stroke-linejoin="round"/>
<path fill-rule="evenodd" clip-rule="evenodd" d="M47.0394 25.6649C47.1761 25.5714 47.3627 25.6065 47.4562 25.7433L49.8852 29.2974C49.9787 29.4342 49.9436 29.6208 49.8068 29.7142C49.6701 29.8077 49.4835 29.7726 49.39 29.6358L46.961 26.0817C46.8676 25.9449 46.9027 25.7583 47.0394 25.6649Z" fill="#2A3D52" stroke="#2A3D52" stroke-width="0.3" stroke-linecap="round" stroke-linejoin="round"/>
<path fill-rule="evenodd" clip-rule="evenodd" d="M50.6766 25.5418C50.8402 25.516 50.9937 25.6278 51.0195 25.7914L51.5293 29.0301C51.555 29.1937 51.4433 29.3472 51.2797 29.3729C51.1161 29.3987 50.9626 29.2869 50.9368 29.1233L50.427 25.8846C50.4013 25.721 50.513 25.5675 50.6766 25.5418Z" fill="#2A3D52" stroke="#2A3D52" stroke-width="0.3" stroke-linecap="round" stroke-linejoin="round"/>
</svg>
