<svg width="100" height="100" viewBox="0 0 100 100" fill="none" xmlns="http://www.w3.org/2000/svg">
<path fill-rule="evenodd" clip-rule="evenodd" d="M49.7001 5.29988C49.7001 5.13426 49.8344 5 50 5C74.8529 5 95 25.1471 95 50C95 74.8529 74.8529 95 50 95C25.1471 95 5 74.8529 5 50C5 49.8344 5.13426 49.7001 5.29988 49.7001C5.4655 49.7001 5.59976 49.8344 5.59976 50C5.59976 74.5217 25.4783 94.4002 50 94.4002C74.5217 94.4002 94.4002 74.5217 94.4002 50C94.4002 25.4783 74.5217 5.59976 50 5.59976C49.8344 5.59976 49.7001 5.4655 49.7001 5.29988Z" fill="#2A3D52" stroke="#2A3D52" stroke-width="0.3" stroke-linecap="round" stroke-linejoin="round"/>
<path fill-rule="evenodd" clip-rule="evenodd" d="M90.6441 52.7728C90.8093 52.7851 90.9332 52.929 90.9209 53.0942C89.3379 74.3143 71.6212 91.0367 50.0001 91.0367C49.8345 91.0367 49.7002 90.9024 49.7002 90.7368C49.7002 90.5712 49.8345 90.4369 50.0001 90.4369C71.3049 90.4369 88.763 73.959 90.3228 53.0496C90.3351 52.8844 90.479 52.7605 90.6441 52.7728Z" fill="#2A3D52" stroke="#2A3D52" stroke-width="0.3" stroke-linecap="round" stroke-linejoin="round"/>
<path fill-rule="evenodd" clip-rule="evenodd" d="M49.9998 9.55923C28.6949 9.55923 11.2369 26.0407 9.67707 46.9466C9.66475 47.1118 9.52087 47.2357 9.35571 47.2233C9.19055 47.211 9.06665 47.0671 9.07897 46.902C10.6619 25.6855 28.3786 8.95947 49.9998 8.95947C50.1654 8.95947 50.2996 9.09373 50.2996 9.25935C50.2996 9.42497 50.1654 9.55923 49.9998 9.55923Z" fill="#2A3D52" stroke="#2A3D52" stroke-width="0.3" stroke-linecap="round" stroke-linejoin="round"/>
<path fill-rule="evenodd" clip-rule="evenodd" d="M9.11321 46.5988C9.20598 46.5452 9.32028 46.5452 9.41306 46.5988L10.9964 47.5128C11.0892 47.5664 11.1464 47.6654 11.1464 47.7725V49.6006C11.1464 49.7077 11.0892 49.8067 10.9964 49.8603L9.41306 50.7743C9.32028 50.8279 9.20598 50.8279 9.11321 50.7743L7.52984 49.8603C7.43705 49.8067 7.37988 49.7077 7.37988 49.6006V47.7725C7.37988 47.6654 7.43705 47.5664 7.52984 47.5128L9.11321 46.5988ZM7.97964 47.9457V49.4274L9.26313 50.1684L10.5466 49.4274V47.9457L9.26313 47.2047L7.97964 47.9457Z" fill="#2A3D52" stroke="#2A3D52" stroke-width="0.3" stroke-linecap="round" stroke-linejoin="round"/>
<path fill-rule="evenodd" clip-rule="evenodd" d="M90.5865 49.2735C90.6793 49.22 90.7935 49.22 90.8863 49.2736L92.4493 50.1756C92.5421 50.2292 92.5992 50.3282 92.5992 50.4353V52.2394C92.5992 52.3466 92.5421 52.4456 92.4493 52.4991L90.8863 53.4012C90.7935 53.4547 90.6793 53.4547 90.5865 53.4012L89.0235 52.4991C88.9307 52.4456 88.8735 52.3466 88.8735 52.2394V50.4353C88.8735 50.3282 88.9307 50.2292 89.0235 50.1756L90.5865 49.2735ZM89.4733 50.6085V52.0662L90.7364 52.7952L91.9995 52.0662V50.6085L90.7364 49.8795L89.4733 50.6085Z" fill="#2A3D52" stroke="#2A3D52" stroke-width="0.3" stroke-linecap="round" stroke-linejoin="round"/>
<path fill-rule="evenodd" clip-rule="evenodd" d="M42.744 37.9933C42.8368 37.9397 42.9512 37.9397 43.044 37.9933L43.6089 38.3196L44.3731 38.761C44.5165 38.8439 44.5656 39.0273 44.4827 39.1707C44.3999 39.3141 44.2165 39.3632 44.0731 39.2804L43.309 38.839L42.894 38.5993L41.2794 39.532V41.3966L42.8942 42.3294L44.5098 41.3965V39.6912C44.5098 39.5256 44.644 39.3913 44.8096 39.3913C44.9753 39.3913 45.1095 39.5256 45.1095 39.6912V41.5697C45.1095 41.6768 45.0523 41.7758 44.9596 41.8294L43.1317 42.8849L43.1311 42.8852L43.0436 42.9356C42.9508 42.9889 42.8367 42.9888 42.744 42.9353L40.8296 41.8293C40.7368 41.7758 40.6797 41.6768 40.6797 41.5697V39.359C40.6797 39.2519 40.7368 39.1529 40.8296 39.0993L42.744 37.9933Z" fill="#2A3D52" stroke="#2A3D52" stroke-width="0.3" stroke-linecap="round" stroke-linejoin="round"/>
<path fill-rule="evenodd" clip-rule="evenodd" d="M37.6172 33.0291C37.6172 32.8635 37.7514 32.7292 37.9171 32.7292H63.9946C64.1603 32.7292 64.2945 32.8635 64.2945 33.0291V62.0838C64.2945 62.0838 64.2945 62.0839 64.2945 62.0839C64.295 63.0824 64.0125 64.0605 63.4797 64.905C62.947 65.7495 62.1858 66.4257 61.2844 66.8552C61.2029 66.894 61.1084 66.8941 61.0269 66.8555C60.1239 66.4272 59.3609 65.7515 58.8267 64.9069C58.2925 64.0622 58.0089 63.0833 58.009 62.0839C58.009 62.0839 58.009 62.0839 58.009 62.0839V61.4242H37.9171C37.7514 61.4242 37.6172 61.2899 37.6172 61.1243V33.0291ZM38.2169 33.329V60.8244H58.3089C58.4745 60.8244 58.6088 60.9587 58.6088 61.1243V62.0839C58.6087 62.9698 58.86 63.8376 59.3336 64.5863C59.7815 65.2945 60.4108 65.8687 61.1551 66.25C61.8979 65.8677 62.5258 65.293 62.9725 64.585C63.4447 63.8363 63.6952 62.9692 63.6948 62.084V33.329H38.2169Z" fill="#2A3D52"/>
<path d="M58.009 62.0839C58.0089 63.0833 58.2925 64.0622 58.8267 64.9069C59.3609 65.7515 60.1239 66.4272 61.0269 66.8555C61.1084 66.8941 61.2029 66.894 61.2844 66.8552C62.1858 66.4257 62.947 65.7495 63.4797 64.905C64.0125 64.0605 64.295 63.0824 64.2945 62.0839C64.2945 62.0839 64.2945 62.0838 64.2945 62.0838V33.0291C64.2945 32.8635 64.1603 32.7292 63.9946 32.7292H37.9171C37.7514 32.7292 37.6172 32.8635 37.6172 33.0291V61.1243C37.6172 61.2899 37.7514 61.4242 37.9171 61.4242H58.009V62.0839ZM58.009 62.0839C58.009 62.0839 58.009 62.0839 58.009 62.0839ZM38.2169 60.8244V33.329H63.6948V62.084C63.6952 62.9692 63.4447 63.8363 62.9725 64.585C62.5258 65.293 61.8979 65.8677 61.1551 66.25C60.4108 65.8687 59.7815 65.2945 59.3336 64.5863C58.86 63.8376 58.6087 62.9698 58.6088 62.0839V61.1243C58.6088 60.9587 58.4745 60.8244 58.3089 60.8244H38.2169Z" stroke="#2A3D52" stroke-width="0.3" stroke-linecap="round" stroke-linejoin="round"/>
<path fill-rule="evenodd" clip-rule="evenodd" d="M33.5063 61.1243C33.5063 60.9587 33.6406 60.8245 33.8062 60.8245H58.304C58.4696 60.8245 58.6039 60.9587 58.6039 61.1243V62.0839C58.6039 62.0839 58.6039 62.0838 58.6039 62.0839C58.6042 62.9702 58.8562 63.8383 59.3306 64.5871C59.805 65.3359 60.4822 65.9345 61.2835 66.3135C61.3882 66.363 61.4551 66.4684 61.4552 66.5843C61.4553 66.7002 61.3886 66.8057 61.2839 66.8554C60.575 67.1921 59.7998 67.3659 59.0151 67.3642H38.7879C38.7879 67.3642 38.7879 67.3642 38.7879 67.3642C38.0944 67.3644 37.4076 67.228 36.7668 66.9627C36.1261 66.6974 35.5438 66.3085 35.0534 65.8181C34.5629 65.3278 34.1738 64.7457 33.9084 64.1049C33.643 63.4642 33.5063 62.7775 33.5063 62.084V61.1243ZM34.1061 61.4242V62.084C34.1061 62.6987 34.2272 63.3074 34.4625 63.8754C34.6978 64.4433 35.0427 64.9593 35.4774 65.394C35.9121 65.8286 36.4283 66.1734 36.9963 66.4085C37.5643 66.6437 38.173 66.7646 38.7878 66.7645H59.0153L59.016 66.7645C59.5057 66.7656 59.9911 66.6896 60.4548 66.5403C59.7998 66.1246 59.242 65.568 58.8239 64.9081C58.2888 64.0633 58.0045 63.084 58.0041 62.0841V61.4242H34.1061Z" fill="#2A3D52"/>
<path d="M58.6039 62.0839V61.1243C58.6039 60.9587 58.4696 60.8245 58.304 60.8245H33.8062C33.6406 60.8245 33.5063 60.9587 33.5063 61.1243V62.084C33.5063 62.7775 33.643 63.4642 33.9084 64.1049C34.1738 64.7457 34.5629 65.3278 35.0534 65.8181C35.5438 66.3085 36.1261 66.6974 36.7668 66.9627C37.4076 67.228 38.0944 67.3644 38.7879 67.3642M58.6039 62.0839C58.6039 62.0838 58.6039 62.0839 58.6039 62.0839ZM58.6039 62.0839C58.6042 62.9702 58.8562 63.8383 59.3306 64.5871C59.805 65.3359 60.4822 65.9345 61.2835 66.3135C61.3882 66.363 61.4551 66.4684 61.4552 66.5843C61.4553 66.7002 61.3886 66.8057 61.2839 66.8554C60.575 67.1921 59.7998 67.3659 59.0151 67.3642H38.7879M38.7879 67.3642C38.7879 67.3642 38.7879 67.3642 38.7879 67.3642ZM34.1061 62.084V61.4242H58.0041V62.0841C58.0045 63.084 58.2888 64.0633 58.8239 64.9081C59.242 65.568 59.7998 66.1246 60.4548 66.5403C59.9911 66.6896 59.5057 66.7656 59.016 66.7645L59.0153 66.7645H38.7878C38.173 66.7646 37.5643 66.6437 36.9963 66.4085C36.4283 66.1734 35.9121 65.8286 35.4774 65.394C35.0427 64.9593 34.6978 64.4433 34.4625 63.8754C34.2272 63.3074 34.1061 62.6987 34.1061 62.084Z" stroke="#2A3D52" stroke-width="0.3" stroke-linecap="round" stroke-linejoin="round"/>
<path fill-rule="evenodd" clip-rule="evenodd" d="M63.9995 60.8245C64.1651 60.8245 64.2994 60.9587 64.2994 61.1243V62.084C64.2994 62.084 64.2994 62.0839 64.2994 62.084C64.2994 63.083 64.0161 64.0616 63.4824 64.9061C62.9487 65.7507 62.1865 66.4266 61.2841 66.8554C61.1345 66.9265 60.9557 66.8629 60.8846 66.7133C60.8135 66.5637 60.8771 66.3848 61.0267 66.3137C61.8266 65.9336 62.5023 65.3344 62.9754 64.5857C63.4485 63.8371 63.6996 62.9696 63.6996 62.084V61.1243C63.6996 60.9587 63.8339 60.8245 63.9995 60.8245Z" fill="#2A3D52"/>
<path d="M64.2994 62.084V61.1243C64.2994 60.9587 64.1651 60.8245 63.9995 60.8245C63.8339 60.8245 63.6996 60.9587 63.6996 61.1243V62.084C63.6996 62.9696 63.4485 63.8371 62.9754 64.5857C62.5023 65.3344 61.8266 65.9336 61.0267 66.3137C60.8771 66.3848 60.8135 66.5637 60.8846 66.7133C60.9557 66.8629 61.1345 66.9265 61.2841 66.8554C62.1865 66.4266 62.9487 65.7507 63.4824 64.9061C64.0161 64.0616 64.2994 63.083 64.2994 62.084ZM64.2994 62.084C64.2994 62.0839 64.2994 62.084 64.2994 62.084Z" stroke="#2A3D52" stroke-width="0.3" stroke-linecap="round" stroke-linejoin="round"/>
<path fill-rule="evenodd" clip-rule="evenodd" d="M63.9995 60.8245C64.1651 60.8245 64.2994 60.9587 64.2994 61.1243V62.084C64.2994 62.084 64.2994 62.0839 64.2994 62.084C64.2994 63.083 64.0161 64.0616 63.4824 64.9061C62.9487 65.7507 62.1865 66.4266 61.2841 66.8554C61.1345 66.9265 60.9557 66.8629 60.8846 66.7133C60.8135 66.5637 60.8771 66.3848 61.0267 66.3137C61.8266 65.9336 62.5023 65.3344 62.9754 64.5857C63.4485 63.8371 63.6996 62.9696 63.6996 62.084V61.1243C63.6996 60.9587 63.8339 60.8245 63.9995 60.8245Z" fill="#2A3D52"/>
<path d="M64.2994 62.084V61.1243C64.2994 60.9587 64.1651 60.8245 63.9995 60.8245C63.8339 60.8245 63.6996 60.9587 63.6996 61.1243V62.084C63.6996 62.9696 63.4485 63.8371 62.9754 64.5857C62.5023 65.3344 61.8266 65.9336 61.0267 66.3137C60.8771 66.3848 60.8135 66.5637 60.8846 66.7133C60.9557 66.8629 61.1345 66.9265 61.2841 66.8554C62.1865 66.4266 62.9487 65.7507 63.4824 64.9061C64.0161 64.0616 64.2994 63.083 64.2994 62.084ZM64.2994 62.084C64.2994 62.0839 64.2994 62.084 64.2994 62.084Z" stroke="#2A3D52" stroke-width="0.3" stroke-linecap="round" stroke-linejoin="round"/>
<path fill-rule="evenodd" clip-rule="evenodd" d="M46.876 39.4107C46.876 39.2451 47.0102 39.1108 47.1759 39.1108H52.2414C52.407 39.1108 52.5413 39.2451 52.5413 39.4107C52.5413 39.5763 52.407 39.7106 52.2414 39.7106H47.1759C47.0102 39.7106 46.876 39.5763 46.876 39.4107Z" fill="#2A3D52" stroke="#2A3D52" stroke-width="0.3" stroke-linecap="round" stroke-linejoin="round"/>
<path fill-rule="evenodd" clip-rule="evenodd" d="M46.876 41.5291C46.876 41.3635 47.0102 41.2292 47.1759 41.2292H60.3814C60.547 41.2292 60.6812 41.3635 60.6812 41.5291C60.6812 41.6947 60.547 41.829 60.3814 41.829H47.1759C47.0102 41.829 46.876 41.6947 46.876 41.5291Z" fill="#2A3D52" stroke="#2A3D52" stroke-width="0.3" stroke-linecap="round" stroke-linejoin="round"/>
<path fill-rule="evenodd" clip-rule="evenodd" d="M42.7439 44.8032C42.8367 44.7495 42.9511 44.7495 43.044 44.8031L43.6091 45.1295L44.3744 45.5721C44.5178 45.655 44.5668 45.8385 44.4839 45.9819C44.4009 46.1252 44.2175 46.1742 44.0741 46.0913L42.8941 45.4092L41.2794 46.343V48.2064L42.8947 49.1395L44.5098 48.2064V46.501C44.5098 46.3354 44.644 46.2012 44.8096 46.2012C44.9753 46.2012 45.1095 46.3354 45.1095 46.501V48.3795C45.1095 48.4866 45.0524 48.5856 44.9596 48.6392L43.133 49.6946L43.1308 49.6959L43.042 49.7463C42.9495 49.7988 42.8361 49.7983 42.744 49.7451L40.8296 48.6392C40.7368 48.5856 40.6797 48.4866 40.6797 48.3795V46.17C40.6797 46.0629 40.7368 45.964 40.8294 45.9104L42.7439 44.8032Z" fill="#2A3D52" stroke="#2A3D52" stroke-width="0.3" stroke-linecap="round" stroke-linejoin="round"/>
<path fill-rule="evenodd" clip-rule="evenodd" d="M46.876 46.2215C46.876 46.0559 47.0102 45.9216 47.1759 45.9216H52.2414C52.407 45.9216 52.5413 46.0559 52.5413 46.2215C52.5413 46.3871 52.407 46.5214 52.2414 46.5214H47.1759C47.0102 46.5214 46.876 46.3871 46.876 46.2215Z" fill="#2A3D52" stroke="#2A3D52" stroke-width="0.3" stroke-linecap="round" stroke-linejoin="round"/>
<path fill-rule="evenodd" clip-rule="evenodd" d="M46.876 48.3385C46.876 48.1728 47.0102 48.0386 47.1759 48.0386H60.3814C60.547 48.0386 60.6812 48.1728 60.6812 48.3385C60.6812 48.5041 60.547 48.6383 60.3814 48.6383H47.1759C47.0102 48.6383 46.876 48.5041 46.876 48.3385Z" fill="#2A3D52" stroke="#2A3D52" stroke-width="0.3" stroke-linecap="round" stroke-linejoin="round"/>
<path fill-rule="evenodd" clip-rule="evenodd" d="M42.744 51.6139C42.8367 51.5604 42.9508 51.5603 43.0436 51.6137L43.6093 51.9392L44.3734 52.3818C44.5167 52.4648 44.5656 52.6483 44.4826 52.7916C44.3995 52.9349 44.2161 52.9838 44.0728 52.9008L43.3094 52.4586L43.3087 52.4582L42.8943 52.2198L41.2794 53.1527V55.0171L42.8949 55.9493L43.1835 55.7815L43.1845 55.7809L44.5098 55.017V53.3118C44.5098 53.1462 44.644 53.012 44.8096 53.012C44.9753 53.012 45.1095 53.1462 45.1095 53.3118V55.1903C45.1095 55.2975 45.0523 55.3965 44.9594 55.4501L43.485 56.3L43.484 56.3005L43.1323 56.5051L43.1284 56.5073L43.0409 56.5565C42.9486 56.6083 42.8358 56.6077 42.7441 56.5548L40.8297 55.45C40.7369 55.3965 40.6797 55.2974 40.6797 55.1903V52.9796C40.6797 52.8725 40.7368 52.7735 40.8296 52.7199L42.744 51.6139Z" fill="#2A3D52" stroke="#2A3D52" stroke-width="0.3" stroke-linecap="round" stroke-linejoin="round"/>
<path fill-rule="evenodd" clip-rule="evenodd" d="M46.876 53.0313C46.876 52.8657 47.0102 52.7314 47.1759 52.7314H52.2414C52.407 52.7314 52.5413 52.8657 52.5413 53.0313C52.5413 53.1969 52.407 53.3312 52.2414 53.3312H47.1759C47.0102 53.3312 46.876 53.1969 46.876 53.0313Z" fill="#2A3D52" stroke="#2A3D52" stroke-width="0.3" stroke-linecap="round" stroke-linejoin="round"/>
<path fill-rule="evenodd" clip-rule="evenodd" d="M46.876 55.1495C46.876 54.9839 47.0102 54.8496 47.1759 54.8496H60.3814C60.547 54.8496 60.6812 54.9839 60.6812 55.1495C60.6812 55.3151 60.547 55.4494 60.3814 55.4494H47.1759C47.0102 55.4494 46.876 55.3151 46.876 55.1495Z" fill="#2A3D52" stroke="#2A3D52" stroke-width="0.3" stroke-linecap="round" stroke-linejoin="round"/>
<path fill-rule="evenodd" clip-rule="evenodd" d="M46.6328 37.5468C46.6533 37.7111 46.5367 37.861 46.3723 37.8814C45.9524 37.9337 45.5411 38.155 45.1506 38.4866C44.7612 38.8171 44.4103 39.2424 44.1132 39.6701C43.8171 40.0965 43.5804 40.5169 43.4175 40.8314C43.3362 40.9884 43.2737 41.1182 43.2318 41.2082C43.2108 41.2532 43.195 41.2882 43.1846 41.3117C43.1793 41.3234 43.1755 41.3322 43.173 41.3379L43.1703 41.3442L43.1697 41.3455L43.1696 41.3457C43.1295 41.4398 43.0442 41.5069 42.9433 41.5238C42.8423 41.5406 42.7398 41.5049 42.6712 41.4289L41.6588 40.3074C41.5478 40.1844 41.5575 39.9948 41.6805 39.8838C41.8034 39.7729 41.9931 39.7826 42.104 39.9055L42.8149 40.693C42.8365 40.6498 42.8599 40.6039 42.8849 40.5556C43.0558 40.2256 43.3056 39.7815 43.6206 39.328C43.9348 38.8757 44.3195 38.4054 44.7624 38.0294C45.204 37.6544 45.7213 37.3581 46.2982 37.2863C46.4625 37.2658 46.6124 37.3824 46.6328 37.5468Z" fill="#2A3D52" stroke="#2A3D52" stroke-width="0.3" stroke-linecap="round" stroke-linejoin="round"/>
<path fill-rule="evenodd" clip-rule="evenodd" d="M46.6328 44.3562C46.6534 44.5205 46.5368 44.6704 46.3725 44.691C45.9525 44.7435 45.5411 44.965 45.1506 45.2967C44.7612 45.6273 44.4103 46.0525 44.1132 46.4801C43.8171 46.9065 43.5803 47.3268 43.4175 47.6412C43.3362 47.7981 43.2737 47.9279 43.2317 48.0179C43.2108 48.0629 43.195 48.0979 43.1845 48.1213C43.1793 48.133 43.1755 48.1418 43.173 48.1475L43.1703 48.1538L43.1697 48.1551L43.1696 48.1553C43.1295 48.2494 43.0441 48.3165 42.9432 48.3333C42.8423 48.3502 42.7398 48.3144 42.6712 48.2385L41.6588 47.1169C41.5478 46.994 41.5575 46.8044 41.6805 46.6934C41.8034 46.5824 41.9931 46.5921 42.104 46.7151L42.8149 47.5026C42.8366 47.4594 42.8599 47.4136 42.8849 47.3653C43.0558 47.0354 43.3056 46.5915 43.6206 46.138C43.9348 45.6857 44.3195 45.2155 44.7624 44.8395C45.204 44.4645 45.7212 44.168 46.298 44.0959C46.4623 44.0753 46.6122 44.1918 46.6328 44.3562Z" fill="#2A3D52" stroke="#2A3D52" stroke-width="0.3" stroke-linecap="round" stroke-linejoin="round"/>
<path fill-rule="evenodd" clip-rule="evenodd" d="M46.6328 51.167C46.6534 51.3313 46.5368 51.4812 46.3725 51.5018C45.9525 51.5543 45.5411 51.7758 45.1506 52.1074C44.7612 52.4381 44.4103 52.8633 44.1132 53.2909C43.8171 53.7173 43.5803 54.1376 43.4175 54.452C43.3362 54.6089 43.2737 54.7387 43.2317 54.8287C43.2108 54.8737 43.195 54.9087 43.1845 54.9321C43.1793 54.9438 43.1755 54.9526 43.173 54.9583L43.1703 54.9646L43.1697 54.9659L43.1696 54.9661C43.1295 55.0602 43.0441 55.1273 42.9432 55.1441C42.8423 55.161 42.7398 55.1252 42.6712 55.0493L41.6588 53.9277C41.5478 53.8048 41.5575 53.6152 41.6805 53.5042C41.8034 53.3932 41.9931 53.4029 42.104 53.5259L42.8149 54.3134C42.8366 54.2702 42.8599 54.2244 42.8849 54.1761C43.0558 53.8462 43.3056 53.4023 43.6206 52.9488C43.9348 52.4965 44.3195 52.0263 44.7624 51.6503C45.204 51.2753 45.7212 50.9788 46.298 50.9066C46.4623 50.8861 46.6122 51.0026 46.6328 51.167Z" fill="#2A3D52" stroke="#2A3D52" stroke-width="0.3" stroke-linecap="round" stroke-linejoin="round"/>
<path fill-rule="evenodd" clip-rule="evenodd" d="M59.3345 30.1502C59.3345 29.9846 59.4687 29.8503 59.6344 29.8503H66.1957C66.3613 29.8503 66.4956 29.9846 66.4956 30.1502V41.5289C66.4956 41.6945 66.3613 41.8287 66.1957 41.8287C66.0301 41.8287 65.8958 41.6945 65.8958 41.5289V30.4501H59.6344C59.4687 30.4501 59.3345 30.3158 59.3345 30.1502Z" fill="#2A3D52" stroke="#2A3D52" stroke-width="0.3" stroke-linecap="round" stroke-linejoin="round"/>
<path fill-rule="evenodd" clip-rule="evenodd" d="M35.7149 43.2214C35.8805 43.2214 36.0148 43.3557 36.0148 43.5213V55.1495C36.0148 55.3151 35.8805 55.4493 35.7149 55.4493C35.5493 55.4493 35.415 55.3151 35.415 55.1495V43.5213C35.415 43.3557 35.5493 43.2214 35.7149 43.2214Z" fill="#2A3D52" stroke="#2A3D52" stroke-width="0.3" stroke-linecap="round" stroke-linejoin="round"/>
<path fill-rule="evenodd" clip-rule="evenodd" d="M50.1147 69.8494C50.1147 69.6838 50.249 69.5496 50.4146 69.5496H66.1955C66.3611 69.5496 66.4954 69.6838 66.4954 69.8494C66.4954 70.0151 66.3611 70.1493 66.1955 70.1493H50.4146C50.249 70.1493 50.1147 70.0151 50.1147 69.8494Z" fill="#2A3D52" stroke="#2A3D52" stroke-width="0.3" stroke-linecap="round" stroke-linejoin="round"/>
<path fill-rule="evenodd" clip-rule="evenodd" d="M34.1196 64.4805C34.1196 64.3149 34.2539 64.1807 34.4195 64.1807H45.3219C45.4876 64.1807 45.6218 64.3149 45.6218 64.4805C45.6218 64.6462 45.4876 64.7804 45.3219 64.7804H34.4195C34.2539 64.7804 34.1196 64.6462 34.1196 64.4805Z" fill="#2A3D52" stroke="#2A3D52" stroke-width="0.3" stroke-linecap="round" stroke-linejoin="round"/>
</svg>
