<svg width="20" height="21" viewBox="0 0 20 21" fill="none" xmlns="http://www.w3.org/2000/svg">
<mask id="mask0_415_9593" style="mask-type:alpha" maskUnits="userSpaceOnUse" x="0" y="0" width="20" height="21">
<circle cx="10" cy="10.125" r="10" fill="#C4C4C4"/>
</mask>
<g mask="url(#mask0_415_9593)">
<path d="M-2.85718 20.125H24.2857V13.875H-2.85718V20.125Z" fill="#36B563"/>
<path d="M-2.85718 13.875H24.2857V6.375H-2.85718V13.875Z" fill="#EE3145"/>
<path d="M-2.85718 6.375H24.2857V0.125H-2.85718V6.375Z" fill="#18A7D2"/>
<path d="M14.4464 10.2956L13.6785 9.99378L13.9964 9.26338L13.2285 9.56509L12.9105 8.83691L12.5926 9.56509L11.8247 9.26338L12.1425 9.99378L11.3748 10.2956L12.1425 10.5973L11.8247 11.3256L12.5926 11.0238L12.9105 11.7542L13.2285 11.0238L13.9964 11.3256L13.6785 10.5973L14.4464 10.2956Z" fill="white"/>
<path d="M10.893 12.442C9.62141 12.442 8.58938 11.4624 8.58938 10.2552C8.58938 9.04576 9.62153 8.06608 10.893 8.06608C11.6055 8.06608 12.2428 8.37446 12.6668 8.85781C12.1724 8.09464 11.2845 7.58496 10.2709 7.58496C8.71831 7.58496 7.46033 8.78127 7.46033 10.2552C7.46033 11.7291 8.71831 12.9232 10.2709 12.9232C11.2845 12.9232 12.1724 12.4136 12.6668 11.6504C12.2428 12.1338 11.6055 12.442 10.893 12.442Z" fill="white"/>
</g>
</svg>
