<svg width="20" height="20" viewBox="0 0 20 20" fill="none" xmlns="http://www.w3.org/2000/svg">
<g clip-path="url(#clip0_1636_6366)">
<path d="M4.63191 3.4882C5.0023 3.4882 5.30285 3.18797 5.30285 2.81758V0.670703C5.30281 0.300273 5.00227 0 4.63191 0C4.26148 0 3.96094 0.300273 3.96094 0.670664V2.81754C3.96094 3.18793 4.26148 3.4882 4.63191 3.4882Z" fill="#2A3D52"/>
<path d="M9.99875 3.4882C10.3692 3.4882 10.6697 3.18797 10.6697 2.81758V0.670703C10.6697 0.300273 10.3692 0 9.99875 0C9.62832 0 9.32812 0.300273 9.32812 0.670664V2.81754C9.32813 3.18793 9.62836 3.4882 9.99875 3.4882Z" fill="#2A3D52"/>
<path d="M15.366 3.4882C15.7367 3.4882 16.0369 3.18797 16.0369 2.81758V0.670703C16.037 0.300273 15.7367 0 15.366 0C14.9956 0 14.6953 0.300273 14.6953 0.670664V2.81754C14.6954 3.18793 14.9956 3.4882 15.366 3.4882Z" fill="#2A3D52"/>
<path d="M16.5731 1.75391V2.81758C16.5731 3.48312 16.0316 4.02484 15.3655 4.02484C14.7 4.02484 14.1582 3.48309 14.1582 2.81758V1.75391H11.2067V2.81758C11.2067 3.48312 10.665 4.02484 9.99914 4.02484C9.33359 4.02484 8.79188 3.48309 8.79188 2.81758V1.75391H5.84035V2.81758C5.84035 3.48312 5.29855 4.02484 4.63277 4.02484C3.96723 4.02484 3.42516 3.48309 3.42516 2.81758V1.75391H0.697266V20H19.3014V1.75391H16.5731ZM17.6112 18.31H2.38734V5.59051H17.6112V18.31Z" fill="#2A3D52"/>
<rect x="5" y="7.4209" width="2.19081" height="2.19081" fill="#2A3D52"/>
<rect x="8.9043" y="7.4209" width="2.19081" height="2.19081" fill="#2A3D52"/>
<rect x="13" y="7.4209" width="2.19081" height="2.19081" fill="#2A3D52"/>
<rect x="5" y="10.8838" width="2.19081" height="2.19081" fill="#2A3D52"/>
<rect x="5" y="14.3467" width="2.19081" height="2.19081" fill="#2A3D52"/>
<rect x="8.9043" y="10.8838" width="2.19081" height="2.19081" fill="#2A3D52"/>
<rect x="8.9043" y="14.3467" width="2.19081" height="2.19081" fill="#2A3D52"/>
<rect x="13" y="10.8838" width="2.19081" height="2.19081" fill="#2A3D52"/>
<rect x="13" y="14.3467" width="2.19081" height="2.19081" fill="#2A3D52"/>
</g>
<defs>
<clipPath id="clip0_1636_6366">
<rect width="20" height="20" fill="white"/>
</clipPath>
</defs>
</svg>
