<svg width="28" height="24" viewBox="0 0 28 24" fill="none" xmlns="http://www.w3.org/2000/svg">
<path fill-rule="evenodd" clip-rule="evenodd" d="M28 12.0004L24.4983 17.999L20.999 24H13.9996H6.9994L3.4993 17.999L0 12.0004L3.4993 5.99941L6.9994 0H13.9996H20.999L24.4983 5.99941L28 12.0004Z" fill="#8ECFE3"/>
<path d="M13.248 6.8H15.056L14.752 14.464H13.536L13.248 6.8ZM14.16 18.096C13.8613 18.096 13.6107 18 13.408 17.808C13.2053 17.6053 13.104 17.36 13.104 17.072C13.104 16.784 13.2053 16.544 13.408 16.352C13.6107 16.1493 13.8613 16.048 14.16 16.048C14.4587 16.048 14.704 16.1493 14.896 16.352C15.088 16.544 15.184 16.784 15.184 17.072C15.184 17.36 15.0827 17.6053 14.88 17.808C14.688 18 14.448 18.096 14.16 18.096Z" fill="white"/>
</svg>
