<svg width="28" height="24" viewBox="0 0 28 24" fill="none" xmlns="http://www.w3.org/2000/svg">
<path d="M24.0665 17.7469L24.0664 17.7471L20.7118 23.5H13.9996H7.28661L3.93121 17.7471L3.93119 17.7471L0.578828 12.0003L3.93118 6.25137L3.93123 6.25127L7.28657 0.5H13.9996H20.7118L24.0664 6.25132L24.0665 6.2514L27.4211 12.0003L24.0665 17.7469Z" stroke="#2A3D52"/>
<path d="M14.784 9.696L14.496 14.432H13.328L13.04 9.696V6.944H14.784V9.696ZM13.2 16.336C13.392 16.1333 13.632 16.032 13.92 16.032C14.208 16.032 14.448 16.1333 14.64 16.336C14.832 16.528 14.928 16.7733 14.928 17.072C14.928 17.3813 14.832 17.6373 14.64 17.84C14.448 18.0427 14.208 18.144 13.92 18.144C13.632 18.144 13.392 18.0427 13.2 17.84C13.008 17.6373 12.912 17.3813 12.912 17.072C12.912 16.7733 13.008 16.528 13.2 16.336Z" fill="#2A3D52"/>
</svg>
