<svg width="20" height="21" viewBox="0 0 20 21" fill="none" xmlns="http://www.w3.org/2000/svg">
<path d="M10 0.625C4.61425 0.625 0.25 4.99 0.25 10.375C0.25 15.76 4.61425 20.125 10 20.125C15.3842 20.125 19.75 15.76 19.75 10.375C19.75 4.99 15.385 0.625 10 0.625ZM9.92125 18.2703C5.572 18.2703 2.04625 14.7445 2.04625 10.3953C2.04625 6.046 5.572 2.52025 9.92125 2.52025C14.2698 2.52025 17.7962 6.046 17.7962 10.3953C17.7962 14.7445 14.2698 18.2703 9.92125 18.2703ZM12.1975 10.8483H9.9625V7.07425C9.9625 6.66475 9.63025 6.33175 9.22075 6.33175C8.81125 6.33175 8.47825 6.664 8.47825 7.07425V11.59C8.47825 12.0003 8.8105 12.3317 9.22075 12.3317H12.1975C12.6077 12.3317 12.94 12.0003 12.94 11.59C12.94 11.1805 12.6077 10.8483 12.1975 10.8483Z" fill="#8ECFE3"/>
</svg>
