<svg width="24" height="24" viewBox="0 0 24 24" fill="none" xmlns="http://www.w3.org/2000/svg">
<path d="M22.1189 0.0114746H1.88101C0.843879 0.0114746 0 0.854585 0 1.89187V22.1082C0 23.1447 0.843879 23.9885 1.88101 23.9885H22.1189C23.1563 23.9885 24.0001 23.1447 24.0001 22.1082V1.89187C23.9997 0.854585 23.1563 0.0114746 22.1189 0.0114746ZM19.5488 16.7629C20.2786 17.493 20.2786 18.6765 19.5488 19.4051C19.1839 19.7696 18.7051 19.9527 18.2274 19.9527C17.7492 19.9527 17.2715 19.7697 16.9072 19.4051L11.9998 14.4983L7.09232 19.4048C6.72801 19.7693 6.25039 19.9524 5.7724 19.9524C5.29417 19.9524 4.81623 19.7694 4.45131 19.4048C3.72136 18.6759 3.72136 17.4927 4.45131 16.7629L9.35717 11.8564L4.45131 6.94925C3.72136 6.2193 3.72136 5.03655 4.45131 4.30753C5.1808 3.57773 6.36237 3.57773 7.09227 4.30753L11.9998 9.21411L16.9072 4.30753C17.6369 3.57773 18.8189 3.57773 19.5487 4.30753C20.2785 5.03655 20.2785 6.2193 19.5487 6.94925L14.6426 11.8564L19.5488 16.7629Z" fill="#8ECFE3"/>
</svg>
