<svg width="20" height="25" viewBox="0 0 20 25" fill="none" xmlns="http://www.w3.org/2000/svg">
<path d="M3.94165 21.349C2.74217 21.349 1.76543 20.3403 1.76543 19.1007V9.28632H17.2212V14.5194C17.7915 14.6622 18.3256 14.897 18.8112 15.2083L18.7904 4.3394C18.789 3.5948 18.2041 2.99198 17.4831 2.99198H17.4826V2.43879C17.4826 1.13247 16.4537 0.0706787 15.1591 0.0706787C13.8953 0.0706787 12.8666 1.13243 12.8666 2.43879V2.99194H11.8015V2.43879C11.8015 1.13247 10.7726 0.0706787 9.47783 0.0706787C8.21417 0.0706787 7.18526 1.13243 7.18526 2.43879V2.99194H6.12017V2.43879C6.12017 1.13247 5.0915 0.0706787 3.79672 0.0706787C2.53287 0.0706787 1.50481 1.13243 1.50481 2.43879V2.99194C0.78359 2.99194 0.19859 3.59514 0.197465 4.33994L0.175293 19.1007C0.175293 21.246 1.86504 22.9908 3.94161 22.9908H11.2599C10.9591 22.4891 10.7341 21.9371 10.5959 21.3489H3.94165V21.349ZM14.4558 2.43874C14.4558 2.03853 14.7708 1.71239 15.1892 1.71239C15.5768 1.71239 15.8916 2.03853 15.8916 2.43874V5.22682C15.8916 5.62708 15.5768 5.95231 15.1892 5.95231H15.1591C14.7708 5.95231 14.4558 5.62704 14.4558 5.22682V2.43874ZM8.7747 2.43874C8.7747 2.03853 9.09041 1.71239 9.50811 1.71239C9.89553 1.71239 10.2114 2.03853 10.2114 2.43874V5.22682C10.2114 5.62708 9.89553 5.95231 9.50811 5.95231H9.47717C9.09041 5.95231 8.7747 5.62704 8.7747 5.22682V2.43874V2.43874ZM3.09425 2.43874C3.09425 2.03853 3.40911 1.71239 3.827 1.71239C4.21526 1.71239 4.52947 2.03853 4.52947 2.43874V5.22682C4.52947 5.62708 4.21526 5.95231 3.827 5.95231H3.79672C3.40906 5.95231 3.09425 5.62704 3.09425 5.22682V2.43874Z" fill="#8ECFE3"/>
<path d="M15.9251 15.9945C13.7724 15.9945 12.0273 17.7973 12.0273 20.0207C12.0273 22.2448 13.7724 24.0473 15.9251 24.0473C18.0794 24.0473 19.8245 22.2448 19.8245 20.0207C19.8245 17.7973 18.0795 15.9945 15.9251 15.9945ZM17.442 20.9904C17.3665 21.116 17.2365 21.1847 17.1036 21.1847C17.0325 21.1847 16.9601 21.1651 16.8951 21.1234L15.7167 20.3698C15.5989 20.2949 15.5278 20.1631 15.5278 20.0207V17.6413C15.5278 17.4144 15.7062 17.2306 15.9251 17.2306C16.1458 17.2306 16.3233 17.4144 16.3233 17.6413V19.7921L17.3137 20.4252C17.4994 20.5445 17.5577 20.7973 17.442 20.9904Z" fill="#8ECFE3"/>
<path d="M10.5678 15.0542V15.0288C11.5392 14.6773 12.0135 14.0006 12.0135 13.1346C12.0135 12.0187 11.0784 11.1028 9.39016 11.1028C8.56732 11.1028 7.79201 11.2988 7.27427 11.539C7.08363 11.6274 6.98398 11.8468 7.04074 12.0545L7.18887 12.5968C7.22149 12.7163 7.30188 12.8157 7.40984 12.8702C7.51779 12.9247 7.64313 12.9289 7.75446 12.8823C8.10101 12.737 8.54702 12.6084 8.97691 12.6084C9.75513 12.6084 10.1434 12.9724 10.1434 13.4611C10.1434 14.1511 9.35318 14.3894 8.73377 14.4019H8.43977C8.20662 14.4019 8.01762 14.5971 8.01762 14.8379V15.3327C8.01762 15.5735 8.20662 15.7687 8.43977 15.7687H8.7708C9.58432 15.7687 10.3617 16.1331 10.3617 16.9358C10.3617 17.5501 9.87588 18.0271 8.91659 18.0271C8.40405 18.0271 7.89223 17.8762 7.51404 17.7244C7.40252 17.6796 7.27779 17.6859 7.17096 17.7416C7.06409 17.7972 6.98473 17.897 6.95332 18.0163L6.79465 18.6191C6.73995 18.8269 6.84016 19.0439 7.03071 19.1314C7.52032 19.3562 8.23455 19.532 9.04952 19.532C9.58962 19.532 10.0671 19.4501 10.4848 19.3105C10.6396 18.0467 11.1949 16.9108 12.0189 16.0468C11.7159 15.5226 11.1828 15.1681 10.5678 15.0542Z" fill="#8ECFE3"/>
</svg>
