<svg width="100" height="100" viewBox="0 0 100 100" fill="none" xmlns="http://www.w3.org/2000/svg">
<g clip-path="url(#clip0_420_2654)">
<path d="M41.0292 62.3862C24.8797 62.3862 11.7866 49.2945 11.7866 33.1451C11.7866 16.9958 24.8797 3.90234 41.0292 3.90234" fill="#8ECFE3"/>
<path d="M41.0294 66.2884C22.7523 66.2884 7.88428 51.4203 7.88428 33.1449C7.88428 14.8694 22.7523 0 41.0294 0C43.185 0 44.9316 1.74664 44.9316 3.90229C44.9316 6.05794 43.185 7.80458 41.0294 7.80458C27.0575 7.80458 15.6891 19.1714 15.6891 33.1433C15.6891 47.1152 27.0575 58.482 41.0294 58.482C43.185 58.482 44.9316 60.2286 44.9316 62.3843C44.9316 64.5401 43.185 66.2884 41.0294 66.2884Z" fill="#2A3D52"/>
<path d="M58.9707 37.6157C75.1232 37.6157 88.2133 50.7058 88.2133 66.8553C88.2133 83.0079 75.1216 96.0963 58.9707 96.0963" fill="#8ECFE3"/>
<path d="M58.9706 99.9998C56.815 99.9998 55.0684 98.2532 55.0684 96.0976C55.0684 93.9419 56.815 92.1953 58.9706 92.1953C72.9441 92.1953 84.3109 80.8285 84.3109 66.8566C84.3109 52.8862 72.9441 41.5194 58.9706 41.5194C56.815 41.5194 55.0684 39.7728 55.0684 37.6171C55.0684 35.4615 56.815 33.7148 58.9706 33.7148C77.2477 33.7148 92.1157 48.5813 92.1157 66.8568C92.1157 85.1322 77.2477 99.9998 58.9706 99.9998Z" fill="#2A3D52"/>
<path d="M52.4678 62.3535H60.4739V70.3594" fill="#8ECFE3"/>
<path d="M60.4741 74.2617C58.3185 74.2617 56.5718 72.515 56.5718 70.3594V66.2557H52.4682C50.3126 66.2557 48.5659 64.5091 48.5659 62.3535C48.5659 60.1978 50.3126 58.4512 52.4682 58.4512H60.4743C62.63 58.4512 64.3766 60.1978 64.3766 62.3535V70.3596C64.3764 72.5148 62.6298 74.2617 60.4741 74.2617Z" fill="#2A3D52"/>
<path d="M47.532 37.6467H39.5259V29.6406" fill="#8ECFE3"/>
<path d="M47.5319 41.549H39.5258C37.3702 41.549 35.6235 39.8023 35.6235 37.6467V29.6406C35.6235 27.4849 37.3702 25.7383 39.5258 25.7383C41.6815 25.7383 43.4281 27.4849 43.4281 29.6406V33.7442H47.5317C49.6874 33.7442 51.434 35.4908 51.434 37.6465C51.434 39.8021 49.6876 41.549 47.5319 41.549Z" fill="#2A3D52"/>
<path d="M43.6578 51.6593C44.5742 51.6593 45.317 50.9164 45.317 50.0001C45.317 49.0837 44.5742 48.3408 43.6578 48.3408C42.7414 48.3408 41.9985 49.0837 41.9985 50.0001C41.9985 50.9164 42.7414 51.6593 43.6578 51.6593Z" fill="#8ECFE3"/>
<path d="M50.0001 51.6593C50.9164 51.6593 51.6593 50.9164 51.6593 50.0001C51.6593 49.0837 50.9164 48.3408 50.0001 48.3408C49.0837 48.3408 48.3408 49.0837 48.3408 50.0001C48.3408 50.9164 49.0837 51.6593 50.0001 51.6593Z" fill="#8ECFE3"/>
<path d="M56.3403 51.6576C57.2558 51.6576 57.9979 50.9154 57.9979 49.9999C57.9979 49.0844 57.2558 48.3423 56.3403 48.3423C55.4248 48.3423 54.6826 49.0844 54.6826 49.9999C54.6826 50.9154 55.4248 51.6576 56.3403 51.6576Z" fill="#8ECFE3"/>
</g>
<defs>
<clipPath id="clip0_420_2654">
<rect width="100" height="100" fill="white"/>
</clipPath>
</defs>
</svg>
