<svg width="16" height="12" viewBox="0 0 16 12" fill="none" xmlns="http://www.w3.org/2000/svg">
<path d="M2.91943 9.46584C2.98604 9.44941 3.05355 9.48941 3.07019 9.5552C3.08681 9.62103 3.04633 9.68772 2.97972 9.70419L1.52883 10.0624C1.48505 10.0733 1.44079 10.0596 1.41095 10.0303L0.970817 9.62949C0.944998 9.606 0.931552 9.57417 0.930799 9.54202C0.908998 9.14359 0.830468 8.78705 0.754061 8.44006C0.674184 8.07727 0.596477 7.7245 0.584446 7.33193L0.0719706 7.07294C0.029738 7.05164 0.00515182 7.00964 0.00442131 6.96582L1.54277e-05 6.69928C-0.000441141 6.67042 0.00926094 6.64371 0.0258115 6.62253L0.909728 5.3514L0.589012 4.62235C0.581364 4.60498 0.578077 4.5868 0.578716 4.56904C0.533242 2.32163 1.56748 0.965527 2.91119 0.364707C3.48811 0.106733 4.12214 -0.0108951 4.75196 0.000791039C5.3812 0.012432 6.00658 0.153365 6.56689 0.412264C7.8463 1.00365 8.78816 2.20768 8.67301 3.89434C8.66865 3.95925 8.61391 4.00897 8.54903 4.00892L6.14493 4.00915C6.07621 4.00915 6.02046 3.95406 6.02046 3.88615C6.02046 3.81822 6.07621 3.76311 6.14493 3.76311H8.43101C8.48879 2.25246 7.62514 1.17195 6.4619 0.634255C5.93299 0.389817 5.34244 0.256825 4.74808 0.245816C4.15426 0.234784 3.55671 0.345599 3.01332 0.588593C1.75673 1.15047 0.789057 2.42604 0.826427 4.54675L1.16461 5.31547L1.16433 5.31562C1.18075 5.35298 1.17796 5.39761 1.15294 5.43368L0.248571 6.73415L0.251105 6.88835L0.760453 7.14572C0.801841 7.16537 0.830514 7.20692 0.830902 7.25529C0.834394 7.64903 0.914591 8.01308 0.997161 8.38817C1.0724 8.72997 1.14968 9.0809 1.17591 9.48237L1.53354 9.80805L2.91943 9.46584Z" fill="#2A3D52"/>
<path fill-rule="evenodd" clip-rule="evenodd" d="M6.47932 3.88585L6.37883 4.05774L6.27841 4.22969H6.07754H5.87665L5.7762 4.05774L5.67578 3.88585L5.7762 3.7139L5.87665 3.54199H6.07754H6.27841L6.37883 3.7139L6.47932 3.88585Z" fill="#2A3D52"/>
<path d="M6.14847 8.77237H5.56562L5.45444 9.03822H5.15674L5.71629 7.79766H6.00324L6.56457 9.03822H6.25967L6.1485 8.77237H6.14847ZM6.057 8.55442L5.85794 8.07946L5.65887 8.55442H6.057V8.55442ZM7.27825 9.05949C7.15035 9.05949 7.03467 9.03204 6.93126 8.97708C6.8278 8.92215 6.74653 8.84596 6.68734 8.74846C6.62817 8.65095 6.59858 8.54077 6.59858 8.41791C6.59858 8.29505 6.62817 8.18491 6.68734 8.08743C6.74653 7.98992 6.82783 7.91376 6.93126 7.85878C7.03467 7.80385 7.15094 7.77637 7.28003 7.77637C7.38883 7.77637 7.48716 7.7953 7.57502 7.83306C7.66291 7.87087 7.73676 7.92524 7.79648 7.99615L7.61 8.16625C7.52512 8.06938 7.41995 8.02094 7.29442 8.02094C7.21671 8.02094 7.14735 8.03779 7.08638 8.07143C7.02543 8.10513 6.97788 8.15208 6.94377 8.21236C6.90973 8.27262 6.8927 8.34111 6.8927 8.41789C6.8927 8.4947 6.90973 8.56326 6.94377 8.6235C6.97788 8.68376 7.02541 8.73068 7.08638 8.76439C7.14735 8.79809 7.21671 8.8149 7.29442 8.8149C7.41995 8.8149 7.52514 8.76585 7.61 8.66781L7.79648 8.83791C7.73676 8.91001 7.66264 8.96492 7.57418 9.00273C7.48567 9.04057 7.38703 9.05945 7.27825 9.05945V9.05949ZM8.79363 8.77237H8.21077L8.0996 9.03822H7.80189L8.36144 7.79766H8.64839L9.20968 9.03822H8.90482L8.79365 8.77237H8.79363ZM8.70215 8.55442L8.50311 8.07946L8.30405 8.55442H8.70215ZM9.3406 7.79766H9.91085C10.0472 7.79766 10.1676 7.82334 10.2722 7.87473C10.3768 7.92612 10.4581 7.99849 10.5161 8.09182C10.5741 8.18518 10.6031 8.2939 10.6031 8.41791C10.6031 8.54199 10.5741 8.65068 10.5161 8.74404C10.4581 8.83737 10.3768 8.90974 10.2722 8.96113C10.1676 9.01252 10.0472 9.0382 9.91085 9.0382H9.3406V7.79764V7.79766ZM9.89654 8.80253C10.0221 8.80253 10.1222 8.76799 10.1969 8.69887C10.2717 8.62972 10.309 8.53612 10.309 8.41791C10.309 8.29978 10.2717 8.20614 10.1969 8.13699C10.1222 8.06789 10.0221 8.03333 9.89654 8.03333H9.63109V8.80251H9.89654V8.80253ZM11.7939 8.80786V9.03822H10.8219V7.79766H11.7706V8.02802H11.1106V8.29741H11.6935V8.52071H11.1106V8.80786H11.7939V8.80786ZM13.1676 9.03822L13.1658 8.29392L12.7963 8.9071H12.6655L12.2979 8.30985V9.03824H12.0253V7.79769H12.2655L12.7354 8.56859L13.1981 7.79769H13.4366L13.4402 9.03824H13.1676V9.03822ZM14.3404 8.59873V9.03822H14.0499V8.59516L13.5639 7.79766H13.8724L14.2077 8.34881L14.543 7.79766H14.8282L14.3404 8.59873H14.3404Z" fill="#2A3D52"/>
<path d="M6.06864 9.35791C6.33697 9.35791 6.54808 9.4213 6.70197 9.54805C6.85586 9.67474 6.93281 9.84929 6.93281 10.0716C6.93281 10.2938 6.85588 10.4683 6.70197 10.595C6.54811 10.7218 6.33697 10.7852 6.06864 10.7852H5.55664V11.4052H5.26074V9.35793H6.06864V9.35791ZM6.05976 10.5307C6.2472 10.5307 6.39027 10.4912 6.48889 10.4122C6.58753 10.3333 6.63688 10.2197 6.63688 10.0715C6.63688 9.92333 6.58753 9.80974 6.48889 9.73081C6.39029 9.65185 6.24723 9.61234 6.05976 9.61234H5.55664V10.5307H6.05976V10.5307Z" fill="#2A3D52"/>
<path d="M7.36816 9.35791H7.66411V11.1507H8.78572V11.4052H7.36816V9.35791Z" fill="#2A3D52"/>
<path d="M10.5907 10.8933H9.48978L9.26186 11.4051H8.95703L9.89519 9.35791H10.1881L11.1293 11.4051H10.8185L10.5906 10.8933H10.5907ZM10.4871 10.6594L10.0402 9.65622L9.5933 10.6594H10.4871H10.4871Z" fill="#2A3D52"/>
<path d="M11.6092 9.61239H10.8989V9.35791H12.6124V9.61239H11.9021V11.4052H11.6092V9.61239Z" fill="#2A3D52"/>
<path d="M13.8402 11.4285C13.6311 11.4285 13.4427 11.3832 13.275 11.2925C13.1073 11.2019 12.9756 11.0766 12.8799 10.9167C12.7842 10.7568 12.7363 10.5784 12.7363 10.3815C12.7363 10.1846 12.7842 10.0062 12.8799 9.84625C12.9756 9.68641 13.1073 9.56113 13.275 9.47044C13.4427 9.37977 13.6311 9.33447 13.8402 9.33447C14.0474 9.33447 14.2349 9.37977 14.4025 9.47044L14.4094 9.47421L14.2071 9.67466C14.0967 9.62137 13.9744 9.59475 13.8402 9.59475C13.6883 9.59475 13.5507 9.62888 13.4274 9.6971C13.304 9.76537 13.2074 9.85945 13.1373 9.97935C13.0673 10.0993 13.0323 10.2333 13.0323 10.3815C13.0323 10.5297 13.0673 10.6637 13.1373 10.7836C13.2074 10.9035 13.304 10.9976 13.4274 11.0659C13.5507 11.1341 13.6883 11.1682 13.8402 11.1682C13.9921 11.1682 14.1287 11.1341 14.2501 11.0659C14.3715 10.9976 14.4671 10.9035 14.5372 10.7836C14.6072 10.6637 14.6423 10.5297 14.6423 10.3815C14.6423 10.2574 14.6177 10.1432 14.5685 10.0389L14.7842 9.82522C14.7882 9.83172 14.7922 9.83822 14.7962 9.84483C14.8909 10.0037 14.9382 10.1826 14.9382 10.3815C14.9382 10.5804 14.8909 10.7593 14.7962 10.9182C14.7015 11.0771 14.5703 11.2019 14.4026 11.2925C14.2349 11.3832 14.0474 11.4285 13.8403 11.4285H13.8402Z" fill="#2A3D52"/>
<path d="M3.6099 4.89886L4.34544 4.16805V1.66255C4.34544 1.59464 4.40118 1.53955 4.46994 1.53955C4.53866 1.53955 4.5944 1.59464 4.5944 1.66255V3.32351L5.54685 2.38379V1.51316C5.54685 1.44525 5.60264 1.39014 5.67136 1.39014C5.74009 1.39014 5.79586 1.44525 5.79586 1.51316V2.43401H5.7955C5.7955 2.46524 5.78344 2.49653 5.75938 2.52051L4.5944 3.67008V4.21829H4.59408C4.59408 4.24956 4.58201 4.28085 4.55795 4.30478L3.60993 5.24666V7.54847L4.34546 6.81775V5.94713C4.34546 5.87916 4.40121 5.82407 4.46996 5.82407C4.53868 5.82407 4.59443 5.87916 4.59443 5.94713V6.86799H4.59411C4.59411 6.89923 4.58203 6.93046 4.55797 6.95444L3.60995 7.89623V8.61037V9.45069V11.1165L4.32779 10.8218V8.30019C4.32779 8.26619 4.3427 8.23565 4.36635 8.21449L5.96806 6.55447L5.96393 5.24996C5.96393 5.1867 6.01566 5.13531 6.07951 5.13484L8.27996 5.10979C8.34427 5.10934 8.39689 5.16051 8.39732 5.22406C8.39782 5.28761 8.34603 5.33959 8.28176 5.34004L6.19726 5.36375L6.20084 6.48415L7.22606 6.47253C7.29037 6.47208 7.34297 6.52325 7.34343 6.5868C7.34388 6.65035 7.29213 6.70233 7.22784 6.70278L6.1353 6.71512L4.56169 8.34592V10.8987C4.56148 10.9439 4.53436 10.9868 4.48948 11.0052L3.5448 11.393C3.52918 11.4007 3.51154 11.405 3.49295 11.405C3.42837 11.405 3.376 11.3532 3.376 11.2894V9.45066V8.84195L2.05894 7.53351C2.03488 7.50962 2.02287 7.47833 2.02287 7.44706H2.02246V6.17846C2.02246 6.11049 2.07823 6.05542 2.14697 6.05542C2.21568 6.05542 2.27143 6.11049 2.27143 6.17846V7.3968L3.376 8.49412V7.87965C3.36644 7.85314 3.36644 7.82397 3.376 7.79742V4.60657L2.42792 3.66457C2.40388 3.64066 2.39185 3.60939 2.39185 3.5781H2.39146V2.65731C2.39146 2.58932 2.44725 2.53427 2.51597 2.53427C2.5847 2.53427 2.64047 2.58932 2.64047 2.65731V3.5279L3.37603 4.25876V3.59861C3.37603 3.5307 3.42842 3.47563 3.49298 3.47563C3.55756 3.47563 3.60993 3.5307 3.60993 3.59861V4.89879L3.6099 4.89886Z" fill="#2A3D52"/>
<path fill-rule="evenodd" clip-rule="evenodd" d="M2.51592 2.10547L2.68989 2.20478L2.86385 2.304V2.5025V2.70108L2.68989 2.8003L2.51592 2.89958L2.34197 2.8003L2.16797 2.70108V2.5025V2.304L2.34197 2.20478L2.51592 2.10547Z" fill="#2A3D52"/>
<path fill-rule="evenodd" clip-rule="evenodd" d="M3.49263 3.18066L3.6401 3.26481L3.78757 3.34894V3.51722V3.68547L3.6401 3.76957L3.49263 3.85372L3.3452 3.76957L3.19775 3.68547V3.51722V3.34894L3.3452 3.26481L3.49263 3.18066Z" fill="#2A3D52"/>
<path fill-rule="evenodd" clip-rule="evenodd" d="M4.46992 1.17871L4.65677 1.28535L4.84364 1.39197V1.60519V1.81842L4.65677 1.92507L4.46992 2.03168L4.28306 1.92507L4.09619 1.81842V1.60519V1.39197L4.28306 1.28535L4.46992 1.17871Z" fill="#2A3D52"/>
<path fill-rule="evenodd" clip-rule="evenodd" d="M2.14697 5.84229L2.2944 5.92641L2.44187 6.01056V6.17877V6.34704L2.2944 6.43117L2.14697 6.51532L1.99952 6.43117L1.85205 6.34704V6.17877V6.01056L1.99952 5.92641L2.14697 5.84229Z" fill="#2A3D52"/>
<path fill-rule="evenodd" clip-rule="evenodd" d="M4.47002 5.5498L4.64397 5.64911L4.81795 5.74836V5.94688V6.14539L4.64397 6.24465L4.47002 6.34392L4.29607 6.24465L4.12207 6.14539V5.94688V5.74836L4.29607 5.64911L4.47002 5.5498Z" fill="#2A3D52"/>
<path fill-rule="evenodd" clip-rule="evenodd" d="M5.67117 0.993164L5.84517 1.09243L6.0191 1.19169V1.3902V1.58873L5.84517 1.68799L5.67117 1.78728L5.49719 1.68799L5.32324 1.58873V1.3902V1.19169L5.49719 1.09243L5.67117 0.993164Z" fill="#2A3D52"/>
<path fill-rule="evenodd" clip-rule="evenodd" d="M8.68244 5.2247L8.58198 5.39665L8.48155 5.56854H8.28064H8.07977L7.97935 5.39665L7.87891 5.2247L7.97935 5.05281L8.07977 4.88086H8.28064H8.48155L8.58198 5.05281L8.68244 5.2247Z" fill="#2A3D52"/>
<path fill-rule="evenodd" clip-rule="evenodd" d="M7.71953 6.58798L7.61908 6.75995L7.51862 6.93184H7.31775H7.11688L7.01641 6.75995L6.91602 6.58798L7.01641 6.41609L7.11688 6.24414H7.31775H7.51862L7.61908 6.41609L7.71953 6.58798Z" fill="#2A3D52"/>
<path fill-rule="evenodd" clip-rule="evenodd" d="M15.9996 7.90083V7.71006V7.51934L15.8325 7.42397L15.6653 7.32861L15.4982 7.42397L15.331 7.51934V7.71006V7.90083L15.4982 7.99617L15.5458 8.02328V8.5465L13.9704 10.1074L13.8333 10.0292L13.6662 10.1245L13.499 10.2199V10.4106V10.6014L13.6662 10.6967L13.8333 10.7921L14.0005 10.6967L14.1676 10.6014V10.4106V10.2457L15.7499 8.67789C15.773 8.6549 15.7846 8.62485 15.7846 8.5948H15.7849V8.02328L15.8325 7.99617L15.9996 7.90083V7.90083Z" fill="url(#paint0_linear_1901_6410)"/>
<defs>
<linearGradient id="paint0_linear_1901_6410" x1="14.9532" y1="7.3465" x2="14.5546" y2="10.7757" gradientUnits="userSpaceOnUse">
<stop stop-color="#6B3C92"/>
<stop offset="0.588235" stop-color="#5D82C1"/>
<stop offset="1" stop-color="#4FC8F1"/>
</linearGradient>
</defs>
</svg>
