<svg width="100" height="100" viewBox="0 0 100 100" fill="none" xmlns="http://www.w3.org/2000/svg">
<path d="M50 0C22.4299 0 0 22.4299 0 50C0 77.5701 22.4299 100 50 100C77.5701 100 100 77.5701 100 50C100 22.4299 77.5701 0 50 0ZM50 92.233C26.7126 92.233 7.76699 73.2871 7.76699 50C7.76699 26.7126 26.7126 7.76699 50 7.76699C73.2874 7.76699 92.233 26.7126 92.233 50C92.233 73.2871 73.2874 92.233 50 92.233Z" fill="#8ECFE3"/>
<path d="M50 19.4175C33.1367 19.4175 19.4175 33.1367 19.4175 50C19.4175 66.8634 33.1367 80.5825 50 80.5825C55.6918 80.5825 61.0243 79.0177 65.593 76.2985L63.4527 74.0806C63.2209 74.6211 62.8859 75.1053 62.4585 75.5175C61.6296 76.318 60.5357 76.76 59.3799 76.76C57.5711 76.7546 55.967 75.6779 55.2816 74.0172L54.5939 72.3507C53.1097 72.6553 51.5733 72.8155 50 72.8155C37.4194 72.8155 27.1845 62.5806 27.1845 50C27.1845 37.4194 37.4194 27.1845 50 27.1845C62.5806 27.1845 72.8155 37.4194 72.8155 50C72.8155 51.7956 72.6063 53.5432 72.2121 55.2204L73.9444 56.0083C75.5811 56.7536 76.5993 58.3954 76.5396 60.1915C76.4811 61.9709 75.3743 63.5311 73.7163 64.1765L75.8257 66.3629C78.8364 61.6282 80.5825 56.0143 80.5825 50C80.5825 33.1367 66.8634 19.4175 50 19.4175Z" fill="#8ECFE3"/>
<path d="M50.2031 45.6448C50.8387 45.6448 51.4548 45.7781 52.0339 46.0405L59.1941 49.298C58.8346 44.5324 54.8574 40.7769 50.0002 40.7769C44.9062 40.7769 40.7769 44.9062 40.7769 50.0002C40.7769 54.8113 44.4613 58.7604 49.1623 59.1839L46.1036 51.7698C45.4048 50.0764 45.8053 48.1599 47.1242 46.8878C47.9526 46.0871 49.047 45.6448 50.2031 45.6448Z" fill="#8ECFE3"/>
<path d="M67.5822 62.7265L72.7128 60.7869C73.0118 60.6729 73.214 60.3908 73.2247 60.0707C73.2358 59.7508 73.0521 59.4556 72.7606 59.3226L50.855 49.3566C50.5582 49.2221 50.2101 49.2821 49.9754 49.5083C49.7412 49.7343 49.6686 50.0801 49.7929 50.3814L58.9713 72.6282C59.0934 72.9248 59.3815 73.1187 59.7021 73.119C59.9126 73.1195 60.1101 73.0367 60.2553 72.8964C60.3315 72.8229 60.3936 72.734 60.4361 72.6323L62.5577 67.5741L70.4392 75.7413C70.7431 76.0568 71.2453 76.0656 71.5608 75.7612L75.4431 72.0148C75.7584 71.7105 75.7674 71.2083 75.4628 70.8932L67.5822 62.7265Z" fill="#2A3D52"/>
</svg>
