<svg width="100" height="100" viewBox="0 0 100 100" fill="none" xmlns="http://www.w3.org/2000/svg">
<g clip-path="url(#clip0_420_2638)">
<path d="M94.9939 51.0704C100.877 39.5435 100.545 29.9716 99.1294 23.8104C97.1904 15.3745 91.9789 8.10977 84.8311 3.87818C78.566 0.168989 71.3876 -0.923073 64.6185 0.8035C59.0803 2.21645 54.107 5.4181 49.9875 10.1772C43.0776 2.23433 33.7763 -1.35426 24.1562 0.463518C12.2205 2.71855 2.71705 12.8307 0.508383 25.6258C-1.1591 35.2852 1.30531 45.678 7.63466 55.6805C14.7249 66.885 26.4236 77.3563 42.4082 86.8155C48.1946 94.7977 57.5913 100 68.1823 100C85.7259 100 99.9987 85.7273 99.9987 68.1837C99.9984 61.8886 98.1609 56.015 94.9939 51.0704ZM15.3164 50.8192C10.2112 42.7518 8.18857 34.575 9.46608 27.1721C11.0333 18.0944 17.6147 10.9505 25.8443 9.39545C33.6502 7.92129 41.0356 11.8774 46.1056 20.2509C46.9289 21.6105 48.403 22.4414 49.9927 22.4417C49.993 22.4417 49.9933 22.4417 49.9936 22.4417C51.5829 22.4417 53.057 21.6115 53.8806 20.2518C61.8247 7.14194 73.0241 7.45101 80.2001 11.7002C89.1375 16.9911 94.1787 29.2462 88.3994 43.6333C82.8988 39.0956 75.8534 36.3667 68.182 36.3667C50.6381 36.3667 36.3655 50.6396 36.3655 68.1831C36.3655 69.5503 36.4522 70.8975 36.6207 72.2199C27.1736 65.4375 20.0303 58.2688 15.3164 50.8192ZM68.182 90.9095C55.6508 90.9095 45.4559 80.7146 45.4559 68.1834C45.4559 55.6523 55.6508 45.4574 68.182 45.4574C80.7131 45.4574 90.908 55.6523 90.908 68.1834C90.908 80.7146 80.7134 90.9095 68.182 90.9095Z" fill="#8ECFE3"/>
<path d="M74.6647 58.3035L64.2428 68.7253L61.3963 65.8788C59.6216 64.1041 56.7436 64.1041 54.9685 65.8788C53.1934 67.6536 53.1934 70.5316 54.9685 72.3066L61.0288 78.3669C61.9163 79.2545 63.0796 79.6984 64.2425 79.6984C65.4055 79.6984 66.5691 79.2545 67.4563 78.3669L81.0919 64.7313C82.867 62.9565 82.867 60.0785 81.0919 58.3035C79.3175 56.5284 76.4394 56.5284 74.6647 58.3035Z" fill="#2A3D52"/>
</g>
<defs>
<clipPath id="clip0_420_2638">
<rect width="100" height="100" fill="white"/>
</clipPath>
</defs>
</svg>
