<svg width="22" height="22" viewBox="0 0 22 22" fill="none" xmlns="http://www.w3.org/2000/svg">
<path d="M12.9897 18.0294C11.1346 18.0294 9.4209 17.4641 7.98985 16.51L2.81333 21.6865C2.40681 22.0929 1.73545 22.0929 1.31161 21.6865L0.304579 20.6795C-0.101768 20.2732 -0.101768 19.6018 0.304579 19.1778L5.49876 14.0189C4.5449 12.5879 3.97937 10.8742 3.97937 9.0191C3.97937 4.0546 8.02518 0.00878906 12.9897 0.00878906C17.9542 0.00878906 22 4.0546 22 9.0191C22 13.9834 17.9719 18.0294 12.9897 18.0294ZM12.9897 3.54224C9.96858 3.54224 7.51283 5.998 7.51283 9.0191C7.51283 12.0402 9.96858 14.496 12.9897 14.496C16.0108 14.496 18.4665 12.0402 18.4665 9.0191C18.4665 5.998 16.0108 3.54224 12.9897 3.54224Z" fill="#8ECFE3"/>
</svg>
