<svg width="168" height="120" viewBox="0 0 168 120" fill="none" xmlns="http://www.w3.org/2000/svg">
<path d="M30.654 99.3913C31.3534 99.2188 32.0622 99.6388 32.237 100.33C32.4115 101.021 31.9865 101.721 31.287 101.894L16.0528 105.656C15.593 105.77 15.1283 105.626 14.815 105.318L10.1936 101.11C9.92248 100.863 9.7813 100.529 9.77339 100.191C9.54448 96.0077 8.71991 92.264 7.91764 88.6206C7.07894 84.8113 6.263 81.1072 6.13668 76.9853L0.755692 74.2659C0.312249 74.0422 0.0540942 73.6012 0.0464238 73.1412L0.000161991 70.3424C-0.00463198 70.0394 0.0972399 69.759 0.271021 69.5365L9.55215 56.1897L6.18462 48.5347C6.10432 48.3523 6.06981 48.1614 6.07652 47.975C5.59904 24.3772 16.4586 10.138 30.5675 3.82943C36.6251 1.1207 43.2825 -0.114398 49.8956 0.00830591C56.5026 0.130536 63.0691 1.61033 68.9523 4.32877C82.3862 10.5384 92.2757 23.1807 91.0667 40.8906C91.0209 41.5721 90.4461 42.0942 89.7648 42.0937L64.5217 42.0961C63.8002 42.0961 63.2149 41.5176 63.2149 40.8046C63.2149 40.0913 63.8002 39.5126 64.5217 39.5126H88.5256C89.1323 23.6509 80.064 12.3055 67.8499 6.65968C62.2964 4.09307 56.0956 2.69666 49.8548 2.58107C43.6198 2.46523 37.3454 3.62879 31.6399 6.18023C18.4457 12.08 8.2851 25.4734 8.67749 47.7409L12.2284 55.8124L12.2255 55.814C12.3978 56.2063 12.3686 56.6749 12.1059 57.0536L2.61 70.7086L2.63661 72.3277L7.98476 75.03C8.41933 75.2364 8.72039 75.6727 8.72447 76.1806C8.76114 80.3148 9.6032 84.1374 10.4702 88.0758C11.2602 91.6647 12.0716 95.3494 12.347 99.5649L16.1021 102.985L30.654 99.3913Z" fill="#2A3D52"/>
<path fill-rule="evenodd" clip-rule="evenodd" d="M68.0338 40.8049L66.9787 42.6097L65.9243 44.4152H63.8151H61.7058L60.6511 42.6097L59.5967 40.8049L60.6511 38.9994L61.7058 37.1943H63.8151H65.9243L66.9787 38.9994L68.0338 40.8049Z" fill="#2A3D52"/>
<path d="M64.5593 92.1079H58.4393L57.272 94.8993H54.1461L60.0213 81.8735H63.0343L68.9283 94.8993H65.7269L64.5595 92.1079H64.5593ZM63.5988 89.8194L61.5086 84.8324L59.4185 89.8194H63.5988ZM76.422 95.1227C75.0789 95.1227 73.8644 94.8344 72.7785 94.2574C71.6922 93.6806 70.8389 92.8807 70.2174 91.8569C69.5961 90.8331 69.2854 89.6761 69.2854 88.3861C69.2854 87.096 69.5961 85.9396 70.2174 84.916C70.8389 83.8922 71.6925 83.0925 72.7785 82.5152C73.8644 81.9384 75.0852 81.6499 76.4407 81.6499C77.5831 81.6499 78.6154 81.8486 79.538 82.2452C80.4609 82.6422 81.2363 83.2131 81.8634 83.9576L79.9053 85.7437C79.0141 84.7265 77.9098 84.2179 76.5917 84.2179C75.7757 84.2179 75.0475 84.3949 74.4073 84.7481C73.7673 85.102 73.268 85.5949 72.9099 86.2279C72.5525 86.8606 72.3737 87.5797 72.3737 88.3858C72.3737 89.1924 72.5525 89.9123 72.9099 90.5448C73.268 91.1775 73.7671 91.6702 74.4073 92.0241C75.0475 92.378 75.7757 92.5545 76.5917 92.5545C77.9098 92.5545 79.0143 92.0395 79.9053 91.01L81.8634 92.7961C81.2363 93.5532 80.458 94.1297 79.5292 94.5267C78.5999 94.924 77.5641 95.1223 76.422 95.1223V95.1227ZM92.3334 92.1079H86.2134L85.0461 94.8993H81.9202L87.7954 81.8735H90.8084L96.7019 94.8993H93.501L92.3336 92.1079H92.3334ZM91.3729 89.8194L89.283 84.8324L87.1928 89.8194H91.3729ZM98.0766 81.8735H104.064C105.495 81.8735 106.76 82.1431 107.858 82.6827C108.957 83.2223 109.81 83.9822 110.42 84.9622C111.028 85.9424 111.333 87.0839 111.333 88.3861C111.333 89.6889 111.028 90.8302 110.42 91.8104C109.81 92.7904 108.957 93.5503 107.858 94.0899C106.76 94.6295 105.495 94.8991 104.064 94.8991H98.0766V81.8733V81.8735ZM103.914 92.4247C105.232 92.4247 106.283 92.062 107.068 91.3362C107.853 90.6102 108.245 89.6273 108.245 88.3861C108.245 87.1458 107.853 86.1625 107.068 85.4364C106.284 84.7109 105.232 84.348 103.914 84.348H101.127V92.4244H103.914V92.4247ZM123.836 92.4806V94.8993H113.63V81.8735H123.591V84.2923H116.662V87.1209H122.782V89.4655H116.662V92.4806H123.836ZM138.26 94.8993L138.241 87.0842L134.362 93.5226H132.988L129.128 87.2514V94.8996H126.266V81.8738H128.788L133.722 89.9682L138.58 81.8738H141.084L141.122 94.8996H138.26V94.8993ZM150.575 90.2847V94.8993H147.524V90.2473L142.422 81.8735H145.66L149.181 87.6605L152.702 81.8735H155.696L150.574 90.2847H150.575Z" fill="#2A3D52"/>
<path d="M63.7247 98.2583C66.5421 98.2583 68.7588 98.9239 70.3746 100.255C71.9904 101.585 72.7985 103.418 72.7985 105.752C72.7985 108.085 71.9907 109.917 70.3746 111.248C68.7591 112.579 66.5421 113.245 63.7247 113.245H58.3487V119.755H55.2418V98.2585H63.7247V98.2583ZM63.6314 110.573C65.5996 110.573 67.1018 110.158 68.1373 109.329C69.173 108.5 69.6913 107.307 69.6913 105.751C69.6913 104.195 69.173 103.003 68.1373 102.174C67.102 101.345 65.5998 100.93 63.6314 100.93H58.3487V110.572H63.6314V110.573Z" fill="#2A3D52"/>
<path d="M77.3654 98.2583H80.4729V117.083H92.2498V119.755H77.3654V98.2583Z" fill="#2A3D52"/>
<path d="M111.201 114.38H99.6414L97.2482 119.754H94.0475L103.898 98.2583H106.974L116.856 119.754H113.593L111.2 114.38H111.201ZM110.113 111.924L105.421 101.391L100.728 111.924H110.113H110.113Z" fill="#2A3D52"/>
<path d="M121.896 100.93H114.438V98.2583H132.43V100.93H124.972V119.755H121.896V100.93Z" fill="#2A3D52"/>
<path d="M145.326 120C143.129 120 141.151 119.524 139.39 118.572C137.629 117.62 136.247 116.305 135.242 114.626C134.237 112.947 133.734 111.074 133.734 109.006C133.734 106.938 134.237 105.065 135.242 103.386C136.246 101.708 137.629 100.392 139.39 99.4399C141.151 98.4879 143.13 98.0122 145.326 98.0122C147.5 98.0122 149.469 98.4879 151.23 99.4399L151.301 99.4794L149.177 101.584C148.018 101.025 146.734 100.745 145.326 100.745C143.731 100.745 142.285 101.104 140.99 101.82C139.695 102.537 138.681 103.524 137.945 104.783C137.21 106.043 136.842 107.45 136.842 109.006C136.842 110.562 137.21 111.969 137.945 113.228C138.681 114.487 139.695 115.475 140.99 116.192C142.285 116.909 143.73 117.267 145.326 117.267C146.92 117.267 148.355 116.909 149.629 116.192C150.904 115.475 151.908 114.487 152.644 113.228C153.379 111.969 153.747 110.562 153.747 109.006C153.747 107.703 153.489 106.504 152.972 105.408L155.237 103.165C155.279 103.233 155.321 103.302 155.363 103.371C156.357 105.04 156.855 106.918 156.855 109.006C156.855 111.094 156.357 112.973 155.363 114.641C154.368 116.31 152.991 117.62 151.23 118.572C149.469 119.524 147.501 120 145.326 120H145.326Z" fill="#2A3D52"/>
<path d="M37.9039 51.4392L45.627 43.7657V17.458C45.627 16.745 46.2123 16.1665 46.9343 16.1665C47.6558 16.1665 48.2411 16.745 48.2411 17.458V34.8981L58.2418 25.0311V15.8894C58.2418 15.1764 58.8276 14.5977 59.5491 14.5977C60.2709 14.5977 60.8564 15.1764 60.8564 15.8894V25.5584H60.8526C60.8526 25.8862 60.726 26.2148 60.4734 26.4666L48.2411 38.537V44.2932H48.2378C48.2378 44.6215 48.111 44.9501 47.8583 45.2014L37.9041 55.0912V79.2601L45.6272 71.5876V62.4461C45.6272 61.7324 46.2125 61.1539 46.9345 61.1539C47.656 61.1539 48.2413 61.7324 48.2413 62.4461V72.1151H48.238C48.238 72.4432 48.1112 72.771 47.8585 73.0228L37.9044 82.9116V90.4101V99.2334V116.724L45.4417 113.631V87.1532C45.4417 86.7962 45.5982 86.4755 45.8465 86.2533L62.6645 68.8232L62.6211 55.1258C62.6211 54.4616 63.1643 53.922 63.8347 53.917L86.9395 53.654C87.6147 53.6493 88.1672 54.1865 88.1718 54.8538C88.177 55.5211 87.6332 56.0669 86.9584 56.0716L65.0711 56.3206L65.1087 68.0848L75.8736 67.9628C76.5488 67.9581 77.1011 68.4953 77.1058 69.1626C77.1106 69.8299 76.5672 70.3757 75.8922 70.3804L64.4205 70.51L47.8976 87.6334V114.437C47.8955 114.912 47.6107 115.362 47.1395 115.556L37.2203 119.628C37.0563 119.708 36.871 119.753 36.6759 119.753C35.9978 119.753 35.4479 119.21 35.4479 118.54V99.2332V92.8417L21.6188 79.1031C21.3661 78.8522 21.24 78.5237 21.24 78.1953H21.2357V64.8751C21.2357 64.1613 21.8213 63.5831 22.543 63.5831C23.2645 63.5831 23.8499 64.1613 23.8499 64.8751V77.6676L35.4479 89.1894V82.7375C35.3475 82.4592 35.3475 82.1529 35.4479 81.8741V48.3702L25.493 38.4792C25.2406 38.2281 25.1143 37.8998 25.1143 37.5713H25.1102V27.903C25.1102 27.189 25.696 26.6111 26.4175 26.6111C27.1393 26.6111 27.7248 27.189 27.7248 27.903V37.0442L35.4482 44.7182V37.7866C35.4482 37.0736 35.9983 36.4954 36.6761 36.4954C37.3542 36.4954 37.9041 37.0736 37.9041 37.7866V51.4385L37.9039 51.4392Z" fill="#2A3D52"/>
<path fill-rule="evenodd" clip-rule="evenodd" d="M26.4172 22.1074L28.2439 23.1502L30.0704 24.192V26.2763V28.3613L28.2439 29.4031L26.4172 30.4456L24.5907 29.4031L22.7637 28.3613V26.2763V24.192L24.5907 23.1502L26.4172 22.1074Z" fill="#2A3D52"/>
<path fill-rule="evenodd" clip-rule="evenodd" d="M36.6754 33.3936L38.2239 34.2771L39.7723 35.1604V36.9273V38.694L38.2239 39.5771L36.6754 40.4606L35.1274 39.5771L33.5792 38.694V36.9273V35.1604L35.1274 34.2771L36.6754 33.3936Z" fill="#2A3D52"/>
<path fill-rule="evenodd" clip-rule="evenodd" d="M46.9347 12.3774L48.8966 13.4972L50.8588 14.6167V16.8554V19.0944L48.8966 20.2142L46.9347 21.3337L44.9727 20.2142L43.0106 19.0944V16.8554V14.6167L44.9727 13.4972L46.9347 12.3774Z" fill="#2A3D52"/>
<path fill-rule="evenodd" clip-rule="evenodd" d="M22.5431 61.3423L24.0911 62.2256L25.6395 63.1092V64.8754V66.6422L24.0911 67.5256L22.5431 68.4091L20.9949 67.5256L19.4464 66.6422V64.8754V63.1092L20.9949 62.2256L22.5431 61.3423Z" fill="#2A3D52"/>
<path fill-rule="evenodd" clip-rule="evenodd" d="M46.934 58.2769L48.7605 59.3196L50.5872 60.3616V62.4462V64.5305L48.7605 65.5728L46.934 66.615L45.1075 65.5728L43.2805 64.5305V62.4462V60.3616L45.1075 59.3196L46.934 58.2769Z" fill="#2A3D52"/>
<path fill-rule="evenodd" clip-rule="evenodd" d="M59.549 10.4287L61.376 11.471L63.2022 12.5133V14.5976V16.6821L61.376 17.7244L59.549 18.7669L57.7223 17.7244L55.8958 16.6821V14.5976V12.5133L57.7223 11.471L59.549 10.4287Z" fill="#2A3D52"/>
<path fill-rule="evenodd" clip-rule="evenodd" d="M91.1675 54.8632L90.1126 56.6687L89.0581 58.4735H86.9486H84.8395L83.785 56.6687L82.7303 54.8632L83.785 53.0584L84.8395 51.2529H86.9486H89.0581L90.1126 53.0584L91.1675 54.8632Z" fill="#2A3D52"/>
<path fill-rule="evenodd" clip-rule="evenodd" d="M81.0571 69.1723L80.0025 70.9781L78.9476 72.7828H76.8384H74.7293L73.6744 70.9781L72.6202 69.1723L73.6744 67.3675L74.7293 65.562H76.8384H78.9476L80.0025 67.3675L81.0571 69.1723Z" fill="#2A3D52"/>
<path fill-rule="evenodd" clip-rule="evenodd" d="M167.999 82.9604V80.9573V78.9547L166.245 77.9534L164.489 76.9521L162.734 77.9534L160.98 78.9547V80.9573V82.9604L162.734 83.9614L163.234 84.2462V89.7399L146.693 106.13L145.254 105.308L143.498 106.309L141.743 107.311V109.313V111.316L143.498 112.317L145.254 113.319L147.008 112.317L148.763 111.316V109.313V107.582L165.377 91.1195C165.62 90.8781 165.741 90.5626 165.741 90.2471H165.745V84.2462L166.245 83.9614L167.999 82.9604Z" fill="url(#paint0_linear_245_2528)"/>
<defs>
<linearGradient id="paint0_linear_245_2528" x1="157.012" y1="77.14" x2="152.827" y2="113.147" gradientUnits="userSpaceOnUse">
<stop stop-color="#6B3C92"/>
<stop offset="0.588235" stop-color="#5D82C1"/>
<stop offset="1" stop-color="#4FC8F1"/>
</linearGradient>
</defs>
</svg>
