<svg width="107" height="76" viewBox="0 0 107 76" fill="none" xmlns="http://www.w3.org/2000/svg">
<path d="M19.4142 62.9477C19.8572 62.8385 20.3061 63.1045 20.4167 63.542C20.5272 63.9798 20.2581 64.4232 19.8151 64.5328L10.1667 66.9151C9.87557 66.9873 9.58121 66.8965 9.3828 66.7013L6.45592 64.036C6.28423 63.8798 6.19481 63.6682 6.1898 63.4544C6.04483 60.8048 5.5226 58.4338 5.0145 56.1263C4.48332 53.7138 3.96656 51.3678 3.88656 48.7573L0.478604 47.035C0.197758 46.8934 0.0342596 46.614 0.0294017 46.3227L0.000102594 44.5501C-0.00293358 44.3583 0.0615852 44.1806 0.171647 44.0398L6.04968 35.5868L3.91692 30.7386C3.86607 30.6231 3.84421 30.5022 3.84846 30.3841C3.54605 15.4388 10.4238 6.42074 19.3594 2.4253C23.1959 0.709774 27.4122 -0.0724521 31.6005 0.0052604C35.7849 0.0826729 39.9437 1.01987 43.6697 2.74155C52.1779 6.67428 58.4412 14.6811 57.6755 25.8973C57.6465 26.3289 57.2824 26.6596 56.851 26.6593L40.8637 26.6608C40.4068 26.6608 40.036 26.2944 40.036 25.8429C40.036 25.3911 40.4068 25.0246 40.8637 25.0246H56.0661C56.4504 14.9789 50.7071 7.79346 42.9716 4.21779C39.4543 2.59228 35.5272 1.70788 31.5747 1.63467C27.6258 1.56131 23.6521 2.29823 20.0386 3.91414C11.6822 7.65064 5.24722 16.1332 5.49573 30.2359L7.74463 35.3478L7.74281 35.3489C7.85196 35.5973 7.83344 35.894 7.66706 36.1339L1.653 44.7821L1.66985 45.8075L5.05701 47.519C5.33224 47.6496 5.52291 47.926 5.52549 48.2476C5.54872 50.866 6.08202 53.2869 6.63111 55.7812C7.13147 58.0543 7.64535 60.3879 7.81978 63.0577L10.198 65.2235L19.4142 62.9477Z" fill="#2A3D52"/>
<path fill-rule="evenodd" clip-rule="evenodd" d="M43.0882 25.8431L42.4199 26.9861L41.7521 28.1296H40.4163H39.0804L38.4124 26.9861L37.7446 25.8431L38.4124 24.6996L39.0804 23.5564H40.4163H41.7521L42.4199 24.6996L43.0882 25.8431Z" fill="#2A3D52"/>
<path d="M40.8875 58.3351H37.0115L36.2722 60.103H34.2925L38.0135 51.8533H39.9217L43.6545 60.103H41.627L40.8877 58.3351H40.8875ZM40.2792 56.8857L38.9554 53.7272L37.6317 56.8857H40.2792ZM48.4005 60.2444C47.5499 60.2444 46.7807 60.0619 46.093 59.6964C45.405 59.3311 44.8646 58.8245 44.471 58.1761C44.0775 57.5277 43.8807 56.7949 43.8807 55.9779C43.8807 55.1609 44.0775 54.4285 44.471 53.7802C44.8646 53.1318 45.4052 52.6253 46.093 52.2597C46.7807 51.8944 47.5539 51.7117 48.4124 51.7117C49.1359 51.7117 49.7897 51.8375 50.374 52.0887C50.9585 52.3401 51.4496 52.7017 51.8467 53.1732L50.6066 54.3044C50.0422 53.6602 49.3428 53.3381 48.508 53.3381C47.9913 53.3381 47.5301 53.4502 47.1246 53.6738C46.7192 53.898 46.403 54.2102 46.1762 54.611C45.9499 55.0118 45.8366 55.4672 45.8366 55.9778C45.8366 56.4886 45.9499 56.9445 46.1762 57.3451C46.403 57.7458 46.7191 58.0578 47.1246 58.282C47.5301 58.5061 47.9913 58.6179 48.508 58.6179C49.3428 58.6179 50.0423 58.2917 50.6066 57.6397L51.8467 58.7709C51.4496 59.2504 50.9567 59.6155 50.3684 59.867C49.7799 60.1186 49.1239 60.2441 48.4005 60.2441V60.2444ZM58.4778 58.3351H54.6018L53.8625 60.103H51.8827L55.6037 51.8533H57.5119L61.2445 60.103H59.2172L58.4779 58.3351H58.4778ZM57.8695 56.8857L56.5458 53.7272L55.2221 56.8857H57.8695ZM62.1151 51.8533H65.9073C66.8137 51.8533 67.6145 52.024 68.3103 52.3658C69.006 52.7075 69.5464 53.1888 69.9323 53.8095C70.3178 54.4303 70.5107 55.1532 70.5107 55.9779C70.5107 56.803 70.3178 57.5259 69.9323 58.1467C69.5464 58.7673 69.0059 59.2486 68.3103 59.5903C67.6145 59.9321 66.8137 60.1028 65.9073 60.1028H62.1151V51.8531V51.8533ZM65.8121 58.5357C66.647 58.5357 67.3127 58.306 67.8096 57.8463C68.3066 57.3865 68.555 56.764 68.555 55.9779C68.555 55.1924 68.3066 54.5696 67.8096 54.1098C67.3129 53.6503 66.647 53.4204 65.8121 53.4204H64.0469V58.5355H65.8121V58.5357ZM78.4294 58.5711V60.103H71.9657V51.8533H78.2744V53.3852H73.8859V55.1766H77.7616V56.6616H73.8859V58.5711H78.4294ZM87.5645 60.103L87.5526 55.1534L85.0958 59.231H84.2254L81.7809 55.2593V60.1031H79.9681V51.8534H81.5659L84.6904 56.9799L87.7671 51.8534H89.3534L89.3772 60.1031H87.5645V60.103ZM95.3638 57.1804V60.103H93.432V57.1567L90.2002 51.8533H92.2514L94.4812 55.5184L96.7113 51.8533H98.6075L95.3637 57.1804H95.3638Z" fill="#2A3D52"/>
<path d="M40.3584 62.23C42.1427 62.23 43.5466 62.6515 44.57 63.4944C45.5933 64.3369 46.1051 65.4977 46.1051 66.9757C46.1051 68.4536 45.5935 69.614 44.57 70.4569C43.5468 71.2997 42.1427 71.7213 40.3584 71.7213H36.9536V75.8442H34.9858V62.2301H40.3584V62.23ZM40.2993 70.029C41.5458 70.029 42.4972 69.7663 43.153 69.2412C43.809 68.7161 44.1372 67.9606 44.1372 66.9755C44.1372 65.99 43.809 65.2347 43.153 64.7097C42.4973 64.1846 41.546 63.9219 40.2993 63.9219H36.9536V70.0288H40.2993V70.029Z" fill="#2A3D52"/>
<path d="M48.998 62.23H50.9661V74.1522H58.4248V75.8442H48.998V62.23Z" fill="#2A3D52"/>
<path d="M70.4266 72.4406H63.1057L61.5901 75.8441H59.563L65.8017 62.23H67.7499L74.0083 75.8441H71.9419L70.4264 72.4406H70.4266ZM69.7378 70.8847L66.766 64.2138L63.7942 70.8847H69.7377H69.7378Z" fill="#2A3D52"/>
<path d="M77.2003 63.9222H72.4771V62.23H83.872V63.9222H79.1484V75.8442H77.2003V63.9222Z" fill="#2A3D52"/>
<path d="M92.0393 76C90.6484 76 89.3954 75.6985 88.2803 75.0955C87.165 74.4927 86.2893 73.6596 85.6528 72.5963C85.0164 71.5332 84.6982 70.3468 84.6982 69.0369C84.6982 67.7277 85.0164 66.5413 85.6528 65.4778C86.2892 64.4148 87.165 63.5818 88.2803 62.9787C89.3954 62.3757 90.6485 62.0745 92.0393 62.0745C93.4166 62.0745 94.6634 62.3757 95.7785 62.9787L95.8239 63.0037L94.4787 64.3367C93.7447 63.9823 92.9316 63.8053 92.0393 63.8053C91.0291 63.8053 90.1137 64.0323 89.2936 64.486C88.4736 64.9399 87.8308 65.5655 87.3649 66.3629C86.8992 67.1604 86.6663 68.0516 86.6663 69.0369C86.6663 70.0226 86.8992 70.9139 87.3649 71.7113C87.8308 72.5088 88.4736 73.1342 89.2936 73.5882C90.1137 74.0422 91.029 74.2689 92.0393 74.2689C93.0494 74.2689 93.9578 74.0422 94.765 73.5882C95.572 73.1342 96.2081 72.5088 96.6741 71.7113C97.1397 70.9137 97.3726 70.0226 97.3726 69.0369C97.3726 68.2118 97.2093 67.4524 96.8823 66.7587L98.3162 65.3379C98.3434 65.3812 98.37 65.4244 98.3961 65.4683C99.0258 66.5251 99.341 67.7146 99.341 69.0369C99.341 70.3597 99.0258 71.5494 98.3961 72.6062C97.7664 73.6628 96.894 74.4927 95.7786 75.0955C94.6636 75.6985 93.4168 76 92.0394 76H92.0393Z" fill="#2A3D52"/>
<path d="M24.0057 32.5781L28.897 27.7182V11.0567C28.897 10.6051 29.2677 10.2387 29.7249 10.2387C30.1819 10.2387 30.5526 10.6051 30.5526 11.0567V22.102L36.8864 15.8529V10.0632C36.8864 9.61163 37.2574 9.24512 37.7143 9.24512C38.1714 9.24512 38.5423 9.61163 38.5423 10.0632V16.1869H38.5399C38.5399 16.3945 38.4597 16.6026 38.2997 16.7621L30.5526 24.4067V28.0523H30.5505C30.5505 28.2602 30.4702 28.4683 30.3102 28.6275L24.0059 34.891V50.198L28.8971 45.3387V39.5491C28.8971 39.0971 29.2678 38.7307 29.7251 38.7307C30.182 38.7307 30.5528 39.0971 30.5528 39.5491V45.6728H30.5506C30.5506 45.8806 30.4703 46.0882 30.3103 46.2477L24.006 52.5106V57.2596V62.8477V73.9253L28.7796 71.9659V55.1969C28.7796 54.9708 28.8788 54.7677 29.036 54.627L39.6874 43.5879L39.6599 34.9129C39.6599 34.4922 40.0039 34.1505 40.4285 34.1473L55.0615 33.9808C55.4892 33.9778 55.8391 34.3181 55.842 34.7407C55.8453 35.1633 55.5009 35.5089 55.0735 35.5119L41.2116 35.6696L41.2354 43.1203L48.0531 43.043C48.4808 43.04 48.8305 43.3803 48.8336 43.8029C48.8366 44.2255 48.4925 44.5711 48.065 44.5742L40.7996 44.6562L30.3351 55.501V72.4767C30.3337 72.7775 30.1534 73.0627 29.8549 73.1853L23.5727 75.7643C23.4689 75.815 23.3516 75.8437 23.228 75.8437C22.7985 75.8437 22.4503 75.4994 22.4503 75.0751V62.8475V58.7996L13.6918 50.0985C13.5318 49.9396 13.452 49.7315 13.452 49.5236H13.4492V41.0874C13.4492 40.6354 13.8201 40.2692 14.2772 40.2692C14.7341 40.2692 15.1048 40.6354 15.1048 41.0874V49.1893L22.4503 56.4865V52.4003C22.3867 52.224 22.3867 52.0301 22.4503 51.8535V30.6344L16.1455 24.3701C15.9856 24.2111 15.9056 24.0031 15.9056 23.7951H15.9031V17.6718C15.9031 17.2197 16.2741 16.8536 16.731 16.8536C17.1881 16.8536 17.559 17.2197 17.559 17.6718V23.4613L22.4504 28.3214V23.9314C22.4504 23.4799 22.7988 23.1136 23.2281 23.1136C23.6576 23.1136 24.0059 23.4799 24.0059 23.9314V32.5776L24.0057 32.5781Z" fill="#2A3D52"/>
<path fill-rule="evenodd" clip-rule="evenodd" d="M16.7309 14.0017L17.8878 14.6621L19.0446 15.3219V16.642V17.9625L17.8878 18.6223L16.7309 19.2826L15.5741 18.6223L14.417 17.9625V16.642V15.3219L15.5741 14.6621L16.7309 14.0017Z" fill="#2A3D52"/>
<path fill-rule="evenodd" clip-rule="evenodd" d="M23.2275 21.1494L24.2082 21.709L25.1889 22.2684V23.3875V24.5064L24.2082 25.0656L23.2275 25.6252L22.2471 25.0656L21.2666 24.5064V23.3875V22.2684L22.2471 21.709L23.2275 21.1494Z" fill="#2A3D52"/>
<path fill-rule="evenodd" clip-rule="evenodd" d="M29.725 7.83887L30.9676 8.54803L32.2103 9.25705V10.6749V12.093L30.9676 12.8021L29.725 13.5111L28.4825 12.8021L27.2397 12.093V10.6749V9.25705L28.4825 8.54803L29.725 7.83887Z" fill="#2A3D52"/>
<path fill-rule="evenodd" clip-rule="evenodd" d="M14.2771 38.8501L15.2575 39.4095L16.2382 39.9691V41.0877V42.2067L15.2575 42.7662L14.2771 43.3258L13.2966 42.7662L12.3159 42.2067V41.0877V39.9691L13.2966 39.4095L14.2771 38.8501Z" fill="#2A3D52"/>
<path fill-rule="evenodd" clip-rule="evenodd" d="M29.725 36.9087L30.8818 37.5691L32.0387 38.2291V39.5493V40.8693L30.8818 41.5294L29.725 42.1895L28.5682 41.5294L27.4111 40.8693V39.5493V38.2291L28.5682 37.5691L29.725 36.9087Z" fill="#2A3D52"/>
<path fill-rule="evenodd" clip-rule="evenodd" d="M37.7146 6.60474L38.8717 7.26484L40.0283 7.92495V9.24501V10.5652L38.8717 11.2253L37.7146 11.8856L36.5577 11.2253L35.4009 10.5652V9.24501V7.92495L36.5577 7.26484L37.7146 6.60474Z" fill="#2A3D52"/>
<path fill-rule="evenodd" clip-rule="evenodd" d="M57.739 34.7465L57.0709 35.89L56.4031 37.033H55.067H53.7313L53.0635 35.89L52.3955 34.7465L53.0635 33.6034L53.7313 32.46H55.067H56.4031L57.0709 33.6034L57.739 34.7465Z" fill="#2A3D52"/>
<path fill-rule="evenodd" clip-rule="evenodd" d="M51.3365 43.8092L50.6686 44.9529L50.0005 46.0959H48.6647H47.3289L46.6608 44.9529L45.9932 43.8092L46.6608 42.6662L47.3289 41.5227H48.6647H50.0005L50.6686 42.6662L51.3365 43.8092Z" fill="#2A3D52"/>
<path fill-rule="evenodd" clip-rule="evenodd" d="M106.4 52.5413V51.2727V50.0044L105.288 49.3702L104.177 48.7361L103.065 49.3702L101.954 50.0044V51.2727V52.5413L103.065 53.1753L103.382 53.3556V56.835L92.9058 67.2152L91.9942 66.6949L90.8824 67.329L89.771 67.963V69.2315V70.4998L90.8824 71.1341L91.9942 71.7684L93.1056 71.1341L94.217 70.4998V69.2315V68.135L104.739 57.7087C104.893 57.5559 104.97 57.356 104.97 57.1562H104.972V53.3556L105.288 53.1753L106.4 52.5413Z" fill="url(#paint0_linear_420_5438)"/>
<defs>
<linearGradient id="paint0_linear_420_5438" x1="99.4411" y1="48.8551" x2="96.7904" y2="71.6594" gradientUnits="userSpaceOnUse">
<stop stop-color="#6B3C92"/>
<stop offset="0.588235" stop-color="#5D82C1"/>
<stop offset="1" stop-color="#4FC8F1"/>
</linearGradient>
</defs>
</svg>
