<svg width="16" height="16" viewBox="0 0 16 16" fill="none" xmlns="http://www.w3.org/2000/svg">
<path d="M6.62534 9.37459C5.09817 7.84742 4.75334 6.32025 4.67555 5.70838C4.65381 5.5392 4.71203 5.36954 4.83306 5.24935L6.06892 4.01404C6.25072 3.83236 6.28298 3.54921 6.14672 3.33128L4.17899 0.275833C4.02824 0.0345219 3.7187 -0.0525695 3.46424 0.0747292L0.305339 1.56245C0.0995625 1.66378 -0.0214727 1.88241 0.00189102 2.11059C0.167408 3.68301 0.852925 7.54838 4.65155 11.3473C8.45017 15.1462 12.315 15.8314 13.8882 15.9969C14.1164 16.0203 14.335 15.8993 14.4364 15.6935L15.9241 12.5346C16.0509 12.2807 15.9644 11.972 15.7241 11.8209L12.6686 9.85376C12.4508 9.71736 12.1677 9.74939 11.9859 9.93101L10.7506 11.1669C10.6304 11.2879 10.4607 11.3461 10.2915 11.3244C9.67968 11.2466 8.15251 10.9018 6.62534 9.37459Z" fill="#2A3D52"/>
</svg>
