<svg width="96" height="96" viewBox="0 0 96 96" fill="none" xmlns="http://www.w3.org/2000/svg">
<path fill-rule="evenodd" clip-rule="evenodd" d="M47.6887 1.1985C47.6887 1.02509 47.8292 0.884521 48.0026 0.884521C74.0253 0.884521 95.1155 21.9787 95.1155 47.9999C95.1155 74.0211 74.0253 95.1153 48.0026 95.1153C21.98 95.1153 0.884766 74.0211 0.884766 47.9999C0.884766 47.8265 1.02535 47.6859 1.19876 47.6859C1.37217 47.6859 1.51275 47.8265 1.51275 47.9999C1.51275 73.6743 22.3268 94.4873 48.0026 94.4873C73.6784 94.4873 94.4875 73.6744 94.4875 47.9999C94.4875 22.3254 73.6784 1.51248 48.0026 1.51248C47.8292 1.51248 47.6887 1.3719 47.6887 1.1985Z" fill="#052C47"/>
</svg>
