<svg width="28" height="24" viewBox="0 0 28 24" fill="none" xmlns="http://www.w3.org/2000/svg">
<path fill-rule="evenodd" clip-rule="evenodd" d="M28 12.0004L24.4983 17.999L20.999 24H13.9996H6.9994L3.4993 17.999L0 12.0004L3.4993 5.99941L6.9994 0H13.9996H20.999L24.4983 5.99941L28 12.0004Z" fill="#8ECFE3"/>
<path d="M12.648 14.464C12.648 14.0373 12.7173 13.664 12.856 13.344C13.0053 13.0133 13.1813 12.736 13.384 12.512C13.5973 12.288 13.8747 12.0213 14.216 11.712C14.6427 11.3387 14.9573 11.0187 15.16 10.752C15.3627 10.4747 15.464 10.144 15.464 9.76C15.464 9.23733 15.2613 8.82133 14.856 8.512C14.4507 8.192 13.8907 8.032 13.176 8.032C11.928 8.032 10.9733 8.45333 10.312 9.296L9.144 8.464C9.592 7.888 10.1627 7.44533 10.856 7.136C11.56 6.82667 12.3707 6.672 13.288 6.672C14.4507 6.672 15.3733 6.928 16.056 7.44C16.7387 7.94133 17.08 8.63467 17.08 9.52C17.08 9.95733 17.0053 10.3467 16.856 10.688C16.7173 11.0187 16.5467 11.296 16.344 11.52C16.1413 11.744 15.8693 12.0107 15.528 12.32C15.0907 12.7147 14.7653 13.0613 14.552 13.36C14.3493 13.6587 14.248 14.0267 14.248 14.464H12.648ZM13.464 18.096C13.1653 18.096 12.9147 18 12.712 17.808C12.52 17.6053 12.424 17.36 12.424 17.072C12.424 16.784 12.52 16.544 12.712 16.352C12.9147 16.1493 13.1653 16.048 13.464 16.048C13.7627 16.048 14.008 16.1493 14.2 16.352C14.392 16.544 14.488 16.784 14.488 17.072C14.488 17.36 14.3867 17.6053 14.184 17.808C13.992 18 13.752 18.096 13.464 18.096Z" fill="white"/>
</svg>
