<svg width="28" height="24" viewBox="0 0 28 24" fill="none" xmlns="http://www.w3.org/2000/svg">
<path d="M24.0665 17.7469L24.0664 17.7471L20.7118 23.5H13.9996H7.28661L3.93121 17.7471L3.93119 17.7471L0.578827 12.0003L3.93118 6.25137L3.93123 6.25127L7.28657 0.5H13.9996H20.7118L24.0664 6.25132L24.0665 6.2514L27.4211 12.0003L24.0665 17.7469Z" stroke="#2A3D52"/>
<path d="M12.52 10.08L11.08 10.064C11.112 9.05067 11.4213 8.26667 12.008 7.712C12.5947 7.15733 13.3893 6.88 14.392 6.88C15.3733 6.88 16.152 7.11467 16.728 7.584C17.304 8.04267 17.592 8.69867 17.592 9.552C17.592 10.0213 17.5013 10.4427 17.32 10.816C17.1493 11.1787 16.9413 11.4827 16.696 11.728C16.4507 11.9733 16.2053 12.2133 15.96 12.448C15.7147 12.6827 15.5013 12.96 15.32 13.28C15.1493 13.6 15.064 13.9573 15.064 14.352H13.656C13.656 13.8827 13.7307 13.4667 13.88 13.104C14.04 12.7307 14.2267 12.4267 14.44 12.192C14.6533 11.9573 14.8667 11.7333 15.08 11.52C15.304 11.3067 15.4907 11.0613 15.64 10.784C15.8 10.496 15.88 10.176 15.88 9.824C15.88 9.376 15.7307 9.03467 15.432 8.8C15.144 8.56533 14.744 8.448 14.232 8.448C13.144 8.448 12.5733 8.992 12.52 10.08ZM13.624 16.336C13.816 16.1333 14.056 16.032 14.344 16.032C14.632 16.032 14.872 16.1333 15.064 16.336C15.256 16.528 15.352 16.7733 15.352 17.072C15.352 17.3813 15.256 17.6373 15.064 17.84C14.872 18.0427 14.632 18.144 14.344 18.144C14.056 18.144 13.816 18.0427 13.624 17.84C13.432 17.6373 13.336 17.3813 13.336 17.072C13.336 16.7733 13.432 16.528 13.624 16.336Z" fill="#2A3D52"/>
</svg>
