<?xml version="1.0" encoding="utf-8"?>
<!-- Generator: Adobe Illustrator 22.0.1, SVG Export Plug-In . SVG Version: 6.00 Build 0)  -->
<svg version="1.1" id="Layer_1" xmlns="http://www.w3.org/2000/svg" xmlns:xlink="http://www.w3.org/1999/xlink" x="0px" y="0px"
	 viewBox="0 0 800 800" style="enable-background:new 0 0 800 800;" xml:space="preserve">
<style type="text/css">
	.st0{clip-path:url(#SVGID_2_);fill:url(#SVGID_3_);}
	.st1{fill:none;stroke:#052C47;stroke-width:5;stroke-linecap:round;stroke-linejoin:round;stroke-miterlimit:10;}
	.st2{clip-path:url(#SVGID_5_);fill:url(#SVGID_6_);}
	.st3{clip-path:url(#SVGID_8_);fill:url(#SVGID_9_);}
	.st4{fill:url(#SVGID_10_);}
	.st5{clip-path:url(#SVGID_12_);fill:url(#SVGID_13_);}
	.st6{clip-path:url(#SVGID_15_);fill:url(#SVGID_16_);}
	.st7{clip-path:url(#SVGID_18_);fill:url(#SVGID_19_);}
	.st8{clip-path:url(#SVGID_21_);fill:url(#SVGID_22_);}
	.st9{clip-path:url(#SVGID_24_);fill:url(#SVGID_25_);}
	.st10{clip-path:url(#SVGID_27_);fill:url(#SVGID_28_);}
	.st11{clip-path:url(#SVGID_30_);fill:url(#SVGID_31_);}
	.st12{fill:#052C47;}
	.st13{font-family:'Montserrat-Medium';}
	.st14{font-size:136.0975px;}
</style>
<path class="st1" d="M400,27.4c205.8,0,372.6,166.8,372.6,372.6c0,205.8-166.8,372.6-372.6,372.6C194.2,772.6,27.4,605.8,27.4,400"
	/>
<path class="st1" d="M400,739.6c178.9,0,325.5-138.4,338.6-314"/>
<path class="st1" d="M61.4,374.4c13.1-175.6,159.7-314,338.6-314"/>
<polygon class="st1" points="73.6,396.7 73.6,381.4 60.4,373.8 47.2,381.4 47.2,396.7 60.4,404.3 "/>
<polygon class="st1" points="752.6,418.7 752.6,403.6 739.6,396.1 726.6,403.6 726.6,418.7 739.6,426.2 "/>
<g>
	<path class="st1" d="M577.9,388.2v98.2c0,10-8.1,18.2-18.2,18.2h-3.9L536,538.9l-19.8-34.4H423c-10,0-18.2-8.1-18.2-18.2v-98.2
		c0-10,8.1-18.2,18.2-18.2h136.8C569.8,370,577.9,378.1,577.9,388.2z"/>
	<path class="st1" d="M461.7,284.6V370H423c-10,0-18.2,8.1-18.2,18.2v46.4h-86.7l-25.6,44.3L267,434.5H262
		c-12.9,0-23.4-10.5-23.4-23.4V284.6c0-12.9,10.5-23.4,23.4-23.4h176.3C451.2,261.1,461.7,271.6,461.7,284.6z"/>
	<text transform="matrix(1 0 0 1 306.7916 394.8623)" class="st1 st13 st14">?</text>
	<g>
		<circle class="st1" cx="461.7" cy="433.8" r="8.6"/>
		<circle class="st1" cx="491.4" cy="433.8" r="8.6"/>
		<circle class="st1" cx="521" cy="433.8" r="8.6"/>
	</g>
	<line class="st1" x1="482.7" y1="358.3" x2="538.8" y2="358.3"/>
	<polyline class="st1" points="304,486.3 326.2,447.1 388.4,447.1 	"/>
	<line class="st1" x1="222.1" y1="288.3" x2="222.1" y2="374.3"/>
</g>
</svg>
