<svg width="225" height="250" viewBox="0 0 225 250" fill="none" xmlns="http://www.w3.org/2000/svg">
<path fill-rule="evenodd" clip-rule="evenodd" d="M96.949 4.13468C101.641 1.42599 106.964 0 112.381 0C117.799 0 123.122 1.42599 127.814 4.13468L168.574 27.6686L209.336 51.2026C214.028 53.9114 217.925 57.8076 220.634 62.4996C223.344 67.1916 224.771 72.5141 224.771 77.9322V172.065C224.771 177.483 223.344 182.806 220.635 187.498C217.925 192.19 214.028 196.086 209.336 198.795L168.574 222.329L127.831 245.865C123.137 248.574 117.814 250 112.395 250C106.977 250 101.653 248.574 96.9601 245.865L56.1755 222.329L15.4325 198.795C10.7402 196.086 6.84377 192.19 4.13478 187.498C1.42579 182.806 -0.000252235 177.483 3.34641e-08 172.065V77.9322C2.86879e-05 72.5143 1.42619 67.1918 4.13515 62.4998C6.84411 57.8078 10.7404 53.9115 15.4325 51.2026L56.1755 27.6686L96.949 4.13468Z" fill="url(#paint0_linear_409_2164)"/>
<defs>
<linearGradient id="paint0_linear_409_2164" x1="112.379" y1="166.611" x2="112.379" y2="42.4941" gradientUnits="userSpaceOnUse">
<stop stop-color="white"/>
<stop offset="1" stop-color="#90C8DC"/>
</linearGradient>
</defs>
</svg>
