<svg width="135" height="135" viewBox="0 0 135 135" fill="none" xmlns="http://www.w3.org/2000/svg">
<g clip-path="url(#clip0_1658_7873)">
<path d="M67.5019 94.1606C63.0765 94.1606 59.4834 97.75 59.4834 102.175C59.4834 106.603 63.0765 110.192 67.5019 110.192C71.9274 110.192 75.5168 106.603 75.5168 102.175C75.517 97.75 71.9277 94.1606 67.5019 94.1606Z" fill="#8ECFE3"/>
<path d="M133.18 107.346L79.3044 14.0297C76.8778 9.82574 72.3551 7.2146 67.498 7.2146C62.6445 7.2146 58.126 9.82601 55.6994 14.0297L1.81993 107.342C-0.606643 111.546 -0.606643 116.768 1.81993 120.972C4.24677 125.176 8.76927 127.785 13.6227 127.785H121.377C126.231 127.785 130.753 125.176 133.18 120.972C135.607 116.768 135.607 111.546 133.18 107.346ZM122.466 114.013C121.689 115.359 120.24 116.193 118.683 116.193H16.3156C14.762 116.193 13.3113 115.359 12.5374 114.009C11.7559 112.662 11.7519 110.991 12.5337 109.646L63.7182 20.9888C64.4942 19.6433 65.9426 18.8072 67.5019 18.8072C69.0576 18.8072 70.5041 19.6433 71.2819 20.9909L122.466 109.644C123.244 110.991 123.244 112.666 122.466 114.013Z" fill="#8ECFE3"/>
<path d="M67.5019 40.2677C63.0765 40.2677 59.4834 43.8571 59.4834 48.2846L62.5631 84.5361C62.5631 87.264 64.7721 89.4731 67.5019 89.4731C70.2278 89.4731 72.4408 87.264 72.4408 84.5361L75.5168 48.2846C75.517 43.8568 71.9277 40.2677 67.5019 40.2677Z" fill="#8ECFE3"/>
</g>
<defs>
<clipPath id="clip0_1658_7873">
<rect width="135" height="135" fill="white"/>
</clipPath>
</defs>
</svg>
