<svg width="40" height="41" viewBox="0 0 40 41" fill="none" xmlns="http://www.w3.org/2000/svg">
<path d="M20.0928 0.0012207C20.0818 0.0012207 20.06 0.0012207 20.0273 0.0012207C8.98226 0.0012207 0 8.82146 0 19.6673C0 24.0934 1.53888 28.391 4.3547 31.8527L1.44065 38.5081C1.20054 39.0546 1.46248 39.6869 2.00818 39.912C2.20464 39.9977 2.42292 40.0192 2.63028 39.987L13.3151 38.1437C15.4543 38.9046 17.7026 39.2904 19.9727 39.2797C31.0177 39.2797 40 30.4595 40 19.6137C40.0218 8.80003 31.105 0.0119379 20.0928 0.0012207ZM13.2387 15.7126H19.1323C19.7326 15.7126 20.2237 16.1949 20.2237 16.7843C20.2237 17.3738 19.7326 17.856 19.1323 17.856H13.2387C12.6385 17.856 12.1473 17.3738 12.1473 16.7843C12.1473 16.1949 12.6385 15.7126 13.2387 15.7126ZM26.7721 23.2146H13.2387C12.6385 23.2146 12.1473 22.7324 12.1473 22.1429C12.1473 21.5535 12.6385 21.0712 13.2387 21.0712H26.7721C27.3724 21.0712 27.8635 21.5535 27.8635 22.1429C27.8635 22.7324 27.3724 23.2146 26.7721 23.2146Z" fill="#2A3D52"/>
</svg>
