<?xml version="1.0" encoding="UTF-8"?>
<!DOCTYPE svg PUBLIC "-//W3C//DTD SVG 1.1//EN" "http://www.w3.org/Graphics/SVG/1.1/DTD/svg11.dtd">
<!-- Creator: CorelDRAW -->
<svg xmlns="http://www.w3.org/2000/svg" xml:space="preserve" width="1.40737in" height="1.40737in" version="1.1" style="shape-rendering:geometricPrecision; text-rendering:geometricPrecision; image-rendering:optimizeQuality; fill-rule:evenodd; clip-rule:evenodd"
viewBox="0 0 61.45 61.45"
 xmlns:xlink="http://www.w3.org/1999/xlink"
 xmlns:xodm="http://www.corel.com/coreldraw/odm/2003">
 <defs>
  <style type="text/css">
   <![CDATA[
    .fil0 {fill:none}
    .fil1 {fill:#0C517F;fill-rule:nonzero}
   ]]>
  </style>
 </defs>
 <g id="Слой_x0020_1">
  <metadata id="CorelCorpID_0Corel-Layer"/>
  <g id="_1960528745600">
   <polygon class="fil0" points="-0,0 61.45,0 61.45,61.45 -0,61.45 "/>
   <path class="fil1" d="M5.13 56.33l3.46 -12.72c-2.27,-3.9 -3.47,-8.33 -3.47,-12.84 0,-0.01 0,-0.03 0,-0.04 0,-14.14 11.46,-25.6 25.6,-25.6 14.14,0 25.6,11.46 25.6,25.6 0,14.14 -11.46,25.6 -25.6,25.6 -0.01,0 -0.03,0 -0.04,0 -4.51,0 -8.95,-1.2 -12.84,-3.47l-12.71 3.47zm16.35 -37.62c-0.33,0.02 -0.65,0.11 -0.95,0.26 -0.28,0.16 -0.53,0.35 -0.75,0.58 -0.31,0.29 -0.48,0.54 -0.67,0.78 -0.94,1.22 -1.44,2.72 -1.44,4.26 0,0.01 0,0.03 0,0.04 0,1.25 0.33,2.48 0.84,3.62 1.05,2.31 2.77,4.75 5.05,7.02 0.55,0.55 1.08,1.09 1.66,1.6 2.82,2.48 6.19,4.28 9.83,5.24l1.46 0.22c0.47,0.03 0.95,-0.01 1.42,-0.03 0.75,-0.04 1.48,-0.24 2.13,-0.59 0.42,-0.23 0.63,-0.34 0.98,-0.56 0,0 0.11,-0.07 0.32,-0.23 0.35,-0.26 0.56,-0.44 0.84,-0.74 0.21,-0.22 0.4,-0.48 0.54,-0.77 0.2,-0.42 0.4,-1.21 0.48,-1.88 0.06,-0.51 0.04,-0.78 0.04,-0.96 -0.01,-0.27 -0.24,-0.56 -0.49,-0.68l-1.49 -0.67c0,0 -2.23,-0.97 -3.59,-1.59 -0.14,-0.06 -0.3,-0.1 -0.45,-0.11 -0.04,-0 -0.08,-0.01 -0.13,-0.01 -0.31,0 -0.61,0.12 -0.84,0.33l0 -0c-0.01,0 -0.18,0.15 -2.04,2.39 -0.17,0.23 -0.44,0.36 -0.72,0.36 -0.08,0 -0.15,-0.01 -0.22,-0.03 -0.17,-0.04 -0.33,-0.1 -0.49,-0.17 -0.32,-0.13 -0.43,-0.18 -0.65,-0.28l-0.01 -0c-1.46,-0.64 -2.82,-1.51 -4.02,-2.56 -0.32,-0.28 -0.62,-0.59 -0.93,-0.89 -1.01,-0.96 -1.89,-2.06 -2.61,-3.25l-0.15 -0.24c-0.11,-0.16 -0.2,-0.34 -0.26,-0.52 -0.1,-0.38 0.16,-0.68 0.16,-0.68 0,0 0.62,-0.68 0.91,-1.05 0.24,-0.31 0.47,-0.63 0.67,-0.96 0.3,-0.49 0.4,-0.99 0.24,-1.37 -0.72,-1.75 -1.46,-3.5 -2.22,-5.23 -0.15,-0.34 -0.6,-0.59 -1.01,-0.64 -0.14,-0.02 -0.28,-0.03 -0.42,-0.04 -0.14,-0.01 -0.29,-0.01 -0.43,-0.01 -0.2,0 -0.4,0.01 -0.6,0.02l-0 0z"/>
  </g>
 </g>
</svg>
