<svg width="30" height="34" viewBox="0 0 30 34" fill="none" xmlns="http://www.w3.org/2000/svg">
<path d="M29.2239 8.34617L15.653 0.883475C15.2448 0.657107 14.7513 0.660818 14.3468 0.883475L8.61338 4.03777C8.11611 3.68894 7.51123 3.48113 6.85811 3.48113C5.17334 3.48113 3.804 4.85047 3.804 6.53523C3.804 8.22 5.17334 9.58933 6.85811 9.58933C8.54287 9.58933 9.91221 8.22 9.91221 6.53523C9.91221 6.49812 9.91221 6.46101 9.90849 6.4239L14.9999 3.61844L27.2126 10.3352V23.6575L14.9999 30.3817L2.78721 23.6649V14.5471L13.6454 17.9946V21.0524C12.6397 21.5534 11.9495 22.5887 11.9495 23.7874C11.9495 25.4721 13.3188 26.8415 15.0036 26.8415C16.6884 26.8415 18.0577 25.4721 18.0577 23.7874C18.0577 22.5925 17.3675 21.5534 16.3618 21.0524V17.7979L19.3937 16.1132C19.8835 16.4434 20.4698 16.6401 21.1044 16.6401C22.7892 16.6401 24.1585 15.2708 24.1585 13.586C24.1585 11.9012 22.7892 10.5319 21.1044 10.5319C19.4196 10.5319 18.0503 11.9012 18.0503 13.586C18.0503 13.6417 18.0503 13.6973 18.054 13.753L14.8515 15.5305L1.84092 11.3966C1.429 11.2667 0.97998 11.3372 0.627441 11.5932C0.278613 11.8493 0.0708008 12.2575 0.0708008 12.688V24.4628C0.0708008 24.9563 0.3417 25.4128 0.772168 25.6503L14.3431 33.113C14.5472 33.2243 14.7735 33.28 14.9962 33.28C15.2188 33.28 15.4452 33.2243 15.6493 33.113L29.2202 25.6503C29.6544 25.4128 29.9216 24.9563 29.9216 24.4628V9.53738C29.929 9.04012 29.6581 8.58367 29.2239 8.34617ZM6.85811 7.55203C6.29775 7.55203 5.84131 7.09558 5.84131 6.53523C5.84131 5.97488 6.29775 5.51844 6.85811 5.51844C7.41846 5.51844 7.8749 5.97488 7.8749 6.53523C7.8749 7.09558 7.41846 7.55203 6.85811 7.55203ZM21.1007 12.5692C21.661 12.5692 22.1175 13.0257 22.1175 13.586C22.1175 14.1464 21.661 14.6028 21.1007 14.6028C20.5403 14.6028 20.0839 14.1464 20.0839 13.586C20.0839 13.0257 20.5403 12.5692 21.1007 12.5692ZM14.9999 24.8042C14.4396 24.8042 13.9831 24.3477 13.9831 23.7874C13.9831 23.227 14.4396 22.7706 14.9999 22.7706C15.5603 22.7706 16.0167 23.227 16.0167 23.7874C16.0167 24.3477 15.5603 24.8042 14.9999 24.8042Z" fill="#8ECFE3"/>
</svg>
