<svg width="32" height="28" viewBox="0 0 32 28" fill="none" xmlns="http://www.w3.org/2000/svg">
<path fill-rule="evenodd" clip-rule="evenodd" d="M20.7501 0.75L22.3334 2.33333L22.3334 5.5H31.8334V27.6667H0.166748V5.5H9.66675V2.33333L11.2501 0.75H20.7501ZM3.3334 17.1475L3.33341 24.5H28.6667L28.6668 17.1475C25.5032 18.0527 22.336 18.6188 19.1668 18.8452L19.1667 21.3333H12.8334L12.8334 18.8452C9.66416 18.6188 6.49698 18.0527 3.3334 17.1475ZM28.6667 8.66667H3.33341L3.33343 13.8446C7.56181 15.1435 11.7825 15.7917 16.0001 15.7917C20.2177 15.7917 24.4384 15.1435 28.6668 13.8446L28.6667 8.66667ZM19.1667 3.91667H12.8334V5.5H19.1667V3.91667Z" fill="#2A3D52"/>
</svg>
