<svg width="38" height="38" viewBox="0 0 38 38" fill="none" xmlns="http://www.w3.org/2000/svg">
<g clip-path="url(#clip0_1654_5553)">
<path d="M21.375 36.8125H23.75V34.4375C23.7502 34.1226 23.8754 33.8207 24.098 33.598C24.3207 33.3754 24.6226 33.2502 24.9375 33.25H32.0625C32.3774 33.2502 32.6793 33.3754 32.902 33.598C33.1246 33.8207 33.2498 34.1226 33.25 34.4375V36.8125H35.625V34.4375C35.624 33.493 35.2483 32.5875 34.5804 31.9196C33.9125 31.2517 33.007 30.876 32.0625 30.875H24.9375C23.993 30.876 23.0875 31.2517 22.4196 31.9196C21.7517 32.5875 21.376 33.493 21.375 34.4375V36.8125Z" fill="#2A3D52"/>
<path d="M28.5 29.6875C27.5605 29.6875 26.6422 29.4089 25.861 28.887C25.0799 28.365 24.4711 27.6232 24.1116 26.7552C23.7521 25.8873 23.658 24.9322 23.8413 24.0108C24.0246 23.0894 24.4769 22.243 25.1412 21.5787C25.8055 20.9144 26.6519 20.4621 27.5733 20.2788C28.4947 20.0955 29.4498 20.1896 30.3177 20.5491C31.1857 20.9086 31.9275 21.5174 32.4495 22.2985C32.9714 23.0797 33.25 23.998 33.25 24.9375C33.2488 26.1969 32.7479 27.4044 31.8574 28.2949C30.9669 29.1854 29.7594 29.6863 28.5 29.6875ZM28.5 22.5625C28.0303 22.5625 27.5711 22.7018 27.1805 22.9628C26.79 23.2237 26.4855 23.5947 26.3058 24.0286C26.126 24.4626 26.079 24.9401 26.1706 25.4008C26.2623 25.8615 26.4885 26.2847 26.8206 26.6169C27.1528 26.949 27.576 27.1752 28.0367 27.2669C28.4974 27.3585 28.9749 27.3115 29.4089 27.1317C29.8429 26.952 30.2138 26.6475 30.4747 26.257C30.7357 25.8664 30.875 25.4072 30.875 24.9375C30.8742 24.3079 30.6237 23.7043 30.1784 23.2591C29.7332 22.8138 29.1296 22.5634 28.5 22.5625Z" fill="#2A3D52"/>
<path d="M2.375 36.8125H4.75V34.4375C4.75028 34.1226 4.87549 33.8208 5.09812 33.5981C5.32076 33.3755 5.62264 33.2503 5.9375 33.25H13.0625C13.3774 33.2503 13.6792 33.3755 13.9019 33.5981C14.1245 33.8208 14.2497 34.1226 14.25 34.4375V36.8125H16.625V34.4375C16.624 33.493 16.2483 32.5875 15.5804 31.9196C14.9125 31.2517 14.007 30.876 13.0625 30.875H5.9375C4.99298 30.876 4.08745 31.2517 3.41958 31.9196C2.7517 32.5875 2.37604 33.493 2.375 34.4375V36.8125Z" fill="#2A3D52"/>
<path d="M9.5 29.6875C8.56054 29.6875 7.64218 29.4089 6.86104 28.887C6.07991 28.365 5.47109 27.6232 5.11157 26.7552C4.75206 25.8873 4.65799 24.9322 4.84127 24.0108C5.02455 23.0894 5.47695 22.243 6.14124 21.5787C6.80554 20.9144 7.65191 20.4621 8.57332 20.2788C9.49473 20.0955 10.4498 20.1896 11.3177 20.5491C12.1857 20.9086 12.9275 21.5174 13.4495 22.2985C13.9714 23.0797 14.25 23.998 14.25 24.9375C14.2487 26.1969 13.7478 27.4043 12.8573 28.2948C11.9668 29.1853 10.7594 29.6862 9.5 29.6875ZM9.5 22.5625C9.03027 22.5625 8.57109 22.7018 8.18052 22.9628C7.78996 23.2237 7.48555 23.5947 7.30579 24.0286C7.12603 24.4626 7.079 24.9401 7.17064 25.4008C7.26228 25.8615 7.48847 26.2847 7.82062 26.6169C8.15277 26.949 8.57596 27.1752 9.03666 27.2669C9.49737 27.3585 9.9749 27.3115 10.4089 27.1317C10.8428 26.952 11.2138 26.6475 11.4747 26.257C11.7357 25.8664 11.875 25.4072 11.875 24.9375C11.8743 24.3078 11.6238 23.7042 11.1786 23.2589C10.7333 22.8137 10.1297 22.5632 9.5 22.5625Z" fill="#2A3D52"/>
<path d="M21.375 19H23.75V16.625C23.7503 16.3101 23.8755 16.0083 24.0981 15.7856C24.3208 15.563 24.6226 15.4378 24.9375 15.4375H32.0625C32.3774 15.4378 32.6792 15.563 32.9019 15.7856C33.1245 16.0083 33.2497 16.3101 33.25 16.625V19H35.625V16.625C35.624 15.6805 35.2483 14.775 34.5804 14.1071C33.9125 13.4392 33.007 13.0635 32.0625 13.0625H24.9375C23.993 13.0635 23.0875 13.4392 22.4196 14.1071C21.7517 14.775 21.376 15.6805 21.375 16.625V19Z" fill="#2A3D52"/>
<path d="M28.5 11.875C27.5605 11.875 26.6422 11.5964 25.861 11.0745C25.0799 10.5525 24.4711 9.8107 24.1116 8.94275C23.7521 8.0748 23.658 7.11973 23.8413 6.19832C24.0246 5.27691 24.4769 4.43054 25.1412 3.76624C25.8055 3.10195 26.6519 2.64955 27.5733 2.46627C28.4947 2.28299 29.4498 2.37706 30.3177 2.73657C31.1857 3.09609 31.9275 3.70491 32.4495 4.48604C32.9714 5.26718 33.25 6.18554 33.25 7.125C33.2487 8.38438 32.7478 9.59179 31.8573 10.4823C30.9668 11.3728 29.7594 11.8737 28.5 11.875ZM28.5 4.75C28.0303 4.75 27.5711 4.88929 27.1805 5.15026C26.79 5.41123 26.4855 5.78215 26.3058 6.21613C26.126 6.6501 26.079 7.12764 26.1706 7.58834C26.2623 8.04905 26.4885 8.47223 26.8206 8.80438C27.1528 9.13653 27.576 9.36273 28.0367 9.45437C28.4974 9.54601 28.9749 9.49897 29.4089 9.31922C29.8429 9.13946 30.2138 8.83505 30.4747 8.44448C30.7357 8.05391 30.875 7.59473 30.875 7.125C30.8743 6.49534 30.6238 5.89166 30.1786 5.44642C29.7333 5.00118 29.1297 4.75072 28.5 4.75Z" fill="#2A3D52"/>
<path d="M2.375 19H4.75V16.625C4.75041 16.3102 4.87565 16.0084 5.09826 15.7858C5.32087 15.5632 5.62268 15.4379 5.9375 15.4375H13.0625C13.3773 15.4379 13.6791 15.5632 13.9017 15.7858C14.1243 16.0084 14.2496 16.3102 14.25 16.625V19H16.625V16.625C16.624 15.6805 16.2483 14.775 15.5804 14.1071C14.9125 13.4392 14.007 13.0635 13.0625 13.0625H5.9375C4.99298 13.0635 4.08745 13.4392 3.41958 14.1071C2.7517 14.775 2.37604 15.6805 2.375 16.625V19Z" fill="#2A3D52"/>
<path d="M9.5 11.875C8.56054 11.875 7.64218 11.5964 6.86104 11.0745C6.07991 10.5525 5.47109 9.8107 5.11157 8.94275C4.75206 8.0748 4.65799 7.11973 4.84127 6.19832C5.02455 5.27691 5.47695 4.43054 6.14124 3.76624C6.80554 3.10195 7.65191 2.64955 8.57332 2.46627C9.49473 2.28299 10.4498 2.37706 11.3177 2.73657C12.1857 3.09609 12.9275 3.70491 13.4495 4.48604C13.9714 5.26718 14.25 6.18554 14.25 7.125C14.2486 8.38435 13.7477 9.59171 12.8572 10.4822C11.9667 11.3727 10.7593 11.8736 9.5 11.875ZM9.5 4.75C9.03027 4.75 8.57109 4.88929 8.18052 5.15026C7.78996 5.41123 7.48555 5.78215 7.30579 6.21613C7.12603 6.6501 7.079 7.12764 7.17064 7.58834C7.26228 8.04905 7.48847 8.47223 7.82062 8.80438C8.15277 9.13653 8.57596 9.36273 9.03666 9.45437C9.49737 9.54601 9.9749 9.49897 10.4089 9.31922C10.8428 9.13946 11.2138 8.83505 11.4747 8.44448C11.7357 8.05391 11.875 7.59473 11.875 7.125C11.8744 6.49531 11.6239 5.89158 11.1787 5.44632C10.7334 5.00106 10.1297 4.75063 9.5 4.75Z" fill="#2A3D52"/>
</g>
<defs>
<clipPath id="clip0_1654_5553">
<rect width="38" height="38" fill="white"/>
</clipPath>
</defs>
</svg>
