<svg width="36" height="36" viewBox="0 0 36 36" fill="none" xmlns="http://www.w3.org/2000/svg">
<path d="M28.7623 17.0667C28.2184 15.8435 27.6449 14.8045 26.9929 13.8224L27.044 13.9032C26.8374 13.5683 26.6307 13.2346 26.4289 12.895C25.4706 11.28 24.6357 9.98797 23.7986 8.82778C23.3924 8.25897 22.9923 7.7626 22.5671 7.29116L22.5802 7.3066C22.2631 6.91947 21.8677 6.60953 21.4152 6.40053L21.3951 6.39222C21.2989 6.35541 21.1872 6.33285 21.0697 6.33285C21.0044 6.33285 20.9414 6.33997 20.8809 6.35185L20.8868 6.35066C19.8418 6.50266 18.969 7.13203 18.4869 8.00722L18.4786 8.02385C18.2945 8.45728 18.1876 8.96197 18.1876 9.4916C18.1876 10.0806 18.3194 10.6399 18.5569 11.1387L18.5474 11.1149L21.0139 16.6035C19.6292 16.6356 18.5178 17.7661 18.5178 19.1555C18.5178 19.2232 18.5201 19.2897 18.5261 19.3562V19.3478V23.041L18.0095 24.8044L17.4929 23.041V19.3478C17.4977 19.2908 17.5001 19.2243 17.5001 19.1578C17.5001 17.7673 16.3886 16.6368 15.0063 16.6071H15.0039L17.4644 11.1292C17.6948 10.6494 17.829 10.0865 17.829 9.4916C17.829 8.96316 17.7221 8.45847 17.5298 8.0001L17.5393 8.02503C17.0488 7.13322 16.176 6.50266 15.1488 6.35303L15.131 6.35066C15.0752 6.33878 15.0122 6.33285 14.9469 6.33285C14.8294 6.33285 14.7178 6.35422 14.6144 6.39341L14.6204 6.39103C14.1394 6.61547 13.7369 6.93372 13.421 7.3256L13.4163 7.33153C13.0101 7.7816 12.6182 8.26966 12.2537 8.78028L12.2204 8.83016C11.3809 9.99035 10.5449 11.2812 9.58894 12.8962C9.39062 13.2298 9.18519 13.5623 8.98094 13.8937C8.3765 14.7985 7.80056 15.84 7.31131 16.9301L7.2555 17.0678C6.71044 18.3812 6.39337 19.906 6.39337 21.5055C6.39337 22.9044 6.63562 24.2475 7.08094 25.4932L7.05481 25.41C7.59156 26.7044 8.02856 28.2208 8.29456 29.7943L8.31238 29.9213H7.493C7.00137 29.9213 6.60238 30.3203 6.60238 30.812V34.625C6.60238 35.1167 7.00137 35.5157 7.493 35.5157H28.526C29.0176 35.5157 29.4166 35.1167 29.4166 34.625V30.812C29.4166 30.3203 29.0176 29.9213 28.526 29.9213H27.7054C27.9952 28.2066 28.4369 26.6783 29.0283 25.2295L28.9749 25.3756C29.3869 24.2225 29.6256 22.8913 29.6256 21.5055C29.6256 19.906 29.3086 18.38 28.7326 16.9871L28.7611 17.0655L28.7623 17.0667ZM8.72206 24.7866C8.37888 23.8093 8.18056 22.6835 8.18056 21.5115C8.18056 20.1542 8.44656 18.8586 8.92869 17.6747L8.90375 17.7423C9.40725 16.6166 9.93806 15.6607 10.5413 14.757L10.495 14.8306C10.7064 14.4898 10.9166 14.1478 11.1208 13.8034C12.0471 12.2383 12.8558 10.9902 13.6609 9.87635C14.0231 9.36691 14.3805 8.9216 14.7605 8.49885L14.7486 8.51191C14.8472 8.40622 14.9671 8.2756 15.0764 8.17941C15.4445 8.26847 15.7485 8.49647 15.9361 8.80285L15.9397 8.80878C16.0098 9.00828 16.0489 9.23985 16.0489 9.47972C16.0489 9.80866 15.9729 10.1198 15.8388 10.3977L15.8447 10.3846L12.4104 18.0273C12.3618 18.1342 12.3333 18.2601 12.3333 18.3931V26.037C12.3333 26.5287 12.7322 26.9277 13.2239 26.9277C13.7155 26.9277 14.1145 26.5287 14.1145 26.037V19.349C14.1145 17.8397 15.7093 17.8433 15.7117 19.349V23.1704C15.7117 23.1716 15.7117 23.1728 15.7117 23.174C15.7117 23.2618 15.7247 23.3473 15.7497 23.4269L15.7485 23.421L17.1106 28.0736V29.9225H10.1019C9.82169 28.0012 9.33956 26.2722 8.66862 24.6393L8.72206 24.7866ZM27.6342 33.7344H8.38244V31.7026H27.6342V33.7344ZM27.3076 24.7522C26.6877 26.246 26.2021 27.9869 25.9325 29.799L25.9171 29.9225H18.9084V28.0736L20.2705 23.421C20.2931 23.3473 20.3061 23.2618 20.3061 23.174C20.3061 23.1728 20.3061 23.1716 20.3061 23.1704V19.349C20.3049 18.1983 21.2371 18.139 21.6337 18.5439C21.8024 18.7375 21.9057 18.9928 21.9057 19.2718C21.9057 19.2992 21.9045 19.3253 21.9033 19.3514V19.3478V26.0358C21.9033 26.5275 22.3023 26.9265 22.7939 26.9265C23.2856 26.9265 23.6846 26.5275 23.6846 26.0358V18.3919C23.6846 18.2601 23.6549 18.1342 23.6038 18.0214L23.6062 18.0273L20.1672 10.3727C20.0437 10.1103 19.9713 9.80153 19.9713 9.47735C19.9713 9.24103 20.0093 9.01303 20.0805 8.80047L20.0757 8.81591C20.2657 8.50003 20.5721 8.26966 20.9319 8.18178L20.9414 8.17941C21.0531 8.27916 21.1801 8.41572 21.2917 8.53922C21.6516 8.93941 22.0007 9.37522 22.3261 9.83003L22.3569 9.87516C23.1597 10.989 23.9684 12.2359 24.897 13.8046C25.1036 14.1525 25.3174 14.4957 25.5276 14.8401C26.0821 15.6678 26.6129 16.6213 27.0642 17.6165L27.1164 17.7435C27.5748 18.8586 27.8408 20.153 27.8408 21.5103C27.8408 22.6705 27.6461 23.7855 27.2874 24.8246L27.3088 24.7533L27.3076 24.7522ZM6.92181 13.6478C6.98119 13.5315 7.01562 13.3949 7.01562 13.25C7.01562 12.9033 6.81731 12.6028 6.52756 12.4556L6.52281 12.4532L1.77281 10.0782C1.65644 10.0188 1.51988 9.98441 1.375 9.98441C0.883375 9.98441 0.484375 10.3834 0.484375 10.875C0.484375 11.2218 0.682688 11.5222 0.972438 11.6695L0.977187 11.6718L5.72719 14.0468C5.84356 14.1062 5.98012 14.1407 6.125 14.1407C6.47175 14.1407 6.77219 13.9423 6.91944 13.6526L6.92181 13.6478ZM7.87062 9.12941C8.03212 9.29566 8.25894 9.39897 8.5095 9.39897C9.00113 9.39897 9.40013 8.99997 9.40013 8.50835C9.40013 8.25778 9.29681 8.03216 9.13056 7.87066L2.00556 0.745658C1.84525 0.590096 1.62556 0.493908 1.3845 0.493908C0.892875 0.493908 0.493875 0.892908 0.493875 1.38453C0.493875 1.6256 0.590062 1.84528 0.746812 2.0056L7.87062 9.12941ZM34.226 10.0782L29.476 12.4532C29.1815 12.6028 28.9844 12.9033 28.9844 13.25C28.9844 13.7417 29.3834 14.1407 29.875 14.1407C30.0199 14.1407 30.1576 14.1062 30.2787 14.0445L30.274 14.0468L35.024 11.6718C35.3185 11.5222 35.5156 11.2218 35.5156 10.875C35.5156 10.3834 35.1166 9.98441 34.625 9.98441C34.4801 9.98441 34.3424 10.0188 34.2212 10.0806L34.226 10.0782ZM27.5 9.39066C27.7458 9.39066 27.9702 9.29091 28.1318 9.12941L35.2567 2.00441C35.4159 1.84291 35.5156 1.62203 35.5156 1.37741C35.5156 0.884596 35.1166 0.485596 34.6238 0.485596C34.378 0.485596 34.1559 0.584158 33.9956 0.744471L26.8706 7.86947C26.7091 8.03097 26.6094 8.25303 26.6094 8.49885C26.6094 8.99047 27.0084 9.38947 27.5 9.38947V9.39066ZM23.4874 4.51953C23.6062 4.58366 23.7475 4.62047 23.8971 4.62047C24.2391 4.62047 24.5372 4.4281 24.6868 4.14666L24.6892 4.14191L25.9159 1.7871C25.9776 1.66835 26.0144 1.52822 26.0144 1.37978C26.0144 0.886971 25.6154 0.487971 25.1226 0.487971C24.7818 0.487971 24.4861 0.677971 24.3365 0.958221L24.3341 0.962971L23.1074 3.31778C23.0445 3.43653 23.0077 3.57785 23.0077 3.72866C23.0077 4.07066 23.2001 4.36753 23.4827 4.51716L23.4874 4.51953ZM11.312 4.14191C11.4652 4.42335 11.7585 4.61097 12.0969 4.61097C12.5886 4.61097 12.9876 4.21197 12.9876 3.72035C12.9876 3.57428 12.9519 3.43535 12.889 3.31303L12.8914 3.31778L11.6647 0.962971C11.5115 0.681533 11.2182 0.493908 10.8797 0.493908C10.3881 0.493908 9.98912 0.892908 9.98912 1.38453C9.98912 1.5306 10.0247 1.66953 10.0877 1.79185L10.0853 1.7871L11.312 4.14191Z" fill="#2A3D52"/>
</svg>
