<svg width="38" height="38" viewBox="0 0 38 38" fill="none" xmlns="http://www.w3.org/2000/svg">
<g clip-path="url(#clip0_1654_5540)">
<path d="M36.4147 22.9579H31.6652V21.5027C31.883 21.2926 32.0887 21.0712 32.2778 20.8352C32.7533 20.2417 33.1378 19.5829 33.4184 18.8782L37.8852 7.71446C38.3013 6.67455 37.5354 5.54321 36.4153 5.54321H27.4072C26.839 5.54321 26.3145 5.84762 26.0326 6.3409L24.5577 8.92187C22.9951 7.79253 21.0756 7.12642 19.0005 7.12642C16.925 7.12642 15.0055 7.79246 13.4428 8.92179L11.9681 6.34098C11.6862 5.8477 11.1616 5.54329 10.5935 5.54329H1.58541C0.465424 5.54329 -0.300429 6.67448 0.115447 7.71439L4.58151 18.8804C4.86514 19.5875 5.24822 20.2448 5.7216 20.8355C5.91084 21.0718 6.1167 21.2934 6.33466 21.5035V22.958H1.58519C0.408282 22.958 -0.357126 24.1965 0.169175 25.2492L1.39832 27.7075L0.169249 30.1657C-0.357051 31.2183 0.408356 32.4568 1.58526 32.4568H9.50107C10.3754 32.4568 11.0842 31.7481 11.0842 30.8737V29.2906H26.9158V30.8737C26.9158 31.7481 27.6245 32.4568 28.4989 32.4568H36.4147C37.5916 32.4568 38.357 31.2183 37.8307 30.1657L36.6016 27.7074L37.8307 25.2491C38.3571 24.1964 37.5916 22.9579 36.4147 22.9579ZM9.50107 26.1242V24.5411V22.958H12.7029H12.742H25.2589H25.2969H28.499V24.5411V26.1242H9.50107ZM28.3259 8.70948H34.0767L30.4778 17.7042C30.3126 18.119 30.087 18.5056 29.8066 18.8554C29.522 19.2107 29.1654 19.5233 28.7427 19.7916H27.9411C28.1891 19.1075 28.3574 18.3955 28.4396 17.6651C28.4464 17.6057 28.4525 17.5461 28.4582 17.4864C28.4632 17.4333 28.4678 17.3801 28.4719 17.3267C28.4796 17.2274 28.4861 17.1279 28.4906 17.028C28.4912 17.0125 28.4915 16.9971 28.4921 16.9816C28.4968 16.8632 28.4996 16.7444 28.4996 16.6251C28.4996 16.5146 28.497 16.4048 28.4932 16.2952C28.4926 16.2756 28.4918 16.2561 28.491 16.2365C28.4172 14.404 27.8245 12.7051 26.8553 11.2829L28.3259 8.70948ZM23.5545 12.2276C23.6019 12.3045 23.6564 12.3784 23.7181 12.4479C24.6234 13.469 25.1787 14.7113 25.3053 16.0398C25.3076 16.0651 25.3091 16.0906 25.3111 16.116C25.3168 16.185 25.3223 16.254 25.3256 16.3234C25.3303 16.4234 25.3333 16.524 25.3333 16.6252C25.3333 16.706 25.3314 16.7865 25.3281 16.8668C25.3276 16.8805 25.3266 16.8942 25.326 16.908C25.3225 16.9828 25.3179 17.0574 25.3115 17.1318C25.3115 17.1321 25.3115 17.1325 25.3115 17.1328C25.2307 18.0679 24.9268 18.966 24.4257 19.7915H21.7776L21.4872 17.9122L23.7495 15.3301L20.5373 14.9897L19 11.8756L17.4627 14.9897L14.2505 15.3301L16.5128 17.9122L16.2224 19.7915H13.5751C13.0772 18.9713 12.7743 18.0793 12.6912 17.1506C12.6901 17.1379 12.689 17.125 12.688 17.1123C12.6832 17.0553 12.68 16.9982 12.6769 16.941C12.6754 16.9111 12.6734 16.8813 12.6723 16.8513C12.6707 16.8109 12.6704 16.7704 12.6697 16.7298C12.6691 16.6949 12.6679 16.6601 12.6679 16.6251C12.6679 16.5204 12.6708 16.4165 12.6758 16.313C12.6778 16.2732 12.6814 16.2336 12.6842 16.1938C12.6879 16.1387 12.6916 16.0836 12.6967 16.0289C12.8253 14.7044 13.3799 13.4661 14.2827 12.4478C14.3445 12.3781 14.399 12.3042 14.4465 12.2271C15.5981 11.035 17.2121 10.2925 19.0005 10.2925C20.7887 10.2926 22.4028 11.0353 23.5545 12.2276ZM3.92371 8.70948H9.6748L11.1454 11.2832C10.1807 12.699 9.58908 14.3892 9.51109 16.2125C9.50953 16.2484 9.50812 16.2845 9.50701 16.3206C9.50456 16.3976 9.50315 16.4749 9.50256 16.5523C9.50233 16.5767 9.50115 16.6009 9.50115 16.6253C9.50115 16.8694 9.51146 17.1117 9.53083 17.3524C9.53283 17.3784 9.53476 17.4044 9.53699 17.4303C9.54448 17.5148 9.55346 17.5991 9.56333 17.6832C9.64608 18.4074 9.81357 19.1132 10.0592 19.7916H9.25721C8.83414 19.5236 8.47734 19.2112 8.19267 18.8557C7.91408 18.508 7.68848 18.1209 7.52084 17.703L3.92371 8.70948ZM4.14686 29.2905L4.5844 28.4153C4.80726 27.9696 4.80726 27.445 4.5844 26.9993L4.14686 26.1242H6.33473V27.7073C6.33473 28.5816 7.04352 29.2904 7.91786 29.2904H4.14686V29.2905ZM33.4156 28.4153L33.8531 29.2905H30.0821C30.9564 29.2905 31.6652 28.5817 31.6652 27.7074V26.1242H33.8531L33.4156 26.9994C33.1927 27.445 33.1927 27.9697 33.4156 28.4153Z" fill="#2A3D52"/>
</g>
<defs>
<clipPath id="clip0_1654_5540">
<rect width="38" height="38" fill="white"/>
</clipPath>
</defs>
</svg>
