<svg width="38" height="38" viewBox="0 0 38 38" fill="none" xmlns="http://www.w3.org/2000/svg">
<path fill-rule="evenodd" clip-rule="evenodd" d="M9.4999 32.4408V24.5637L10.2916 23.772C10.7288 23.772 11.0832 24.1265 11.0832 24.5637V32.4408C11.0832 33.7519 10.0195 34.8158 8.70824 34.8158C7.39702 34.8158 6.33325 33.7519 6.33325 32.4408V21.356C6.33325 21.7932 6.68769 22.1477 7.12492 22.1477H7.91658V32.4408C7.91658 32.8775 8.27147 33.2325 8.70824 33.2325C9.145 33.2325 9.4999 32.8775 9.4999 32.4408ZM7.91658 20.5644H29.4113L24.8987 14.9282C24.2045 14.0604 24.2038 12.8272 24.8985 11.9618L29.4128 6.31433H10.2916C9.85433 6.31433 9.4999 5.95988 9.4999 5.52266C9.4999 5.08543 9.85433 4.731 10.2916 4.731H30.7292C31.5265 4.731 31.9701 5.65366 31.4711 6.27504L26.1342 12.9517C25.9033 13.2394 25.9036 13.6496 26.1349 13.9388L31.4746 20.608C31.9642 21.2294 31.5263 22.1477 30.7292 22.1477H7.91658V20.5644ZM7.91658 20.5644H7.12492C6.68769 20.5644 6.33325 20.9188 6.33325 21.356V3.95817C6.33325 3.52094 6.68769 3.1665 7.12492 3.1665C7.56214 3.1665 7.91658 3.52094 7.91658 3.95817V20.5644Z" fill="#8ECFE3"/>
</svg>
