<svg width="38" height="38" viewBox="0 0 38 38" fill="none" xmlns="http://www.w3.org/2000/svg">
<path d="M19 25.3335V19.0002M19 12.6668H19.0158M4.75 12.5741V25.4262C4.75 25.9688 4.75 26.24 4.82993 26.4819C4.90065 26.696 5.01625 26.8925 5.169 27.0581C5.34168 27.2456 5.5788 27.3773 6.05304 27.6408L17.7697 34.15C18.2188 34.3995 18.4433 34.5241 18.681 34.5731C18.8915 34.6165 19.1085 34.6165 19.319 34.5731C19.5567 34.5241 19.7812 34.3995 20.2303 34.15L31.9469 27.6408C32.4213 27.3773 32.6583 27.2456 32.831 27.0581C32.9837 26.8925 33.0994 26.696 33.17 26.4819C33.25 26.24 33.25 25.9688 33.25 25.4262V12.5741C33.25 12.0316 33.25 11.7603 33.17 11.5184C33.0994 11.3044 32.9837 11.1079 32.831 10.9422C32.6583 10.7548 32.4213 10.6231 31.9469 10.3596L20.2303 3.85034C19.7812 3.60087 19.5567 3.47614 19.319 3.42723C19.1085 3.38396 18.8915 3.38396 18.681 3.42723C18.4433 3.47614 18.2188 3.60087 17.7697 3.85034L6.05304 10.3596C5.5788 10.6231 5.34168 10.7548 5.169 10.9422C5.01625 11.1079 4.90065 11.3044 4.82993 11.5184C4.75 11.7603 4.75 12.0316 4.75 12.5741Z" stroke="#2A3D52" stroke-width="4" stroke-linecap="round" stroke-linejoin="round"/>
</svg>
