<svg width="24" height="24" viewBox="0 0 24 24" fill="none" xmlns="http://www.w3.org/2000/svg">
<g clip-path="url(#clip0_1654_5526)">
<path d="M12.0004 5.42236C8.57686 5.42236 5.7915 8.20772 5.7915 11.6313C5.7915 13.0324 6.25093 14.3563 7.11947 15.4591C7.29091 15.6774 7.47106 15.8864 7.66178 16.1076L7.67226 16.1198C8.25576 16.7967 8.85907 17.497 9.08438 18.3215C9.13531 18.5105 9.14254 18.8727 9.13961 19.1518V19.6261C9.13961 20.0602 9.49151 20.4121 9.92557 20.4121H14.0411C14.4752 20.4121 14.8271 20.0602 14.8271 19.6261V19.1462C14.8244 18.7818 14.8433 18.5158 14.8813 18.3778C15.1079 17.5587 15.7765 16.7722 16.3717 16.0722L16.3974 16.042C16.5692 15.8402 16.7315 15.6495 16.8793 15.4616C17.7491 14.3582 18.2088 13.0336 18.2088 11.6313C18.2087 8.20772 15.4237 5.42236 12.0004 5.42236ZM15.644 14.4894C15.5146 14.654 15.362 14.8333 15.2004 15.0231L15.1688 15.0603C14.4735 15.8781 13.6854 16.805 13.366 17.9596C13.3208 18.1235 13.2706 18.3688 13.2579 18.8401H10.7101C10.6992 18.3395 10.6481 18.0828 10.6015 17.9099C10.2819 16.7399 9.49518 15.8271 8.86295 15.0934L8.85236 15.081C8.67369 14.8738 8.50497 14.6781 8.35501 14.4874C7.70632 13.6637 7.36343 12.676 7.36343 11.6313C7.36343 9.07448 9.44362 6.99429 12.0004 6.99429C14.5569 6.99429 16.6368 9.07448 16.6368 11.6313C16.6368 12.6771 16.2937 13.6651 15.644 14.4894Z" fill="#8ECFE3"/>
<path d="M14.0408 20.6353H9.92537C9.49131 20.6353 9.1394 20.9872 9.1394 21.4212C9.1394 21.8553 9.49131 22.2072 9.92537 22.2072H14.0409C14.475 22.2072 14.8269 21.8553 14.8269 21.4212C14.8269 20.9872 14.4748 20.6353 14.0408 20.6353Z" fill="#8ECFE3"/>
<path d="M13.0121 22.428H10.9544C10.5204 22.428 10.1685 22.7799 10.1685 23.2139C10.1685 23.648 10.5204 23.9999 10.9544 23.9999H13.0121C13.4461 23.9999 13.798 23.648 13.798 23.2139C13.798 22.7799 13.4461 22.428 13.0121 22.428Z" fill="#8ECFE3"/>
<path d="M22.8452 10.8455H20.1339C19.6998 10.8455 19.3479 11.1974 19.3479 11.6314C19.3479 12.0655 19.6998 12.4174 20.1339 12.4174H22.8452C23.2793 12.4174 23.6312 12.0655 23.6312 11.6314C23.6312 11.1974 23.2793 10.8455 22.8452 10.8455Z" fill="#8ECFE3"/>
<path d="M4.65226 11.6314C4.65226 11.1974 4.30036 10.8455 3.8663 10.8455H1.15462C0.720555 10.8455 0.368652 11.1974 0.368652 11.6314C0.368652 12.0655 0.720555 12.4174 1.15462 12.4174H3.8663C4.30036 12.4174 4.65226 12.0655 4.65226 11.6314Z" fill="#8ECFE3"/>
<path d="M12.0001 4.28414C12.4341 4.28414 12.786 3.93223 12.786 3.49817V0.785965C12.786 0.351902 12.4341 0 12.0001 0C11.566 0 11.2141 0.351902 11.2141 0.785965V3.49817C11.2141 3.93223 11.566 4.28414 12.0001 4.28414Z" fill="#8ECFE3"/>
<path d="M18.3069 16.8269C18 16.52 17.5024 16.5199 17.1953 16.8268C16.8884 17.1338 16.8883 17.6314 17.1952 17.9384L19.1126 19.8563C19.2661 20.0098 19.4672 20.0865 19.6684 20.0865C19.8695 20.0865 20.0706 20.0098 20.2241 19.8564C20.5311 19.5494 20.5312 19.0518 20.2242 18.7448L18.3069 16.8269Z" fill="#8ECFE3"/>
<path d="M5.69212 6.43517C5.84564 6.58869 6.04674 6.66551 6.24795 6.66551C6.44905 6.66551 6.65015 6.5888 6.80357 6.43538C7.11062 6.12843 7.11062 5.63086 6.80378 5.32392L4.88718 3.40658C4.58024 3.09953 4.08267 3.09953 3.77572 3.40637C3.46867 3.71332 3.46867 4.21089 3.77551 4.51783L5.69212 6.43517Z" fill="#8ECFE3"/>
<path d="M5.69301 16.8269L3.77557 18.7448C3.46862 19.0517 3.46873 19.5494 3.77567 19.8562C3.92909 20.0096 4.1303 20.0863 4.3314 20.0863C4.5325 20.0863 4.73371 20.0096 4.88723 19.8561L6.80467 17.9383C7.11162 17.6313 7.11151 17.1336 6.80457 16.8268C6.49762 16.52 5.99995 16.52 5.69301 16.8269Z" fill="#8ECFE3"/>
<path d="M17.7515 6.66539C17.9526 6.66539 18.1538 6.58868 18.3073 6.43515L20.2242 4.51792C20.5312 4.21098 20.5311 3.71331 20.2241 3.40647C19.9172 3.09952 19.4195 3.09952 19.1126 3.40657L17.1957 5.3238C16.8888 5.63074 16.8889 6.12842 17.1958 6.43526C17.3492 6.58878 17.5503 6.66539 17.7515 6.66539Z" fill="#8ECFE3"/>
</g>
<defs>
<clipPath id="clip0_1654_5526">
<rect width="24" height="24" fill="white"/>
</clipPath>
</defs>
</svg>
