<svg width="24" height="24" viewBox="0 0 24 24" fill="none" xmlns="http://www.w3.org/2000/svg">
<path d="M8.919 2.00002L2 8.91902C1.62506 9.29408 1.41443 9.8027 1.41443 10.333C1.41443 10.8634 1.62506 11.372 2 11.747L12.252 22C12.4377 22.1858 12.6582 22.3332 12.9009 22.4338C13.1437 22.5343 13.4038 22.5861 13.6665 22.5861C13.9292 22.5861 14.1894 22.5343 14.4321 22.4338C14.6748 22.3332 14.8953 22.1858 15.081 22L22 15.081C22.1858 14.8953 22.3332 14.6748 22.4338 14.4321C22.5343 14.1894 22.5861 13.9292 22.5861 13.6665C22.5861 13.4038 22.5343 13.1437 22.4338 12.901C22.3332 12.6583 22.1858 12.4378 22 12.252L11.748 2.00002C11.3723 1.626 10.8637 1.41602 10.3335 1.41602C9.80333 1.41602 9.29474 1.626 8.919 2.00002ZM13.667 20.586L3.414 10.333L10.333 3.41402L20.586 13.667L13.667 20.586ZM20.256 7.41902C20.4714 6.90732 20.5264 6.34233 20.4139 5.79867C20.3015 5.25502 20.0267 4.75826 19.626 4.37402C19.2413 3.97365 18.7445 3.69909 18.2008 3.58646C17.6571 3.47383 17.0921 3.52841 16.58 3.74302C16.4599 3.80207 16.3291 3.8364 16.1954 3.84396C16.0618 3.85152 15.9279 3.83217 15.8019 3.78706C15.6759 3.74194 15.5602 3.67197 15.4617 3.58131C15.3632 3.49064 15.2839 3.38113 15.2285 3.25925C15.1731 3.13737 15.1428 3.00561 15.1393 2.87178C15.1358 2.73796 15.1591 2.60479 15.2081 2.48017C15.257 2.35556 15.3304 2.24203 15.424 2.14633C15.5176 2.05062 15.6295 1.97469 15.753 1.92302C16.6357 1.54004 17.614 1.43412 18.5582 1.6193C19.5025 1.80447 20.3683 2.272 21.041 2.96002C21.7285 3.63285 22.1957 4.4985 22.3806 5.44252C22.5656 6.38654 22.4597 7.36447 22.077 8.24702C21.9975 8.42188 21.8693 8.57013 21.7077 8.67405C21.5462 8.77797 21.3581 8.83316 21.166 8.83302C21.0231 8.83341 20.8818 8.8027 20.752 8.74302C20.5107 8.63317 20.3229 8.43199 20.2299 8.18371C20.1369 7.93543 20.1463 7.66038 20.256 7.41902ZM3.744 16.581C3.52865 17.0927 3.47358 17.6577 3.58606 18.2014C3.69854 18.745 3.97328 19.2418 4.374 19.626C4.75891 20.026 5.25575 20.3004 5.79934 20.413C6.34293 20.5256 6.90786 20.4712 7.42 20.257C7.54015 20.198 7.67092 20.1637 7.80458 20.1561C7.93824 20.1485 8.07206 20.1679 8.1981 20.213C8.32414 20.2581 8.43984 20.3281 8.53833 20.4187C8.63683 20.5094 8.71612 20.6189 8.7715 20.7408C8.82688 20.8627 8.85723 20.9944 8.86074 21.1283C8.86425 21.2621 8.84085 21.3953 8.79194 21.5199C8.74302 21.6445 8.66959 21.758 8.57598 21.8537C8.48237 21.9494 8.3705 22.0254 8.247 22.077C7.66309 22.3418 7.02915 22.4782 6.388 22.477C5.09994 22.4703 3.86699 21.9536 2.959 21.04C2.27147 20.3672 1.80434 19.5015 1.61935 18.5575C1.43437 17.6135 1.54025 16.6356 1.923 15.753C1.97737 15.6335 2.05475 15.5258 2.15074 15.4361C2.24673 15.3464 2.35943 15.2766 2.48242 15.2305C2.60541 15.1844 2.73628 15.1629 2.86755 15.1674C2.99883 15.1719 3.12793 15.2022 3.2475 15.2565C3.36707 15.3109 3.47476 15.3883 3.56442 15.4843C3.65408 15.5802 3.72396 15.693 3.77006 15.8159C3.81617 15.9389 3.8376 16.0698 3.83312 16.2011C3.82865 16.3323 3.79837 16.4615 3.744 16.581ZM14.626 16.04C14.4861 15.9002 14.3908 15.722 14.3522 15.528C14.3136 15.334 14.3334 15.1329 14.4091 14.9502C14.4848 14.7675 14.6129 14.6113 14.7774 14.5014C14.9419 14.3915 15.1352 14.3328 15.333 14.3328C15.5308 14.3328 15.7241 14.3915 15.8886 14.5014C16.0531 14.6113 16.1812 14.7675 16.2569 14.9502C16.3326 15.1329 16.3524 15.334 16.3138 15.528C16.2752 15.722 16.1799 15.9002 16.04 16.04C15.8525 16.2275 15.5982 16.3328 15.333 16.3328C15.0678 16.3328 14.8135 16.2275 14.626 16.04Z" fill="#8ECFE3"/>
</svg>
