<svg width="28" height="28" viewBox="0 0 28 28" fill="none" xmlns="http://www.w3.org/2000/svg">
<path d="M16.6811 14.0002C16.6811 15.4779 15.4784 16.6806 14.0007 16.6806C12.5231 16.6806 11.3203 15.4779 11.3203 14.0002C11.3203 12.5226 12.5231 11.3198 14.0007 11.3198C15.4784 11.3198 16.6811 12.5226 16.6811 14.0002Z" fill="#8ECFE3"/>
<path d="M20.2683 9.25773C20.1378 8.90722 19.9316 8.59106 19.6704 8.3299C19.4092 8.06185 19.0931 7.85567 18.7426 7.73196C18.4608 7.62199 18.0346 7.49141 17.2511 7.45705C16.4058 7.41581 16.1515 7.40894 14.0003 7.40894C11.856 7.40894 11.6017 7.41581 10.7494 7.45705C9.96592 7.49141 9.53981 7.62199 9.25802 7.73196C8.90751 7.86254 8.59135 8.06873 8.33018 8.3299C8.06214 8.59106 7.85595 8.90722 7.72537 9.25773C7.6154 9.53952 7.48482 9.96563 7.45046 10.7491C7.40922 11.5945 7.40234 11.8488 7.40234 14C7.40234 16.1443 7.40922 16.3986 7.45046 17.2509C7.48482 18.0344 7.6154 18.4605 7.72537 18.7423C7.85595 19.0928 8.06214 19.4089 8.3233 19.6701C8.58447 19.9381 8.90063 20.1443 9.25114 20.268C9.53293 20.378 9.95904 20.5086 10.7425 20.5429C11.5879 20.5842 11.8422 20.5911 13.9934 20.5911C16.1377 20.5911 16.392 20.5842 17.2443 20.5429C18.0278 20.5086 18.4539 20.378 18.7357 20.268C19.4367 20 19.9934 19.4433 20.2615 18.7423C20.3714 18.4605 20.502 18.0344 20.5364 17.2509C20.5776 16.4055 20.5845 16.1512 20.5845 14C20.5845 11.8557 20.5776 11.6014 20.5364 10.7491C20.502 9.96563 20.3714 9.53952 20.2615 9.25773H20.2683ZM14.0003 18.1306C11.7185 18.1306 9.8697 16.2818 9.8697 14C9.8697 11.7182 11.7185 9.86941 14.0003 9.86941C16.2821 9.86941 18.1309 11.7182 18.1309 14C18.1309 16.2818 16.2821 18.1306 14.0003 18.1306ZM18.289 10.6735C17.7529 10.6735 17.3268 10.2406 17.3268 9.71135C17.3268 9.17526 17.7597 8.74915 18.289 8.74915C18.825 8.74915 19.2511 9.18214 19.2511 9.71135C19.2511 10.2474 18.8182 10.6735 18.289 10.6735Z" fill="#8ECFE3"/>
<path d="M14 0C6.26804 0 0 6.26804 0 14C0 21.732 6.26804 28 14 28C21.732 28 28 21.732 28 14C28 6.26804 21.732 0 14 0ZM21.9931 17.3127C21.9519 18.1718 21.8213 18.756 21.622 19.2646C21.2027 20.3436 20.3505 21.1959 19.2715 21.6151C18.7629 21.8144 18.1787 21.9519 17.3196 21.9863C16.4605 22.0275 16.1856 22.0344 14.0069 22.0344C11.8213 22.0344 11.5464 22.0275 10.6942 21.9863C9.84192 21.945 9.25086 21.8144 8.74227 21.6151C8.20619 21.4158 7.71821 21.0997 7.31958 20.6873C6.90721 20.2887 6.59106 19.8007 6.39175 19.2646C6.19243 18.756 6.05497 18.1718 6.02061 17.3127C5.97937 16.4536 5.97249 16.1787 5.97249 14C5.97249 11.8144 5.97937 11.5395 6.02061 10.6873C6.06184 9.82817 6.19243 9.24398 6.39175 8.73539C6.59106 8.19931 6.90721 7.71133 7.31958 7.31271C7.71821 6.90033 8.20619 6.5842 8.74227 6.38489C9.25086 6.18557 9.83505 6.04811 10.6942 6.01375C11.5533 5.97251 11.8282 5.96563 14.0069 5.96563C16.1924 5.96563 16.4673 5.97251 17.3196 6.01375C18.1787 6.05498 18.7629 6.18557 19.2715 6.38489C19.8075 6.5842 20.2955 6.90033 20.6942 7.31271C21.0997 7.71133 21.4227 8.19931 21.622 8.73539C21.8213 9.24398 21.9588 9.82817 21.9931 10.6873C22.0344 11.5464 22.0412 11.8213 22.0412 14C22.0412 16.1856 22.0344 16.4605 21.9931 17.3127Z" fill="#8ECFE3"/>
</svg>
