<svg width="28" height="28" viewBox="0 0 28 28" fill="none" xmlns="http://www.w3.org/2000/svg">
<path fill-rule="evenodd" clip-rule="evenodd" d="M28 14C28 21.732 21.732 28 14 28C6.26801 28 0 21.732 0 14C0 6.26801 6.26801 0 14 0C21.732 0 28 6.26801 28 14ZM20.8613 9.01115C21.607 8.92211 22.3163 8.72402 22.9766 8.43099C22.4814 9.17151 21.8584 9.81795 21.1366 10.34C21.1443 10.4981 21.1478 10.6566 21.1478 10.8164C21.1478 15.6832 17.443 21.2952 10.669 21.2952C8.58909 21.2952 6.65357 20.685 5.02344 19.6397C5.31171 19.6744 5.60535 19.6922 5.90247 19.6922C7.62748 19.6922 9.21573 19.1032 10.4762 18.1151C8.86505 18.085 7.50488 17.0203 7.0362 15.5576C7.26139 15.5999 7.49191 15.6224 7.7295 15.6224C8.06555 15.6224 8.39038 15.5781 8.6999 15.4933C7.01495 15.1549 5.74564 13.6669 5.74564 11.8823V11.8357C6.25707 12.1202 6.82916 12.2781 7.41408 12.2962C6.426 11.6359 5.77573 10.5087 5.77573 9.23106C5.77573 8.55607 5.95728 7.92343 6.27445 7.37931C8.09089 9.60723 10.8046 11.0735 13.8655 11.2273C13.8031 10.9573 13.7707 10.676 13.7707 10.3878C13.7707 8.35322 15.4197 6.70483 17.4531 6.70483C18.5124 6.70483 19.4699 7.15169 20.1414 7.86743C20.9665 7.70537 21.7577 7.40307 22.4807 6.97366C22.2054 7.8332 21.6223 8.5554 20.8613 9.01115Z" fill="#8ECFE3"/>
</svg>
