<svg width="100" height="100" viewBox="0 0 100 100" fill="none" xmlns="http://www.w3.org/2000/svg">
<path d="M70.7737 17.6535C70.1202 19.4018 67.8099 19.4018 67.1583 17.6535L64.1894 9.70184C62.9015 6.25011 64.8755 2.19331 68.3204 1.76401C68.5325 1.73823 68.7479 1.72437 68.9653 1.72437C69.1843 1.72437 69.3999 1.73823 69.6118 1.76401C73.0567 2.19331 75.0289 6.25011 73.7411 9.70184L70.7737 17.6535Z" fill="#CFD2CF"/>
<path d="M80.4591 34.9829C72.7057 36.5829 65.2247 36.5829 57.4714 34.9829C53.8525 36.4278 50.5715 38.5364 47.7715 41.1536C56.3611 46.669 62.0679 56.2742 62.0679 67.2413C62.0679 76.1861 58.2628 84.2239 52.2076 89.8876C57.0437 92.9996 62.7868 94.8272 68.9643 94.8272C86.1056 94.8274 99.9986 80.9325 99.9986 63.793C99.9986 50.7174 91.9022 39.5536 80.4591 34.9829Z" fill="url(#paint0_linear_419_2611)"/>
<path d="M55.1719 36.2067C64.3667 38.505 73.5631 38.505 82.7578 36.2067V29.3103H55.1719V36.2067Z" fill="url(#paint1_linear_419_2611)"/>
<path d="M58.6211 29.3104H79.3106V24.1379H58.6211V29.3104Z" fill="url(#paint2_linear_419_2611)"/>
<path d="M53.2042 47.2723C52.7249 47.2723 52.2473 47.074 51.9077 46.6844C51.2801 45.9672 51.3526 44.8776 52.068 44.2516C53.7284 42.7981 55.518 41.6067 57.5405 40.6084C58.3922 40.1877 59.4266 40.5395 59.849 41.3913C60.2715 42.2448 59.9197 43.2791 59.0645 43.6998C57.3162 44.5637 55.7696 45.593 54.3403 46.8447C54.0127 47.1309 53.6075 47.2723 53.2042 47.2723Z" fill="white"/>
<path d="M65.5176 24.1379H72.414V17.2415H65.5176V24.1379Z" fill="#E4E5E6"/>
<path d="M89.6554 74.1375L79.3105 63.7928L89.6554 53.448L100 63.7928L89.6554 74.1375Z" fill="white"/>
<path d="M68.9662 53.448L61.418 60.9962C61.8318 63.0151 62.0697 65.0979 62.0697 67.2411L68.9662 74.1375L79.311 63.7926L68.9662 53.448Z" fill="white"/>
<path d="M42.529 38.4314C34.7755 40.0314 27.2945 40.0314 19.5413 38.4314C8.09818 43.0019 0 54.1656 0 67.2415C0 84.381 13.8948 98.2758 31.0343 98.2758C48.1756 98.2758 62.0687 84.381 62.0687 67.2415C62.0685 54.1656 53.972 43.0019 42.529 38.4314Z" fill="url(#paint3_linear_419_2611)"/>
<path d="M14.5793 51.3469C14.119 51.3469 13.6621 51.1641 13.3225 50.802C12.6707 50.1071 12.7053 49.0159 13.4 48.3659C15.2586 46.6227 17.3465 45.1727 19.6086 44.0573C20.4586 43.6331 21.4965 43.9866 21.9172 44.8401C22.3396 45.6936 21.9879 46.728 21.1344 47.1487C19.1775 48.1141 17.369 49.3711 15.7586 50.8797C15.426 51.1916 15.0018 51.3469 14.5793 51.3469Z" fill="white"/>
<path d="M10.3448 77.5857L0 67.2411L10.3448 56.8962L20.6895 67.2411L10.3448 77.5857Z" fill="white"/>
<path d="M31.0343 77.5857L20.6895 67.2411L31.0343 56.8962L41.3789 67.2411L31.0343 77.5857Z" fill="white"/>
<path d="M51.7237 77.5857L41.3789 67.2411L51.7237 56.8962L62.0686 67.2411L51.7237 77.5857Z" fill="white"/>
<path d="M32.8423 21.102C32.1887 22.8503 29.8784 22.8503 29.2269 21.102L26.2577 13.1503C24.9699 9.6986 26.9439 5.64179 30.3888 5.2125C30.6009 5.18672 30.8163 5.17285 31.0337 5.17285C31.2526 5.17285 31.4682 5.18672 31.6801 5.2125C35.125 5.64179 37.0973 9.6986 35.8094 13.1503L32.8423 21.102Z" fill="#CFD2CF"/>
<path d="M17.2422 39.655C26.437 41.9532 35.6334 41.9532 44.8281 39.655V32.7585H17.2422V39.655Z" fill="url(#paint4_linear_419_2611)"/>
<path d="M20.6895 32.7586H41.3789V27.5862H20.6895V32.7586Z" fill="url(#paint5_linear_419_2611)"/>
<path d="M27.5859 27.5861H34.4824V20.6897H27.5859V27.5861Z" fill="#E4E5E6"/>
<defs>
<linearGradient id="paint0_linear_419_2611" x1="70.86" y1="26.0371" x2="113.253" y2="85.2031" gradientUnits="userSpaceOnUse">
<stop stop-color="#6B3C92"/>
<stop offset="0.510417" stop-color="#5D82C1"/>
<stop offset="1" stop-color="#4FC8F1"/>
</linearGradient>
<linearGradient id="paint1_linear_419_2611" x1="67.367" y1="28.0217" x2="69.7945" y2="40.4451" gradientUnits="userSpaceOnUse">
<stop stop-color="#6B3C92"/>
<stop offset="0.510417" stop-color="#5D82C1"/>
<stop offset="1" stop-color="#4FC8F1"/>
</linearGradient>
<linearGradient id="paint2_linear_419_2611" x1="67.7675" y1="23.3647" x2="68.9485" y2="30.9193" gradientUnits="userSpaceOnUse">
<stop stop-color="#6B3C92"/>
<stop offset="0.510417" stop-color="#5D82C1"/>
<stop offset="1" stop-color="#4FC8F1"/>
</linearGradient>
<linearGradient id="paint3_linear_419_2611" x1="27.4392" y1="29.4856" x2="67.0324" y2="95.1562" gradientUnits="userSpaceOnUse">
<stop stop-color="#6B3C92"/>
<stop offset="0.510417" stop-color="#5D82C1"/>
<stop offset="1" stop-color="#4FC8F1"/>
</linearGradient>
<linearGradient id="paint4_linear_419_2611" x1="29.4373" y1="31.47" x2="31.8648" y2="43.8934" gradientUnits="userSpaceOnUse">
<stop stop-color="#6B3C92"/>
<stop offset="0.510417" stop-color="#5D82C1"/>
<stop offset="1" stop-color="#4FC8F1"/>
</linearGradient>
<linearGradient id="paint5_linear_419_2611" x1="29.8358" y1="26.813" x2="31.0168" y2="34.3675" gradientUnits="userSpaceOnUse">
<stop stop-color="#6B3C92"/>
<stop offset="0.510417" stop-color="#5D82C1"/>
<stop offset="1" stop-color="#4FC8F1"/>
</linearGradient>
</defs>
</svg>
