<svg width="100" height="100" viewBox="0 0 100 100" fill="none" xmlns="http://www.w3.org/2000/svg">
<g clip-path="url(#clip0_419_2802)">
<path d="M60.1897 22.0456L58.5931 19.399C53.47 10.9061 44.5154 5.83472 34.6393 5.83472C19.2067 5.83472 6.65234 18.3891 6.65234 33.8217C6.65234 42.6279 10.8971 51.0275 18.0101 56.2889L19.0951 57.0905L20.4367 57.2388C21.3183 57.3355 22.1582 57.5105 22.9315 57.7605L31.2144 60.422L29.3429 51.9257C28.8979 49.9025 29.3912 47.836 30.6978 46.2494C31.9694 44.7061 33.846 43.8212 35.8492 43.8212C36.5358 43.8212 37.2125 43.9262 37.8108 44.1161L42.2939 45.6111L44.0388 41.218C44.8471 39.1847 46.592 37.6731 48.7036 37.1765C49.4535 37.0015 50.2585 36.9632 51.0301 37.0582L56.8632 37.7615L56.6232 31.8901L56.5882 31.3218C56.5882 28.9702 57.2598 26.6637 58.5331 24.6571L60.1897 22.0456Z" fill="#F0C419"/>
<path d="M99.9604 42.5013H99.8254C99.8837 43.0079 99.9237 43.5195 99.9237 44.0429C99.9237 44.9645 99.1787 45.7094 98.2571 45.7094C97.3355 45.7094 96.5905 44.9645 96.5905 44.0429C96.5905 38.5281 92.1058 34.0434 86.591 34.0434C81.0763 34.0434 76.5915 38.5281 76.5915 44.0429C76.5915 44.9645 75.8466 45.7094 74.9249 45.7094C74.0033 45.7094 73.2584 44.9645 73.2584 44.0429C73.2584 37.2699 78.3398 31.6718 84.8878 30.8318C84.5111 22.4339 77.5815 15.7109 69.0919 15.7109C60.574 15.7109 53.6243 22.4773 53.291 30.9152C54.6726 31.2418 56.0109 31.7818 57.2542 32.5501C60.2807 34.425 62.3972 37.3665 63.2139 40.833C63.4238 41.7296 62.8689 42.6263 61.9739 42.8379C61.0773 43.0396 60.1807 42.4929 59.969 41.598C58.7058 36.2282 53.3044 32.8884 47.9463 34.1533C42.5782 35.4166 39.2384 40.8097 40.5017 46.1777C40.7117 47.0727 40.1567 47.9693 39.2601 48.181C39.1334 48.211 39.0051 48.2243 38.8784 48.2243C38.1234 48.2243 37.4385 47.706 37.2568 46.9394C36.7668 44.8545 36.8102 42.7696 37.2768 40.8163C33.847 40.3147 30.3822 41.6096 28.1223 44.3528C26.0257 46.901 25.4141 50.1825 26.164 53.1607C26.1657 53.1807 26.1757 53.1974 26.1774 53.2174C26.6873 55.194 27.794 57.0339 29.4855 58.4288C30.1955 59.0154 30.2972 60.0637 29.7139 60.7753C29.3839 61.1753 28.9072 61.382 28.4256 61.382C28.0523 61.382 27.679 61.2587 27.3673 61.002C25.3391 59.3321 23.8875 57.1505 23.1242 54.7007C16.3862 52.9441 9.30155 55.7789 5.64174 61.8036C3.44685 65.4168 2.78855 69.6699 3.79183 73.778C4.79511 77.8878 7.33665 81.3593 10.9515 83.5559C11.7381 84.0342 11.9881 85.0575 11.5098 85.8458C11.1965 86.3624 10.6465 86.6457 10.0848 86.6457C9.86319 86.6457 9.6432 86.5857 9.43155 86.4941C12.0647 88.054 15.0963 89.0089 18.3378 89.1489L32.0188 89.1539C40.8633 89.0123 48.4396 83.5542 51.6694 75.8346C54.9409 83.6559 62.6739 89.1673 71.6684 89.1673C87.291 89.1673 100 76.4579 100 60.8353V44.1695L99.9604 42.5013Z" fill="#D0E8F9"/>
<path d="M88.2213 30.9451C87.8364 20.7139 79.4151 12.5027 69.0923 12.5027C58.8561 12.5027 50.4932 20.5756 49.9766 30.6851C49.0466 30.7051 48.1117 30.8151 47.1834 31.0334C43.2903 31.95 40.2087 34.5033 38.4688 37.7864C33.6657 36.8115 28.7226 38.5081 25.5528 42.3562C23.4679 44.8894 22.4213 48.0359 22.5363 51.2874C14.82 49.8975 6.9704 53.3273 2.79727 60.1936C0.137405 64.5684 -0.657555 69.7165 0.555717 74.6896C1.76899 79.6627 4.84717 83.8658 9.22195 86.5257C9.49194 86.6906 9.79192 86.769 10.0869 86.769C10.6502 86.769 11.1985 86.484 11.5118 85.969C11.9901 85.1807 11.7402 84.1574 10.9535 83.6791C7.33871 81.4826 4.79717 78.0111 3.79389 73.9013C2.79061 69.7932 3.44891 65.54 5.6438 61.9269C9.30361 55.9039 16.3883 53.069 23.1263 54.8239C23.8896 57.2755 25.3428 59.4553 27.3694 61.1253C27.681 61.3802 28.0543 61.5052 28.4277 61.5052C28.9093 61.5052 29.3859 61.2986 29.7159 60.8986C30.3009 60.187 30.1976 59.137 29.4876 58.5521C27.7944 57.1588 26.6894 55.3172 26.1794 53.3406C26.1778 53.3206 26.1678 53.304 26.1661 53.284C25.4161 50.3058 26.0278 47.0243 28.1243 44.4761C30.3842 41.7329 33.8491 40.438 37.2789 40.9396C36.8122 42.8945 36.7672 44.9777 37.2589 47.0626C37.4389 47.8309 38.1255 48.3476 38.8805 48.3476C39.0071 48.3476 39.1355 48.3326 39.2621 48.3042C40.1587 48.0926 40.7137 47.1959 40.5037 46.301C39.2405 40.9329 42.5803 35.5399 47.9484 34.2766C53.3064 33.0117 58.7078 36.3515 59.9711 41.7212C60.1827 42.6162 61.0794 43.1628 61.976 42.9612C62.8709 42.7495 63.4259 41.8529 63.2159 40.9563C62.3993 37.4898 60.2827 34.5483 57.2562 32.6733C56.0129 31.9034 54.6747 31.3651 53.2931 31.0384C53.6264 22.6005 60.5761 15.8342 69.094 15.8342C77.5835 15.8342 84.5149 22.5555 84.8898 30.9551C78.3418 31.7951 73.2604 37.3931 73.2604 44.1661C73.2604 45.0877 74.0054 45.8327 74.927 45.8327C75.8486 45.8327 76.5936 45.0877 76.5936 44.1661C76.5936 38.6514 81.0784 34.1666 86.5931 34.1666C92.1078 34.1666 96.6693 38.6514 96.6693 44.1661C96.6693 44.2128 96.6693 46.3777 96.6693 49.1659C96.6693 50.0858 97.4159 50.8324 98.3358 50.8324C99.2558 50.8324 100.002 50.0858 100.002 49.1659V44.1661C99.9991 37.3681 94.8043 31.7517 88.2213 30.9451Z" fill="url(#paint0_linear_419_2802)"/>
<path d="M80.0006 65.8334C80.9205 65.8334 81.6672 65.0868 81.6672 64.1668C81.6672 61.7636 81.6672 63.3335 81.6672 63.3335C81.6672 59.1987 85.032 55.8339 89.1668 55.8339C93.3016 55.8339 96.6664 59.1987 96.6664 63.3335C96.6664 64.2551 97.413 65.0001 98.333 65.0001C99.2529 65.0001 99.9996 64.2551 99.9996 63.3335C99.9996 57.3605 95.1398 52.5007 89.1668 52.5007C83.4754 52.5007 78.7623 56.9155 78.334 62.5002V64.1668C78.334 65.0868 79.0806 65.8334 80.0006 65.8334Z" fill="url(#paint1_linear_419_2802)"/>
<path d="M48.8244 76.3212L43.8247 81.321C43.173 81.9726 43.173 83.0259 43.8247 83.6775C44.1496 84.0025 44.5763 84.1659 45.0029 84.1659C45.4296 84.1659 45.8562 84.0025 46.1812 83.6775L51.181 78.6778C51.8326 78.0262 51.8326 76.9729 51.181 76.3212C50.5293 75.6696 49.476 75.6696 48.8244 76.3212Z" fill="url(#paint2_linear_419_2802)"/>
<path d="M38.8264 86.3208L33.8266 91.3205C33.175 91.9721 33.175 93.0254 33.8266 93.6771C34.1516 94.002 34.5782 94.1654 35.0049 94.1654C35.4315 94.1654 35.8582 94.002 36.1832 93.6771L41.1829 88.6773C41.8345 88.0257 41.8345 86.9724 41.1829 86.3208C40.5313 85.6691 39.478 85.6691 38.8264 86.3208Z" fill="url(#paint3_linear_419_2802)"/>
<path d="M74.513 66.3217C73.8614 65.6701 72.8081 65.6701 72.1564 66.3217L67.1567 71.3215C66.5051 71.9731 66.5051 73.0264 67.1567 73.678C67.4817 74.003 67.9083 74.1663 68.335 74.1663C68.7616 74.1663 69.1883 74.003 69.5132 73.678L74.513 68.6783C75.1646 68.0267 75.1646 66.9717 74.513 66.3217Z" fill="url(#paint4_linear_419_2802)"/>
<path d="M62.1584 76.3212L57.1586 81.321C56.507 81.9726 56.507 83.0259 57.1586 83.6775C57.4836 84.0025 57.9103 84.1659 58.3369 84.1659C58.7636 84.1659 59.1902 84.0025 59.5152 83.6775L64.5149 78.6778C65.1666 78.0262 65.1666 76.9729 64.5149 76.3212C63.8633 75.6696 62.81 75.6696 62.1584 76.3212Z" fill="url(#paint5_linear_419_2802)"/>
<path d="M47.8489 66.3217C47.1973 65.6701 46.144 65.6701 45.4924 66.3217L40.4926 71.3215C39.841 71.9731 39.841 73.0264 40.4926 73.678C40.8176 74.003 41.2443 74.1663 41.6709 74.1663C42.0976 74.1663 42.5242 74.003 42.8492 73.678L47.8489 68.6783C48.5006 68.0267 48.5006 66.9717 47.8489 66.3217Z" fill="url(#paint6_linear_419_2802)"/>
<path d="M61.181 66.3217C60.5293 65.6701 59.476 65.6701 58.8244 66.3217L53.8247 71.3215C53.173 71.9731 53.173 73.0264 53.8247 73.678C54.1496 74.003 54.5763 74.1663 55.0029 74.1663C55.4296 74.1663 55.8562 74.003 56.1812 73.678L61.181 68.6783C61.8326 68.0267 61.8326 66.9717 61.181 66.3217Z" fill="url(#paint7_linear_419_2802)"/>
<path d="M37.8489 76.3212C37.1973 75.6696 36.144 75.6696 35.4924 76.3212L30.4926 81.321C29.841 81.9726 29.841 83.0259 30.4926 83.6775C30.8176 84.0025 31.2443 84.1659 31.6709 84.1659C32.0976 84.1659 32.5242 84.0025 32.8492 83.6775L37.8489 78.6778C38.5006 78.0262 38.5006 76.9712 37.8489 76.3212Z" fill="url(#paint8_linear_419_2802)"/>
</g>
<defs>
<linearGradient id="paint0_linear_419_2802" x1="44.21" y1="1.40102" x2="86.659" y2="92.8081" gradientUnits="userSpaceOnUse">
<stop stop-color="#6B3C92"/>
<stop offset="0.510417" stop-color="#5D82C1"/>
<stop offset="1" stop-color="#4FC8F1"/>
</linearGradient>
<linearGradient id="paint1_linear_419_2802" x1="87.9119" y1="50.5077" x2="94.5983" y2="67.8836" gradientUnits="userSpaceOnUse">
<stop stop-color="#6B3C92"/>
<stop offset="0.510417" stop-color="#5D82C1"/>
<stop offset="1" stop-color="#4FC8F1"/>
</linearGradient>
<linearGradient id="paint2_linear_419_2802" x1="47.0201" y1="74.5868" x2="52.6251" y2="83.5508" gradientUnits="userSpaceOnUse">
<stop stop-color="#6B3C92"/>
<stop offset="0.510417" stop-color="#5D82C1"/>
<stop offset="1" stop-color="#4FC8F1"/>
</linearGradient>
<linearGradient id="paint3_linear_419_2802" x1="37.0221" y1="84.5863" x2="42.6271" y2="93.5503" gradientUnits="userSpaceOnUse">
<stop stop-color="#6B3C92"/>
<stop offset="0.510417" stop-color="#5D82C1"/>
<stop offset="1" stop-color="#4FC8F1"/>
</linearGradient>
<linearGradient id="paint4_linear_419_2802" x1="70.3521" y1="64.5873" x2="75.9571" y2="73.5513" gradientUnits="userSpaceOnUse">
<stop stop-color="#6B3C92"/>
<stop offset="0.510417" stop-color="#5D82C1"/>
<stop offset="1" stop-color="#4FC8F1"/>
</linearGradient>
<linearGradient id="paint5_linear_419_2802" x1="60.3541" y1="74.5868" x2="65.9591" y2="83.5508" gradientUnits="userSpaceOnUse">
<stop stop-color="#6B3C92"/>
<stop offset="0.510417" stop-color="#5D82C1"/>
<stop offset="1" stop-color="#4FC8F1"/>
</linearGradient>
<linearGradient id="paint6_linear_419_2802" x1="43.6881" y1="64.5873" x2="49.2931" y2="73.5513" gradientUnits="userSpaceOnUse">
<stop stop-color="#6B3C92"/>
<stop offset="0.510417" stop-color="#5D82C1"/>
<stop offset="1" stop-color="#4FC8F1"/>
</linearGradient>
<linearGradient id="paint7_linear_419_2802" x1="57.0201" y1="64.5873" x2="62.6251" y2="73.5513" gradientUnits="userSpaceOnUse">
<stop stop-color="#6B3C92"/>
<stop offset="0.510417" stop-color="#5D82C1"/>
<stop offset="1" stop-color="#4FC8F1"/>
</linearGradient>
<linearGradient id="paint8_linear_419_2802" x1="33.6881" y1="74.5868" x2="39.2931" y2="83.5508" gradientUnits="userSpaceOnUse">
<stop stop-color="#6B3C92"/>
<stop offset="0.510417" stop-color="#5D82C1"/>
<stop offset="1" stop-color="#4FC8F1"/>
</linearGradient>
<clipPath id="clip0_419_2802">
<rect width="100" height="100" fill="white"/>
</clipPath>
</defs>
</svg>
