<svg width="100" height="100" viewBox="0 0 100 100" fill="none" xmlns="http://www.w3.org/2000/svg">
<g clip-path="url(#clip0_419_2793)">
<path d="M91.5808 28.2152C85.7984 19.7877 77.9402 15.1464 69.4538 15.1464C65.9132 15.1464 62.4799 15.9539 59.2133 17.5511C59.0731 17.4748 58.9321 17.4015 58.791 17.3287C57.2641 16.5398 55.6953 15.9623 54.0912 15.6007C52.7506 15.2986 51.3854 15.1462 50.0004 15.1462C49.3342 15.1462 48.6686 15.1853 48.0057 15.2587C45.525 15.533 43.0791 16.3134 40.7621 17.5712C37.4867 15.9609 34.0437 15.1462 30.4964 15.1462C22.022 15.1462 14.1758 19.7875 8.40335 28.215C2.99083 36.117 0.00976562 46.5397 0.00976562 57.5634C0.00976562 68.5871 2.99064 79.0098 8.40335 86.9112C14.1758 95.3383 22.022 99.9796 30.4964 99.9796C34.0449 99.9796 37.4845 99.1665 40.757 97.5579C43.6949 99.1661 46.7933 99.979 50.0004 99.979C53.1879 99.979 56.2692 99.1753 59.193 97.5854C62.4657 99.1888 65.9057 99.9999 69.4536 99.9999C77.9402 99.9999 85.7982 95.3587 91.5806 86.9311C97.0041 79.0268 99.9912 68.6005 99.9912 57.573C99.991 46.5458 97.0043 36.1196 91.5808 28.2152Z" fill="#FFB655"/>
<path d="M75.4539 61.0498C73.9105 59.5371 71.5152 59.3205 69.7253 60.5316C63.8937 64.4787 57.0731 66.5654 50.0004 66.5654C42.9278 66.5654 36.1076 64.4789 30.2756 60.5316C28.4855 59.3201 26.0902 59.5369 24.547 61.0498C23.0037 62.5625 22.7392 64.9529 23.9144 66.767C29.673 75.6537 39.4246 80.9592 50.0004 80.9592C60.5763 80.9592 70.3279 75.6539 76.0865 66.767C77.2617 64.9529 76.9972 62.5625 75.4539 61.0498Z" fill="#A78966"/>
<path d="M54.0912 15.6011C55.6951 15.9627 57.2639 16.54 58.7911 17.3291L68.363 7.75853C70.1374 5.98411 70.1378 3.10636 68.3634 1.33155C66.5885 -0.443264 63.7116 -0.443654 61.936 1.33116L48.0059 15.2595C48.6691 15.1863 49.3344 15.147 50.0006 15.147C51.3856 15.1466 52.7506 15.299 54.0912 15.6011Z" fill="#679D5F"/>
<path d="M28.7922 52.9096H40.9111C40.9129 52.9096 40.9154 52.9096 40.9172 52.9096C43.4274 52.9096 45.4618 50.8749 45.4618 48.3651C45.4618 47.4549 45.1946 46.6075 44.7336 45.8967L38.7875 35.5975C37.9756 34.1914 36.4756 33.3252 34.8519 33.3252C33.2283 33.3252 31.7279 34.1914 30.9164 35.5975L24.857 46.0928C24.0451 47.4989 24.0451 49.2313 24.857 50.6374C25.6685 52.0434 27.1685 52.9096 28.7922 52.9096Z" fill="#806749"/>
<path d="M30.2755 60.5319C28.4855 59.3203 26.0901 59.5371 24.547 61.05C23.0038 62.5629 22.7391 64.9532 23.9143 66.7672C29.673 75.654 39.4246 80.9595 50.0004 80.9595V66.5661C42.9277 66.5657 36.1072 64.4789 30.2755 60.5319Z" fill="#806749"/>
<path d="M59.089 52.9096H71.208C71.2102 52.9096 71.2125 52.9096 71.2141 52.9096C73.7242 52.9096 75.7586 50.8749 75.7586 48.3651C75.7586 47.4549 75.4914 46.6075 75.0305 45.8967L69.0844 35.5975C68.2725 34.1914 66.7725 33.3252 65.1488 33.3252C63.5252 33.3252 62.0248 34.1914 61.2133 35.5975L55.1539 46.0928C54.3419 47.4989 54.3419 49.2313 55.1539 50.6374C55.9656 52.0434 57.4654 52.9096 59.089 52.9096Z" fill="#A78966"/>
<path d="M30.4964 99.9798C34.0449 99.9798 37.4845 99.1667 40.757 97.5581C43.6949 99.1663 46.7933 99.9792 50.0004 99.9792V80.9589C39.4248 80.9589 29.673 75.6536 23.9144 66.7666C22.7392 64.9529 23.0036 62.5625 24.547 61.0496C26.0903 59.5371 28.4857 59.3199 30.2755 60.5314C36.1072 64.4785 42.9277 66.5652 50.0004 66.5652V15.1465C49.3342 15.1465 48.6687 15.1855 48.0057 15.259C45.5246 15.5332 43.0791 16.3137 40.7621 17.5715C37.4869 15.9611 34.0437 15.1465 30.4964 15.1465C22.022 15.1465 14.1758 19.7877 8.40335 28.2153C2.99083 36.1171 0.00976562 46.5398 0.00976562 57.5634C0.00976562 68.5871 2.99064 79.0098 8.40335 86.9112C14.1758 95.3384 22.0224 99.9798 30.4964 99.9798ZM24.8567 46.0925L30.9161 35.5972C31.7281 34.1911 33.2281 33.3249 34.8517 33.3249C36.4753 33.3249 37.9757 34.1911 38.7873 35.5972L44.7334 45.8964C45.1941 46.6072 45.4615 47.4546 45.4615 48.3648C45.4615 50.8746 43.4271 52.9093 40.917 52.9093C40.9152 52.9093 40.9127 52.9093 40.9109 52.9093H28.7919C27.1683 52.9093 25.6679 52.0431 24.8563 50.6371C24.0446 49.231 24.0446 47.4986 24.8567 46.0925Z" fill="#EE8700"/>
</g>
<defs>
<clipPath id="clip0_419_2793">
<rect width="100" height="100" fill="white"/>
</clipPath>
</defs>
</svg>
