<svg width="100" height="100" viewBox="0 0 100 100" fill="none" xmlns="http://www.w3.org/2000/svg">
<g clip-path="url(#clip0_419_2660)">
<path d="M16.4283 90.1334C19.8301 87.6488 25.4215 84.4833 36.2076 84.4833C44.9801 84.4833 53.3662 88.2919 58.6455 90.6523C61.0576 91.7316 63.7523 91.4334 66.1094 90.2402C67.5611 89.5056 69.1852 89.6556 70.949 89.6556H71.5094C72.8043 89.6556 74.0473 89.2091 75.0715 88.4142C77.5404 86.4988 82.3164 84.4832 85.949 84.4832C86.6094 84.4832 87.2732 84.5574 87.9318 84.6796V63.7937C87.8939 63.7609 85.8611 62.0041 82.7594 59.3265V67.2419C82.7594 70.097 80.4439 72.4144 77.5869 72.4144C74.7301 72.4144 72.4144 70.0972 72.4144 67.2419V50.3919C67.1109 45.8109 61.4369 40.9109 57.123 37.1851C57.0523 37.1248 56.9695 37.0833 56.8973 37.023V39.6558C56.8973 42.5109 54.5818 44.8283 51.7248 44.8283C48.868 44.8283 46.5523 42.5111 46.5523 39.6558V35.1179C46.5162 35.13 46.4799 35.1351 46.4437 35.1472C46.2955 35.199 46.1506 35.2593 46.0023 35.3162C45.5059 35.5126 45.0127 35.7316 44.542 36.0041C44.5006 36.0283 44.4627 36.0558 44.4213 36.0798C43.8852 36.4005 43.3644 36.7644 42.8781 37.1849C41.3713 38.4867 39.6953 39.9332 37.9316 41.4574V55.1728C37.9316 58.0279 35.6162 60.3453 32.7592 60.3453C29.9023 60.3453 27.5867 58.0281 27.5867 55.1728V50.3918C19.4213 57.4417 12.1385 63.7332 12.0695 63.7935C12.0695 63.7935 12.0471 83.6296 12.0541 92.4296C13.5816 91.954 14.9559 91.2093 16.4283 90.1334Z" fill="#BE3A2B"/>
<path d="M37.9307 53.4482V55.1725C37.9307 57.4207 36.4875 59.3156 34.4824 60.0275V77.5861H65.517V53.4482H37.9307Z" fill="#212F3E"/>
<path d="M50 53.4482C50 62.0258 56.9396 68.9654 65.5172 68.9654V53.4482H50Z" fill="#F0C419"/>
<path d="M70.6895 79.3103H29.3102C28.3584 79.3103 27.5859 78.5378 27.5859 77.586C27.5859 76.6343 28.3584 75.8618 29.3102 75.8618H70.6895C71.6412 75.8618 72.4137 76.6343 72.4137 77.586C72.4135 78.5378 71.6412 79.3103 70.6895 79.3103Z" fill="#3E5163"/>
<path d="M94.8283 100C96.7334 100 98.2766 98.4569 98.2766 96.5519C98.2766 89.7776 91.9559 84.4829 85.949 84.4829C82.3162 84.4829 77.5422 86.5001 75.0715 88.4157C74.049 89.2089 72.8043 89.6554 71.5094 89.6554H70.949C69.1852 89.6554 67.5629 89.5071 66.1094 90.2415C63.7525 91.4329 61.0576 91.7312 58.6473 90.6536C53.368 88.2915 44.9801 84.4829 36.2076 84.4829C25.4231 84.4829 19.8301 87.6501 16.4283 90.1329C13.5162 92.2605 10.9922 93.1036 6.89727 93.1036H5.35762C3.64043 93.1036 2.04727 94.2778 1.77149 95.9726C1.42149 98.1329 3.07832 100 5.17325 100H60.6043H69.225H82.7596H94.8283Z" fill="#A5D8FA"/>
<path d="M97.6871 52.7436L55.944 11.1006C52.6578 7.82485 47.3422 7.82485 44.0578 11.1006L2.31291 52.7436C-0.402517 55.459 -0.840603 59.8694 1.60608 62.8297C4.41291 66.2247 9.451 66.4039 12.4906 63.3643L27.5871 50.3522V55.1729C27.5871 58.0297 29.9026 60.3454 32.7596 60.3454C35.6147 60.3454 37.9321 58.0299 37.9321 55.1729V41.4368L42.8856 37.1661C43.9891 36.2161 45.2407 35.5436 46.5528 35.1057V39.6557C46.5528 42.5126 48.8682 44.8282 51.7252 44.8282C54.5803 44.8282 56.8977 42.5127 56.8977 39.6557V37.0108C56.9666 37.0676 57.0459 37.1073 57.1149 37.1659L72.4149 50.352V67.2416C72.4149 70.0985 74.7303 72.4141 77.5873 72.4141C80.4424 72.4141 82.7598 70.0987 82.7598 67.2416V59.2696L87.5098 63.3645C90.5512 66.4041 95.5891 66.2248 98.3944 62.8299C100.84 59.8696 100.403 55.4592 97.6871 52.7436Z" fill="#A5D8FA"/>
<path d="M37.9307 55.1725C37.9307 57.4207 36.4875 59.3156 34.4824 60.0275V68.9654C43.06 68.9654 49.9996 62.0258 49.9996 53.4482H37.9307V55.1725Z" fill="#F0C419"/>
<path d="M32.7596 0H12.0699C11.1182 0 10.3457 0.772461 10.3457 1.72422V6.89648C10.3457 7.84824 11.1182 8.6207 12.0699 8.6207H13.7941V10.3449C13.7941 13.2018 16.1096 15.5174 18.9666 15.5174C21.8236 15.5174 24.1391 13.202 24.1391 10.3449V8.6207H32.7598C33.7115 8.6207 34.484 7.84824 34.484 6.89648V1.72422C34.4838 0.772461 33.7113 0 32.7596 0Z" fill="#A5D8FA"/>
<path d="M31.0342 24.092V8.62134H24.1377V10.3456C24.1377 13.2024 21.8223 15.518 18.9652 15.518C16.1082 15.518 13.793 13.2022 13.793 10.3454V41.2918L31.0342 24.092Z" fill="#BE3A2B"/>
</g>
<defs>
<clipPath id="clip0_419_2660">
<rect width="100" height="100" fill="white"/>
</clipPath>
</defs>
</svg>
