<svg width="100" height="100" viewBox="0 0 100 100" fill="none" xmlns="http://www.w3.org/2000/svg">
<g clip-path="url(#clip0_419_2595)">
<path d="M97.9189 47.9171H84.1981L91.0586 41.0568C91.8703 40.2435 91.8703 38.9236 91.0586 38.1105C90.2437 37.2972 88.9222 37.2972 88.1105 38.1105L78.302 47.9171H52.0829V21.6964L61.8897 11.8897C62.7015 11.0764 62.7015 9.75667 61.8897 8.94337C61.078 8.13007 59.7567 8.13007 58.9418 8.94337L52.0829 15.8037V2.08286C52.0829 0.932248 51.1506 0 50 0C48.8494 0 47.9173 0.932248 47.9173 2.08286V15.8035L41.0568 8.94318C40.2435 8.12988 38.9238 8.12988 38.1105 8.94318C37.2972 9.75648 37.2972 11.0762 38.1105 11.8895L47.9173 21.6962V47.9169H21.6966L11.8897 38.1103C11.0764 37.297 9.75648 37.297 8.94318 38.1103C8.12988 38.9236 8.12988 40.2433 8.94318 41.0566L15.8035 47.9169H2.08286C0.932248 47.9169 0 48.8492 0 49.9998C0 51.1504 0.932248 52.0827 2.08286 52.0827H15.8035L8.94318 58.9416C8.12988 59.7565 8.12988 61.078 8.94318 61.8895C9.35061 62.2985 9.88304 62.4999 10.4172 62.4999C10.9499 62.4999 11.4839 62.2985 11.8897 61.8895L21.6966 52.0829H47.9173V78.302L38.1105 88.1103C37.2972 88.922 37.2972 90.2404 38.1105 91.0584C38.5163 91.4611 39.0503 91.6687 39.583 91.6687C40.1168 91.6687 40.6494 91.4613 41.0568 91.0584L47.9173 84.1981V97.9187C47.9173 99.0662 48.8494 100 50 100C51.1506 100 52.0829 99.0662 52.0829 97.9187V84.1981L58.9418 91.0584C59.3508 91.4611 59.8817 91.6687 60.4188 91.6687C60.9499 91.6687 61.4837 91.4613 61.8895 91.0584C62.7013 90.2435 62.7013 88.922 61.8895 88.1103L52.0827 78.302V52.0829H78.3018L88.1103 61.8895C88.5161 62.2985 89.0501 62.4999 89.5812 62.4999C90.1183 62.4999 90.6494 62.2985 91.0582 61.8895C91.8699 61.078 91.8699 59.7565 91.0582 58.9416L84.1977 52.0829H97.9185C99.0658 52.0829 99.9996 51.1506 99.9996 50C99.9996 48.8494 99.0662 47.9171 97.9189 47.9171Z" fill="url(#paint0_linear_419_2595)"/>
<path d="M72.9188 29.167C72.9188 30.3174 71.985 31.2499 70.8313 31.2499C69.6838 31.2499 68.75 30.3176 68.75 29.167C68.75 28.0164 69.6838 27.0828 70.8313 27.0828C71.985 27.0828 72.9188 28.0166 72.9188 29.167Z" fill="url(#paint1_linear_419_2595)"/>
<path d="M31.2493 70.8313C31.2493 71.9846 30.3171 72.9186 29.1665 72.9186C28.0158 72.9186 27.082 71.9848 27.082 70.8313C27.082 69.6838 28.0158 68.75 29.1665 68.75C30.3171 68.75 31.2493 69.6838 31.2493 70.8313Z" fill="url(#paint2_linear_419_2595)"/>
<path d="M29.168 72.9187C28.634 72.9187 28.1014 72.7113 27.694 72.3083C26.8807 71.4935 26.8807 70.1722 27.694 69.3604L69.3611 27.6932C70.1729 26.8799 71.4944 26.8799 72.3093 27.6932C73.121 28.5065 73.121 29.8263 72.3093 30.6396L30.6405 72.3083C30.2346 72.7111 29.7005 72.9187 29.168 72.9187Z" fill="url(#paint3_linear_419_2595)"/>
<path d="M70.8313 72.9186C69.6838 72.9186 68.75 71.9848 68.75 70.8313C68.75 69.6838 69.6838 68.75 70.8313 68.75C71.9848 68.75 72.9188 69.6838 72.9188 70.8313C72.9188 71.9848 71.985 72.9186 70.8313 72.9186Z" fill="url(#paint4_linear_419_2595)"/>
<path d="M29.1665 31.2499C28.0158 31.2499 27.082 30.3176 27.082 29.167C27.082 28.0164 28.0158 27.0828 29.1665 27.0828C30.3171 27.0828 31.2493 28.0166 31.2493 29.167C31.2493 30.3176 30.3169 31.2499 29.1665 31.2499Z" fill="url(#paint5_linear_419_2595)"/>
<path d="M70.8321 72.9187C70.301 72.9187 69.767 72.7113 69.3611 72.3083L27.694 30.6396C26.8807 29.8263 26.8807 28.5065 27.694 27.6932C28.5088 26.8799 29.8272 26.8799 30.6405 27.6932L72.3093 69.3604C73.121 70.1722 73.121 71.4935 72.3093 72.3083C71.9003 72.7111 71.3692 72.9187 70.8321 72.9187Z" fill="url(#paint6_linear_419_2595)"/>
<path d="M50.0047 33.3374L66.6703 50.0001L50.0047 66.6628L33.3145 50.0001L50.0047 33.3374Z" fill="#5D9CEC"/>
<path d="M70.8437 35.4173C74.2953 35.4173 77.0938 32.6188 77.0938 29.1671C77.0938 25.7141 74.2953 22.917 70.8437 22.917C67.3921 22.917 64.5938 25.7139 64.5938 29.1671C64.5938 32.6188 67.3921 35.4173 70.8437 35.4173Z" fill="#5D9CEC"/>
<path d="M70.8437 64.5813C67.3921 64.5813 64.5938 67.3829 64.5938 70.8314C64.5938 74.286 67.3921 77.0814 70.8437 77.0814C74.2953 77.0814 77.0938 74.286 77.0938 70.8314C77.0938 67.3829 74.2953 64.5813 70.8437 64.5813Z" fill="#5D9CEC"/>
<path d="M29.1679 64.5813C25.7163 64.5813 22.918 67.3829 22.918 70.8314C22.918 74.286 25.7163 77.0814 29.1679 77.0814C32.6194 77.0814 35.4179 74.286 35.4179 70.8314C35.4179 67.3829 32.6194 64.5813 29.1679 64.5813Z" fill="#5D9CEC"/>
<path d="M29.1679 22.9172C25.7163 22.9172 22.918 25.7142 22.918 29.1674C22.918 32.6188 25.7163 35.4175 29.1679 35.4175C32.6194 35.4175 35.4179 32.619 35.4179 29.1674C35.4179 25.7142 32.6194 22.9172 29.1679 22.9172Z" fill="#5D9CEC"/>
</g>
<defs>
<linearGradient id="paint0_linear_419_2595" x1="44.2077" y1="-14.9485" x2="111.469" y2="92.6157" gradientUnits="userSpaceOnUse">
<stop stop-color="#6B3C92"/>
<stop offset="0.510417" stop-color="#5D82C1"/>
<stop offset="1" stop-color="#4FC8F1"/>
</linearGradient>
<linearGradient id="paint1_linear_419_2595" x1="70.593" y1="26.4598" x2="73.3953" y2="30.9432" gradientUnits="userSpaceOnUse">
<stop stop-color="#6B3C92"/>
<stop offset="0.510417" stop-color="#5D82C1"/>
<stop offset="1" stop-color="#4FC8F1"/>
</linearGradient>
<linearGradient id="paint2_linear_419_2595" x1="28.9243" y1="68.1269" x2="31.7286" y2="72.61" gradientUnits="userSpaceOnUse">
<stop stop-color="#6B3C92"/>
<stop offset="0.510417" stop-color="#5D82C1"/>
<stop offset="1" stop-color="#4FC8F1"/>
</linearGradient>
<linearGradient id="paint3_linear_419_2595" x1="47.3462" y1="20.2316" x2="78.1763" y2="69.5333" gradientUnits="userSpaceOnUse">
<stop stop-color="#6B3C92"/>
<stop offset="0.510417" stop-color="#5D82C1"/>
<stop offset="1" stop-color="#4FC8F1"/>
</linearGradient>
<linearGradient id="paint4_linear_419_2595" x1="70.593" y1="68.1269" x2="73.3968" y2="72.611" gradientUnits="userSpaceOnUse">
<stop stop-color="#6B3C92"/>
<stop offset="0.510417" stop-color="#5D82C1"/>
<stop offset="1" stop-color="#4FC8F1"/>
</linearGradient>
<linearGradient id="paint5_linear_419_2595" x1="28.9243" y1="26.4598" x2="31.7271" y2="30.9423" gradientUnits="userSpaceOnUse">
<stop stop-color="#6B3C92"/>
<stop offset="0.510417" stop-color="#5D82C1"/>
<stop offset="1" stop-color="#4FC8F1"/>
</linearGradient>
<linearGradient id="paint6_linear_419_2595" x1="47.3462" y1="20.2316" x2="78.1763" y2="69.5333" gradientUnits="userSpaceOnUse">
<stop stop-color="#6B3C92"/>
<stop offset="0.510417" stop-color="#5D82C1"/>
<stop offset="1" stop-color="#4FC8F1"/>
</linearGradient>
<clipPath id="clip0_419_2595">
<rect width="100" height="100" fill="white"/>
</clipPath>
</defs>
</svg>
