<svg width="100" height="100" viewBox="0 0 100 100" fill="none" xmlns="http://www.w3.org/2000/svg">
<path d="M25.3594 49.8759C17.4405 37.411 6.55626 37.2678 6.09669 37.2678H0.925781L2.64668 42.144C9.07189 60.3483 2.67403 81.0785 2.60977 81.2824L1.0957 86.0484H27.9911L28.2696 82.1035C29.403 66.0603 30.027 57.2229 25.3594 49.8759Z" fill="#80E471"/>
<path d="M97.3528 42.1438L99.0737 37.2676H93.9028C93.4432 37.2676 82.559 37.4107 74.6401 49.8756C69.9725 57.2227 70.5967 66.06 71.7295 82.103L72.008 86.048H98.9034L97.3893 81.2819C97.3241 81.0757 90.9036 60.4165 97.3528 42.1438Z" fill="#00925B"/>
<path d="M48.6162 80.6859C48.5484 80.5564 41.733 67.2892 32.7654 29.177L30.5324 19.6868L25.9706 28.3032C25.4757 29.2378 13.9075 51.5532 18.6548 82.9373L19.1253 86.0484H45.3787L51.4181 86.0406L48.6162 80.6859Z" fill="#00C47A"/>
<path d="M57.3354 34.4748C53.0452 23.4353 48.2395 17.0325 48.0371 16.7655L42.2078 9.07373L41.4735 18.697C38.6489 55.7148 29.6268 78.3514 29.5369 78.5737L27.4902 83.6096H63.0374L63.3925 80.3469C65.5206 60.7916 61.2731 44.6076 57.3354 34.4748Z" fill="#60DD4D"/>
<path d="M71.52 32.3368L65.6919 23.677L64.8381 34.0801C63.6165 48.971 57.7764 60.5239 53.0924 67.5933C47.9676 75.3285 43.0563 79.5611 43.0123 79.5984L35.4023 86.0478H80.7456L81.0526 82.7261C83.9634 51.2386 72.0296 33.0938 71.52 32.3368Z" fill="#60DD4D"/>
<path d="M57.3361 34.4748C54.6844 27.6513 51.8369 22.6021 50 19.6755V83.6096H63.0381L63.3932 80.3469C65.5213 60.7916 61.2739 44.6076 57.3361 34.4748Z" fill="#00C47A"/>
<path d="M84.1465 68.9751H15.8537C7.11193 68.9751 0 76.087 0 84.8288C0 85.8945 0.108008 86.9622 0.321485 88.0027L0.921096 90.9263H99.0789L99.6785 88.0027C99.892 86.9622 100 85.8941 100 84.8288C100 76.087 92.8883 68.9751 84.1465 68.9751Z" fill="url(#paint0_linear_419_2585)"/>
<path d="M84.1464 68.9751H50V90.9263H99.0788L99.6784 88.0027C99.8919 86.9622 99.9999 85.8941 99.9999 84.8288C100 76.087 92.8882 68.9751 84.1464 68.9751Z" fill="url(#paint1_linear_419_2585)"/>
<defs>
<linearGradient id="paint0_linear_419_2585" x1="44.2078" y1="65.6937" x2="48.6328" y2="97.9306" gradientUnits="userSpaceOnUse">
<stop stop-color="#6B3C92"/>
<stop offset="0.510417" stop-color="#5D82C1"/>
<stop offset="1" stop-color="#4FC8F1"/>
</linearGradient>
<linearGradient id="paint1_linear_419_2585" x1="72.1039" y1="65.6937" x2="80.4886" y2="96.2361" gradientUnits="userSpaceOnUse">
<stop stop-color="#6B3C92"/>
<stop offset="0.510417" stop-color="#5D82C1"/>
<stop offset="1" stop-color="#4FC8F1"/>
</linearGradient>
</defs>
</svg>
