<svg width="100" height="100" viewBox="0 0 100 100" fill="none" xmlns="http://www.w3.org/2000/svg">
<g clip-path="url(#clip0_419_2632)">
<path d="M42.4166 3.67119C42.5658 4.64237 43.8725 4.84915 44.3166 3.97119C46.5488 -0.449153 53.2539 1.72881 52.4607 6.61695C52.303 7.58644 53.4827 8.18644 54.1742 7.48983C57.6624 3.97458 63.3658 8.11864 61.1014 12.522C60.6522 13.3949 61.5878 14.3305 62.4607 13.8814C66.8641 11.6169 71.0081 17.3203 67.4929 20.8085C66.7963 21.5 67.3963 22.6797 68.3658 22.522C73.2539 21.7288 75.4319 28.4339 71.0115 30.6661C70.1352 31.1085 70.342 32.4153 71.3115 32.5661C76.2047 33.322 76.2047 40.3729 71.3115 41.1288C70.3403 41.278 70.1336 42.5847 71.0115 43.0288C75.4319 45.261 73.2539 51.9661 68.3658 51.1729C67.3963 51.0153 66.7963 52.1949 67.4929 52.8864C71.0081 56.3746 66.8641 62.078 62.4607 59.8136C61.5878 59.3644 60.6522 60.3 61.1014 61.1729C63.3658 65.5763 57.6624 69.7203 54.1742 66.2051C53.4827 65.5085 52.303 66.1085 52.4607 67.078C53.2539 71.9661 46.5488 74.1441 44.3166 69.7237C43.8742 68.8475 42.5675 69.0542 42.4166 70.0237C41.6607 74.9169 34.6098 74.9169 33.8539 70.0237C33.7047 69.0525 32.398 68.8458 31.9539 69.7237C29.7217 74.1441 23.0166 71.9661 23.8098 67.078C23.9675 66.1085 22.7878 65.5085 22.0963 66.2051C18.6081 69.7203 12.9047 65.5763 15.1691 61.1729C15.6183 60.3 14.6827 59.3644 13.8098 59.8136C9.40644 62.078 5.26237 56.3746 8.77762 52.8864C9.47423 52.1949 8.87423 51.0153 7.90474 51.1729C3.0166 51.9661 0.838638 45.261 5.25898 43.0288C6.13525 42.5864 5.92847 41.2797 4.95898 41.1288C0.0657574 40.3729 0.0657574 33.322 4.95898 32.5661C5.93016 32.417 6.13694 31.1102 5.25898 30.6661C0.838638 28.4339 3.0166 21.7288 7.90474 22.522C8.87423 22.6797 9.47423 21.5 8.77762 20.8085C5.26406 17.322 9.40813 11.6186 13.8115 13.8831C14.6844 14.3322 15.62 13.3966 15.1708 12.5237C12.9064 8.11864 18.6098 3.97458 22.098 7.48983C22.7895 8.18644 23.9691 7.58644 23.8115 6.61695C23.0183 1.72881 29.7234 -0.449153 31.9556 3.97119C32.398 4.84746 33.7047 4.64068 33.8556 3.67119C34.6098 -1.22373 41.6607 -1.22373 42.4166 3.67119Z" fill="#659C35"/>
<path d="M42.4162 70.0237C41.6602 74.917 34.6094 74.917 33.8534 70.0237C33.7534 69.3763 32.6094 68.9746 32.6094 69.2068C32.6094 69.439 32.6094 98.3051 32.6094 98.3051H42.7789C42.7789 98.3051 42.7789 69.5729 42.7789 69.4C42.7789 69.2271 42.4585 69.7509 42.4162 70.0237Z" fill="#6B5B4B"/>
<path d="M42.7789 57.6271C41.8433 57.6271 41.084 56.8695 41.084 55.9322C41.084 47.5204 47.9281 40.678 56.3382 40.678C57.2738 40.678 58.0331 41.4356 58.0331 42.3729C58.0331 43.3102 57.2738 44.0678 56.3382 44.0678C49.7959 44.0678 44.4738 49.3915 44.4738 55.9322C44.4738 56.8695 43.7145 57.6271 42.7789 57.6271Z" fill="#A4E869"/>
<path d="M32.6097 62.7118C31.6741 62.7118 30.9148 61.9542 30.9148 61.0169C30.9148 54.4763 25.5928 49.1525 19.0504 49.1525C18.1148 49.1525 17.3555 48.3949 17.3555 47.4576C17.3555 46.5203 18.1148 45.7627 19.0504 45.7627C27.4606 45.7627 34.3046 52.6051 34.3046 61.0169C34.3046 61.9542 33.5453 62.7118 32.6097 62.7118Z" fill="#A4E869"/>
<path d="M36.0003 44.0678C35.0647 44.0678 34.3054 43.3102 34.3054 42.3729C34.3054 35.8322 28.9834 30.5085 22.441 30.5085C21.5054 30.5085 20.7461 29.7509 20.7461 28.8136C20.7461 27.8763 21.5054 27.1187 22.441 27.1187C30.8512 27.1187 37.6952 33.961 37.6952 42.3729C37.6952 43.3102 36.9359 44.0678 36.0003 44.0678Z" fill="#A4E869"/>
<path d="M37.6949 30.5085C36.7593 30.5085 36 29.7509 36 28.8136C36 20.4017 42.8441 13.5593 51.2542 13.5593C52.1898 13.5593 52.9492 14.317 52.9492 15.2542C52.9492 16.1915 52.1898 16.9492 51.2542 16.9492C44.7119 16.9492 39.3898 22.2729 39.3898 28.8136C39.3898 29.7509 38.6305 30.5085 37.6949 30.5085Z" fill="#A4E869"/>
<path d="M63.1195 30.5085C59.3805 30.5085 56.3398 27.4678 56.3398 23.7289C56.3398 22.7916 57.0992 22.0339 58.0348 22.0339C58.9704 22.0339 59.7297 22.7916 59.7297 23.7289C59.7297 25.5983 61.25 27.1187 63.1195 27.1187C64.0551 27.1187 64.8144 27.8763 64.8144 28.8136C64.8144 29.7509 64.0551 30.5085 63.1195 30.5085Z" fill="#A4E869"/>
<path d="M47.8648 37.2881C46.9292 37.2881 46.1699 36.5304 46.1699 35.5931C46.1699 31.8542 49.2106 28.8135 52.9496 28.8135C53.8852 28.8135 54.6445 29.5711 54.6445 30.5084C54.6445 31.4457 53.8852 32.2033 52.9496 32.2033C51.0801 32.2033 49.5598 33.7236 49.5598 35.5931C49.5598 36.5304 48.8004 37.2881 47.8648 37.2881Z" fill="#A4E869"/>
<path d="M32.6097 18.644C28.8708 18.644 25.8301 15.6033 25.8301 11.8643C25.8301 10.9271 26.5894 10.1694 27.525 10.1694C28.4606 10.1694 29.2199 10.9271 29.2199 11.8643C29.2199 13.7338 30.7402 15.2542 32.6097 15.2542C33.5453 15.2542 34.3047 16.0118 34.3047 16.9491C34.3047 17.8864 33.5453 18.644 32.6097 18.644Z" fill="#A4E869"/>
<path d="M13.9664 40.6779C13.0308 40.6779 12.2715 39.9203 12.2715 38.983C12.2715 38.0457 13.0308 37.2881 13.9664 37.2881C15.8359 37.2881 17.3562 35.7678 17.3562 33.8983C17.3562 32.961 18.1156 32.2034 19.0511 32.2034C19.9867 32.2034 20.7461 32.961 20.7461 33.8983C20.7461 37.6373 17.7037 40.6779 13.9664 40.6779Z" fill="#A4E869"/>
<path d="M54.6441 57.6272C53.7085 57.6272 52.9492 56.8695 52.9492 55.9322C52.9492 52.1933 55.9899 49.1526 59.7289 49.1526C60.6645 49.1526 61.4238 49.9102 61.4238 50.8475C61.4238 51.7848 60.6645 52.5424 59.7289 52.5424C57.8594 52.5424 56.3391 54.0628 56.3391 55.9322C56.3391 56.8695 55.5797 57.6272 54.6441 57.6272Z" fill="#A4E869"/>
<path d="M27.525 100C26.5894 100 25.8301 99.2424 25.8301 98.3051V96.6102C25.8301 95.6729 26.5894 94.9153 27.525 94.9153C28.4606 94.9153 29.2199 95.6729 29.2199 96.6102V98.3051C29.2199 99.2424 28.4606 100 27.525 100Z" fill="#23A24D"/>
<path d="M22.441 100C21.5054 100 20.7461 99.2424 20.7461 98.3051V96.6102C20.7461 95.6729 21.5054 94.9153 22.441 94.9153C23.3766 94.9153 24.1359 95.6729 24.1359 96.6102V98.3051C24.1359 99.2424 23.3766 100 22.441 100Z" fill="#23A24D"/>
<path d="M17.3551 100C16.4195 100 15.6602 99.2424 15.6602 98.3051V96.6102C15.6602 95.6729 16.4195 94.9153 17.3551 94.9153C18.2907 94.9153 19.05 95.6729 19.05 96.6102V98.3051C19.05 99.2424 18.2907 100 17.3551 100Z" fill="#23A24D"/>
<path d="M12.2711 100C11.3355 100 10.5762 99.2424 10.5762 98.3051V96.6102C10.5762 95.6729 11.3355 94.9153 12.2711 94.9153C13.2067 94.9153 13.966 95.6729 13.966 96.6102V98.3051C13.966 99.2424 13.2067 100 12.2711 100Z" fill="#23A24D"/>
<path d="M7.1871 100C6.25151 100 5.49219 99.2424 5.49219 98.3051V96.6102C5.49219 95.6729 6.25151 94.9153 7.1871 94.9153C8.1227 94.9153 8.88202 95.6729 8.88202 96.6102V98.3051C8.88202 99.2424 8.1227 100 7.1871 100Z" fill="#23A24D"/>
<path d="M58.0348 100C57.0992 100 56.3398 99.2424 56.3398 98.3051V96.6102C56.3398 95.6729 57.0992 94.9153 58.0348 94.9153C58.9704 94.9153 59.7297 95.6729 59.7297 96.6102V98.3051C59.7297 99.2424 58.9704 100 58.0348 100Z" fill="#23A24D"/>
<path d="M52.9488 100C52.0132 100 51.2539 99.2424 51.2539 98.3051V96.6102C51.2539 95.6729 52.0132 94.9153 52.9488 94.9153C53.8844 94.9153 54.6437 95.6729 54.6437 96.6102V98.3051C54.6437 99.2424 53.8844 100 52.9488 100Z" fill="#23A24D"/>
<path d="M47.8648 100C46.9292 100 46.1699 99.2424 46.1699 98.3051V96.6102C46.1699 95.6729 46.9292 94.9153 47.8648 94.9153C48.8004 94.9153 49.5598 95.6729 49.5598 96.6102V98.3051C49.5598 99.2424 48.8004 100 47.8648 100Z" fill="#23A24D"/>
<path d="M73.2887 100C72.3531 100 71.5938 99.2424 71.5938 98.3051V96.6102C71.5938 95.6729 72.3531 94.9153 73.2887 94.9153C74.2243 94.9153 74.9836 95.6729 74.9836 96.6102V98.3051C74.9836 99.2424 74.2243 100 73.2887 100Z" fill="#23A24D"/>
<path d="M68.2027 100C67.2671 100 66.5078 99.2424 66.5078 98.3051V96.6102C66.5078 95.6729 67.2671 94.9153 68.2027 94.9153C69.1383 94.9153 69.8976 95.6729 69.8976 96.6102V98.3051C69.8976 99.2424 69.1383 100 68.2027 100Z" fill="#23A24D"/>
<path d="M63.1187 100C62.1832 100 61.4238 99.2424 61.4238 98.3051V96.6102C61.4238 95.6729 62.1832 94.9153 63.1187 94.9153C64.0543 94.9153 64.8137 95.6729 64.8137 96.6102V98.3051C64.8137 99.2424 64.0543 100 63.1187 100Z" fill="#23A24D"/>
<path d="M88.5426 100C87.607 100 86.8477 99.2424 86.8477 98.3051V96.6102C86.8477 95.6729 87.607 94.9153 88.5426 94.9153C89.4782 94.9153 90.2375 95.6729 90.2375 96.6102V98.3051C90.2375 99.2424 89.4782 100 88.5426 100Z" fill="#23A24D"/>
<path d="M83.4586 100C82.523 100 81.7637 99.2424 81.7637 98.3051V96.6102C81.7637 95.6729 82.523 94.9153 83.4586 94.9153C84.3942 94.9153 85.1535 95.6729 85.1535 96.6102V98.3051C85.1535 99.2424 84.3942 100 83.4586 100Z" fill="#23A24D"/>
<path d="M78.3726 100C77.4371 100 76.6777 99.2424 76.6777 98.3051V96.6102C76.6777 95.6729 77.4371 94.9153 78.3726 94.9153C79.3082 94.9153 80.0676 95.6729 80.0676 96.6102V98.3051C80.0676 99.2424 79.3082 100 78.3726 100Z" fill="#23A24D"/>
<path d="M86.8477 20.3389C86.8477 14.7186 91.3968 10.1694 97.0171 10.1694" stroke="#556080" stroke-width="2" stroke-miterlimit="10" stroke-linecap="round"/>
<path d="M86.8476 20.3391C86.8476 15.6543 83.0578 11.8645 78.373 11.8645" stroke="#556080" stroke-width="2" stroke-miterlimit="10" stroke-linecap="round"/>
</g>
<defs>
<clipPath id="clip0_419_2632">
<rect width="100" height="100" fill="white"/>
</clipPath>
</defs>
</svg>
