<svg width="100" height="100" viewBox="0 0 100 100" fill="none" xmlns="http://www.w3.org/2000/svg">
<path d="M41.2637 91.4012C41.5821 91.5604 41.7414 91.8789 42.0599 92.0381C47.6331 95.7005 55.2764 94.1082 58.9388 88.5349C62.6013 82.9617 61.0089 75.3183 55.4356 71.6559C55.1172 71.4967 54.7987 71.3375 54.4802 71.1782L41.2637 91.4012Z" fill="url(#paint0_linear_419_2683)"/>
<path d="M40.6279 0C39.9909 0.636943 39.354 1.11465 38.7171 1.75159C26.6151 13.8535 26.6151 33.5987 38.7171 45.8599C50.819 57.9618 70.5642 57.9618 82.8253 45.8599C83.4623 45.2229 84.0992 44.586 84.5769 43.949L40.6279 0Z" fill="url(#paint1_linear_419_2683)"/>
<path d="M47.9525 7.32495C47.4748 7.64342 46.9971 8.12113 46.6787 8.4396C38.5576 16.5606 38.5576 29.7772 46.6787 37.8982C54.7997 46.0192 68.0162 46.0192 75.978 37.8982C76.4557 37.4205 76.7742 37.102 77.0927 36.6243L47.9525 7.32495Z" fill="url(#paint2_linear_419_2683)"/>
<path d="M53.684 13.0574C53.3655 13.2166 53.2062 13.5351 52.8878 13.8536C47.9515 18.7899 47.9515 26.9109 52.8878 31.8472C57.8241 36.7835 65.9451 36.7835 70.8814 31.8472C71.1999 31.5287 71.3591 31.3695 71.6776 31.051L53.684 13.0574Z" fill="url(#paint3_linear_419_2683)"/>
<path d="M12.6029 9.39502C11.966 10.3504 11.329 11.3058 10.8513 12.2613C0.0232759 31.8472 7.18888 56.3695 26.7749 67.0383C46.3609 77.7071 70.8832 70.5415 81.5519 50.9555C82.1889 50.0001 82.6666 48.8855 82.9851 47.7708L12.6029 9.39502Z" fill="url(#paint4_linear_419_2683)"/>
<path d="M11.4865 11.1465C10.8496 11.9427 10.3719 12.8981 9.89419 13.8535C0.180816 31.5287 6.70948 53.6624 24.3846 63.3758C42.0598 73.0892 64.1936 66.5605 73.9069 48.8853C74.3846 47.9299 74.8623 46.9745 75.34 46.0191L11.4865 11.1465Z" fill="url(#paint5_linear_419_2683)"/>
<path d="M25.9771 16.7197C25.6586 17.3567 25.1809 17.8344 24.8624 18.4713C18.1745 30.5732 22.6331 45.8599 34.8943 52.5478C46.9962 59.2356 62.2828 54.7771 68.9707 42.5159C69.2892 41.879 69.6076 41.242 69.9261 40.6051L25.9771 16.7197Z" fill="url(#paint6_linear_419_2683)"/>
<path d="M34.8957 21.4968C34.7365 21.8153 34.418 22.1338 34.2588 22.6115C30.2779 29.7771 32.9849 38.8535 40.1505 42.8344C47.3161 46.8153 56.3925 44.1083 60.3734 36.9427C60.5327 36.6242 60.6919 36.1465 61.0104 35.828L34.8957 21.4968Z" fill="url(#paint7_linear_419_2683)"/>
<path d="M94.61 35.0318C94.4508 34.7133 94.2915 34.3949 93.9731 34.2356C89.8329 28.9808 82.1896 28.0254 76.9348 32.3248C71.6801 36.4649 70.7246 44.1082 75.024 49.363C75.1832 49.6815 75.5017 49.8407 75.661 50.1592L94.61 35.0318Z" fill="url(#paint8_linear_419_2683)"/>
<path d="M76.7734 44.586C76.9327 44.7453 76.9327 44.9045 77.0919 45.0637C79.4804 48.2484 83.939 48.8854 87.1238 46.4969C90.3085 44.1083 90.9454 39.6497 88.5569 36.465C88.3976 36.3058 88.2384 36.1465 88.2384 35.9873L76.7734 44.586Z" fill="url(#paint9_linear_419_2683)"/>
<path d="M33.7812 95.5413C34.0997 95.7005 34.259 96.019 34.5774 96.1782C40.1507 99.8407 47.794 98.2483 51.4564 92.675C55.1188 87.1018 53.5265 79.4585 47.9532 75.7961C47.6348 75.6368 47.3163 75.4776 46.9978 75.3184L33.7812 95.5413Z" fill="url(#paint10_linear_419_2683)"/>
<path d="M51.4564 92.5159C55.1188 86.9426 53.5265 79.2993 47.9532 75.6369C47.6348 75.4776 47.3163 75.3184 46.9978 75.1592L33.7812 95.5413" fill="url(#paint11_linear_419_2683)"/>
<path d="M44.6094 78.8216C45.2463 79.2993 45.8833 79.777 46.5202 80.0955C58.9406 88.2165 75.6603 84.7133 83.7813 72.1337C91.9024 59.7133 88.3992 42.9936 75.8196 34.8726" fill="url(#paint12_linear_419_2683)"/>
<path d="M69.9278 41.7197L44.6094 78.8216C45.2463 79.2993 45.8833 79.7771 46.5202 80.0955C58.9406 88.2165 75.6603 84.7134 83.7813 72.1337" fill="url(#paint13_linear_419_2683)"/>
<path d="M49.0664 71.9745C49.5441 72.2929 49.8626 72.6114 50.3403 72.9299C59.0983 78.6624 70.7225 76.1146 76.4549 67.3566C82.1874 58.5987 79.6397 46.9745 70.8817 41.242C70.404 40.9235 69.9263 40.7643 69.4486 40.4458L49.0664 71.9745Z" fill="url(#paint14_linear_419_2683)"/>
<path d="M53.0488 65.9235C53.3673 66.0827 53.5265 66.2419 53.845 66.5604C59.259 70.0636 66.4246 68.4712 69.7686 63.2165C73.2718 57.8024 71.6794 50.6368 66.4246 47.2929C66.1062 47.1337 65.7877 46.9744 65.6284 46.8152L53.0488 65.9235Z" fill="url(#paint15_linear_419_2683)"/>
<path d="M30.9149 81.8472H22.9531V89.809H30.9149V81.8472Z" fill="#51D687"/>
<path d="M22.9519 79.2994L18.0156 74.2039L22.9519 69.2676" fill="#67F9A2"/>
<path d="M22.9529 94.5861H18.1758V91.4014" fill="#08B74F"/>
<path d="M16.1056 99.9999H13.0801V96.8152" fill="#67F9A2"/>
<path d="M37.7618 78.3438H34.7363V75.3184" fill="#A5F9C7"/>
<path d="M84.5766 35.1911C85.2802 35.1911 85.8505 34.6207 85.8505 33.9172C85.8505 33.2136 85.2802 32.6433 84.5766 32.6433C83.8731 32.6433 83.3027 33.2136 83.3027 33.9172C83.3027 34.6207 83.8731 35.1911 84.5766 35.1911Z" fill="white"/>
<path d="M57.5072 62.1021C58.1228 62.1021 58.6219 61.6031 58.6219 60.9875C58.6219 60.3718 58.1228 59.8728 57.5072 59.8728C56.8916 59.8728 56.3926 60.3718 56.3926 60.9875C56.3926 61.6031 56.8916 62.1021 57.5072 62.1021Z" fill="url(#paint16_linear_419_2683)"/>
<path d="M61.1693 58.4395C61.7849 58.4395 62.284 57.9405 62.284 57.3249C62.284 56.7093 61.7849 56.2102 61.1693 56.2102C60.5537 56.2102 60.0547 56.7093 60.0547 57.3249C60.0547 57.9405 60.5537 58.4395 61.1693 58.4395Z" fill="url(#paint17_linear_419_2683)"/>
<path d="M64.8314 54.7772C65.4471 54.7772 65.9461 54.2781 65.9461 53.6625C65.9461 53.0469 65.4471 52.5479 64.8314 52.5479C64.2158 52.5479 63.7168 53.0469 63.7168 53.6625C63.7168 54.2781 64.2158 54.7772 64.8314 54.7772Z" fill="url(#paint18_linear_419_2683)"/>
<defs>
<linearGradient id="paint0_linear_419_2683" x1="49.9493" y1="67.7652" x2="66.1952" y2="90.1218" gradientUnits="userSpaceOnUse">
<stop stop-color="#6B3C92"/>
<stop offset="0.510417" stop-color="#5D82C1"/>
<stop offset="1" stop-color="#4FC8F1"/>
</linearGradient>
<linearGradient id="paint1_linear_419_2683" x1="53.9268" y1="-8.21213" x2="90.8778" y2="50.8798" gradientUnits="userSpaceOnUse">
<stop stop-color="#6B3C92"/>
<stop offset="0.510417" stop-color="#5D82C1"/>
<stop offset="1" stop-color="#4FC8F1"/>
</linearGradient>
<linearGradient id="paint2_linear_419_2683" x1="56.7259" y1="1.84425" x2="81.4335" y2="41.185" gradientUnits="userSpaceOnUse">
<stop stop-color="#6B3C92"/>
<stop offset="0.510417" stop-color="#5D82C1"/>
<stop offset="1" stop-color="#4FC8F1"/>
</linearGradient>
<linearGradient id="paint3_linear_419_2683" x1="59.1288" y1="9.69516" x2="74.2573" y2="33.8886" gradientUnits="userSpaceOnUse">
<stop stop-color="#6B3C92"/>
<stop offset="0.510417" stop-color="#5D82C1"/>
<stop offset="1" stop-color="#4FC8F1"/>
</linearGradient>
<linearGradient id="paint4_linear_419_2683" x1="39.9223" y1="0.0394224" x2="77.6929" y2="74.5313" gradientUnits="userSpaceOnUse">
<stop stop-color="#6B3C92"/>
<stop offset="0.510417" stop-color="#5D82C1"/>
<stop offset="1" stop-color="#4FC8F1"/>
</linearGradient>
<linearGradient id="paint5_linear_419_2683" x1="36.3138" y1="2.6658" x2="70.557" y2="70.1848" gradientUnits="userSpaceOnUse">
<stop stop-color="#6B3C92"/>
<stop offset="0.510417" stop-color="#5D82C1"/>
<stop offset="1" stop-color="#4FC8F1"/>
</linearGradient>
<linearGradient id="paint6_linear_419_2683" x1="43.0509" y1="10.8996" x2="66.5035" y2="57.3016" gradientUnits="userSpaceOnUse">
<stop stop-color="#6B3C92"/>
<stop offset="0.510417" stop-color="#5D82C1"/>
<stop offset="1" stop-color="#4FC8F1"/>
</linearGradient>
<linearGradient id="paint7_linear_419_2683" x1="45.0581" y1="18.032" x2="59.0441" y2="45.6228" gradientUnits="userSpaceOnUse">
<stop stop-color="#6B3C92"/>
<stop offset="0.510417" stop-color="#5D82C1"/>
<stop offset="1" stop-color="#4FC8F1"/>
</linearGradient>
<linearGradient id="paint8_linear_419_2683" x1="82.1719" y1="26.5465" x2="95.4674" y2="49.6216" gradientUnits="userSpaceOnUse">
<stop stop-color="#6B3C92"/>
<stop offset="0.510417" stop-color="#5D82C1"/>
<stop offset="1" stop-color="#4FC8F1"/>
</linearGradient>
<linearGradient id="paint9_linear_419_2683" x1="82.6215" y1="34.2003" x2="90.2829" y2="47.7579" gradientUnits="userSpaceOnUse">
<stop stop-color="#6B3C92"/>
<stop offset="0.510417" stop-color="#5D82C1"/>
<stop offset="1" stop-color="#4FC8F1"/>
</linearGradient>
<linearGradient id="paint10_linear_419_2683" x1="42.4669" y1="71.9053" x2="58.7128" y2="94.2619" gradientUnits="userSpaceOnUse">
<stop stop-color="#6B3C92"/>
<stop offset="0.510417" stop-color="#5D82C1"/>
<stop offset="1" stop-color="#4FC8F1"/>
</linearGradient>
<linearGradient id="paint11_linear_419_2683" x1="42.4669" y1="72.1124" x2="56.3907" y2="93.5765" gradientUnits="userSpaceOnUse">
<stop stop-color="#6B3C92"/>
<stop offset="0.510417" stop-color="#5D82C1"/>
<stop offset="1" stop-color="#4FC8F1"/>
</linearGradient>
<linearGradient id="paint12_linear_419_2683" x1="63.8586" y1="27.4591" x2="98.9217" y2="76.6904" gradientUnits="userSpaceOnUse">
<stop stop-color="#6B3C92"/>
<stop offset="0.510417" stop-color="#5D82C1"/>
<stop offset="1" stop-color="#4FC8F1"/>
</linearGradient>
<linearGradient id="paint13_linear_419_2683" x1="61.9265" y1="35.3298" x2="91.7045" y2="78.9688" gradientUnits="userSpaceOnUse">
<stop stop-color="#6B3C92"/>
<stop offset="0.510417" stop-color="#5D82C1"/>
<stop offset="1" stop-color="#4FC8F1"/>
</linearGradient>
<linearGradient id="paint14_linear_419_2683" x1="62.5308" y1="35.1312" x2="87.8627" y2="69.8358" gradientUnits="userSpaceOnUse">
<stop stop-color="#6B3C92"/>
<stop offset="0.510417" stop-color="#5D82C1"/>
<stop offset="1" stop-color="#4FC8F1"/>
</linearGradient>
<linearGradient id="paint15_linear_419_2683" x1="61.2666" y1="43.5842" x2="76.6489" y2="64.7402" gradientUnits="userSpaceOnUse">
<stop stop-color="#6B3C92"/>
<stop offset="0.510417" stop-color="#5D82C1"/>
<stop offset="1" stop-color="#4FC8F1"/>
</linearGradient>
<linearGradient id="paint16_linear_419_2683" x1="57.3781" y1="59.5396" x2="58.8776" y2="61.9375" gradientUnits="userSpaceOnUse">
<stop stop-color="#6B3C92"/>
<stop offset="0.510417" stop-color="#5D82C1"/>
<stop offset="1" stop-color="#4FC8F1"/>
</linearGradient>
<linearGradient id="paint17_linear_419_2683" x1="61.0402" y1="55.877" x2="62.5397" y2="58.2749" gradientUnits="userSpaceOnUse">
<stop stop-color="#6B3C92"/>
<stop offset="0.510417" stop-color="#5D82C1"/>
<stop offset="1" stop-color="#4FC8F1"/>
</linearGradient>
<linearGradient id="paint18_linear_419_2683" x1="64.7023" y1="52.2146" x2="66.2018" y2="54.6125" gradientUnits="userSpaceOnUse">
<stop stop-color="#6B3C92"/>
<stop offset="0.510417" stop-color="#5D82C1"/>
<stop offset="1" stop-color="#4FC8F1"/>
</linearGradient>
</defs>
</svg>
