<svg width="100" height="100" viewBox="0 0 100 100" fill="none" xmlns="http://www.w3.org/2000/svg">
<g clip-path="url(#clip0_419_2711)">
<path d="M91.8253 49.9999C91.8253 73.0993 73.0997 91.8248 50.0004 91.8248C26.9011 91.8248 8.17578 73.0993 8.17578 49.9999C8.17578 26.9006 26.9015 8.17529 50.0004 8.17529C73.0994 8.17529 91.8253 26.901 91.8253 49.9999Z" fill="#A5D8FA"/>
<path d="M99.9994 50.0001C99.9994 51.2007 99.0262 52.1739 97.8256 52.1739H85.3753C84.8803 60.3128 81.627 67.7178 76.5394 73.4654L88.9657 85.8918C89.8145 86.7406 89.8145 88.1171 88.9657 88.9664C88.5411 89.391 87.9848 89.6031 87.4286 89.6031C86.8723 89.6031 86.3157 89.391 85.8915 88.9664L73.4651 76.54C67.7177 81.6277 60.3127 84.8808 52.1736 85.3759V97.8261C52.1736 99.0267 51.2004 99.9999 49.9998 99.9999C48.7992 99.9999 47.826 99.0267 47.826 97.8261V85.3757C39.6871 84.8808 32.2821 81.6275 26.5345 76.5398L14.1081 88.9662C13.6835 89.3908 13.1273 89.6029 12.571 89.6029C12.0148 89.6029 11.4582 89.3908 11.0339 88.9662C10.1851 88.1173 10.1851 86.7408 11.0339 85.8916L23.4603 73.4652C18.3726 67.7178 15.1195 60.3129 14.6247 52.1741H2.17382C0.973238 52.1741 0 51.2009 0 50.0003C0 48.7997 0.973238 47.8265 2.17382 47.8265H14.6242C15.1191 39.6876 18.3724 32.2826 23.4601 26.535L11.0339 14.1088C10.1851 13.26 10.1851 11.8834 11.0339 11.0342C11.8828 10.1854 13.2593 10.1854 14.1085 11.0342L26.5349 23.4606C32.2821 18.3729 39.687 15.1198 47.8258 14.6248V2.17431C47.8258 0.973727 48.799 0.000488281 49.9996 0.000488281C51.2002 0.000488281 52.1734 0.973727 52.1734 2.17431V14.6247C60.3123 15.1196 67.7173 18.3729 73.465 23.4606L85.8913 11.0342C86.7401 10.1854 88.1166 10.1854 88.9659 11.0342C89.8147 11.8831 89.8147 13.2596 88.9659 14.1088L76.5395 26.5352C81.6272 32.2826 84.8803 39.6876 85.3755 47.8267H97.8256C99.0262 47.8263 99.9994 48.7995 99.9994 50.0001Z" fill="#FF8642"/>
<path d="M80.4337 50.0001C80.4337 66.8088 66.8076 80.4347 49.9991 80.4347C33.1906 80.4347 19.5645 66.8086 19.5645 50.0001C19.5645 33.1915 33.1906 19.5654 49.9991 19.5654C66.8076 19.5654 80.4337 33.1915 80.4337 50.0001Z" fill="#EDB311"/>
<path d="M71.7397 50C71.7397 62.006 62.0067 71.7389 50.0007 71.7389C37.9947 71.7389 28.2617 62.006 28.2617 50C28.2617 37.994 37.9947 28.261 50.0007 28.261C62.0067 28.261 71.7397 37.994 71.7397 50Z" fill="#F7DB4F"/>
<path d="M47.8262 29.206C47.8262 28.0055 48.7994 27.0322 50 27.0322C50.765 27.0322 51.5367 27.0703 52.2943 27.1455C53.489 27.2643 54.3615 28.3289 54.2427 29.5236C54.1312 30.6453 53.1861 31.483 52.082 31.483C52.0101 31.483 51.9377 31.4793 51.8646 31.4721C51.2492 31.4109 50.6221 31.3799 50 31.3799C48.7994 31.3801 47.8262 30.4068 47.8262 29.206ZM63.7822 31.6252C62.8222 30.9041 61.4593 31.0978 60.7384 32.0578C60.0175 33.0177 60.2111 34.3806 61.171 35.1015C65.9052 38.6574 68.6204 44.0876 68.6204 49.9999C68.6204 60.2671 60.2677 68.6198 50.0006 68.6198C48.8 68.6198 47.8268 69.593 47.8268 70.7936C47.8268 71.9942 48.8 72.9674 50.0006 72.9674C62.6652 72.9674 72.9683 62.6639 72.9683 49.9997C72.9681 42.7074 69.6196 36.0103 63.7822 31.6252Z" fill="#FF8642"/>
<path d="M0.636619 3.71161C-0.212206 2.86278 -0.212206 1.48622 0.636619 0.637009C1.48544 -0.212206 2.862 -0.211816 3.71122 0.637009L5.79109 2.71688C6.63992 3.56571 6.63992 4.94227 5.79109 5.79148C5.36648 6.21609 4.81024 6.4282 4.25399 6.4282C3.69774 6.4282 3.1411 6.21609 2.71688 5.79148L0.636619 3.71161ZM97.2833 94.2091C96.4345 93.3603 95.0579 93.3603 94.2087 94.2091C93.3599 95.0579 93.3599 96.4345 94.2087 97.2837L96.2884 99.3634C96.713 99.788 97.2692 100 97.8255 100C98.3817 100 98.9384 99.788 99.3626 99.3634C100.211 98.5145 100.211 97.138 99.3626 96.2888L97.2833 94.2091ZM2.71649 94.2091L0.636619 96.2888C-0.212206 97.1376 -0.212206 98.5142 0.636619 99.3634C1.06123 99.7878 1.61747 99.9999 2.17372 99.9999C2.72997 99.9999 3.28661 99.7878 3.71083 99.3632L5.7905 97.2835C6.63933 96.4347 6.63933 95.0581 5.7905 94.2089C4.94188 93.3603 3.56532 93.3603 2.71649 94.2091ZM95.7458 6.428C96.3021 6.428 96.8587 6.21589 97.2829 5.79129L99.3626 3.71161C100.211 2.86278 100.211 1.48622 99.3626 0.637009C98.5138 -0.212206 97.1372 -0.211816 96.288 0.637009L94.2083 2.71669C93.3595 3.56551 93.3595 4.94207 94.2083 5.79129C94.6333 6.2157 95.1896 6.428 95.7458 6.428Z" fill="#EDB311"/>
</g>
<defs>
<clipPath id="clip0_419_2711">
<rect width="100" height="100" fill="white"/>
</clipPath>
</defs>
</svg>
