<svg width="100" height="100" viewBox="0 0 100 100" fill="none" xmlns="http://www.w3.org/2000/svg">
<g clip-path="url(#clip0_419_2718)">
<path d="M25.5165 33.8855C14.8789 30.4291 3.45408 36.2519 0 46.8872L10.7969 50.3959L21.5573 51.4267L27.7237 55.8933V55.8956L38.5205 59.402C41.9746 48.7644 36.1541 37.3418 25.5165 33.8855Z" fill="#FFD039"/>
<path d="M28.4654 28.8615L25.81 37.0303C25.6667 37.4762 25.2912 37.7834 24.8612 37.8699L25.4642 38.0633L25.1775 38.9507L19.3365 57.013L9.48392 87.4762L7.10156 86.7049L16.9541 56.2393L23.0818 37.2942L23.703 37.4944C23.6234 37.408 23.5551 37.3101 23.5028 37.2032C23.3594 36.921 23.323 36.582 23.43 36.2566L26.0831 28.0879C26.297 27.4303 27.0046 27.0708 27.66 27.2847C28.3175 27.4985 28.6771 28.2039 28.4654 28.8615Z" fill="url(#paint0_linear_419_2718)"/>
<path d="M49.6944 79.1618H43.6031L42.1923 75.3459C41.9443 74.6769 41.3072 74.231 40.5927 74.231H30.3533C29.6389 74.231 28.9995 74.6769 28.7514 75.3459L27.3407 79.1618H24.8559L19.6771 71.9806C19.1264 71.2183 18.0593 71.0454 17.2947 71.596C16.5302 72.1467 16.3573 73.2139 16.9079 73.9784L22.5964 81.8673C22.9173 82.311 23.4338 82.5749 23.9822 82.5749H26.0801L25.6933 83.6239L24.8832 85.8128C24.5579 86.698 25.0084 87.6787 25.8935 88.0063C26.7787 88.3317 27.7594 87.8812 28.0847 86.996L29.3317 83.6239L29.7185 82.5749H41.2253L41.6121 83.6239L42.859 86.996C43.1139 87.6855 43.7669 88.111 44.4609 88.111C44.6566 88.111 44.8568 88.0769 45.0525 88.0063C45.9354 87.6787 46.3882 86.698 46.0605 85.8128L45.2505 83.6239L44.8637 82.5749H49.6944C50.6364 82.5749 51.4009 81.8104 51.4009 80.8684C51.4009 79.9263 50.6364 79.1618 49.6944 79.1618ZM30.9814 79.1618L31.5411 77.6441H39.4027L39.9647 79.1618H30.9814Z" fill="#CCCCCC"/>
<path d="M25.6934 83.6239H29.3318L29.7186 82.575H26.0802L25.6934 83.6239Z" fill="#B3B3B3"/>
<path d="M45.2518 83.6239H41.6134L41.2266 82.575H44.865L45.2518 83.6239Z" fill="#B3B3B3"/>
<path d="M61.1495 90.2226L58.3462 92.5867H0C0 91.6629 0.19341 90.7869 0.541549 89.9928C0.866934 89.2442 1.33112 88.5706 1.89997 88.0018C3.07181 86.8277 4.69418 86.1018 6.48494 86.1018H58.3462L60.9925 89.9928L61.1495 90.2226Z" fill="#FFD039"/>
<path d="M61.1495 90.2225L58.3462 92.5866H0C0 91.6628 0.19341 90.7868 0.541549 89.9927H60.9925L61.1495 90.2225Z" fill="#EAB932"/>
<path d="M80.2735 7.41333C73.9592 7.41333 68.8418 12.533 68.8418 18.8473C68.8418 25.1616 73.9592 30.2813 80.2735 30.2813C86.5878 30.2813 91.7075 25.1616 91.7075 18.8473C91.7075 12.533 86.5878 7.41333 80.2735 7.41333Z" fill="#EAB932"/>
<path d="M25.1784 38.9506L19.3374 57.0129L16.9551 56.2393L23.0828 37.2941L23.704 37.4944C23.6243 37.4079 23.5561 37.3101 23.5037 37.2031C24.1545 37.6036 24.712 38.1975 25.1784 38.9506Z" fill="#1E79C4"/>
<path d="M25.5165 33.8856C30.1902 35.4033 31.1778 45.2558 27.7237 55.8934L10.7969 50.396C14.2532 39.7584 20.8428 32.3679 25.5165 33.8856Z" fill="#ED2E2E"/>
<path d="M99.9995 92.5376V92.5868H58.3457V86.1018C59.5016 86.6707 60.6598 87.2395 62.9739 87.2395C67.6021 87.2395 67.6021 84.9641 72.2303 84.9641C76.8562 84.9641 76.8562 87.2395 81.4844 87.2395C86.1126 87.2395 86.1126 84.9641 90.7431 84.9641C93.4911 84.9641 94.6074 85.7662 96.0298 86.4181C98.4338 87.5196 99.9995 89.8933 99.9995 92.5376Z" fill="url(#paint1_linear_419_2718)"/>
<path d="M87.9044 41.3908C87.7822 41.5355 87.668 41.6857 87.5613 41.8406C87.3326 41.5025 87.073 41.1865 86.7778 40.9091C85.3366 39.5543 83.3725 38.8564 81.4199 39.388C82.0099 39.6144 82.5956 39.7991 83.1458 40.1179C83.9247 40.5694 84.626 41.1507 85.1723 41.8698C85.5578 42.377 85.8797 42.9492 86.087 43.5531C86.2552 44.043 86.374 44.5611 86.409 45.079C86.4154 45.1718 86.3753 45.4124 86.4242 45.4906C86.427 45.495 86.4265 45.4952 86.4283 45.4984C86.4279 45.5207 86.4252 45.5427 86.4249 45.5648C86.4147 46.2964 87.09 46.8734 87.8145 46.7103C88.4111 46.576 88.6871 46.0609 88.6912 45.5006C88.7445 45.3687 88.7433 44.859 88.7629 44.7097C88.9475 43.3156 89.6492 42.0889 90.6379 41.1148C91.0716 40.6875 91.5933 40.3157 92.1328 40.0378C92.645 39.7739 93.1688 39.5921 93.7065 39.3877C91.5471 38.7854 89.3124 39.7218 87.9044 41.3908Z" fill="url(#paint2_linear_419_2718)"/>
<path d="M68.8418 18.8472C68.8418 25.1615 73.9592 30.2812 80.2735 30.2812C81.666 30.2812 82.9994 30.0332 84.2327 29.5758C84.6901 28.3425 84.9381 27.0091 84.9381 25.6166C84.9381 19.3023 79.8207 14.1826 73.5041 14.1826C72.1139 14.1826 70.7805 14.4306 69.5472 14.8857C69.0898 16.1213 68.8418 17.4547 68.8418 18.8472Z" fill="#FFD039"/>
</g>
<defs>
<linearGradient id="paint0_linear_419_2718" x1="16.5729" y1="18.216" x2="55.3113" y2="40.2439" gradientUnits="userSpaceOnUse">
<stop stop-color="#6B3C92"/>
<stop offset="0.510417" stop-color="#5D82C1"/>
<stop offset="1" stop-color="#4FC8F1"/>
</linearGradient>
<linearGradient id="paint1_linear_419_2718" x1="76.7599" y1="83.8246" x2="78.0482" y2="95.0825" gradientUnits="userSpaceOnUse">
<stop stop-color="#6B3C92"/>
<stop offset="0.510417" stop-color="#5D82C1"/>
<stop offset="1" stop-color="#4FC8F1"/>
</linearGradient>
<linearGradient id="paint2_linear_419_2718" x1="86.8515" y1="38.0782" x2="90.6196" y2="47.9057" gradientUnits="userSpaceOnUse">
<stop stop-color="#6B3C92"/>
<stop offset="0.510417" stop-color="#5D82C1"/>
<stop offset="1" stop-color="#4FC8F1"/>
</linearGradient>
<clipPath id="clip0_419_2718">
<rect width="100" height="100" fill="white"/>
</clipPath>
</defs>
</svg>
