<svg width="100" height="100" viewBox="0 0 100 100" fill="none" xmlns="http://www.w3.org/2000/svg">
<path d="M50.0003 88.626C71.3151 88.626 88.5943 71.3401 88.5943 50.017C88.5943 28.6938 71.3151 11.408 50.0003 11.408C28.6854 11.408 11.4062 28.6938 11.4062 50.017C11.4062 71.3401 28.6854 88.626 50.0003 88.626Z" fill="url(#paint0_linear_419_2735)"/>
<path d="M50.0001 88.626C60.5183 88.626 69.0451 71.3401 69.0451 50.017C69.0451 28.6938 60.5183 11.408 50.0001 11.408C39.4818 11.408 30.9551 28.6938 30.9551 50.017C30.9551 71.3401 39.4818 88.626 50.0001 88.626Z" fill="url(#paint1_linear_419_2735)"/>
<path d="M23.7793 21.6962C30.6643 28.0772 39.8743 31.9822 49.9993 31.9822C60.1243 31.9822 69.3343 28.0762 76.2193 21.6952C69.3343 15.3142 60.1243 11.4092 49.9993 11.4092C39.8743 11.4092 30.6643 15.3142 23.7793 21.6962Z" fill="#8ECFE3"/>
<path d="M23.7793 78.339C30.6643 71.958 39.8743 68.052 49.9993 68.052C60.1243 68.052 69.3343 71.958 76.2193 78.339C69.3343 84.721 60.1243 88.626 49.9993 88.626C39.8743 88.626 30.6643 84.721 23.7793 78.339Z" fill="#8ECFE3"/>
<path d="M89.1004 50.0171C89.1004 38.7291 84.2904 28.5491 76.6194 21.4031C76.6004 21.3771 76.5874 21.3471 76.5634 21.3241C74.1484 19.0861 71.4874 17.1911 68.6524 15.6481C68.6224 15.6321 68.5914 15.6161 68.5614 15.5991C68.0554 15.3251 67.5434 15.0621 67.0254 14.8111C66.9464 14.7731 66.8664 14.7351 66.7864 14.6971C66.3174 14.4731 65.8444 14.2591 65.3674 14.0541C65.2404 14.0001 65.1104 13.9471 64.9814 13.8931C64.5494 13.7141 64.1154 13.5411 63.6774 13.3781C63.5044 13.3131 63.3304 13.2501 63.1554 13.1871C62.7574 13.0451 62.3564 12.9091 61.9534 12.7791C61.7404 12.7111 61.5274 12.6431 61.3134 12.5781C60.9424 12.4661 60.5694 12.3611 60.1954 12.2601C59.9514 12.1941 59.7074 12.1281 59.4614 12.0671C59.1084 11.9791 58.7524 11.8991 58.3964 11.8211C58.1314 11.7631 57.8664 11.7031 57.5984 11.6511C57.2514 11.5821 56.9024 11.5231 56.5524 11.4641C56.2764 11.4171 56.0014 11.3681 55.7234 11.3271C55.3654 11.2741 55.0044 11.2321 54.6444 11.1891C54.3744 11.1571 54.1064 11.1201 53.8354 11.0941C53.4314 11.0541 53.0244 11.0281 52.6174 11.0011C52.3874 10.9861 52.1594 10.9641 51.9284 10.9531C51.2874 10.9221 50.6454 10.9041 50.0004 10.9041C49.3554 10.9041 48.7134 10.9221 48.0724 10.9531C47.8414 10.9641 47.6134 10.9861 47.3834 11.0011C46.9764 11.0281 46.5704 11.0541 46.1654 11.0941C45.8944 11.1211 45.6254 11.1571 45.3564 11.1891C44.9954 11.2321 44.6354 11.2741 44.2774 11.3271C43.9994 11.3681 43.7244 11.4171 43.4474 11.4641C43.0984 11.5231 42.7494 11.5831 42.4014 11.6511C42.1334 11.7041 41.8684 11.7631 41.6034 11.8221C41.2474 11.9001 40.8924 11.9801 40.5384 12.0681C40.2924 12.1291 40.0484 12.1951 39.8044 12.2611C39.4304 12.3621 39.0574 12.4671 38.6864 12.5791C38.4724 12.6441 38.2594 12.7111 38.0464 12.7801C37.6434 12.9091 37.2434 13.0451 36.8444 13.1881C36.6704 13.2511 36.4964 13.3141 36.3234 13.3791C35.8854 13.5431 35.4514 13.7151 35.0194 13.8941C34.8904 13.9481 34.7614 14.0011 34.6324 14.0561C34.1554 14.2601 33.6824 14.4751 33.2134 14.6991C33.1344 14.7371 33.0544 14.7741 32.9744 14.8121C32.4574 15.0631 31.9454 15.3261 31.4384 15.6001C31.4084 15.6161 31.3774 15.6321 31.3474 15.6491C28.5124 17.1921 25.8514 19.0871 23.4364 21.3251C23.4124 21.3471 23.3994 21.3781 23.3804 21.4041C15.7104 28.5491 10.9004 38.7301 10.9004 50.0171C10.9004 61.3041 15.7104 71.4851 23.3814 78.6311C23.4004 78.6571 23.4134 78.687 23.4374 78.7101C25.8524 80.9481 28.5134 82.8431 31.3484 84.3861C31.3784 84.4021 31.4094 84.4181 31.4394 84.4351C31.9454 84.7091 32.4574 84.9721 32.9754 85.2231C33.0544 85.2611 33.1344 85.298 33.2144 85.3361C33.6844 85.5601 34.1574 85.775 34.6344 85.979C34.7624 86.034 34.8904 86.0871 35.0194 86.1401C35.4514 86.3201 35.8864 86.4921 36.3254 86.6561C36.4984 86.7211 36.6724 86.784 36.8464 86.8471C37.2444 86.9891 37.6454 87.1251 38.0484 87.2551C38.2614 87.3231 38.4744 87.3911 38.6884 87.4561C39.0594 87.5681 39.4324 87.6731 39.8064 87.7741C40.0504 87.8401 40.2944 87.9061 40.5404 87.9671C40.8934 88.0551 41.2494 88.135 41.6054 88.2131C41.8714 88.271 42.1364 88.3311 42.4034 88.3841C42.7504 88.4531 43.0994 88.5121 43.4494 88.5711C43.7254 88.618 44.0004 88.6671 44.2794 88.7081C44.6374 88.7611 44.9984 88.8031 45.3584 88.8461C45.6284 88.8781 45.8964 88.9151 46.1674 88.9411C46.5714 88.9811 46.9784 89.007 47.3854 89.034C47.6154 89.049 47.8434 89.0711 48.0744 89.0821C48.7154 89.1131 49.3574 89.1311 50.0024 89.1311C50.6474 89.1311 51.2894 89.1131 51.9304 89.0821C52.1614 89.0711 52.3894 89.049 52.6194 89.034C53.0264 89.007 53.4324 88.9811 53.8374 88.9411C54.1084 88.9141 54.3774 88.8781 54.6464 88.8461C55.0074 88.8031 55.3674 88.7611 55.7254 88.7081C56.0034 88.6671 56.2784 88.618 56.5544 88.5711C56.9044 88.5121 57.2534 88.4521 57.6004 88.3841C57.8674 88.3311 58.1324 88.272 58.3984 88.2141C58.7544 88.136 59.1104 88.0561 59.4634 87.9681C59.7094 87.9071 59.9534 87.8411 60.1974 87.7751C60.5714 87.6741 60.9444 87.5691 61.3154 87.4571C61.5294 87.3921 61.7424 87.3251 61.9554 87.2561C62.3584 87.1271 62.7584 86.9911 63.1574 86.8481C63.3314 86.785 63.5054 86.7221 63.6784 86.6571C64.1164 86.493 64.5514 86.3211 64.9834 86.1411C65.1124 86.0871 65.2414 86.034 65.3694 85.979C65.8474 85.774 66.3204 85.5591 66.7894 85.3361C66.8684 85.298 66.9484 85.2611 67.0284 85.2231C67.5454 84.9721 68.0574 84.7091 68.5644 84.4351C68.5944 84.4191 68.6254 84.4031 68.6554 84.3861C71.4904 82.8431 74.1514 80.9481 76.5664 78.7101C76.5904 78.688 76.6034 78.6571 76.6224 78.6311C84.2904 71.486 89.1004 61.3051 89.1004 50.0171ZM88.0764 49.5121H69.5444C69.4954 41.9131 68.3584 34.8341 66.4314 28.8621C69.9584 27.2251 73.2494 25.0551 76.1934 22.3941C83.3974 29.2331 87.9364 38.8481 88.0764 49.5121ZM64.8754 85.0931C64.7964 85.1261 64.7174 85.1571 64.6384 85.1901C64.1744 85.3841 63.7064 85.5691 63.2334 85.7451C63.0854 85.8001 62.9374 85.8511 62.7884 85.9041C62.3814 86.0501 61.9714 86.189 61.5584 86.3211C61.3614 86.3841 61.1644 86.4431 60.9664 86.5031C60.5964 86.6141 60.2244 86.7201 59.8504 86.8211C59.6194 86.883 59.3884 86.9431 59.1564 87.0001C58.8084 87.0861 58.4574 87.1671 58.1054 87.243C57.8534 87.298 57.6004 87.3521 57.3474 87.4021C57.0064 87.4691 56.6624 87.5291 56.3184 87.5861C56.0564 87.6301 55.7944 87.675 55.5314 87.7141C55.3914 87.734 55.2494 87.7491 55.1094 87.7681C59.6364 85.312 63.5164 79.6801 66.1104 72.1411C69.4824 73.7191 72.6344 75.7891 75.4574 78.3301C72.3494 81.1311 68.7794 83.4301 64.8754 85.0931ZM43.6814 87.5861C43.3374 87.5281 42.9934 87.4691 42.6524 87.4021C42.3994 87.3521 42.1464 87.298 41.8944 87.243C41.5424 87.166 41.1914 87.0861 40.8434 87.0001C40.6114 86.9431 40.3804 86.883 40.1494 86.8211C39.7754 86.7211 39.4034 86.6151 39.0334 86.5031C38.8354 86.4441 38.6384 86.3841 38.4414 86.3211C38.0284 86.189 37.6184 86.049 37.2114 85.9041C37.0634 85.8511 36.9144 85.8001 36.7664 85.7451C36.2934 85.5691 35.8254 85.3841 35.3614 85.1901C35.2824 85.1571 35.2034 85.1261 35.1244 85.0931C31.2204 83.4301 27.6504 81.1311 24.5404 78.3301C27.3634 75.7901 30.5164 73.7191 33.8874 72.1411C36.4814 79.6801 40.3614 85.312 44.8884 87.7681C44.7484 87.7491 44.6064 87.7351 44.4664 87.7141C44.2054 87.675 43.9434 87.6301 43.6814 87.5861ZM35.1254 14.9421C35.2044 14.9091 35.2834 14.8781 35.3624 14.8451C35.8264 14.6511 36.2944 14.4661 36.7674 14.2901C36.9154 14.2351 37.0634 14.1841 37.2124 14.1311C37.6194 13.9851 38.0294 13.8461 38.4424 13.7141C38.6394 13.6511 38.8364 13.5921 39.0344 13.5321C39.4044 13.4211 39.7764 13.3151 40.1504 13.2141C40.3814 13.1521 40.6124 13.0921 40.8444 13.0351C41.1924 12.9491 41.5434 12.8681 41.8954 12.7921C42.1474 12.7371 42.4004 12.6831 42.6534 12.6331C42.9944 12.5661 43.3384 12.5061 43.6824 12.4491C43.9444 12.4051 44.2064 12.3601 44.4694 12.3211C44.6094 12.3011 44.7514 12.2861 44.8914 12.2671C40.3644 14.7231 36.4844 20.3551 33.8904 27.8941C30.5184 26.3161 27.3664 24.2461 24.5434 21.7051C27.6514 18.9041 31.2214 16.6051 35.1254 14.9421ZM56.3194 12.4491C56.6634 12.5071 57.0074 12.5661 57.3484 12.6331C57.6014 12.6831 57.8544 12.7371 58.1064 12.7921C58.4584 12.8691 58.8094 12.9491 59.1574 13.0351C59.3894 13.0921 59.6204 13.1521 59.8514 13.2141C60.2254 13.3141 60.5974 13.4201 60.9674 13.5321C61.1654 13.5911 61.3624 13.6511 61.5594 13.7141C61.9724 13.8461 62.3824 13.9861 62.7894 14.1311C62.9374 14.1841 63.0864 14.2351 63.2344 14.2901C63.7074 14.4661 64.1754 14.6511 64.6394 14.8451C64.7184 14.8781 64.7974 14.9091 64.8764 14.9421C68.7804 16.6051 72.3504 18.9041 75.4604 21.7051C72.6374 24.2451 69.4844 26.3161 66.1134 27.8941C63.5194 20.3551 59.6394 14.7231 55.1124 12.2671C55.2524 12.2861 55.3944 12.3001 55.5344 12.3211C55.7954 12.3591 56.0574 12.4051 56.3194 12.4491ZM65.2234 28.3061C60.6204 30.3161 55.6294 31.3981 50.5064 31.4651V11.9411C56.5964 12.2791 61.9614 18.6761 65.2234 28.3061ZM49.4944 11.9411V31.4651C44.3714 31.3981 39.3804 30.3161 34.7774 28.3061C38.0394 18.6761 43.4044 12.2791 49.4944 11.9411ZM49.4944 32.4761V49.5111H31.4674C31.5154 42.0531 32.6104 35.1081 34.4644 29.2641C39.1684 31.3061 44.2644 32.4091 49.4944 32.4761ZM49.4944 50.5231V67.5581C44.2634 67.6251 39.1684 68.7281 34.4634 70.7691C32.6094 64.9261 31.5144 57.9811 31.4664 50.5221H49.4944V50.5231ZM49.4944 68.5701V88.0941C43.4044 87.7561 38.0394 81.359 34.7774 71.729C39.3804 69.7191 44.3724 68.6371 49.4944 68.5701ZM50.5064 88.0941V68.5701C55.6294 68.6371 60.6204 69.7191 65.2234 71.729C61.9614 81.359 56.5964 87.7561 50.5064 88.0941ZM50.5064 67.5581V50.5231H68.5344C68.4864 57.9811 67.3914 64.926 65.5374 70.7701C60.8324 68.729 55.7364 67.6261 50.5064 67.5581ZM50.5064 49.5121V32.4761C55.7374 32.4091 60.8324 31.3061 65.5374 29.2651C67.3914 35.1081 68.4864 42.0531 68.5344 49.5121H50.5064ZM23.8074 22.3941C26.7514 25.0551 30.0424 27.2251 33.5694 28.8621C31.6424 34.8331 30.5054 41.9131 30.4564 49.5121H11.9244C12.0644 38.8481 16.6034 29.2331 23.8074 22.3941ZM11.9244 50.5231H30.4564C30.5054 58.1221 31.6424 65.201 33.5694 71.173C30.0424 72.8101 26.7514 74.98 23.8074 77.6411C16.6034 70.8021 12.0644 61.187 11.9244 50.5231ZM76.1934 77.6411C73.2494 74.98 69.9584 72.8101 66.4314 71.173C68.3584 65.202 69.4954 58.1221 69.5444 50.5231H88.0764C87.9364 61.187 83.3974 70.8021 76.1934 77.6411Z" fill="white"/>
<path d="M21.8126 16.082C21.9256 16.082 22.0386 16.044 22.1326 15.967C23.0426 15.221 23.9936 14.503 24.9596 13.833C25.1886 13.674 25.2456 13.359 25.0866 13.129C24.9276 12.899 24.6126 12.842 24.3826 13.002C23.3946 13.687 22.4226 14.422 21.4916 15.185C21.2756 15.362 21.2446 15.681 21.4206 15.897C21.5216 16.019 21.6666 16.082 21.8126 16.082Z" fill="#136296"/>
<path d="M41.024 6.91817C41.058 6.91817 41.092 6.91517 41.126 6.90817C42.276 6.67217 43.452 6.48017 44.62 6.33817C44.897 6.30417 45.095 6.05217 45.06 5.77517C45.026 5.49817 44.779 5.30117 44.497 5.33417C43.302 5.48017 42.099 5.67617 40.922 5.91717C40.648 5.97317 40.472 6.24017 40.528 6.51417C40.578 6.75417 40.789 6.91817 41.024 6.91817Z" fill="#136296"/>
<path d="M27.6936 12.0011C27.7796 12.0011 27.8666 11.9791 27.9466 11.9331C28.9656 11.3411 30.0186 10.7851 31.0766 10.2801C31.3286 10.1601 31.4356 9.85808 31.3146 9.60608C31.1956 9.35408 30.8936 9.24708 30.6406 9.36708C29.5586 9.88408 28.4806 10.4521 27.4376 11.0581C27.1966 11.1981 27.1136 11.5081 27.2536 11.7491C27.3496 11.9111 27.5196 12.0011 27.6936 12.0011Z" fill="#136296"/>
<path d="M5.692 54.1572C5.97 54.1352 6.178 53.8912 6.156 53.6122C6.061 52.4422 6.013 51.2502 6.011 50.0712C6.011 49.7922 5.784 49.5662 5.505 49.5662C5.226 49.5662 5 49.7932 5 50.0732C5.001 51.2782 5.051 52.4972 5.148 53.6942C5.17 53.9592 5.391 54.1592 5.652 54.1592C5.665 54.1582 5.678 54.1582 5.692 54.1572Z" fill="#136296"/>
<path d="M8.83364 33.087C8.89864 33.114 8.96564 33.128 9.03164 33.128C9.22864 33.128 9.41564 33.012 9.49664 32.82C9.95764 31.735 10.4686 30.657 11.0136 29.616C11.1436 29.369 11.0476 29.063 10.8006 28.933C10.5526 28.803 10.2466 28.899 10.1176 29.146C9.55964 30.211 9.03764 31.314 8.56564 32.424C8.45664 32.681 8.57664 32.978 8.83364 33.087Z" fill="#136296"/>
<path d="M6.65533 39.912C6.69533 39.922 6.73533 39.927 6.77533 39.927C7.00333 39.927 7.20933 39.772 7.26633 39.541C7.54433 38.399 7.87433 37.254 8.24533 36.136C8.33333 35.871 8.18933 35.585 7.92433 35.497C7.65933 35.409 7.37333 35.553 7.28533 35.818C6.90633 36.961 6.56933 38.133 6.28433 39.301C6.21733 39.572 6.38433 39.846 6.65533 39.912Z" fill="#136296"/>
<path d="M16.6551 21.0511C16.7951 21.0511 16.9341 20.9931 17.0341 20.8801C17.8141 19.9981 18.6381 19.1371 19.4851 18.3211C19.6861 18.1271 19.6921 17.8071 19.4991 17.6061C19.3051 17.4051 18.9841 17.3991 18.7841 17.5931C17.9171 18.4281 17.0741 19.3081 16.2771 20.2101C16.0921 20.4191 16.1121 20.7391 16.3211 20.9241C16.4161 21.0091 16.5361 21.0511 16.6551 21.0511Z" fill="#136296"/>
<path d="M5.60428 46.9961C5.61728 46.9971 5.63128 46.9971 5.64428 46.9971C5.90528 46.9971 6.12727 46.7961 6.14827 46.5311C6.23927 45.3591 6.38028 44.1751 6.56628 43.0131C6.61028 42.7371 6.42227 42.4781 6.14727 42.4341C5.86727 42.3891 5.61227 42.5781 5.56827 42.8541C5.37827 44.0431 5.23427 45.2531 5.14027 46.4521C5.11827 46.7301 5.32528 46.9741 5.60428 46.9961Z" fill="#136296"/>
<path d="M12.0873 26.703C12.1713 26.756 12.2643 26.781 12.3573 26.781C12.5253 26.781 12.6893 26.698 12.7853 26.545C13.4133 25.55 14.0903 24.569 14.7973 23.627C14.9643 23.404 14.9193 23.087 14.6963 22.919C14.4723 22.751 14.1553 22.796 13.9883 23.02C13.2653 23.983 12.5733 24.987 11.9303 26.005C11.7803 26.241 11.8513 26.553 12.0873 26.703Z" fill="#136296"/>
<path d="M93.4091 42.854C93.5991 44.015 93.7441 45.198 93.8401 46.37C93.8621 46.635 94.0831 46.835 94.3441 46.835C94.3581 46.835 94.3721 46.835 94.3861 46.833C94.6641 46.81 94.8711 46.566 94.8491 46.288C94.7511 45.089 94.6021 43.879 94.4081 42.691C94.3631 42.415 94.1031 42.229 93.8271 42.274C93.5501 42.318 93.3641 42.578 93.4091 42.854Z" fill="#136296"/>
<path d="M82.8692 20.7722C82.9692 20.8842 83.1072 20.9422 83.2472 20.9422C83.3662 20.9422 83.4872 20.9002 83.5832 20.8142C83.7912 20.6282 83.8102 20.3092 83.6242 20.1002C82.8262 19.2022 81.9792 18.3242 81.1092 17.4912C80.9082 17.2992 80.5882 17.3052 80.3942 17.5072C80.2012 17.7092 80.2082 18.0292 80.4102 18.2222C81.2612 19.0362 82.0882 19.8942 82.8692 20.7722Z" fill="#136296"/>
<path d="M90.4425 32.6761C90.5245 32.8681 90.7115 32.9831 90.9075 32.9831C90.9745 32.9831 91.0415 32.9701 91.1065 32.9421C91.3625 32.8321 91.4815 32.5341 91.3715 32.2781C90.8985 31.1751 90.3735 30.0751 89.8095 29.0101C89.6795 28.7631 89.3735 28.6681 89.1265 28.7991C88.8795 28.9301 88.7855 29.2361 88.9165 29.4831C89.4665 30.5231 89.9795 31.5981 90.4425 32.6761Z" fill="#136296"/>
<path d="M87.1357 26.42C87.2317 26.571 87.3957 26.654 87.5627 26.654C87.6557 26.654 87.7497 26.629 87.8337 26.575C88.0697 26.425 88.1387 26.112 87.9887 25.877C87.3427 24.863 86.6477 23.862 85.9227 22.901C85.7547 22.678 85.4367 22.634 85.2147 22.802C84.9917 22.97 84.9477 23.288 85.1157 23.511C85.8257 24.45 86.5047 25.429 87.1357 26.42Z" fill="#136296"/>
<path d="M77.7559 15.876C77.8499 15.952 77.9619 15.989 78.0739 15.989C78.2209 15.989 78.3669 15.925 78.4669 15.803C78.6429 15.586 78.6109 15.268 78.3939 15.091C77.4589 14.33 76.4829 13.598 75.4939 12.917C75.2629 12.758 74.9489 12.817 74.7909 13.047C74.6319 13.277 74.6899 13.592 74.9199 13.751C75.8869 14.416 76.8409 15.131 77.7559 15.876Z" fill="#136296"/>
<path d="M92.6953 39.384C92.7523 39.614 92.9593 39.768 93.1853 39.768C93.2253 39.768 93.2663 39.763 93.3073 39.753C93.5783 39.686 93.7433 39.411 93.6763 39.14C93.3853 37.97 93.0443 36.799 92.6623 35.661C92.5733 35.396 92.2863 35.254 92.0223 35.343C91.7573 35.432 91.6153 35.719 91.7043 35.983C92.0773 37.096 92.4113 38.24 92.6953 39.384Z" fill="#136296"/>
<path d="M55.2239 6.31912C56.3919 6.45712 57.5679 6.64512 58.7209 6.87612C58.7549 6.88312 58.7879 6.88612 58.8209 6.88612C59.0569 6.88612 59.2679 6.72012 59.3159 6.48012C59.3709 6.20612 59.1939 5.93912 58.9199 5.88412C57.7399 5.64712 56.5369 5.45512 55.3419 5.31412C55.0619 5.28112 54.8139 5.48012 54.7809 5.75712C54.7479 6.03512 54.9459 6.28612 55.2239 6.31912Z" fill="#136296"/>
<path d="M48.1275 6.05107C48.1345 6.05107 48.1415 6.05107 48.1485 6.05107C48.7595 6.02607 49.3765 6.01307 49.9825 6.01307C50.5575 6.02907 51.1245 6.02407 51.6915 6.04507C51.9855 6.05207 52.2055 5.83807 52.2155 5.55807C52.2265 5.27907 52.0085 5.04407 51.7295 5.03307C51.1555 5.01207 50.5795 5.00107 49.9995 5.00107C49.3755 4.99707 48.7375 5.01407 48.1075 5.04007C47.8285 5.05107 47.6115 5.28707 47.6235 5.56607C47.6345 5.83807 47.8585 6.05107 48.1275 6.05107Z" fill="#136296"/>
<path d="M62.1593 7.715C63.2893 8.039 64.4203 8.414 65.5213 8.83C65.5803 8.852 65.6403 8.863 65.6993 8.863C65.9033 8.863 66.0953 8.738 66.1723 8.536C66.2713 8.275 66.1393 7.983 65.8773 7.884C64.7523 7.459 63.5953 7.075 62.4383 6.743C62.1703 6.665 61.8903 6.821 61.8123 7.09C61.7363 7.358 61.8913 7.638 62.1593 7.715Z" fill="#136296"/>
<path d="M68.7839 10.2141C69.8459 10.7161 70.9019 11.2691 71.9239 11.8581C72.0029 11.9041 72.0899 11.9251 72.1759 11.9251C72.3509 11.9251 72.5209 11.8341 72.6139 11.6721C72.7539 11.4301 72.6699 11.1211 72.4279 10.9811C71.3829 10.3791 70.3019 9.81306 69.2159 9.30006C68.9619 9.18006 68.6619 9.28906 68.5419 9.54106C68.4239 9.79306 68.5319 10.0951 68.7839 10.2141Z" fill="#136296"/>
<path d="M34.1492 8.91908C34.2092 8.91908 34.2702 8.90808 34.3292 8.88608C35.4272 8.46708 36.5562 8.08808 37.6862 7.75908C37.9542 7.68108 38.1082 7.40008 38.0301 7.13208C37.9521 6.86408 37.6712 6.70808 37.4032 6.78808C36.2472 7.12408 35.0912 7.51208 33.9682 7.94108C33.7072 8.04108 33.5761 8.33308 33.6761 8.59408C33.7541 8.79508 33.9462 8.91908 34.1492 8.91908Z" fill="#136296"/>
<path d="M62.2601 92.2912C61.1301 92.6182 59.9731 92.9042 58.8211 93.1382C58.5471 93.1942 58.3711 93.4612 58.4261 93.7342C58.4741 93.9742 58.6851 94.1392 58.9211 94.1392C58.9551 94.1392 58.9881 94.1362 59.0221 94.1292C60.2001 93.8892 61.3841 93.5982 62.5411 93.2632C62.8091 93.1852 62.9641 92.9052 62.8861 92.6362C62.8091 92.3682 62.5291 92.2132 62.2601 92.2912Z" fill="#136296"/>
<path d="M74.997 86.232C74.027 86.903 73.02 87.541 72.006 88.128C71.765 88.268 71.682 88.577 71.822 88.819C71.916 88.981 72.085 89.071 72.26 89.071C72.346 89.071 72.433 89.049 72.513 89.003C73.551 88.402 74.58 87.749 75.572 87.063C75.802 86.904 75.859 86.589 75.7 86.359C75.542 86.13 75.226 86.073 74.997 86.232Z" fill="#136296"/>
<path d="M85.1719 76.4501C84.4649 77.3901 83.7099 78.3131 82.9299 79.1941C82.7449 79.4031 82.7639 79.7231 82.9729 79.9081C83.0689 79.9931 83.1889 80.0351 83.3079 80.0351C83.4469 80.0351 83.5859 79.9771 83.6859 79.8651C84.4839 78.9641 85.2559 78.0201 85.9789 77.0581C86.1469 76.8351 86.1019 76.5181 85.8789 76.3501C85.6559 76.1821 85.3399 76.2281 85.1719 76.4501Z" fill="#136296"/>
<path d="M68.874 89.7782C67.812 90.2832 66.717 90.7512 65.619 91.1682C65.358 91.2672 65.227 91.5592 65.326 91.8212C65.403 92.0232 65.595 92.1472 65.799 92.1472C65.859 92.1472 65.919 92.1362 65.979 92.1142C67.102 91.6872 68.222 91.2092 69.309 90.6912C69.561 90.5712 69.668 90.2692 69.548 90.0172C69.428 89.7652 69.127 89.6572 68.874 89.7782Z" fill="#136296"/>
<path d="M80.4753 81.7501C79.6273 82.5651 78.7353 83.3561 77.8243 84.1011C77.6083 84.2781 77.5763 84.5961 77.7523 84.8131C77.8523 84.9351 77.9973 84.9991 78.1443 84.9991C78.2573 84.9991 78.3703 84.9621 78.4633 84.8851C79.3943 84.1231 80.3063 83.3141 81.1743 82.4801C81.3753 82.2861 81.3823 81.9661 81.1883 81.7651C80.9963 81.5631 80.6763 81.5571 80.4753 81.7501Z" fill="#136296"/>
<path d="M94.0059 56.6561C93.7289 56.6101 93.4709 56.7991 93.4259 57.0751C93.2389 58.2391 93.0019 59.4071 92.7219 60.5471C92.6549 60.8181 92.8209 61.0921 93.0919 61.1591C93.1319 61.1691 93.1729 61.1741 93.2129 61.1741C93.4399 61.1741 93.6469 61.0201 93.7029 60.7891C93.9899 59.6231 94.2319 58.4281 94.4239 57.2371C94.4689 56.9601 94.2819 56.7001 94.0059 56.6561Z" fill="#136296"/>
<path d="M94.4933 49.4031C94.2143 49.4031 93.9873 49.6291 93.9873 49.9091V50.0171C93.9873 51.1961 93.9403 52.3861 93.8473 53.5571C93.8253 53.8351 94.0333 54.0791 94.3113 54.1011C94.3243 54.1021 94.3383 54.1021 94.3513 54.1021C94.6123 54.1021 94.8333 53.9011 94.8553 53.6361C94.9513 52.4411 94.9993 51.2231 94.9993 50.0171V49.9091C94.9993 49.6301 94.7733 49.4031 94.4933 49.4031Z" fill="#136296"/>
<path d="M7.29181 60.599C7.01081 59.46 6.77281 58.292 6.58281 57.128C6.53781 56.853 6.27881 56.663 6.00281 56.71C5.72681 56.755 5.53981 57.015 5.58481 57.29C5.77881 58.481 6.02281 59.675 6.30981 60.841C6.36681 61.071 6.57281 61.226 6.79981 61.226C6.83981 61.226 6.88081 61.221 6.92081 61.211C7.19281 61.144 7.35881 60.87 7.29181 60.599Z" fill="#136296"/>
<path d="M92.3782 63.6301C92.1112 63.5411 91.8272 63.6851 91.7392 63.9501C91.3672 65.0651 90.9442 66.1811 90.4822 67.2651C90.3722 67.5221 90.4922 67.8191 90.7492 67.9291C90.8142 67.9571 90.8812 67.9701 90.9472 67.9701C91.1432 67.9701 91.3302 67.8551 91.4122 67.6621C91.8852 66.5531 92.3182 65.4121 92.6982 64.2701C92.7852 64.0051 92.6422 63.7181 92.3782 63.6301Z" fill="#136296"/>
<path d="M89.6431 70.254C89.3971 70.124 89.0901 70.219 88.9601 70.466C88.4131 71.507 87.8161 72.539 87.1861 73.534C87.0361 73.77 87.1071 74.083 87.3431 74.232C87.4271 74.285 87.5211 74.311 87.6131 74.311C87.7801 74.311 87.9441 74.228 88.0411 74.076C88.6851 73.058 89.2961 72.002 89.8561 70.937C89.9851 70.69 89.8901 70.385 89.6431 70.254Z" fill="#136296"/>
<path d="M14.8514 76.4812C14.6834 76.2592 14.3674 76.2132 14.1424 76.3822C13.9194 76.5502 13.8754 76.8672 14.0434 77.0902C14.7684 78.0522 15.5414 78.9952 16.3384 79.8942C16.4384 80.0072 16.5774 80.0642 16.7164 80.0642C16.8354 80.0642 16.9554 80.0222 17.0524 79.9362C17.2614 79.7512 17.2804 79.4312 17.0944 79.2222C16.3144 78.3442 15.5594 77.4222 14.8514 76.4812Z" fill="#136296"/>
<path d="M11.0607 70.5051C10.9297 70.2581 10.6247 70.1641 10.3777 70.2931C10.1307 70.4231 10.0357 70.7291 10.1657 70.9761C10.7257 72.0391 11.3367 73.0931 11.9817 74.1101C12.0777 74.2621 12.2417 74.3451 12.4097 74.3451C12.5027 74.3451 12.5967 74.3201 12.6807 74.2661C12.9167 74.1161 12.9867 73.8041 12.8367 73.5681C12.2047 72.5751 11.6077 71.5441 11.0607 70.5051Z" fill="#136296"/>
<path d="M19.5514 81.776C19.3494 81.583 19.0294 81.589 18.8364 81.791C18.6424 81.993 18.6494 82.313 18.8514 82.506C19.7204 83.339 20.6334 84.148 21.5644 84.909C21.6584 84.986 21.7714 85.023 21.8834 85.023C22.0304 85.023 22.1754 84.96 22.2754 84.837C22.4524 84.621 22.4204 84.302 22.2034 84.125C21.2934 83.381 20.4004 82.591 19.5514 81.776Z" fill="#136296"/>
<path d="M8.27841 64.0011C8.18941 63.7361 7.90341 63.5941 7.63841 63.6821C7.37341 63.7711 7.23041 64.0571 7.31941 64.3221C7.70141 65.4621 8.13441 66.6011 8.60741 67.7071C8.68941 67.8991 8.87641 68.0141 9.07241 68.0141C9.13941 68.0141 9.20641 68.0011 9.27141 67.9731C9.52841 67.8631 9.64741 67.5661 9.53741 67.3091C9.07541 66.2281 8.65141 65.1151 8.27841 64.0011Z" fill="#136296"/>
<path d="M55.3269 93.7031C54.1629 93.8431 52.9759 93.9391 51.7979 93.9871C51.5189 93.9981 51.3019 94.2341 51.3129 94.5131C51.3239 94.7851 51.5479 94.9981 51.8179 94.9981C51.8249 94.9981 51.8319 94.9981 51.8389 94.9981C53.0439 94.9491 54.2589 94.8521 55.4489 94.7081C55.7259 94.6751 55.9239 94.423 55.8899 94.145C55.8559 93.868 55.6079 93.6701 55.3269 93.7031Z" fill="#136296"/>
<path d="M48.2538 93.989C47.0778 93.943 45.8898 93.849 44.7238 93.71C44.4448 93.679 44.1948 93.875 44.1618 94.152C44.1288 94.429 44.3268 94.681 44.6038 94.714C45.7958 94.857 47.0108 94.952 48.2138 94.999C48.2208 94.999 48.2268 94.999 48.2338 94.999C48.5038 94.999 48.7278 94.785 48.7388 94.513C48.7498 94.235 48.5328 94 48.2538 93.989Z" fill="#136296"/>
<path d="M41.2267 93.148C40.0737 92.914 38.9167 92.631 37.7867 92.305C37.5167 92.229 37.2377 92.383 37.1607 92.651C37.0827 92.919 37.2387 93.2 37.5067 93.277C38.6617 93.61 39.8457 93.9 41.0267 94.139C41.0607 94.146 41.0947 94.149 41.1277 94.149C41.3637 94.149 41.5737 93.984 41.6227 93.743C41.6777 93.47 41.5007 93.203 41.2267 93.148Z" fill="#136296"/>
<path d="M34.4273 91.1861C33.3293 90.7701 32.2323 90.3031 31.1673 89.7971C30.9143 89.6771 30.6133 89.7851 30.4943 90.0371C30.3743 90.2891 30.4823 90.5911 30.7343 90.7111C31.8243 91.2281 32.9463 91.7061 34.0703 92.1321C34.1293 92.1541 34.1893 92.1651 34.2493 92.1651C34.4533 92.1651 34.6453 92.0401 34.7223 91.8381C34.8203 91.5771 34.6883 91.2851 34.4273 91.1861Z" fill="#136296"/>
<path d="M28.0305 88.15C27.0145 87.563 26.0065 86.926 25.0355 86.255C24.8045 86.096 24.4905 86.154 24.3315 86.384C24.1735 86.614 24.2305 86.929 24.4605 87.088C25.4535 87.774 26.4845 88.426 27.5245 89.026C27.6035 89.072 27.6905 89.094 27.7765 89.094C27.9515 89.094 28.1215 89.003 28.2145 88.841C28.3555 88.599 28.2725 88.289 28.0305 88.15Z" fill="#136296"/>
<defs>
<linearGradient id="paint0_linear_419_2735" x1="45.5294" y1="-0.134937" x2="97.4762" y2="82.906" gradientUnits="userSpaceOnUse">
<stop stop-color="#6B3C92"/>
<stop offset="0.510417" stop-color="#5D82C1"/>
<stop offset="1" stop-color="#4FC8F1"/>
</linearGradient>
<linearGradient id="paint1_linear_419_2735" x1="47.7938" y1="-0.134937" x2="103.975" y2="44.1832" gradientUnits="userSpaceOnUse">
<stop stop-color="#6B3C92"/>
<stop offset="0.510417" stop-color="#5D82C1"/>
<stop offset="1" stop-color="#4FC8F1"/>
</linearGradient>
</defs>
</svg>
