<svg width="100" height="100" viewBox="0 0 100 100" fill="none" xmlns="http://www.w3.org/2000/svg">
<g clip-path="url(#clip0_419_2782)">
<path d="M98.1781 38.0547C96.0631 38.1157 93.3838 38.3844 90.377 39.1694C86.9025 40.076 84.1184 41.3774 82.0977 42.5129C83.0348 34.7858 83.0529 32.6416 83.0529 32.6416C83.0906 28.236 82.1975 24.9145 81.6203 22.7704C78.7498 12.1006 71.0852 4.32505 68.5647 1.91333C66.0727 4.09868 62.9709 7.277 60.126 11.6254C56.4523 17.2426 54.6697 22.576 53.7572 26.2731C53.6926 26.2059 48.1383 19.5063 42.1346 14.9688C38.0404 11.8754 34.4414 10.3178 31.1486 8.9186C25.9076 6.69165 16.4994 3.50728 3.49629 3.34946C3.64395 16.3874 6.83574 25.8182 9.06641 31.0684C10.4656 34.3606 12.0229 37.96 15.1164 42.054C19.6541 48.0577 26.3535 53.6122 26.4207 53.677C22.7236 54.5893 17.39 56.3715 11.7727 60.0456C7.42422 62.8903 4.2459 65.9918 2.06055 68.4838C4.47266 71.0045 12.2479 78.6694 22.9178 81.5395C25.0623 82.1165 28.3832 83.0096 32.7891 82.9725C32.7891 82.9725 34.9336 82.9545 42.6604 82.0172C41.5244 84.0378 40.2234 86.8223 39.3168 90.2963C38.5318 93.3034 38.2633 95.9827 38.2021 98.0979C41.1834 98.134 50.9195 97.8694 58.5818 90.7737C62.801 86.867 64.7426 82.4157 65.5871 80.4249C67.2166 76.5852 67.667 73.3147 68.0803 67.9274C73.4242 67.5157 76.6822 67.062 80.5049 65.4399C82.4953 64.5952 86.9465 62.6534 90.8537 58.4342C97.9498 50.7719 98.2145 41.0366 98.1781 38.0547Z" fill="#FFD92D"/>
<path d="M47.1684 91.5759C47.2326 89.3376 47.5172 86.5023 48.3477 83.3204C49.3068 79.6442 50.6838 76.6976 51.8857 74.5597C43.7094 75.5515 41.44 75.5706 41.44 75.5706C36.7775 75.6101 33.2637 74.6648 30.9943 74.0542C20.934 71.348 13.3096 64.6171 9.96074 61.2944C6.52813 63.7755 3.92988 66.3526 2.06055 68.4839C4.47266 71.0046 12.2479 78.6694 22.9178 81.5396C25.0623 82.1165 28.3832 83.0097 32.7891 82.9726C32.7891 82.9726 34.9336 82.9546 42.6604 82.0173C41.5244 84.0378 40.2234 86.8224 39.3168 90.2964C38.5318 93.3034 38.2633 95.9827 38.2021 98.0979C41.1834 98.1341 50.9195 97.8694 58.5818 90.7737C59.1301 90.2661 59.6379 89.7491 60.1119 89.2298C54.4729 91.4849 49.2559 91.6011 47.1684 91.5759Z" fill="#FFE571"/>
<path d="M90.3773 39.1695C86.9029 40.0762 84.1182 41.3771 82.0975 42.5127C83.0346 34.7863 83.0527 32.6416 83.0527 32.6416C83.0898 28.2357 82.1975 24.9145 81.6205 22.7703C78.75 12.1006 71.0854 4.325 68.5643 1.91309C66.0723 4.09844 62.9711 7.27656 60.1256 11.6252C56.452 17.2426 54.6693 22.5762 53.7574 26.2729C53.6926 26.2057 48.1385 19.5066 42.1348 14.9688C38.0406 11.8752 34.441 10.318 31.1488 8.91875C25.9088 6.69258 16.4982 3.51406 3.5 3.35469C3.64922 16.3875 6.83652 25.8195 9.06719 31.0684C9.425 31.9131 9.79805 32.7789 10.2 33.6668C9.98672 31.6936 9.83711 29.6147 9.81191 27.3797C9.8125 27.3811 9.81172 27.3803 9.81191 27.3797C20.5164 27.5111 28.2664 30.1287 32.5828 31.9623C35.2939 33.1148 38.2576 34.3973 41.6291 36.9449C43.2195 38.1467 44.7713 39.5328 46.1469 40.8621C48.4363 43.0742 52.233 42.3844 53.5438 39.483C54.3037 37.8006 55.2541 36.0143 56.4467 34.1914C57.5486 32.5064 58.6975 31.035 59.8189 29.7615C61.7061 27.6191 65.05 27.7305 66.8744 29.9266C69.4818 33.0654 72.6293 37.7258 74.1473 43.3695C74.6231 45.1357 75.358 47.8707 75.3279 51.4992C75.3279 51.4992 75.3264 51.6807 75.2986 52.1365C75.1035 55.3725 78.1389 57.7264 81.2729 56.8973C81.3016 56.8898 81.3299 56.8822 81.3586 56.8752C83.8357 56.2285 86.0414 56.0076 87.7838 55.957C87.7967 57.0137 87.7332 59.1273 87.2266 61.6644C88.4307 60.7691 89.6654 59.7184 90.8543 58.4346C97.95 50.7723 98.2147 41.0367 98.1783 38.0549C96.0635 38.116 93.3844 38.3846 90.3773 39.1695Z" fill="#FFA81E"/>
<path d="M16.4179 69.9789C16.0521 69.9645 15.6869 69.8446 15.3695 69.6123C15.2783 69.5455 14.7564 69.142 14.5449 68.51C14.6568 68.8946 14.8802 69.2268 15.1511 69.4452L15.0877 69.3953C14.2551 68.7512 14.1019 67.5541 14.7463 66.7211C15.3904 65.8885 16.5879 65.7356 17.4205 66.3797C17.4599 66.4102 17.4978 66.4411 17.5336 66.4717L17.6207 66.5356C18.4705 67.1577 18.6553 68.3504 18.0332 69.1998C17.6443 69.7317 17.0308 70.0032 16.4179 69.9789Z" fill="url(#paint0_linear_419_2782)"/>
<path d="M33.8774 76.8022C33.8409 76.8007 33.8038 76.7983 33.7669 76.7946C28.393 76.2724 24.5858 74.8235 19.8258 72.4978C18.8798 72.0354 18.4876 70.8938 18.9499 69.9481C19.4122 69.0021 20.5538 68.6101 21.4995 69.072C25.9725 71.2573 29.311 72.5308 34.1358 73.0001C35.1839 73.1019 35.9506 74.0341 35.8487 75.0821C35.7505 76.0925 34.8796 76.8421 33.8774 76.8022Z" fill="url(#paint1_linear_419_2782)"/>
<path d="M27.2858 9.46567C28.2655 9.83344 29.2452 10.2262 30.2811 10.6664C30.5247 10.77 30.7772 10.819 31.0261 10.819C31.7677 10.819 32.4729 10.3832 32.7811 9.65786C33.1929 8.68872 32.7413 7.56918 31.7724 7.15766C30.686 6.69614 29.6567 6.28344 28.6257 5.89633C27.6401 5.52621 26.5411 6.02543 26.171 7.01118C25.8009 7.99711 26.3001 9.09555 27.2858 9.46567Z" fill="url(#paint2_linear_419_2782)"/>
<path d="M72.9133 69.3478C75.8473 68.9564 78.3813 68.3537 81.1281 67.188C82.9705 66.4068 87.8639 64.3314 92.1318 59.7228C99.0832 52.2164 100.022 42.9066 99.9631 38.025C99.9572 37.5138 99.7461 37.0267 99.3772 36.673C99.0086 36.3191 98.5178 36.1322 98.002 36.1425C95.2246 36.2224 92.4563 36.6179 89.7738 37.3181C87.894 37.8087 86.0545 38.4488 84.2744 39.2306C84.8168 34.2855 84.8367 32.7267 84.8375 32.6507C84.877 27.9796 83.9141 24.4041 83.3389 22.2679C80.5815 12.0168 73.6479 4.24761 69.7604 0.528669C69.0461 -0.154339 67.9287 -0.178363 67.1856 0.473005C63.8106 3.43316 60.8574 6.83179 58.4088 10.5748C56.0035 14.2531 54.1096 18.216 52.7576 22.3935C50.4469 19.8744 46.8941 16.2607 43.1629 13.4404C42.3227 12.8056 41.1272 12.9716 40.4926 13.8117C39.8578 14.6517 40.0238 15.8472 40.8639 16.482C45.9643 20.3375 50.7688 25.8332 52.1197 27.4259C52.2043 27.5257 52.2545 27.5795 52.2629 27.588C52.7445 28.0882 53.4604 28.2869 54.1303 28.1068C54.801 27.9269 55.3205 27.3966 55.4869 26.7226C56.7268 21.699 58.7836 16.9683 61.6002 12.6617C63.5367 9.70152 65.8154 6.97437 68.3889 4.53511C72.0725 8.3107 77.4143 14.9175 79.6582 23.2587C80.2166 25.3332 81.061 28.4679 81.0258 32.613C81.0256 32.6343 80.9856 34.8486 80.0846 42.2765C79.9979 42.9898 80.3199 43.6908 80.9168 44.0906C81.5137 44.4904 82.2846 44.5199 82.9111 44.1681C85.3768 42.7826 88.0102 41.7189 90.7379 41.0072C92.4969 40.5478 94.2971 40.2353 96.1119 40.072C95.8776 44.6263 94.5498 51.5015 89.3356 57.1324C85.6235 61.1408 81.2768 62.9841 79.6401 63.6783C76.6488 64.9476 74.0326 65.4529 70.0244 65.8312C70.0412 65.5931 70.058 65.3525 70.0752 65.1078C70.2926 62.0099 70.3258 56.2242 70.3154 51.9162C70.309 49.2304 70.2852 46.9246 70.2715 45.7894C70.2621 44.9931 70.2524 44.3445 70.2447 43.8945C70.2408 43.6886 70.2379 43.4949 70.2272 43.3115C70.2272 43.2927 70.2272 43.2839 70.2272 43.2808C70.2272 43.2892 70.227 43.2974 70.2266 43.306C70.185 42.6017 70.0336 42.0578 69.3445 41.6199C68.7541 41.2445 68.0047 41.2228 67.3938 41.5636C66.4045 42.115 66.4113 43.0269 66.4154 43.5718C66.417 43.797 66.4207 44.1412 66.4266 44.6185C66.4276 44.7029 66.434 44.7861 66.4457 44.8673C66.4961 48.5023 66.5766 57.6677 66.3691 62.9668L60.4102 57.1568C59.6563 56.4216 58.4492 56.4369 57.7147 57.1912C56.9795 57.9449 56.9951 59.1519 57.749 59.8867L64.2967 66.2709C59.3766 66.5582 48.8037 66.4671 44.8334 66.4123C44.7522 66.4005 44.6691 66.3943 44.5848 66.3931C44.1074 66.3873 43.7633 66.3836 43.5381 66.382C42.9889 66.3793 42.0811 66.3716 41.5299 67.3603C41.1891 67.9714 41.2106 68.7205 41.5861 69.3111C42.024 70.0002 42.5684 70.1513 43.2723 70.1931C43.2502 70.1937 43.2467 70.1937 43.2783 70.1937C43.4615 70.2045 43.6553 70.2078 43.8609 70.2113C44.3111 70.2189 44.9596 70.2285 45.7559 70.238C46.8912 70.2517 49.1967 70.2753 51.8826 70.282C52.3238 70.283 52.7799 70.2837 53.2479 70.2837C57.3473 70.2837 62.2938 70.2371 65.0742 70.0419C65.3443 70.0232 65.6092 70.0043 65.8715 69.9861C65.4928 74.0351 64.9887 76.6654 63.7123 79.6742C63.018 81.3109 61.1733 85.6588 57.1662 89.3691C51.5354 94.5837 44.6606 95.9115 40.1063 96.146C40.2693 94.3296 40.5824 92.5293 41.0412 90.772C41.7539 88.0427 42.8172 85.4091 44.2022 82.9453C44.5541 82.3189 44.5242 81.548 44.1246 80.9509C43.725 80.3537 43.0227 80.032 42.3106 80.1187C34.8824 81.0197 32.6688 81.0599 32.6529 81.0601C28.4961 81.0972 25.3684 80.2507 23.2926 79.6923C14.9527 77.4488 8.34552 72.1068 4.56954 68.423C7.00899 65.85 9.73575 63.5712 12.6965 61.6343C17.0025 58.8181 21.7336 56.7613 26.7572 55.5212C27.4305 55.3552 27.9606 54.8365 28.141 54.1668C28.3217 53.4968 28.1242 52.782 27.6256 52.2998C27.617 52.2916 27.5617 52.24 27.4594 52.1529C25.8662 50.8011 20.369 45.9943 16.5174 40.8984C13.5018 36.9072 12.0137 33.4056 10.7004 30.3166C7.43321 22.6277 5.62696 14.1699 5.32149 5.14957C9.3127 5.29195 13.2346 5.74937 17.0065 6.51402C18.0381 6.72222 19.0447 6.05621 19.2537 5.02457C19.4629 3.99254 18.7959 2.98648 17.7643 2.7773C13.1365 1.83922 8.30098 1.33941 3.39044 1.29215C2.88282 1.29742 2.38614 1.48804 2.02423 1.85035C1.66212 2.21246 1.46094 2.70465 1.46583 3.21675C1.56446 13.4794 3.49044 23.099 7.19024 31.8072C8.52012 34.9365 10.175 38.8304 13.4742 43.1966C16.2928 46.9261 19.9078 50.4802 22.4272 52.7916C18.249 54.1435 14.2861 56.0377 10.608 58.4429C6.86427 60.8919 3.46563 63.8447 0.506257 67.2195C-0.145111 67.9625 -0.121283 69.08 0.562116 69.7943C4.28126 73.682 12.0514 80.6158 22.3008 83.373C24.4385 83.9484 28.0275 84.9107 32.684 84.8716C32.7602 84.8709 34.3186 84.8507 39.2637 84.3086C38.4822 86.0875 37.842 87.9267 37.3512 89.8074C36.6518 92.4873 36.2563 95.2554 36.1756 98.0355C36.1609 98.5464 36.3518 99.0418 36.7059 99.4107C37.06 99.7794 37.5473 99.9908 38.058 99.9968C38.193 99.9986 38.3307 99.9996 38.4723 99.9996C43.4524 99.9994 52.4572 98.9246 59.7557 92.1652C64.3627 87.8998 66.4393 83.0048 67.2211 81.1623C68.5854 77.9468 69.1783 75.0226 69.5641 71.4068L92.9006 94.1599C93.2711 94.5214 93.7514 94.7013 94.2311 94.7013C94.727 94.7013 95.2227 94.5089 95.5963 94.1255C96.3315 93.3718 96.3158 92.1648 95.5619 91.43L72.9133 69.3478Z" fill="url(#paint3_linear_419_2782)"/>
<path d="M46.8244 48.4795C47.3203 48.4795 47.816 48.2871 48.1896 47.9037C48.9248 47.1498 48.9091 45.943 48.1552 45.2082L42.9146 40.0985C42.1607 39.3631 40.9539 39.3786 40.2191 40.1328C39.4839 40.8868 39.4996 42.0936 40.2535 42.8284L45.4941 47.9381C45.8642 48.2994 46.3445 48.4795 46.8244 48.4795Z" fill="url(#paint4_linear_419_2782)"/>
</g>
<defs>
<linearGradient id="paint0_linear_419_2782" x1="16.1398" y1="65.3834" x2="18.8136" y2="69.7177" gradientUnits="userSpaceOnUse">
<stop stop-color="#6B3C92"/>
<stop offset="0.510417" stop-color="#5D82C1"/>
<stop offset="1" stop-color="#4FC8F1"/>
</linearGradient>
<linearGradient id="paint1_linear_419_2782" x1="26.3163" y1="67.6934" x2="29.4865" y2="78.6333" gradientUnits="userSpaceOnUse">
<stop stop-color="#6B3C92"/>
<stop offset="0.510417" stop-color="#5D82C1"/>
<stop offset="1" stop-color="#4FC8F1"/>
</linearGradient>
<linearGradient id="paint2_linear_419_2782" x1="29.0924" y1="5.02005" x2="31.9509" y2="11.2585" gradientUnits="userSpaceOnUse">
<stop stop-color="#6B3C92"/>
<stop offset="0.510417" stop-color="#5D82C1"/>
<stop offset="1" stop-color="#4FC8F1"/>
</linearGradient>
<linearGradient id="paint3_linear_419_2782" x1="44.2111" y1="-14.9484" x2="111.492" y2="92.5749" gradientUnits="userSpaceOnUse">
<stop stop-color="#6B3C92"/>
<stop offset="0.510417" stop-color="#5D82C1"/>
<stop offset="1" stop-color="#4FC8F1"/>
</linearGradient>
<linearGradient id="paint4_linear_419_2782" x1="43.68" y1="38.2231" x2="49.6429" y2="47.8986" gradientUnits="userSpaceOnUse">
<stop stop-color="#6B3C92"/>
<stop offset="0.510417" stop-color="#5D82C1"/>
<stop offset="1" stop-color="#4FC8F1"/>
</linearGradient>
<clipPath id="clip0_419_2782">
<rect width="100" height="100" fill="white"/>
</clipPath>
</defs>
</svg>
